%FSLAX46Y46*%
G04 Gerber Fmt 4.6, Leading zero omitted, Abs format (unit mm)*
G04 Created by KiCad (PCBNEW (2014-08-29 BZR 5106)-product) date Thu 20 Nov 2014 11:46:28 AM PST*
%MOMM*%
G01*
G04 APERTURE LIST*
%ADD10C,0.100000*%
%ADD11R,1.000760X0.800100*%
%ADD12R,0.398780X0.599440*%
%ADD13R,0.797560X0.797560*%
%ADD14C,1.524000*%
%ADD15R,1.727200X1.727200*%
%ADD16O,1.727200X1.727200*%
%ADD17R,0.508000X1.143000*%
%ADD18C,0.889000*%
%ADD19C,0.254000*%
G04 APERTURE END LIST*
D10*
D11*
X132250180Y-118110000D03*
X134449820Y-117157500D03*
X134449820Y-119062500D03*
D12*
X117289580Y-109220000D03*
X116390420Y-109220000D03*
X132900420Y-124460000D03*
X133799580Y-124460000D03*
X132900420Y-109220000D03*
X133799580Y-109220000D03*
X130360420Y-119380000D03*
X131259580Y-119380000D03*
X130360420Y-104140000D03*
X131259580Y-104140000D03*
X130360420Y-105410000D03*
X131259580Y-105410000D03*
X130360420Y-120650000D03*
X131259580Y-120650000D03*
D13*
X109207300Y-120904000D03*
X107708700Y-120904000D03*
D14*
X103505000Y-124460000D03*
X103505000Y-121920000D03*
X103505000Y-119380000D03*
X103505000Y-116840000D03*
X103505000Y-114300000D03*
X103505000Y-111760000D03*
X103505000Y-109220000D03*
X103505000Y-106680000D03*
X103505000Y-104140000D03*
X103505000Y-101600000D03*
D15*
X115570000Y-124460000D03*
D16*
X113030000Y-124460000D03*
X115570000Y-121920000D03*
X113030000Y-121920000D03*
X115570000Y-119380000D03*
X113030000Y-119380000D03*
D15*
X115570000Y-106680000D03*
D16*
X113030000Y-106680000D03*
X115570000Y-104140000D03*
X113030000Y-104140000D03*
X115570000Y-101600000D03*
X113030000Y-101600000D03*
D15*
X127000000Y-123190000D03*
D16*
X124460000Y-123190000D03*
X127000000Y-120650000D03*
X124460000Y-120650000D03*
X127000000Y-118110000D03*
X124460000Y-118110000D03*
D15*
X127000000Y-107950000D03*
D16*
X124460000Y-107950000D03*
X127000000Y-105410000D03*
X124460000Y-105410000D03*
X127000000Y-102870000D03*
X124460000Y-102870000D03*
D11*
X131909820Y-107950000D03*
X129710180Y-108902500D03*
X129710180Y-106997500D03*
X131909820Y-123190000D03*
X129710180Y-124142500D03*
X129710180Y-122237500D03*
D12*
X132900420Y-123190000D03*
X133799580Y-123190000D03*
X132011420Y-106680000D03*
X132910580Y-106680000D03*
X131259580Y-118110000D03*
X130360420Y-118110000D03*
X108907580Y-119126000D03*
X108008420Y-119126000D03*
X132900420Y-107950000D03*
X133799580Y-107950000D03*
X131259580Y-102870000D03*
X130360420Y-102870000D03*
X132011420Y-121920000D03*
X132910580Y-121920000D03*
D17*
X115570000Y-109728000D03*
X114300000Y-109728000D03*
X113030000Y-109728000D03*
X111760000Y-109728000D03*
X110490000Y-109728000D03*
X109220000Y-109728000D03*
X107950000Y-109728000D03*
X107950000Y-116078000D03*
X109220000Y-116078000D03*
X111760000Y-116078000D03*
X113030000Y-116078000D03*
X114300000Y-116078000D03*
X115570000Y-116078000D03*
X110490000Y-116078000D03*
D12*
X108399580Y-104140000D03*
X107500420Y-104140000D03*
X109405420Y-107950000D03*
X110304580Y-107950000D03*
D11*
X132250180Y-102870000D03*
X134449820Y-101917500D03*
X134449820Y-103822500D03*
D18*
X118491000Y-120650000D03*
X120269000Y-104521000D03*
X120269000Y-105410000D03*
X120269000Y-106299000D03*
X118491000Y-106299000D03*
X118491000Y-105410000D03*
X118491000Y-104521000D03*
X118491000Y-119761000D03*
X118491000Y-121539000D03*
X120269000Y-121539000D03*
X120269000Y-120650000D03*
X120269000Y-119761000D03*
X108966000Y-124333000D03*
X109474000Y-117856000D03*
X107569000Y-102743000D03*
X110236000Y-101600000D03*
X111379000Y-105664000D03*
X111125000Y-111379000D03*
X109093000Y-114173000D03*
X106680000Y-115951000D03*
X106553000Y-120904000D03*
X107823000Y-107188000D03*
X115824000Y-108331000D03*
X109220000Y-104140000D03*
X122174000Y-120650000D03*
X161290000Y-125730000D03*
X154940000Y-125730000D03*
X148590000Y-125730000D03*
X142240000Y-125730000D03*
X135890000Y-123190000D03*
X135890000Y-125730000D03*
X129540000Y-125730000D03*
X129540000Y-115570000D03*
X135890000Y-115570000D03*
X142240000Y-115570000D03*
X148590000Y-115570000D03*
X154940000Y-115570000D03*
X161290000Y-115570000D03*
X135890000Y-118745000D03*
X133477000Y-118110000D03*
X132842000Y-119824500D03*
X135636000Y-120650000D03*
X135890000Y-106680000D03*
X135890000Y-104140000D03*
X122174000Y-105410000D03*
X132715000Y-104584490D03*
X133449062Y-102870000D03*
X129540000Y-100330000D03*
X135890000Y-100330000D03*
X135890000Y-110490000D03*
X129540000Y-110490000D03*
X142494000Y-100076000D03*
X148590000Y-100076000D03*
X154686000Y-100076000D03*
X160782000Y-100076000D03*
X166878000Y-100076000D03*
X172974000Y-100076000D03*
X179070000Y-100076000D03*
X185166000Y-100076000D03*
X191262000Y-100076000D03*
X197358000Y-100076000D03*
X203454000Y-100076000D03*
X142494000Y-110744000D03*
X148590000Y-110744000D03*
X154686000Y-110744000D03*
X160782000Y-110744000D03*
X166878000Y-110744000D03*
X172974000Y-110744000D03*
X179070000Y-110744000D03*
X185166000Y-110744000D03*
X191262000Y-110744000D03*
X197358000Y-110744000D03*
X203454000Y-110744000D03*
X209550000Y-110744000D03*
X214630000Y-109220000D03*
X217424000Y-105410000D03*
X214630000Y-101600000D03*
X209550000Y-100076000D03*
X135636000Y-105410000D03*
X175260000Y-105410000D03*
X214884000Y-105410000D03*
X195072000Y-105410000D03*
X109220000Y-112522000D03*
X116205000Y-112522000D03*
X114300000Y-114300000D03*
X110490000Y-114554000D03*
X110490000Y-119126000D03*
D19*
X114935001Y-116966999D02*
X114935000Y-116966998D01*
X114935000Y-116966998D02*
X114935000Y-115201698D01*
X115062000Y-116078000D02*
X115062000Y-116205000D01*
X115062000Y-116205000D02*
X114935001Y-116331999D01*
X114935001Y-116331999D02*
X114935001Y-116966999D01*
X115570000Y-116078000D02*
X115062000Y-116078000D01*
X106553000Y-120904000D02*
X106553000Y-119396508D01*
X106553000Y-119396508D02*
X108093508Y-117856000D01*
X108093508Y-117856000D02*
X109474000Y-117856000D01*
X112432591Y-102895399D02*
X113627409Y-102895399D01*
X114972591Y-105384601D02*
X116167409Y-105384601D01*
X102361999Y-122468641D02*
X102361999Y-101051359D01*
X113627409Y-102895399D02*
X114274601Y-103542591D01*
X111379000Y-105664000D02*
X111379000Y-103948990D01*
X114325399Y-104737409D02*
X114972591Y-105384601D01*
X111379000Y-103948990D02*
X112432591Y-102895399D01*
X116167409Y-105384601D02*
X116554505Y-104997505D01*
X114274601Y-103542591D02*
X114325399Y-103542591D01*
X114325399Y-103542591D02*
X114325399Y-104737409D01*
X116554505Y-104997505D02*
X117348000Y-105791000D01*
X117348000Y-105791000D02*
X117348000Y-121984010D01*
X117348000Y-121984010D02*
X116167409Y-123164601D01*
X116167409Y-123164601D02*
X103057959Y-123164601D01*
X103057959Y-123164601D02*
X102361999Y-122468641D01*
X102361999Y-101051359D02*
X102956359Y-100456999D01*
X102956359Y-100456999D02*
X109092999Y-100456999D01*
X109092999Y-100456999D02*
X110236000Y-101600000D01*
X109093000Y-114173000D02*
X111125000Y-112141000D01*
X111125000Y-112141000D02*
X111125000Y-111379000D01*
X103505000Y-124460000D02*
X102361999Y-123316999D01*
X106680000Y-115783358D02*
X106680000Y-115951000D01*
X102361999Y-123316999D02*
X102361999Y-113497361D01*
X102702360Y-113157000D02*
X104053641Y-113156999D01*
X102361999Y-113497361D02*
X102702360Y-113157000D01*
X104053641Y-113156999D02*
X106680000Y-115783358D01*
X107708700Y-120904000D02*
X106553000Y-120904000D01*
X117094000Y-124460000D02*
X115570000Y-124460000D01*
X117094000Y-119380000D02*
X117094000Y-124460000D01*
X115570000Y-119380000D02*
X117094000Y-119380000D01*
X115570000Y-116078000D02*
X115570000Y-116903500D01*
X115570000Y-116903500D02*
X115570000Y-119380000D01*
X116967000Y-116078000D02*
X117289580Y-115755420D01*
X117289580Y-115755420D02*
X117289580Y-109220000D01*
X115570000Y-116078000D02*
X116967000Y-116078000D01*
X117289580Y-109220000D02*
X117289580Y-106875580D01*
X117289580Y-106875580D02*
X117094000Y-106680000D01*
X117094000Y-106680000D02*
X115570000Y-106680000D01*
X117094000Y-101600000D02*
X117094000Y-106680000D01*
X115570000Y-101600000D02*
X117094000Y-101600000D01*
X109405420Y-107950000D02*
X108585000Y-107950000D01*
X108585000Y-107950000D02*
X107823000Y-107188000D01*
X113030000Y-104140000D02*
X113030000Y-104160444D01*
X114325399Y-108165899D02*
X115570000Y-109410500D01*
X115570000Y-109410500D02*
X115570000Y-109728000D01*
X113030000Y-104160444D02*
X114325399Y-105455843D01*
X114325399Y-105455843D02*
X114325399Y-108165899D01*
X116390420Y-109220000D02*
X116390420Y-108897420D01*
X116390420Y-108897420D02*
X115824000Y-108331000D01*
X103505000Y-121920000D02*
X113030000Y-121920000D01*
X108399580Y-104140000D02*
X109220000Y-104140000D01*
X116390420Y-109220000D02*
X116263420Y-109347000D01*
X116263420Y-109347000D02*
X115570000Y-109347000D01*
X115570000Y-109347000D02*
X115570000Y-109728000D01*
X129540000Y-125730000D02*
X129095501Y-125285501D01*
X129095501Y-125285501D02*
X124713491Y-125285501D01*
X124713491Y-125285501D02*
X122174000Y-122746010D01*
X122174000Y-122746010D02*
X122174000Y-120650000D01*
X154940000Y-125730000D02*
X161290000Y-125730000D01*
X142240000Y-125730000D02*
X148590000Y-125730000D01*
X135890000Y-125730000D02*
X135890000Y-123190000D01*
X127000000Y-125730000D02*
X129540000Y-125730000D01*
X127000000Y-123190000D02*
X127000000Y-125730000D01*
X128270000Y-123190000D02*
X128270000Y-123571000D01*
X128270000Y-123571000D02*
X128651000Y-123952000D01*
X127000000Y-123190000D02*
X128270000Y-123190000D01*
X129710180Y-124142500D02*
X129519680Y-123952000D01*
X129519680Y-123952000D02*
X128651000Y-123952000D01*
X128651000Y-123952000D02*
X128524000Y-123825000D01*
X131508500Y-124142500D02*
X131826000Y-124460000D01*
X131826000Y-124460000D02*
X132900420Y-124460000D01*
X129710180Y-124142500D02*
X131508500Y-124142500D01*
X127000000Y-118110000D02*
X130360420Y-118110000D01*
X130360420Y-119380000D02*
X130360420Y-120650000D01*
X130360420Y-118110000D02*
X130360420Y-119380000D01*
X129540000Y-115570000D02*
X135890000Y-115570000D01*
X142240000Y-115570000D02*
X148590000Y-115570000D01*
X154940000Y-115570000D02*
X161290000Y-115570000D01*
X133286499Y-119380001D02*
X132842000Y-119824500D01*
X133477000Y-118110000D02*
X133477000Y-119189500D01*
X133477000Y-119189500D02*
X133286499Y-119380001D01*
X134493000Y-120650000D02*
X134493000Y-119105680D01*
X134493000Y-119105680D02*
X134449820Y-119062500D01*
X133799580Y-122636280D02*
X133799580Y-123190000D01*
X134493000Y-121942860D02*
X133799580Y-122636280D01*
X134493000Y-120650000D02*
X134493000Y-121942860D01*
X135636000Y-120650000D02*
X134493000Y-120650000D01*
X133799580Y-124460000D02*
X133799580Y-123190000D01*
X135890000Y-110490000D02*
X135890000Y-106680000D01*
X135890000Y-100330000D02*
X135890000Y-104140000D01*
X122174000Y-106038617D02*
X122174000Y-105410000D01*
X122174000Y-107506010D02*
X122174000Y-106038617D01*
X124522990Y-109855000D02*
X122174000Y-107506010D01*
X126212600Y-109855000D02*
X124522990Y-109855000D01*
X127000000Y-109067600D02*
X126212600Y-109855000D01*
X127000000Y-107950000D02*
X127000000Y-109067600D01*
X135890000Y-100330000D02*
X134451088Y-100330000D01*
X134451088Y-100330000D02*
X133449062Y-101332026D01*
X133449062Y-101332026D02*
X133449062Y-102870000D01*
X135890000Y-100330000D02*
X129540000Y-100330000D01*
X129710180Y-108902500D02*
X129710180Y-110319820D01*
X129710180Y-110319820D02*
X129540000Y-110490000D01*
X130360420Y-104140000D02*
X130360420Y-105410000D01*
X131699000Y-109220000D02*
X132900420Y-109220000D01*
X131699000Y-110109000D02*
X129753360Y-110109000D01*
X129753360Y-110109000D02*
X129710180Y-110065820D01*
X131699000Y-109220000D02*
X131699000Y-110109000D01*
X127000000Y-107950000D02*
X127000000Y-110109000D01*
X127000000Y-110109000D02*
X129667000Y-110109000D01*
X129667000Y-110109000D02*
X129710180Y-110065820D01*
X129710180Y-110065820D02*
X129710180Y-108902500D01*
X130360420Y-102870000D02*
X130360420Y-104140000D01*
X127000000Y-102870000D02*
X128221314Y-102870000D01*
X128221314Y-102870000D02*
X130360420Y-102870000D01*
X142303501Y-99885501D02*
X142494000Y-100076000D01*
X136334499Y-99885501D02*
X142303501Y-99885501D01*
X135890000Y-100330000D02*
X136334499Y-99885501D01*
X148590000Y-100076000D02*
X154686000Y-100076000D01*
X160782000Y-100076000D02*
X166878000Y-100076000D01*
X172974000Y-100076000D02*
X179070000Y-100076000D01*
X185166000Y-100076000D02*
X191262000Y-100076000D01*
X197358000Y-100076000D02*
X203454000Y-100076000D01*
X142303501Y-110934499D02*
X142494000Y-110744000D01*
X136334499Y-110934499D02*
X142303501Y-110934499D01*
X135890000Y-110490000D02*
X136334499Y-110934499D01*
X148590000Y-110744000D02*
X154686000Y-110744000D01*
X160782000Y-110744000D02*
X166878000Y-110744000D01*
X185166000Y-110744000D02*
X191262000Y-110744000D01*
X197358000Y-110744000D02*
X203454000Y-110744000D01*
X209550000Y-110744000D02*
X211582000Y-110744000D01*
X211582000Y-110744000D02*
X212090000Y-110236000D01*
X213614000Y-110236000D02*
X214630000Y-109220000D01*
X212090000Y-110236000D02*
X213614000Y-110236000D01*
X217424000Y-105410000D02*
X217424000Y-104648000D01*
X217424000Y-104648000D02*
X217170000Y-104394000D01*
X217170000Y-104394000D02*
X217170000Y-104013000D01*
X217170000Y-104013000D02*
X216662000Y-103505000D01*
X216535000Y-103505000D02*
X214630000Y-101600000D01*
X216662000Y-103505000D02*
X216535000Y-103505000D01*
X173602617Y-110744000D02*
X179070000Y-110744000D01*
X172974000Y-110744000D02*
X173602617Y-110744000D01*
X135636000Y-105410000D02*
X136906000Y-105410000D01*
X134449820Y-105372929D02*
X134449820Y-103822500D01*
X135007383Y-105410000D02*
X135636000Y-105410000D01*
X134486891Y-105410000D02*
X135007383Y-105410000D01*
X134449820Y-105372929D02*
X134486891Y-105410000D01*
X134449820Y-106723180D02*
X134449820Y-105372929D01*
X133799580Y-107950000D02*
X133799580Y-107373420D01*
X133799580Y-107373420D02*
X134449820Y-106723180D01*
X133799580Y-109220000D02*
X133799580Y-107950000D01*
X135636000Y-105410000D02*
X175260000Y-105410000D01*
X214884000Y-105410000D02*
X195072000Y-105410000D01*
X132250180Y-118110000D02*
X131259580Y-118110000D01*
X131259580Y-118110000D02*
X131259580Y-117556280D01*
X131259580Y-117556280D02*
X130568699Y-116865399D01*
X130568699Y-116865399D02*
X125704601Y-116865399D01*
X125323599Y-117246401D02*
X124460000Y-118110000D01*
X125704601Y-116865399D02*
X125323599Y-117246401D01*
X131259580Y-118110000D02*
X131259580Y-119380000D01*
X131259580Y-102870000D02*
X132250180Y-102870000D01*
X131259580Y-102870000D02*
X131259580Y-102316280D01*
X130568699Y-101625399D02*
X125704601Y-101625399D01*
X131259580Y-102316280D02*
X130568699Y-101625399D01*
X125704601Y-101625399D02*
X125323599Y-102006401D01*
X125323599Y-102006401D02*
X124460000Y-102870000D01*
X131259580Y-102870000D02*
X131259580Y-104140000D01*
X132011420Y-106680000D02*
X131884420Y-106553000D01*
X131884420Y-106553000D02*
X131572000Y-106553000D01*
X131572000Y-106553000D02*
X131191000Y-106172000D01*
X131051300Y-106172000D02*
X131191000Y-106172000D01*
X131191000Y-106172000D02*
X131191000Y-105478580D01*
X131191000Y-105478580D02*
X131259580Y-105410000D01*
X131051300Y-106172000D02*
X129604010Y-106172000D01*
X125704601Y-104165399D02*
X125323599Y-104546401D01*
X129604010Y-106172000D02*
X127597409Y-104165399D01*
X127597409Y-104165399D02*
X125704601Y-104165399D01*
X125323599Y-104546401D02*
X124460000Y-105410000D01*
X131259580Y-121412000D02*
X131318000Y-121353580D01*
X131318000Y-121353580D02*
X131318000Y-120708420D01*
X131318000Y-120708420D02*
X131259580Y-120650000D01*
X131259580Y-121412000D02*
X131318000Y-121412000D01*
X131318000Y-121412000D02*
X131699000Y-121793000D01*
X131699000Y-121793000D02*
X131884420Y-121793000D01*
X131884420Y-121793000D02*
X132011420Y-121920000D01*
X124460000Y-120650000D02*
X125704601Y-119405399D01*
X125704601Y-119405399D02*
X127787399Y-119405399D01*
X127787399Y-119405399D02*
X129794000Y-121412000D01*
X129794000Y-121412000D02*
X131259580Y-121412000D01*
X108008420Y-119126000D02*
X108008420Y-119705120D01*
X108008420Y-119705120D02*
X109207300Y-120904000D01*
X109220000Y-116078000D02*
X109220000Y-116903500D01*
X106235501Y-117030501D02*
X104266999Y-115061999D01*
X109220000Y-116903500D02*
X109092999Y-117030501D01*
X109092999Y-117030501D02*
X106235501Y-117030501D01*
X104266999Y-115061999D02*
X103505000Y-114300000D01*
X105156000Y-111760000D02*
X107950000Y-114554000D01*
X107950000Y-114554000D02*
X107950000Y-116078000D01*
X103505000Y-111760000D02*
X105156000Y-111760000D01*
X103505000Y-109220000D02*
X106680000Y-109220000D01*
X106680000Y-109220000D02*
X107188000Y-109728000D01*
X107188000Y-109728000D02*
X107950000Y-109728000D01*
X110490000Y-109728000D02*
X110490000Y-109410500D01*
X110490000Y-109410500D02*
X109710221Y-108630721D01*
X105455721Y-108630721D02*
X104266999Y-107441999D01*
X109710221Y-108630721D02*
X105455721Y-108630721D01*
X104266999Y-107441999D02*
X103505000Y-106680000D01*
X107500420Y-104140000D02*
X107500420Y-104860088D01*
X107500420Y-104860088D02*
X110304580Y-107664248D01*
X110304580Y-107664248D02*
X110304580Y-107950000D01*
X103505000Y-104140000D02*
X107500420Y-104140000D01*
X111760000Y-109728000D02*
X111760000Y-109405420D01*
X111760000Y-109405420D02*
X110304580Y-107950000D01*
X113030000Y-109728000D02*
X113030000Y-109410500D01*
X110236000Y-106616500D02*
X110236000Y-103886000D01*
X107950000Y-101600000D02*
X104582630Y-101600000D01*
X113030000Y-109410500D02*
X110236000Y-106616500D01*
X110236000Y-103886000D02*
X107950000Y-101600000D01*
X104582630Y-101600000D02*
X103505000Y-101600000D01*
X109220000Y-109728000D02*
X109220000Y-110553500D01*
X109220000Y-110553500D02*
X109220000Y-112522000D01*
X115570000Y-121920000D02*
X114274601Y-120624601D01*
X114274601Y-120624601D02*
X112432591Y-120624601D01*
X112432591Y-120624601D02*
X111785399Y-119977409D01*
X111785399Y-119977409D02*
X111785399Y-117640101D01*
X111785399Y-117640101D02*
X113030000Y-116395500D01*
X113030000Y-116395500D02*
X113030000Y-116078000D01*
X114300000Y-116078000D02*
X114300000Y-118110000D01*
X114300000Y-118110000D02*
X113030000Y-119380000D01*
X115576383Y-112522000D02*
X116205000Y-112522000D01*
X113728500Y-112522000D02*
X115576383Y-112522000D01*
X110490000Y-115760500D02*
X113728500Y-112522000D01*
X110490000Y-116078000D02*
X110490000Y-115760500D01*
X111760000Y-116078000D02*
X111760000Y-115570000D01*
X111760000Y-115570000D02*
X113030000Y-114300000D01*
X113030000Y-114300000D02*
X114300000Y-114300000D01*
X129710180Y-122237500D02*
X128955800Y-122237500D01*
X128955800Y-122237500D02*
X128663699Y-121945399D01*
X128663699Y-121945399D02*
X125704601Y-121945399D01*
X125704601Y-121945399D02*
X125323599Y-122326401D01*
X125323599Y-122326401D02*
X124460000Y-123190000D01*
X129710180Y-106997500D02*
X128955800Y-106997500D01*
X128955800Y-106997500D02*
X128663699Y-106705399D01*
X128663699Y-106705399D02*
X125704601Y-106705399D01*
X125704601Y-106705399D02*
X125323599Y-107086401D01*
X125323599Y-107086401D02*
X124460000Y-107950000D01*
X131909820Y-107950000D02*
X132900420Y-107950000D01*
X132910580Y-106680000D02*
X132910580Y-107939840D01*
X132910580Y-107939840D02*
X132900420Y-107950000D01*
X132900420Y-123190000D02*
X132900420Y-121930160D01*
X132900420Y-121930160D02*
X132910580Y-121920000D01*
X131909820Y-123190000D02*
X132900420Y-123190000D01*
X110934499Y-114109501D02*
X110490000Y-114554000D01*
X114300000Y-110744000D02*
X110934499Y-114109501D01*
X114300000Y-109728000D02*
X114300000Y-110744000D01*
X109982000Y-119126000D02*
X110490000Y-119126000D01*
X108907580Y-119126000D02*
X109982000Y-119126000D01*
G36*
X212972804Y-120650000D02*
X212747094Y-121665696D01*
X212199925Y-122212864D01*
X210769200Y-122809000D01*
X194945000Y-122809000D01*
X188468000Y-122809000D01*
X188468000Y-123698000D01*
X137922000Y-123698000D01*
X137922000Y-121867395D01*
X137212605Y-121158000D01*
X134620000Y-121158000D01*
X134620000Y-120142000D01*
X137212605Y-120142000D01*
X137922000Y-119432605D01*
X137922000Y-117602000D01*
X188468000Y-117602000D01*
X188468000Y-118491000D01*
X210769200Y-118491000D01*
X212199925Y-119087136D01*
X212747094Y-119634304D01*
X212972804Y-120650000D01*
X212972804Y-120650000D01*
G37*
X212972804Y-120650000D02*
X212747094Y-121665696D01*
X212199925Y-122212864D01*
X210769200Y-122809000D01*
X194945000Y-122809000D01*
X188468000Y-122809000D01*
X188468000Y-123698000D01*
X137922000Y-123698000D01*
X137922000Y-121867395D01*
X137212605Y-121158000D01*
X134620000Y-121158000D01*
X134620000Y-120142000D01*
X137212605Y-120142000D01*
X137922000Y-119432605D01*
X137922000Y-117602000D01*
X188468000Y-117602000D01*
X188468000Y-118491000D01*
X210769200Y-118491000D01*
X212199925Y-119087136D01*
X212747094Y-119634304D01*
X212972804Y-120650000D01*
G36*
X217902225Y-120649999D02*
X216774688Y-122905074D01*
X214503000Y-125176762D01*
X214503000Y-121404923D01*
X214503000Y-119895077D01*
X213777502Y-118444082D01*
X212999412Y-117665992D01*
X210902437Y-116967000D01*
X137287000Y-116967000D01*
X137287000Y-119169580D01*
X136949580Y-119507000D01*
X135331200Y-119507000D01*
X135331200Y-119386764D01*
X135331200Y-118586664D01*
X135331200Y-117633335D01*
X135331200Y-117481764D01*
X135331200Y-116681664D01*
X135273196Y-116541630D01*
X135166019Y-116434454D01*
X135025985Y-116376450D01*
X134874414Y-116376450D01*
X133873654Y-116376450D01*
X133733620Y-116434454D01*
X133626444Y-116541631D01*
X133568440Y-116681665D01*
X133568440Y-116833236D01*
X133568440Y-117633336D01*
X133626444Y-117773370D01*
X133733621Y-117880546D01*
X133873655Y-117938550D01*
X134025226Y-117938550D01*
X135025986Y-117938550D01*
X135166020Y-117880546D01*
X135273196Y-117773369D01*
X135331200Y-117633335D01*
X135331200Y-118586664D01*
X135273196Y-118446630D01*
X135166019Y-118339454D01*
X135025985Y-118281450D01*
X134874414Y-118281450D01*
X133873654Y-118281450D01*
X133733620Y-118339454D01*
X133626444Y-118446631D01*
X133568440Y-118586665D01*
X133568440Y-118738236D01*
X133568440Y-119538336D01*
X133626444Y-119678370D01*
X133733621Y-119785546D01*
X133873655Y-119843550D01*
X133985000Y-119843550D01*
X133985000Y-120650000D01*
X133985000Y-121732440D01*
X133490970Y-122226470D01*
X133490970Y-122143934D01*
X133490970Y-121544494D01*
X133432966Y-121404460D01*
X133325789Y-121297284D01*
X133185755Y-121239280D01*
X133034184Y-121239280D01*
X132635404Y-121239280D01*
X132495370Y-121297284D01*
X132460999Y-121331654D01*
X132426629Y-121297284D01*
X132286595Y-121239280D01*
X132135024Y-121239280D01*
X131863700Y-121239280D01*
X131826000Y-121201579D01*
X131826000Y-121059231D01*
X131839970Y-121025505D01*
X131839970Y-120873934D01*
X131839970Y-120274494D01*
X131781966Y-120134460D01*
X131674789Y-120027284D01*
X131645133Y-120015000D01*
X131674790Y-120002716D01*
X131781966Y-119895539D01*
X131839970Y-119755505D01*
X131839970Y-119603934D01*
X131839970Y-119004494D01*
X131792979Y-118891050D01*
X131825586Y-118891050D01*
X132826346Y-118891050D01*
X132966380Y-118833046D01*
X133073556Y-118725869D01*
X133131560Y-118585835D01*
X133131560Y-118434264D01*
X133131560Y-117634164D01*
X133073556Y-117494130D01*
X132966379Y-117386954D01*
X132826345Y-117328950D01*
X132674774Y-117328950D01*
X131706910Y-117328950D01*
X131618790Y-117197070D01*
X130927909Y-116506189D01*
X130763102Y-116396068D01*
X130568699Y-116357399D01*
X125704601Y-116357399D01*
X125510197Y-116396068D01*
X125345391Y-116506189D01*
X124964391Y-116887188D01*
X124964388Y-116887191D01*
X124919217Y-116932361D01*
X124460000Y-116841017D01*
X123983712Y-116935757D01*
X123579935Y-117205552D01*
X123310140Y-117609329D01*
X123215400Y-118085617D01*
X123215400Y-118134383D01*
X123310140Y-118610671D01*
X123579935Y-119014448D01*
X123983712Y-119284243D01*
X124460000Y-119378983D01*
X124936288Y-119284243D01*
X125340065Y-119014448D01*
X125609860Y-118610671D01*
X125704600Y-118134383D01*
X125704600Y-118085617D01*
X125621346Y-117667074D01*
X125682809Y-117605612D01*
X125682809Y-117605611D01*
X125682811Y-117605608D01*
X125915021Y-117373399D01*
X126001576Y-117373399D01*
X125796995Y-117790880D01*
X125857135Y-117983000D01*
X126873000Y-117983000D01*
X126873000Y-117963000D01*
X127127000Y-117963000D01*
X127127000Y-117983000D01*
X128142865Y-117983000D01*
X128203005Y-117790880D01*
X127998423Y-117373399D01*
X130358278Y-117373399D01*
X130484762Y-117499882D01*
X130460115Y-117524530D01*
X130460115Y-117983000D01*
X130507420Y-117983000D01*
X130507420Y-118237000D01*
X130460115Y-118237000D01*
X130460115Y-118695470D01*
X130509645Y-118745000D01*
X130460115Y-118794530D01*
X130460115Y-119253000D01*
X130507420Y-119253000D01*
X130507420Y-119507000D01*
X130460115Y-119507000D01*
X130460115Y-119965470D01*
X130509645Y-120015000D01*
X130460115Y-120064530D01*
X130460115Y-120523000D01*
X130507420Y-120523000D01*
X130507420Y-120777000D01*
X130460115Y-120777000D01*
X130460115Y-120797000D01*
X130260725Y-120797000D01*
X130260725Y-120777000D01*
X130260725Y-120523000D01*
X130260725Y-120064530D01*
X130211195Y-120015000D01*
X130260725Y-119965470D01*
X130260725Y-119507000D01*
X130260725Y-119253000D01*
X130260725Y-118794530D01*
X130211195Y-118745000D01*
X130260725Y-118695470D01*
X130260725Y-118237000D01*
X130260725Y-117983000D01*
X130260725Y-117524530D01*
X130165475Y-117429280D01*
X130085244Y-117429280D01*
X129945210Y-117487284D01*
X129838034Y-117594461D01*
X129780030Y-117734495D01*
X129780030Y-117886066D01*
X129780030Y-117887750D01*
X129875280Y-117983000D01*
X130260725Y-117983000D01*
X130260725Y-118237000D01*
X129875280Y-118237000D01*
X129780030Y-118332250D01*
X129780030Y-118333934D01*
X129780030Y-118485505D01*
X129838034Y-118625539D01*
X129945210Y-118732716D01*
X129974866Y-118745000D01*
X129945210Y-118757284D01*
X129838034Y-118864461D01*
X129780030Y-119004495D01*
X129780030Y-119156066D01*
X129780030Y-119157750D01*
X129875280Y-119253000D01*
X130260725Y-119253000D01*
X130260725Y-119507000D01*
X129875280Y-119507000D01*
X129780030Y-119602250D01*
X129780030Y-119603934D01*
X129780030Y-119755505D01*
X129838034Y-119895539D01*
X129945210Y-120002716D01*
X129974866Y-120015000D01*
X129945210Y-120027284D01*
X129838034Y-120134461D01*
X129780030Y-120274495D01*
X129780030Y-120426066D01*
X129780030Y-120427750D01*
X129875280Y-120523000D01*
X130260725Y-120523000D01*
X130260725Y-120777000D01*
X129877419Y-120777000D01*
X128146609Y-119046189D01*
X127981802Y-118936068D01*
X127922327Y-118924237D01*
X127989310Y-118865199D01*
X128203005Y-118429120D01*
X128142865Y-118237000D01*
X127127000Y-118237000D01*
X127127000Y-118257000D01*
X126873000Y-118257000D01*
X126873000Y-118237000D01*
X125857135Y-118237000D01*
X125796995Y-118429120D01*
X126010690Y-118865199D01*
X126047222Y-118897399D01*
X125704601Y-118897399D01*
X125510198Y-118936068D01*
X125345391Y-119046188D01*
X124919217Y-119472361D01*
X124460000Y-119381017D01*
X123983712Y-119475757D01*
X123579935Y-119745552D01*
X123310140Y-120149329D01*
X123215400Y-120625617D01*
X123215400Y-120674383D01*
X123310140Y-121150671D01*
X123579935Y-121554448D01*
X123983712Y-121824243D01*
X124460000Y-121918983D01*
X124936288Y-121824243D01*
X125340065Y-121554448D01*
X125609860Y-121150671D01*
X125704600Y-120674383D01*
X125704600Y-120625617D01*
X125621346Y-120207074D01*
X125915021Y-119913399D01*
X126007783Y-119913399D01*
X125850140Y-120149329D01*
X125755400Y-120625617D01*
X125755400Y-120674383D01*
X125850140Y-121150671D01*
X126041725Y-121437399D01*
X125704601Y-121437399D01*
X125510197Y-121476068D01*
X125345391Y-121586189D01*
X124964391Y-121967188D01*
X124964388Y-121967191D01*
X124919217Y-122012361D01*
X124460000Y-121921017D01*
X123983712Y-122015757D01*
X123579935Y-122285552D01*
X123310140Y-122689329D01*
X123215400Y-123165617D01*
X123215400Y-123214383D01*
X123310140Y-123690671D01*
X123579935Y-124094448D01*
X123983712Y-124364243D01*
X124460000Y-124458983D01*
X124936288Y-124364243D01*
X125340065Y-124094448D01*
X125609860Y-123690671D01*
X125704600Y-123214383D01*
X125704600Y-123165617D01*
X125621346Y-122747074D01*
X125682809Y-122685612D01*
X125682809Y-122685611D01*
X125682811Y-122685608D01*
X125755400Y-122613020D01*
X125755400Y-122967750D01*
X125850650Y-123063000D01*
X126873000Y-123063000D01*
X126873000Y-123043000D01*
X127127000Y-123043000D01*
X127127000Y-123063000D01*
X128149350Y-123063000D01*
X128244600Y-122967750D01*
X128244600Y-122453399D01*
X128453279Y-122453399D01*
X128596590Y-122596710D01*
X128761396Y-122706831D01*
X128761397Y-122706831D01*
X128831915Y-122720857D01*
X128831915Y-122720858D01*
X128886804Y-122853370D01*
X128993981Y-122960546D01*
X129134015Y-123018550D01*
X129285586Y-123018550D01*
X130286346Y-123018550D01*
X130426380Y-122960546D01*
X130533556Y-122853369D01*
X130591560Y-122713335D01*
X130591560Y-122561764D01*
X130591560Y-121920000D01*
X131107579Y-121920000D01*
X131339789Y-122152210D01*
X131339790Y-122152210D01*
X131431030Y-122213175D01*
X131431030Y-122295506D01*
X131478020Y-122408950D01*
X131333654Y-122408950D01*
X131193620Y-122466954D01*
X131086444Y-122574131D01*
X131028440Y-122714165D01*
X131028440Y-122865736D01*
X131028440Y-123665836D01*
X131086444Y-123805870D01*
X131193621Y-123913046D01*
X131333655Y-123971050D01*
X131485226Y-123971050D01*
X132367020Y-123971050D01*
X132320030Y-124084495D01*
X132320030Y-124236066D01*
X132320030Y-124237750D01*
X132415280Y-124333000D01*
X132800725Y-124333000D01*
X132800725Y-124313000D01*
X133000115Y-124313000D01*
X133000115Y-124333000D01*
X133047420Y-124333000D01*
X133047420Y-124587000D01*
X133000115Y-124587000D01*
X133000115Y-125045470D01*
X133095365Y-125140720D01*
X133175596Y-125140720D01*
X133315630Y-125082716D01*
X133350000Y-125048345D01*
X133384371Y-125082716D01*
X133524405Y-125140720D01*
X133675976Y-125140720D01*
X134074756Y-125140720D01*
X134214790Y-125082716D01*
X134321966Y-124975539D01*
X134379970Y-124835505D01*
X134379970Y-124683934D01*
X134379970Y-124084494D01*
X134321966Y-123944460D01*
X134307580Y-123930074D01*
X134307580Y-123719925D01*
X134321966Y-123705539D01*
X134379970Y-123565505D01*
X134379970Y-123413934D01*
X134379970Y-122814494D01*
X134368200Y-122786079D01*
X134852210Y-122302070D01*
X134962331Y-122137263D01*
X135001000Y-121942860D01*
X135001000Y-121793000D01*
X136949580Y-121793000D01*
X137287000Y-122130420D01*
X137287000Y-124333000D01*
X210902437Y-124333000D01*
X212999412Y-123634008D01*
X213777502Y-122855918D01*
X214503000Y-121404923D01*
X214503000Y-125176762D01*
X214370173Y-125309590D01*
X210741943Y-126519000D01*
X153670000Y-126519000D01*
X132800725Y-126519000D01*
X132800725Y-125045470D01*
X132800725Y-124587000D01*
X132415280Y-124587000D01*
X132320030Y-124682250D01*
X132320030Y-124683934D01*
X132320030Y-124835505D01*
X132378034Y-124975539D01*
X132485210Y-125082716D01*
X132625244Y-125140720D01*
X132705475Y-125140720D01*
X132800725Y-125045470D01*
X132800725Y-126519000D01*
X130591560Y-126519000D01*
X130591560Y-124618336D01*
X130591560Y-124364750D01*
X130591560Y-123920250D01*
X130591560Y-123666664D01*
X130533556Y-123526630D01*
X130426379Y-123419454D01*
X130286345Y-123361450D01*
X130134774Y-123361450D01*
X129932430Y-123361450D01*
X129837180Y-123456700D01*
X129837180Y-124015500D01*
X130496310Y-124015500D01*
X130591560Y-123920250D01*
X130591560Y-124364750D01*
X130496310Y-124269500D01*
X129837180Y-124269500D01*
X129837180Y-124828300D01*
X129932430Y-124923550D01*
X130134774Y-124923550D01*
X130286345Y-124923550D01*
X130426379Y-124865546D01*
X130533556Y-124758370D01*
X130591560Y-124618336D01*
X130591560Y-126519000D01*
X129583180Y-126519000D01*
X129583180Y-124828300D01*
X129583180Y-124269500D01*
X129583180Y-124015500D01*
X129583180Y-123456700D01*
X129487930Y-123361450D01*
X129285586Y-123361450D01*
X129134015Y-123361450D01*
X128993981Y-123419454D01*
X128886804Y-123526630D01*
X128828800Y-123666664D01*
X128828800Y-123920250D01*
X128924050Y-124015500D01*
X129583180Y-124015500D01*
X129583180Y-124269500D01*
X128924050Y-124269500D01*
X128828800Y-124364750D01*
X128828800Y-124618336D01*
X128886804Y-124758370D01*
X128993981Y-124865546D01*
X129134015Y-124923550D01*
X129285586Y-124923550D01*
X129487930Y-124923550D01*
X129583180Y-124828300D01*
X129583180Y-126519000D01*
X128244600Y-126519000D01*
X128244600Y-124129386D01*
X128244600Y-123412250D01*
X128149350Y-123317000D01*
X127127000Y-123317000D01*
X127127000Y-124339350D01*
X127222250Y-124434600D01*
X127787814Y-124434600D01*
X127939385Y-124434600D01*
X128079419Y-124376596D01*
X128186596Y-124269420D01*
X128244600Y-124129386D01*
X128244600Y-126519000D01*
X126873000Y-126519000D01*
X126873000Y-124339350D01*
X126873000Y-123317000D01*
X125850650Y-123317000D01*
X125755400Y-123412250D01*
X125755400Y-124129386D01*
X125813404Y-124269420D01*
X125920581Y-124376596D01*
X126060615Y-124434600D01*
X126212186Y-124434600D01*
X126777750Y-124434600D01*
X126873000Y-124339350D01*
X126873000Y-126519000D01*
X123237376Y-126519000D01*
X122405661Y-126353561D01*
X121740730Y-125909269D01*
X121296438Y-125244339D01*
X121131000Y-124412624D01*
X121131000Y-123190000D01*
X121121758Y-123143537D01*
X121121758Y-123096161D01*
X121031000Y-122639890D01*
X121031000Y-121856502D01*
X121094357Y-121703923D01*
X121094643Y-121375518D01*
X121031000Y-121221489D01*
X121031000Y-120967502D01*
X121094357Y-120814923D01*
X121094643Y-120486518D01*
X121031000Y-120332489D01*
X121031000Y-120078502D01*
X121094357Y-119925923D01*
X121094643Y-119597518D01*
X121031000Y-119443489D01*
X121031000Y-118660109D01*
X121121758Y-118203839D01*
X121121758Y-118156462D01*
X121131000Y-118110000D01*
X121131000Y-116887375D01*
X121296438Y-116055660D01*
X121740730Y-115390730D01*
X122405661Y-114946438D01*
X123237376Y-114781000D01*
X153670000Y-114781000D01*
X210741943Y-114781000D01*
X214370173Y-115990409D01*
X216774688Y-118394925D01*
X217902225Y-120649999D01*
X217902225Y-120649999D01*
G37*
X217902225Y-120649999D02*
X216774688Y-122905074D01*
X214503000Y-125176762D01*
X214503000Y-121404923D01*
X214503000Y-119895077D01*
X213777502Y-118444082D01*
X212999412Y-117665992D01*
X210902437Y-116967000D01*
X137287000Y-116967000D01*
X137287000Y-119169580D01*
X136949580Y-119507000D01*
X135331200Y-119507000D01*
X135331200Y-119386764D01*
X135331200Y-118586664D01*
X135331200Y-117633335D01*
X135331200Y-117481764D01*
X135331200Y-116681664D01*
X135273196Y-116541630D01*
X135166019Y-116434454D01*
X135025985Y-116376450D01*
X134874414Y-116376450D01*
X133873654Y-116376450D01*
X133733620Y-116434454D01*
X133626444Y-116541631D01*
X133568440Y-116681665D01*
X133568440Y-116833236D01*
X133568440Y-117633336D01*
X133626444Y-117773370D01*
X133733621Y-117880546D01*
X133873655Y-117938550D01*
X134025226Y-117938550D01*
X135025986Y-117938550D01*
X135166020Y-117880546D01*
X135273196Y-117773369D01*
X135331200Y-117633335D01*
X135331200Y-118586664D01*
X135273196Y-118446630D01*
X135166019Y-118339454D01*
X135025985Y-118281450D01*
X134874414Y-118281450D01*
X133873654Y-118281450D01*
X133733620Y-118339454D01*
X133626444Y-118446631D01*
X133568440Y-118586665D01*
X133568440Y-118738236D01*
X133568440Y-119538336D01*
X133626444Y-119678370D01*
X133733621Y-119785546D01*
X133873655Y-119843550D01*
X133985000Y-119843550D01*
X133985000Y-120650000D01*
X133985000Y-121732440D01*
X133490970Y-122226470D01*
X133490970Y-122143934D01*
X133490970Y-121544494D01*
X133432966Y-121404460D01*
X133325789Y-121297284D01*
X133185755Y-121239280D01*
X133034184Y-121239280D01*
X132635404Y-121239280D01*
X132495370Y-121297284D01*
X132460999Y-121331654D01*
X132426629Y-121297284D01*
X132286595Y-121239280D01*
X132135024Y-121239280D01*
X131863700Y-121239280D01*
X131826000Y-121201579D01*
X131826000Y-121059231D01*
X131839970Y-121025505D01*
X131839970Y-120873934D01*
X131839970Y-120274494D01*
X131781966Y-120134460D01*
X131674789Y-120027284D01*
X131645133Y-120015000D01*
X131674790Y-120002716D01*
X131781966Y-119895539D01*
X131839970Y-119755505D01*
X131839970Y-119603934D01*
X131839970Y-119004494D01*
X131792979Y-118891050D01*
X131825586Y-118891050D01*
X132826346Y-118891050D01*
X132966380Y-118833046D01*
X133073556Y-118725869D01*
X133131560Y-118585835D01*
X133131560Y-118434264D01*
X133131560Y-117634164D01*
X133073556Y-117494130D01*
X132966379Y-117386954D01*
X132826345Y-117328950D01*
X132674774Y-117328950D01*
X131706910Y-117328950D01*
X131618790Y-117197070D01*
X130927909Y-116506189D01*
X130763102Y-116396068D01*
X130568699Y-116357399D01*
X125704601Y-116357399D01*
X125510197Y-116396068D01*
X125345391Y-116506189D01*
X124964391Y-116887188D01*
X124964388Y-116887191D01*
X124919217Y-116932361D01*
X124460000Y-116841017D01*
X123983712Y-116935757D01*
X123579935Y-117205552D01*
X123310140Y-117609329D01*
X123215400Y-118085617D01*
X123215400Y-118134383D01*
X123310140Y-118610671D01*
X123579935Y-119014448D01*
X123983712Y-119284243D01*
X124460000Y-119378983D01*
X124936288Y-119284243D01*
X125340065Y-119014448D01*
X125609860Y-118610671D01*
X125704600Y-118134383D01*
X125704600Y-118085617D01*
X125621346Y-117667074D01*
X125682809Y-117605612D01*
X125682809Y-117605611D01*
X125682811Y-117605608D01*
X125915021Y-117373399D01*
X126001576Y-117373399D01*
X125796995Y-117790880D01*
X125857135Y-117983000D01*
X126873000Y-117983000D01*
X126873000Y-117963000D01*
X127127000Y-117963000D01*
X127127000Y-117983000D01*
X128142865Y-117983000D01*
X128203005Y-117790880D01*
X127998423Y-117373399D01*
X130358278Y-117373399D01*
X130484762Y-117499882D01*
X130460115Y-117524530D01*
X130460115Y-117983000D01*
X130507420Y-117983000D01*
X130507420Y-118237000D01*
X130460115Y-118237000D01*
X130460115Y-118695470D01*
X130509645Y-118745000D01*
X130460115Y-118794530D01*
X130460115Y-119253000D01*
X130507420Y-119253000D01*
X130507420Y-119507000D01*
X130460115Y-119507000D01*
X130460115Y-119965470D01*
X130509645Y-120015000D01*
X130460115Y-120064530D01*
X130460115Y-120523000D01*
X130507420Y-120523000D01*
X130507420Y-120777000D01*
X130460115Y-120777000D01*
X130460115Y-120797000D01*
X130260725Y-120797000D01*
X130260725Y-120777000D01*
X130260725Y-120523000D01*
X130260725Y-120064530D01*
X130211195Y-120015000D01*
X130260725Y-119965470D01*
X130260725Y-119507000D01*
X130260725Y-119253000D01*
X130260725Y-118794530D01*
X130211195Y-118745000D01*
X130260725Y-118695470D01*
X130260725Y-118237000D01*
X130260725Y-117983000D01*
X130260725Y-117524530D01*
X130165475Y-117429280D01*
X130085244Y-117429280D01*
X129945210Y-117487284D01*
X129838034Y-117594461D01*
X129780030Y-117734495D01*
X129780030Y-117886066D01*
X129780030Y-117887750D01*
X129875280Y-117983000D01*
X130260725Y-117983000D01*
X130260725Y-118237000D01*
X129875280Y-118237000D01*
X129780030Y-118332250D01*
X129780030Y-118333934D01*
X129780030Y-118485505D01*
X129838034Y-118625539D01*
X129945210Y-118732716D01*
X129974866Y-118745000D01*
X129945210Y-118757284D01*
X129838034Y-118864461D01*
X129780030Y-119004495D01*
X129780030Y-119156066D01*
X129780030Y-119157750D01*
X129875280Y-119253000D01*
X130260725Y-119253000D01*
X130260725Y-119507000D01*
X129875280Y-119507000D01*
X129780030Y-119602250D01*
X129780030Y-119603934D01*
X129780030Y-119755505D01*
X129838034Y-119895539D01*
X129945210Y-120002716D01*
X129974866Y-120015000D01*
X129945210Y-120027284D01*
X129838034Y-120134461D01*
X129780030Y-120274495D01*
X129780030Y-120426066D01*
X129780030Y-120427750D01*
X129875280Y-120523000D01*
X130260725Y-120523000D01*
X130260725Y-120777000D01*
X129877419Y-120777000D01*
X128146609Y-119046189D01*
X127981802Y-118936068D01*
X127922327Y-118924237D01*
X127989310Y-118865199D01*
X128203005Y-118429120D01*
X128142865Y-118237000D01*
X127127000Y-118237000D01*
X127127000Y-118257000D01*
X126873000Y-118257000D01*
X126873000Y-118237000D01*
X125857135Y-118237000D01*
X125796995Y-118429120D01*
X126010690Y-118865199D01*
X126047222Y-118897399D01*
X125704601Y-118897399D01*
X125510198Y-118936068D01*
X125345391Y-119046188D01*
X124919217Y-119472361D01*
X124460000Y-119381017D01*
X123983712Y-119475757D01*
X123579935Y-119745552D01*
X123310140Y-120149329D01*
X123215400Y-120625617D01*
X123215400Y-120674383D01*
X123310140Y-121150671D01*
X123579935Y-121554448D01*
X123983712Y-121824243D01*
X124460000Y-121918983D01*
X124936288Y-121824243D01*
X125340065Y-121554448D01*
X125609860Y-121150671D01*
X125704600Y-120674383D01*
X125704600Y-120625617D01*
X125621346Y-120207074D01*
X125915021Y-119913399D01*
X126007783Y-119913399D01*
X125850140Y-120149329D01*
X125755400Y-120625617D01*
X125755400Y-120674383D01*
X125850140Y-121150671D01*
X126041725Y-121437399D01*
X125704601Y-121437399D01*
X125510197Y-121476068D01*
X125345391Y-121586189D01*
X124964391Y-121967188D01*
X124964388Y-121967191D01*
X124919217Y-122012361D01*
X124460000Y-121921017D01*
X123983712Y-122015757D01*
X123579935Y-122285552D01*
X123310140Y-122689329D01*
X123215400Y-123165617D01*
X123215400Y-123214383D01*
X123310140Y-123690671D01*
X123579935Y-124094448D01*
X123983712Y-124364243D01*
X124460000Y-124458983D01*
X124936288Y-124364243D01*
X125340065Y-124094448D01*
X125609860Y-123690671D01*
X125704600Y-123214383D01*
X125704600Y-123165617D01*
X125621346Y-122747074D01*
X125682809Y-122685612D01*
X125682809Y-122685611D01*
X125682811Y-122685608D01*
X125755400Y-122613020D01*
X125755400Y-122967750D01*
X125850650Y-123063000D01*
X126873000Y-123063000D01*
X126873000Y-123043000D01*
X127127000Y-123043000D01*
X127127000Y-123063000D01*
X128149350Y-123063000D01*
X128244600Y-122967750D01*
X128244600Y-122453399D01*
X128453279Y-122453399D01*
X128596590Y-122596710D01*
X128761396Y-122706831D01*
X128761397Y-122706831D01*
X128831915Y-122720857D01*
X128831915Y-122720858D01*
X128886804Y-122853370D01*
X128993981Y-122960546D01*
X129134015Y-123018550D01*
X129285586Y-123018550D01*
X130286346Y-123018550D01*
X130426380Y-122960546D01*
X130533556Y-122853369D01*
X130591560Y-122713335D01*
X130591560Y-122561764D01*
X130591560Y-121920000D01*
X131107579Y-121920000D01*
X131339789Y-122152210D01*
X131339790Y-122152210D01*
X131431030Y-122213175D01*
X131431030Y-122295506D01*
X131478020Y-122408950D01*
X131333654Y-122408950D01*
X131193620Y-122466954D01*
X131086444Y-122574131D01*
X131028440Y-122714165D01*
X131028440Y-122865736D01*
X131028440Y-123665836D01*
X131086444Y-123805870D01*
X131193621Y-123913046D01*
X131333655Y-123971050D01*
X131485226Y-123971050D01*
X132367020Y-123971050D01*
X132320030Y-124084495D01*
X132320030Y-124236066D01*
X132320030Y-124237750D01*
X132415280Y-124333000D01*
X132800725Y-124333000D01*
X132800725Y-124313000D01*
X133000115Y-124313000D01*
X133000115Y-124333000D01*
X133047420Y-124333000D01*
X133047420Y-124587000D01*
X133000115Y-124587000D01*
X133000115Y-125045470D01*
X133095365Y-125140720D01*
X133175596Y-125140720D01*
X133315630Y-125082716D01*
X133350000Y-125048345D01*
X133384371Y-125082716D01*
X133524405Y-125140720D01*
X133675976Y-125140720D01*
X134074756Y-125140720D01*
X134214790Y-125082716D01*
X134321966Y-124975539D01*
X134379970Y-124835505D01*
X134379970Y-124683934D01*
X134379970Y-124084494D01*
X134321966Y-123944460D01*
X134307580Y-123930074D01*
X134307580Y-123719925D01*
X134321966Y-123705539D01*
X134379970Y-123565505D01*
X134379970Y-123413934D01*
X134379970Y-122814494D01*
X134368200Y-122786079D01*
X134852210Y-122302070D01*
X134962331Y-122137263D01*
X135001000Y-121942860D01*
X135001000Y-121793000D01*
X136949580Y-121793000D01*
X137287000Y-122130420D01*
X137287000Y-124333000D01*
X210902437Y-124333000D01*
X212999412Y-123634008D01*
X213777502Y-122855918D01*
X214503000Y-121404923D01*
X214503000Y-125176762D01*
X214370173Y-125309590D01*
X210741943Y-126519000D01*
X153670000Y-126519000D01*
X132800725Y-126519000D01*
X132800725Y-125045470D01*
X132800725Y-124587000D01*
X132415280Y-124587000D01*
X132320030Y-124682250D01*
X132320030Y-124683934D01*
X132320030Y-124835505D01*
X132378034Y-124975539D01*
X132485210Y-125082716D01*
X132625244Y-125140720D01*
X132705475Y-125140720D01*
X132800725Y-125045470D01*
X132800725Y-126519000D01*
X130591560Y-126519000D01*
X130591560Y-124618336D01*
X130591560Y-124364750D01*
X130591560Y-123920250D01*
X130591560Y-123666664D01*
X130533556Y-123526630D01*
X130426379Y-123419454D01*
X130286345Y-123361450D01*
X130134774Y-123361450D01*
X129932430Y-123361450D01*
X129837180Y-123456700D01*
X129837180Y-124015500D01*
X130496310Y-124015500D01*
X130591560Y-123920250D01*
X130591560Y-124364750D01*
X130496310Y-124269500D01*
X129837180Y-124269500D01*
X129837180Y-124828300D01*
X129932430Y-124923550D01*
X130134774Y-124923550D01*
X130286345Y-124923550D01*
X130426379Y-124865546D01*
X130533556Y-124758370D01*
X130591560Y-124618336D01*
X130591560Y-126519000D01*
X129583180Y-126519000D01*
X129583180Y-124828300D01*
X129583180Y-124269500D01*
X129583180Y-124015500D01*
X129583180Y-123456700D01*
X129487930Y-123361450D01*
X129285586Y-123361450D01*
X129134015Y-123361450D01*
X128993981Y-123419454D01*
X128886804Y-123526630D01*
X128828800Y-123666664D01*
X128828800Y-123920250D01*
X128924050Y-124015500D01*
X129583180Y-124015500D01*
X129583180Y-124269500D01*
X128924050Y-124269500D01*
X128828800Y-124364750D01*
X128828800Y-124618336D01*
X128886804Y-124758370D01*
X128993981Y-124865546D01*
X129134015Y-124923550D01*
X129285586Y-124923550D01*
X129487930Y-124923550D01*
X129583180Y-124828300D01*
X129583180Y-126519000D01*
X128244600Y-126519000D01*
X128244600Y-124129386D01*
X128244600Y-123412250D01*
X128149350Y-123317000D01*
X127127000Y-123317000D01*
X127127000Y-124339350D01*
X127222250Y-124434600D01*
X127787814Y-124434600D01*
X127939385Y-124434600D01*
X128079419Y-124376596D01*
X128186596Y-124269420D01*
X128244600Y-124129386D01*
X128244600Y-126519000D01*
X126873000Y-126519000D01*
X126873000Y-124339350D01*
X126873000Y-123317000D01*
X125850650Y-123317000D01*
X125755400Y-123412250D01*
X125755400Y-124129386D01*
X125813404Y-124269420D01*
X125920581Y-124376596D01*
X126060615Y-124434600D01*
X126212186Y-124434600D01*
X126777750Y-124434600D01*
X126873000Y-124339350D01*
X126873000Y-126519000D01*
X123237376Y-126519000D01*
X122405661Y-126353561D01*
X121740730Y-125909269D01*
X121296438Y-125244339D01*
X121131000Y-124412624D01*
X121131000Y-123190000D01*
X121121758Y-123143537D01*
X121121758Y-123096161D01*
X121031000Y-122639890D01*
X121031000Y-121856502D01*
X121094357Y-121703923D01*
X121094643Y-121375518D01*
X121031000Y-121221489D01*
X121031000Y-120967502D01*
X121094357Y-120814923D01*
X121094643Y-120486518D01*
X121031000Y-120332489D01*
X121031000Y-120078502D01*
X121094357Y-119925923D01*
X121094643Y-119597518D01*
X121031000Y-119443489D01*
X121031000Y-118660109D01*
X121121758Y-118203839D01*
X121121758Y-118156462D01*
X121131000Y-118110000D01*
X121131000Y-116887375D01*
X121296438Y-116055660D01*
X121740730Y-115390730D01*
X122405661Y-114946438D01*
X123237376Y-114781000D01*
X153670000Y-114781000D01*
X210741943Y-114781000D01*
X214370173Y-115990409D01*
X216774688Y-118394925D01*
X217902225Y-120649999D01*
G36*
X117729000Y-122639890D02*
X117638242Y-123096162D01*
X117638242Y-123143537D01*
X117629000Y-123190000D01*
X117629000Y-124412623D01*
X117463561Y-125244338D01*
X117189885Y-125653923D01*
X117189885Y-109805470D01*
X117189885Y-109347000D01*
X117142580Y-109347000D01*
X117142580Y-109093000D01*
X117189885Y-109093000D01*
X117189885Y-108634530D01*
X117094635Y-108539280D01*
X117014404Y-108539280D01*
X116874370Y-108597284D01*
X116839999Y-108631654D01*
X116805629Y-108597284D01*
X116782777Y-108587818D01*
X116749630Y-108538210D01*
X116649407Y-108437987D01*
X116649643Y-108167518D01*
X116543442Y-107910492D01*
X116649419Y-107866596D01*
X116756596Y-107759420D01*
X116814600Y-107619386D01*
X116814600Y-106902250D01*
X116814600Y-106457750D01*
X116814600Y-105740614D01*
X116814600Y-104164383D01*
X116814600Y-104115617D01*
X116773005Y-103906505D01*
X116773005Y-101919120D01*
X116773005Y-101280880D01*
X116559310Y-100844801D01*
X116195001Y-100523695D01*
X115889118Y-100397007D01*
X115697000Y-100457688D01*
X115697000Y-101473000D01*
X116712865Y-101473000D01*
X116773005Y-101280880D01*
X116773005Y-101919120D01*
X116712865Y-101727000D01*
X115697000Y-101727000D01*
X115697000Y-102742312D01*
X115889118Y-102802993D01*
X116195001Y-102676305D01*
X116559310Y-102355199D01*
X116773005Y-101919120D01*
X116773005Y-103906505D01*
X116719860Y-103639329D01*
X116450065Y-103235552D01*
X116046288Y-102965757D01*
X115570000Y-102871017D01*
X115443000Y-102896278D01*
X115443000Y-102742312D01*
X115443000Y-101727000D01*
X115443000Y-101473000D01*
X115443000Y-100457688D01*
X115250882Y-100397007D01*
X114944999Y-100523695D01*
X114580690Y-100844801D01*
X114366995Y-101280880D01*
X114427135Y-101473000D01*
X115443000Y-101473000D01*
X115443000Y-101727000D01*
X114427135Y-101727000D01*
X114366995Y-101919120D01*
X114580690Y-102355199D01*
X114944999Y-102676305D01*
X115250882Y-102802993D01*
X115443000Y-102742312D01*
X115443000Y-102896278D01*
X115093712Y-102965757D01*
X114689935Y-103235552D01*
X114420140Y-103639329D01*
X114325400Y-104115617D01*
X114325400Y-104164383D01*
X114420140Y-104640671D01*
X114689935Y-105044448D01*
X115093712Y-105314243D01*
X115570000Y-105408983D01*
X116046288Y-105314243D01*
X116450065Y-105044448D01*
X116719860Y-104640671D01*
X116814600Y-104164383D01*
X116814600Y-105740614D01*
X116756596Y-105600580D01*
X116649419Y-105493404D01*
X116509385Y-105435400D01*
X116357814Y-105435400D01*
X115792250Y-105435400D01*
X115697000Y-105530650D01*
X115697000Y-106553000D01*
X116719350Y-106553000D01*
X116814600Y-106457750D01*
X116814600Y-106902250D01*
X116719350Y-106807000D01*
X115697000Y-106807000D01*
X115697000Y-106827000D01*
X115443000Y-106827000D01*
X115443000Y-106807000D01*
X115423000Y-106807000D01*
X115423000Y-106553000D01*
X115443000Y-106553000D01*
X115443000Y-105530650D01*
X115347750Y-105435400D01*
X114829332Y-105435400D01*
X114794730Y-105261440D01*
X114684609Y-105096633D01*
X114187954Y-104599978D01*
X114274600Y-104164383D01*
X114274600Y-104115617D01*
X114274600Y-101624383D01*
X114274600Y-101575617D01*
X114179860Y-101099329D01*
X113910065Y-100695552D01*
X113506288Y-100425757D01*
X113030000Y-100331017D01*
X112553712Y-100425757D01*
X112149935Y-100695552D01*
X111880140Y-101099329D01*
X111785400Y-101575617D01*
X111785400Y-101624383D01*
X111880140Y-102100671D01*
X112149935Y-102504448D01*
X112553712Y-102774243D01*
X113030000Y-102868983D01*
X113506288Y-102774243D01*
X113910065Y-102504448D01*
X114179860Y-102100671D01*
X114274600Y-101624383D01*
X114274600Y-104115617D01*
X114179860Y-103639329D01*
X113910065Y-103235552D01*
X113506288Y-102965757D01*
X113030000Y-102871017D01*
X112553712Y-102965757D01*
X112149935Y-103235552D01*
X111880140Y-103639329D01*
X111785400Y-104115617D01*
X111785400Y-104164383D01*
X111880140Y-104640671D01*
X112149935Y-105044448D01*
X112553712Y-105314243D01*
X113030000Y-105408983D01*
X113472166Y-105321030D01*
X113817399Y-105666263D01*
X113817399Y-105713634D01*
X113506288Y-105505757D01*
X113030000Y-105411017D01*
X112553712Y-105505757D01*
X112149935Y-105775552D01*
X111880140Y-106179329D01*
X111785400Y-106655617D01*
X111785400Y-106704383D01*
X111880140Y-107180671D01*
X112149935Y-107584448D01*
X112553712Y-107854243D01*
X113030000Y-107948983D01*
X113506288Y-107854243D01*
X113817399Y-107646365D01*
X113817399Y-108165899D01*
X113856068Y-108360302D01*
X113966189Y-108525109D01*
X114216579Y-108775500D01*
X113970214Y-108775500D01*
X113830180Y-108833504D01*
X113723004Y-108940681D01*
X113665000Y-109080714D01*
X113606996Y-108940680D01*
X113499819Y-108833504D01*
X113359785Y-108775500D01*
X113208214Y-108775500D01*
X113113420Y-108775500D01*
X110744000Y-106406080D01*
X110744000Y-103886000D01*
X110705331Y-103691597D01*
X110705331Y-103691596D01*
X110595210Y-103526790D01*
X108309210Y-101240790D01*
X108144403Y-101130669D01*
X107950000Y-101092000D01*
X104582630Y-101092000D01*
X104531826Y-101092000D01*
X104474554Y-100953388D01*
X104153303Y-100631577D01*
X103733354Y-100457199D01*
X103278641Y-100456802D01*
X102858388Y-100630446D01*
X102536577Y-100951697D01*
X102362199Y-101371646D01*
X102361802Y-101826359D01*
X102535446Y-102246612D01*
X102856697Y-102568423D01*
X103276646Y-102742801D01*
X103731359Y-102743198D01*
X104151612Y-102569554D01*
X104473423Y-102248303D01*
X104531681Y-102108000D01*
X104582630Y-102108000D01*
X107739580Y-102108000D01*
X108978268Y-103346688D01*
X108753002Y-103439767D01*
X108716240Y-103476464D01*
X108674755Y-103459280D01*
X108523184Y-103459280D01*
X108124404Y-103459280D01*
X107984370Y-103517284D01*
X107949999Y-103551654D01*
X107915629Y-103517284D01*
X107775595Y-103459280D01*
X107624024Y-103459280D01*
X107225244Y-103459280D01*
X107085210Y-103517284D01*
X106978034Y-103624461D01*
X106974911Y-103632000D01*
X104531826Y-103632000D01*
X104474554Y-103493388D01*
X104153303Y-103171577D01*
X103733354Y-102997199D01*
X103278641Y-102996802D01*
X102858388Y-103170446D01*
X102536577Y-103491697D01*
X102362199Y-103911646D01*
X102361802Y-104366359D01*
X102535446Y-104786612D01*
X102856697Y-105108423D01*
X103276646Y-105282801D01*
X103731359Y-105283198D01*
X104151612Y-105109554D01*
X104473423Y-104788303D01*
X104531681Y-104648000D01*
X106974910Y-104648000D01*
X106978034Y-104655540D01*
X106992420Y-104669925D01*
X106992420Y-104860088D01*
X107031089Y-105054491D01*
X107141210Y-105219298D01*
X109191192Y-107269280D01*
X109130244Y-107269280D01*
X108990210Y-107327284D01*
X108883034Y-107434461D01*
X108825030Y-107574495D01*
X108825030Y-107726066D01*
X108825030Y-107727750D01*
X108920280Y-107823000D01*
X109305725Y-107823000D01*
X109305725Y-107803000D01*
X109505115Y-107803000D01*
X109505115Y-107823000D01*
X109552420Y-107823000D01*
X109552420Y-108077000D01*
X109505115Y-108077000D01*
X109505115Y-108097000D01*
X109305725Y-108097000D01*
X109305725Y-108077000D01*
X108920280Y-108077000D01*
X108874559Y-108122721D01*
X105666141Y-108122721D01*
X104626209Y-107082789D01*
X104590285Y-107046865D01*
X104647801Y-106908354D01*
X104648198Y-106453641D01*
X104474554Y-106033388D01*
X104153303Y-105711577D01*
X103733354Y-105537199D01*
X103278641Y-105536802D01*
X102858388Y-105710446D01*
X102536577Y-106031697D01*
X102362199Y-106451646D01*
X102361802Y-106906359D01*
X102535446Y-107326612D01*
X102856697Y-107648423D01*
X103276646Y-107822801D01*
X103731359Y-107823198D01*
X103871764Y-107765184D01*
X103907789Y-107801209D01*
X104818580Y-108712000D01*
X104531826Y-108712000D01*
X104474554Y-108573388D01*
X104153303Y-108251577D01*
X103733354Y-108077199D01*
X103278641Y-108076802D01*
X102858388Y-108250446D01*
X102536577Y-108571697D01*
X102362199Y-108991646D01*
X102361802Y-109446359D01*
X102535446Y-109866612D01*
X102856697Y-110188423D01*
X103276646Y-110362801D01*
X103731359Y-110363198D01*
X104151612Y-110189554D01*
X104473423Y-109868303D01*
X104531681Y-109728000D01*
X106469579Y-109728000D01*
X106828789Y-110087210D01*
X106828790Y-110087210D01*
X106938910Y-110160790D01*
X106993596Y-110197330D01*
X106993597Y-110197331D01*
X107188000Y-110236000D01*
X107315000Y-110236000D01*
X107315000Y-110375286D01*
X107373004Y-110515320D01*
X107480181Y-110622496D01*
X107620215Y-110680500D01*
X107771786Y-110680500D01*
X108279786Y-110680500D01*
X108419820Y-110622496D01*
X108526996Y-110515319D01*
X108585000Y-110375285D01*
X108585000Y-110375286D01*
X108643004Y-110515320D01*
X108712000Y-110584315D01*
X108712000Y-111862697D01*
X108520583Y-112053781D01*
X108394643Y-112357077D01*
X108394357Y-112685482D01*
X108519767Y-112988998D01*
X108751781Y-113221417D01*
X109055077Y-113347357D01*
X109383482Y-113347643D01*
X109686998Y-113222233D01*
X109919417Y-112990219D01*
X110045357Y-112686923D01*
X110045643Y-112358518D01*
X109920233Y-112055002D01*
X109728000Y-111862433D01*
X109728000Y-110584315D01*
X109796996Y-110515319D01*
X109855000Y-110375285D01*
X109855000Y-110375286D01*
X109913004Y-110515320D01*
X110020181Y-110622496D01*
X110160215Y-110680500D01*
X110311786Y-110680500D01*
X110819786Y-110680500D01*
X110959820Y-110622496D01*
X111066996Y-110515319D01*
X111125000Y-110375285D01*
X111125000Y-110375286D01*
X111183004Y-110515320D01*
X111290181Y-110622496D01*
X111430215Y-110680500D01*
X111581786Y-110680500D01*
X112089786Y-110680500D01*
X112229820Y-110622496D01*
X112336996Y-110515319D01*
X112395000Y-110375285D01*
X112395000Y-110375286D01*
X112453004Y-110515320D01*
X112560181Y-110622496D01*
X112700215Y-110680500D01*
X112851786Y-110680500D01*
X113359786Y-110680500D01*
X113499820Y-110622496D01*
X113606996Y-110515319D01*
X113665000Y-110375285D01*
X113665000Y-110375286D01*
X113723004Y-110515320D01*
X113766632Y-110558947D01*
X110596987Y-113728592D01*
X110326518Y-113728357D01*
X110023002Y-113853767D01*
X109790583Y-114085781D01*
X109664643Y-114389077D01*
X109664357Y-114717482D01*
X109789767Y-115020998D01*
X109986055Y-115217628D01*
X109913004Y-115290681D01*
X109855000Y-115430714D01*
X109796996Y-115290680D01*
X109689819Y-115183504D01*
X109549785Y-115125500D01*
X109398214Y-115125500D01*
X108890214Y-115125500D01*
X108750180Y-115183504D01*
X108643004Y-115290681D01*
X108585000Y-115430714D01*
X108526996Y-115290680D01*
X108458000Y-115221684D01*
X108458000Y-114554000D01*
X108419331Y-114359597D01*
X108309210Y-114194790D01*
X105515210Y-111400790D01*
X105350403Y-111290669D01*
X105156000Y-111252000D01*
X104531826Y-111252000D01*
X104474554Y-111113388D01*
X104153303Y-110791577D01*
X103733354Y-110617199D01*
X103278641Y-110616802D01*
X102858388Y-110790446D01*
X102536577Y-111111697D01*
X102362199Y-111531646D01*
X102361802Y-111986359D01*
X102535446Y-112406612D01*
X102856697Y-112728423D01*
X103276646Y-112902801D01*
X103731359Y-112903198D01*
X104151612Y-112729554D01*
X104473423Y-112408303D01*
X104531681Y-112268000D01*
X104945580Y-112268000D01*
X107442000Y-114764420D01*
X107442000Y-115221684D01*
X107373004Y-115290681D01*
X107315000Y-115430715D01*
X107315000Y-115582286D01*
X107315000Y-116522501D01*
X106445921Y-116522501D01*
X104626209Y-114702789D01*
X104590285Y-114666865D01*
X104647801Y-114528354D01*
X104648198Y-114073641D01*
X104474554Y-113653388D01*
X104153303Y-113331577D01*
X103733354Y-113157199D01*
X103278641Y-113156802D01*
X102858388Y-113330446D01*
X102536577Y-113651697D01*
X102362199Y-114071646D01*
X102361802Y-114526359D01*
X102535446Y-114946612D01*
X102856697Y-115268423D01*
X103276646Y-115442801D01*
X103731359Y-115443198D01*
X103871764Y-115385184D01*
X103907789Y-115421209D01*
X105876291Y-117389711D01*
X106041097Y-117499832D01*
X106041098Y-117499832D01*
X106073350Y-117506247D01*
X106235501Y-117538501D01*
X109092999Y-117538501D01*
X109287402Y-117499832D01*
X109452209Y-117389711D01*
X109579210Y-117262710D01*
X109579211Y-117262710D01*
X109689331Y-117097903D01*
X109720348Y-116941967D01*
X109796996Y-116865319D01*
X109855000Y-116725285D01*
X109855000Y-116725286D01*
X109913004Y-116865320D01*
X110020181Y-116972496D01*
X110160215Y-117030500D01*
X110311786Y-117030500D01*
X110819786Y-117030500D01*
X110959820Y-116972496D01*
X111066996Y-116865319D01*
X111125000Y-116725285D01*
X111125000Y-116725286D01*
X111183004Y-116865320D01*
X111290181Y-116972496D01*
X111430215Y-117030500D01*
X111581786Y-117030500D01*
X111676579Y-117030500D01*
X111426189Y-117280891D01*
X111316068Y-117445698D01*
X111277399Y-117640101D01*
X111277399Y-118869960D01*
X111190233Y-118659002D01*
X110958219Y-118426583D01*
X110654923Y-118300643D01*
X110326518Y-118300357D01*
X110023002Y-118425767D01*
X109830433Y-118618000D01*
X109433089Y-118618000D01*
X109429966Y-118610460D01*
X109322789Y-118503284D01*
X109182755Y-118445280D01*
X109031184Y-118445280D01*
X108632404Y-118445280D01*
X108492370Y-118503284D01*
X108457999Y-118537654D01*
X108423629Y-118503284D01*
X108283595Y-118445280D01*
X108132024Y-118445280D01*
X107733244Y-118445280D01*
X107593210Y-118503284D01*
X107486034Y-118610461D01*
X107428030Y-118750495D01*
X107428030Y-118902066D01*
X107428030Y-119501506D01*
X107486034Y-119641540D01*
X107500420Y-119655925D01*
X107500420Y-119705120D01*
X107539089Y-119899523D01*
X107649210Y-120064330D01*
X107835700Y-120250820D01*
X107835700Y-120777000D01*
X107855700Y-120777000D01*
X107855700Y-121031000D01*
X107835700Y-121031000D01*
X107835700Y-121051000D01*
X107581700Y-121051000D01*
X107581700Y-121031000D01*
X107581700Y-120777000D01*
X107581700Y-120219470D01*
X107486450Y-120124220D01*
X107234134Y-120124220D01*
X107094100Y-120182224D01*
X106986924Y-120289401D01*
X106928920Y-120429435D01*
X106928920Y-120581006D01*
X106928920Y-120681750D01*
X107024170Y-120777000D01*
X107581700Y-120777000D01*
X107581700Y-121031000D01*
X107024170Y-121031000D01*
X106928920Y-121126250D01*
X106928920Y-121226994D01*
X106928920Y-121378565D01*
X106942769Y-121412000D01*
X104648198Y-121412000D01*
X104648198Y-119153641D01*
X104648198Y-116613641D01*
X104474554Y-116193388D01*
X104153303Y-115871577D01*
X103733354Y-115697199D01*
X103278641Y-115696802D01*
X102858388Y-115870446D01*
X102536577Y-116191697D01*
X102362199Y-116611646D01*
X102361802Y-117066359D01*
X102535446Y-117486612D01*
X102856697Y-117808423D01*
X103276646Y-117982801D01*
X103731359Y-117983198D01*
X104151612Y-117809554D01*
X104473423Y-117488303D01*
X104647801Y-117068354D01*
X104648198Y-116613641D01*
X104648198Y-119153641D01*
X104474554Y-118733388D01*
X104153303Y-118411577D01*
X103733354Y-118237199D01*
X103278641Y-118236802D01*
X102858388Y-118410446D01*
X102536577Y-118731697D01*
X102362199Y-119151646D01*
X102361802Y-119606359D01*
X102535446Y-120026612D01*
X102856697Y-120348423D01*
X103276646Y-120522801D01*
X103731359Y-120523198D01*
X104151612Y-120349554D01*
X104473423Y-120028303D01*
X104647801Y-119608354D01*
X104648198Y-119153641D01*
X104648198Y-121412000D01*
X104531826Y-121412000D01*
X104474554Y-121273388D01*
X104153303Y-120951577D01*
X103733354Y-120777199D01*
X103278641Y-120776802D01*
X102858388Y-120950446D01*
X102536577Y-121271697D01*
X102362199Y-121691646D01*
X102361802Y-122146359D01*
X102535446Y-122566612D01*
X102856697Y-122888423D01*
X103276646Y-123062801D01*
X103731359Y-123063198D01*
X104151612Y-122889554D01*
X104473423Y-122568303D01*
X104531681Y-122428000D01*
X111885037Y-122428000D01*
X112149935Y-122824448D01*
X112553712Y-123094243D01*
X113030000Y-123188983D01*
X113506288Y-123094243D01*
X113910065Y-122824448D01*
X114179860Y-122420671D01*
X114274600Y-121944383D01*
X114274600Y-121895617D01*
X114179860Y-121419329D01*
X113988274Y-121132601D01*
X114064181Y-121132601D01*
X114408653Y-121477073D01*
X114325400Y-121895617D01*
X114325400Y-121944383D01*
X114420140Y-122420671D01*
X114689935Y-122824448D01*
X115093712Y-123094243D01*
X115570000Y-123188983D01*
X116046288Y-123094243D01*
X116450065Y-122824448D01*
X116719860Y-122420671D01*
X116814600Y-121944383D01*
X116814600Y-121895617D01*
X116773005Y-121686505D01*
X116773005Y-119699120D01*
X116773005Y-119060880D01*
X116559310Y-118624801D01*
X116205000Y-118312508D01*
X116205000Y-116725285D01*
X116205000Y-116573714D01*
X116205000Y-116300250D01*
X116205000Y-115855750D01*
X116205000Y-115582286D01*
X116205000Y-115430715D01*
X116146996Y-115290681D01*
X116039820Y-115183504D01*
X115899786Y-115125500D01*
X115792250Y-115125500D01*
X115697000Y-115220750D01*
X115697000Y-115951000D01*
X116109750Y-115951000D01*
X116205000Y-115855750D01*
X116205000Y-116300250D01*
X116109750Y-116205000D01*
X115697000Y-116205000D01*
X115697000Y-116935250D01*
X115792250Y-117030500D01*
X115899786Y-117030500D01*
X116039820Y-116972496D01*
X116146996Y-116865319D01*
X116205000Y-116725285D01*
X116205000Y-118312508D01*
X116195001Y-118303695D01*
X115889118Y-118177007D01*
X115697000Y-118237688D01*
X115697000Y-119253000D01*
X116712865Y-119253000D01*
X116773005Y-119060880D01*
X116773005Y-119699120D01*
X116712865Y-119507000D01*
X115697000Y-119507000D01*
X115697000Y-120522312D01*
X115889118Y-120582993D01*
X116195001Y-120456305D01*
X116559310Y-120135199D01*
X116773005Y-119699120D01*
X116773005Y-121686505D01*
X116719860Y-121419329D01*
X116450065Y-121015552D01*
X116046288Y-120745757D01*
X115570000Y-120651017D01*
X115443000Y-120676278D01*
X115443000Y-120522312D01*
X115443000Y-119507000D01*
X115443000Y-119253000D01*
X115443000Y-118237688D01*
X115250882Y-118177007D01*
X114944999Y-118303695D01*
X114580690Y-118624801D01*
X114366995Y-119060880D01*
X114427135Y-119253000D01*
X115443000Y-119253000D01*
X115443000Y-119507000D01*
X114427135Y-119507000D01*
X114366995Y-119699120D01*
X114580690Y-120135199D01*
X114944999Y-120456305D01*
X115250882Y-120582993D01*
X115443000Y-120522312D01*
X115443000Y-120676278D01*
X115110781Y-120742361D01*
X114633811Y-120265391D01*
X114469004Y-120155270D01*
X114274601Y-120116601D01*
X114022216Y-120116601D01*
X114179860Y-119880671D01*
X114274600Y-119404383D01*
X114274600Y-119355617D01*
X114191346Y-118937073D01*
X114659210Y-118469210D01*
X114769331Y-118304404D01*
X114769331Y-118304403D01*
X114775746Y-118272150D01*
X114807999Y-118110000D01*
X114808000Y-118110000D01*
X114808000Y-116934315D01*
X114876996Y-116865319D01*
X114935000Y-116725285D01*
X114993004Y-116865319D01*
X115100180Y-116972496D01*
X115240214Y-117030500D01*
X115347750Y-117030500D01*
X115443000Y-116935250D01*
X115443000Y-116205000D01*
X115030250Y-116205000D01*
X114935000Y-116300250D01*
X114935000Y-115855750D01*
X115030250Y-115951000D01*
X115443000Y-115951000D01*
X115443000Y-115220750D01*
X115347750Y-115125500D01*
X115240214Y-115125500D01*
X115100180Y-115183504D01*
X114993004Y-115290681D01*
X114935000Y-115430714D01*
X114876996Y-115290680D01*
X114769819Y-115183504D01*
X114629785Y-115125500D01*
X114478214Y-115125500D01*
X114463828Y-115125500D01*
X114766998Y-115000233D01*
X114999417Y-114768219D01*
X115125357Y-114464923D01*
X115125643Y-114136518D01*
X115000233Y-113833002D01*
X114768219Y-113600583D01*
X114464923Y-113474643D01*
X114136518Y-113474357D01*
X113833002Y-113599767D01*
X113640433Y-113792000D01*
X113176920Y-113792000D01*
X113938920Y-113030000D01*
X115545697Y-113030000D01*
X115736781Y-113221417D01*
X116040077Y-113347357D01*
X116368482Y-113347643D01*
X116671998Y-113222233D01*
X116904417Y-112990219D01*
X117030357Y-112686923D01*
X117030643Y-112358518D01*
X116905233Y-112055002D01*
X116673219Y-111822583D01*
X116369923Y-111696643D01*
X116041518Y-111696357D01*
X115738002Y-111821767D01*
X115545433Y-112014000D01*
X113748420Y-112014000D01*
X114659210Y-111103210D01*
X114769331Y-110938404D01*
X114769331Y-110938403D01*
X114808000Y-110744000D01*
X114808000Y-110584315D01*
X114876996Y-110515319D01*
X114935000Y-110375285D01*
X114935000Y-110375286D01*
X114993004Y-110515320D01*
X115100181Y-110622496D01*
X115240215Y-110680500D01*
X115391786Y-110680500D01*
X115899786Y-110680500D01*
X116039820Y-110622496D01*
X116146996Y-110515319D01*
X116205000Y-110375285D01*
X116205000Y-110223714D01*
X116205000Y-109900720D01*
X116266816Y-109900720D01*
X116665596Y-109900720D01*
X116805630Y-109842716D01*
X116840000Y-109808345D01*
X116874370Y-109842716D01*
X117014404Y-109900720D01*
X117094635Y-109900720D01*
X117189885Y-109805470D01*
X117189885Y-125653923D01*
X117019269Y-125909269D01*
X116814600Y-126046024D01*
X116814600Y-125399386D01*
X116814600Y-124682250D01*
X116814600Y-124237750D01*
X116814600Y-123520614D01*
X116756596Y-123380580D01*
X116649419Y-123273404D01*
X116509385Y-123215400D01*
X116357814Y-123215400D01*
X115792250Y-123215400D01*
X115697000Y-123310650D01*
X115697000Y-124333000D01*
X116719350Y-124333000D01*
X116814600Y-124237750D01*
X116814600Y-124682250D01*
X116719350Y-124587000D01*
X115697000Y-124587000D01*
X115697000Y-125609350D01*
X115792250Y-125704600D01*
X116357814Y-125704600D01*
X116509385Y-125704600D01*
X116649419Y-125646596D01*
X116756596Y-125539420D01*
X116814600Y-125399386D01*
X116814600Y-126046024D01*
X116354339Y-126353561D01*
X115522624Y-126519000D01*
X115443000Y-126519000D01*
X115443000Y-125609350D01*
X115443000Y-124587000D01*
X115443000Y-124333000D01*
X115443000Y-123310650D01*
X115347750Y-123215400D01*
X114782186Y-123215400D01*
X114630615Y-123215400D01*
X114490581Y-123273404D01*
X114383404Y-123380580D01*
X114325400Y-123520614D01*
X114325400Y-124237750D01*
X114420650Y-124333000D01*
X115443000Y-124333000D01*
X115443000Y-124587000D01*
X114420650Y-124587000D01*
X114325400Y-124682250D01*
X114325400Y-125399386D01*
X114383404Y-125539420D01*
X114490581Y-125646596D01*
X114630615Y-125704600D01*
X114782186Y-125704600D01*
X115347750Y-125704600D01*
X115443000Y-125609350D01*
X115443000Y-126519000D01*
X114274600Y-126519000D01*
X114274600Y-124484383D01*
X114274600Y-124435617D01*
X114179860Y-123959329D01*
X113910065Y-123555552D01*
X113506288Y-123285757D01*
X113030000Y-123191017D01*
X112553712Y-123285757D01*
X112149935Y-123555552D01*
X111880140Y-123959329D01*
X111785400Y-124435617D01*
X111785400Y-124484383D01*
X111880140Y-124960671D01*
X112149935Y-125364448D01*
X112553712Y-125634243D01*
X113030000Y-125728983D01*
X113506288Y-125634243D01*
X113910065Y-125364448D01*
X114179860Y-124960671D01*
X114274600Y-124484383D01*
X114274600Y-126519000D01*
X104661091Y-126519000D01*
X104661091Y-124606945D01*
X104629322Y-124153343D01*
X104516856Y-123881824D01*
X104346160Y-123798445D01*
X104166555Y-123978050D01*
X104166555Y-123618840D01*
X104083176Y-123448144D01*
X103651945Y-123303909D01*
X103198343Y-123335678D01*
X102926824Y-123448144D01*
X102843445Y-123618840D01*
X103505000Y-124280395D01*
X104166555Y-123618840D01*
X104166555Y-123978050D01*
X103684605Y-124460000D01*
X104346160Y-125121555D01*
X104516856Y-125038176D01*
X104661091Y-124606945D01*
X104661091Y-126519000D01*
X104166555Y-126519000D01*
X104166555Y-125301160D01*
X103505000Y-124639605D01*
X103325395Y-124819210D01*
X103325395Y-124460000D01*
X102663840Y-123798445D01*
X102493144Y-123881824D01*
X102348909Y-124313055D01*
X102380678Y-124766657D01*
X102493144Y-125038176D01*
X102663840Y-125121555D01*
X103325395Y-124460000D01*
X103325395Y-124819210D01*
X102843445Y-125301160D01*
X102926824Y-125471856D01*
X103358055Y-125616091D01*
X103811657Y-125584322D01*
X104083176Y-125471856D01*
X104166555Y-125301160D01*
X104166555Y-126519000D01*
X102081000Y-126519000D01*
X102081000Y-99541000D01*
X115522624Y-99541000D01*
X116354339Y-99706438D01*
X117019269Y-100150730D01*
X117463561Y-100815661D01*
X117629000Y-101647376D01*
X117629000Y-102870000D01*
X117638242Y-102916462D01*
X117638242Y-102963838D01*
X117729000Y-103420109D01*
X117729000Y-104203497D01*
X117665643Y-104356077D01*
X117665357Y-104684482D01*
X117729000Y-104838510D01*
X117729000Y-105092497D01*
X117665643Y-105245077D01*
X117665357Y-105573482D01*
X117729000Y-105727510D01*
X117729000Y-105981497D01*
X117665643Y-106134077D01*
X117665357Y-106462482D01*
X117729000Y-106616510D01*
X117729000Y-107399890D01*
X117638242Y-107856162D01*
X117638242Y-107903537D01*
X117629000Y-107950000D01*
X117629000Y-108565890D01*
X117564756Y-108539280D01*
X117484525Y-108539280D01*
X117389275Y-108634530D01*
X117389275Y-109093000D01*
X117436580Y-109093000D01*
X117436580Y-109347000D01*
X117389275Y-109347000D01*
X117389275Y-109805470D01*
X117484525Y-109900720D01*
X117564756Y-109900720D01*
X117629000Y-109874109D01*
X117629000Y-118110000D01*
X117638242Y-118156462D01*
X117638242Y-118203838D01*
X117729000Y-118660109D01*
X117729000Y-119443497D01*
X117665643Y-119596077D01*
X117665357Y-119924482D01*
X117729000Y-120078510D01*
X117729000Y-120332497D01*
X117665643Y-120485077D01*
X117665357Y-120813482D01*
X117729000Y-120967510D01*
X117729000Y-121221497D01*
X117665643Y-121374077D01*
X117665357Y-121702482D01*
X117729000Y-121856510D01*
X117729000Y-122639890D01*
X117729000Y-122639890D01*
G37*
X117729000Y-122639890D02*
X117638242Y-123096162D01*
X117638242Y-123143537D01*
X117629000Y-123190000D01*
X117629000Y-124412623D01*
X117463561Y-125244338D01*
X117189885Y-125653923D01*
X117189885Y-109805470D01*
X117189885Y-109347000D01*
X117142580Y-109347000D01*
X117142580Y-109093000D01*
X117189885Y-109093000D01*
X117189885Y-108634530D01*
X117094635Y-108539280D01*
X117014404Y-108539280D01*
X116874370Y-108597284D01*
X116839999Y-108631654D01*
X116805629Y-108597284D01*
X116782777Y-108587818D01*
X116749630Y-108538210D01*
X116649407Y-108437987D01*
X116649643Y-108167518D01*
X116543442Y-107910492D01*
X116649419Y-107866596D01*
X116756596Y-107759420D01*
X116814600Y-107619386D01*
X116814600Y-106902250D01*
X116814600Y-106457750D01*
X116814600Y-105740614D01*
X116814600Y-104164383D01*
X116814600Y-104115617D01*
X116773005Y-103906505D01*
X116773005Y-101919120D01*
X116773005Y-101280880D01*
X116559310Y-100844801D01*
X116195001Y-100523695D01*
X115889118Y-100397007D01*
X115697000Y-100457688D01*
X115697000Y-101473000D01*
X116712865Y-101473000D01*
X116773005Y-101280880D01*
X116773005Y-101919120D01*
X116712865Y-101727000D01*
X115697000Y-101727000D01*
X115697000Y-102742312D01*
X115889118Y-102802993D01*
X116195001Y-102676305D01*
X116559310Y-102355199D01*
X116773005Y-101919120D01*
X116773005Y-103906505D01*
X116719860Y-103639329D01*
X116450065Y-103235552D01*
X116046288Y-102965757D01*
X115570000Y-102871017D01*
X115443000Y-102896278D01*
X115443000Y-102742312D01*
X115443000Y-101727000D01*
X115443000Y-101473000D01*
X115443000Y-100457688D01*
X115250882Y-100397007D01*
X114944999Y-100523695D01*
X114580690Y-100844801D01*
X114366995Y-101280880D01*
X114427135Y-101473000D01*
X115443000Y-101473000D01*
X115443000Y-101727000D01*
X114427135Y-101727000D01*
X114366995Y-101919120D01*
X114580690Y-102355199D01*
X114944999Y-102676305D01*
X115250882Y-102802993D01*
X115443000Y-102742312D01*
X115443000Y-102896278D01*
X115093712Y-102965757D01*
X114689935Y-103235552D01*
X114420140Y-103639329D01*
X114325400Y-104115617D01*
X114325400Y-104164383D01*
X114420140Y-104640671D01*
X114689935Y-105044448D01*
X115093712Y-105314243D01*
X115570000Y-105408983D01*
X116046288Y-105314243D01*
X116450065Y-105044448D01*
X116719860Y-104640671D01*
X116814600Y-104164383D01*
X116814600Y-105740614D01*
X116756596Y-105600580D01*
X116649419Y-105493404D01*
X116509385Y-105435400D01*
X116357814Y-105435400D01*
X115792250Y-105435400D01*
X115697000Y-105530650D01*
X115697000Y-106553000D01*
X116719350Y-106553000D01*
X116814600Y-106457750D01*
X116814600Y-106902250D01*
X116719350Y-106807000D01*
X115697000Y-106807000D01*
X115697000Y-106827000D01*
X115443000Y-106827000D01*
X115443000Y-106807000D01*
X115423000Y-106807000D01*
X115423000Y-106553000D01*
X115443000Y-106553000D01*
X115443000Y-105530650D01*
X115347750Y-105435400D01*
X114829332Y-105435400D01*
X114794730Y-105261440D01*
X114684609Y-105096633D01*
X114187954Y-104599978D01*
X114274600Y-104164383D01*
X114274600Y-104115617D01*
X114274600Y-101624383D01*
X114274600Y-101575617D01*
X114179860Y-101099329D01*
X113910065Y-100695552D01*
X113506288Y-100425757D01*
X113030000Y-100331017D01*
X112553712Y-100425757D01*
X112149935Y-100695552D01*
X111880140Y-101099329D01*
X111785400Y-101575617D01*
X111785400Y-101624383D01*
X111880140Y-102100671D01*
X112149935Y-102504448D01*
X112553712Y-102774243D01*
X113030000Y-102868983D01*
X113506288Y-102774243D01*
X113910065Y-102504448D01*
X114179860Y-102100671D01*
X114274600Y-101624383D01*
X114274600Y-104115617D01*
X114179860Y-103639329D01*
X113910065Y-103235552D01*
X113506288Y-102965757D01*
X113030000Y-102871017D01*
X112553712Y-102965757D01*
X112149935Y-103235552D01*
X111880140Y-103639329D01*
X111785400Y-104115617D01*
X111785400Y-104164383D01*
X111880140Y-104640671D01*
X112149935Y-105044448D01*
X112553712Y-105314243D01*
X113030000Y-105408983D01*
X113472166Y-105321030D01*
X113817399Y-105666263D01*
X113817399Y-105713634D01*
X113506288Y-105505757D01*
X113030000Y-105411017D01*
X112553712Y-105505757D01*
X112149935Y-105775552D01*
X111880140Y-106179329D01*
X111785400Y-106655617D01*
X111785400Y-106704383D01*
X111880140Y-107180671D01*
X112149935Y-107584448D01*
X112553712Y-107854243D01*
X113030000Y-107948983D01*
X113506288Y-107854243D01*
X113817399Y-107646365D01*
X113817399Y-108165899D01*
X113856068Y-108360302D01*
X113966189Y-108525109D01*
X114216579Y-108775500D01*
X113970214Y-108775500D01*
X113830180Y-108833504D01*
X113723004Y-108940681D01*
X113665000Y-109080714D01*
X113606996Y-108940680D01*
X113499819Y-108833504D01*
X113359785Y-108775500D01*
X113208214Y-108775500D01*
X113113420Y-108775500D01*
X110744000Y-106406080D01*
X110744000Y-103886000D01*
X110705331Y-103691597D01*
X110705331Y-103691596D01*
X110595210Y-103526790D01*
X108309210Y-101240790D01*
X108144403Y-101130669D01*
X107950000Y-101092000D01*
X104582630Y-101092000D01*
X104531826Y-101092000D01*
X104474554Y-100953388D01*
X104153303Y-100631577D01*
X103733354Y-100457199D01*
X103278641Y-100456802D01*
X102858388Y-100630446D01*
X102536577Y-100951697D01*
X102362199Y-101371646D01*
X102361802Y-101826359D01*
X102535446Y-102246612D01*
X102856697Y-102568423D01*
X103276646Y-102742801D01*
X103731359Y-102743198D01*
X104151612Y-102569554D01*
X104473423Y-102248303D01*
X104531681Y-102108000D01*
X104582630Y-102108000D01*
X107739580Y-102108000D01*
X108978268Y-103346688D01*
X108753002Y-103439767D01*
X108716240Y-103476464D01*
X108674755Y-103459280D01*
X108523184Y-103459280D01*
X108124404Y-103459280D01*
X107984370Y-103517284D01*
X107949999Y-103551654D01*
X107915629Y-103517284D01*
X107775595Y-103459280D01*
X107624024Y-103459280D01*
X107225244Y-103459280D01*
X107085210Y-103517284D01*
X106978034Y-103624461D01*
X106974911Y-103632000D01*
X104531826Y-103632000D01*
X104474554Y-103493388D01*
X104153303Y-103171577D01*
X103733354Y-102997199D01*
X103278641Y-102996802D01*
X102858388Y-103170446D01*
X102536577Y-103491697D01*
X102362199Y-103911646D01*
X102361802Y-104366359D01*
X102535446Y-104786612D01*
X102856697Y-105108423D01*
X103276646Y-105282801D01*
X103731359Y-105283198D01*
X104151612Y-105109554D01*
X104473423Y-104788303D01*
X104531681Y-104648000D01*
X106974910Y-104648000D01*
X106978034Y-104655540D01*
X106992420Y-104669925D01*
X106992420Y-104860088D01*
X107031089Y-105054491D01*
X107141210Y-105219298D01*
X109191192Y-107269280D01*
X109130244Y-107269280D01*
X108990210Y-107327284D01*
X108883034Y-107434461D01*
X108825030Y-107574495D01*
X108825030Y-107726066D01*
X108825030Y-107727750D01*
X108920280Y-107823000D01*
X109305725Y-107823000D01*
X109305725Y-107803000D01*
X109505115Y-107803000D01*
X109505115Y-107823000D01*
X109552420Y-107823000D01*
X109552420Y-108077000D01*
X109505115Y-108077000D01*
X109505115Y-108097000D01*
X109305725Y-108097000D01*
X109305725Y-108077000D01*
X108920280Y-108077000D01*
X108874559Y-108122721D01*
X105666141Y-108122721D01*
X104626209Y-107082789D01*
X104590285Y-107046865D01*
X104647801Y-106908354D01*
X104648198Y-106453641D01*
X104474554Y-106033388D01*
X104153303Y-105711577D01*
X103733354Y-105537199D01*
X103278641Y-105536802D01*
X102858388Y-105710446D01*
X102536577Y-106031697D01*
X102362199Y-106451646D01*
X102361802Y-106906359D01*
X102535446Y-107326612D01*
X102856697Y-107648423D01*
X103276646Y-107822801D01*
X103731359Y-107823198D01*
X103871764Y-107765184D01*
X103907789Y-107801209D01*
X104818580Y-108712000D01*
X104531826Y-108712000D01*
X104474554Y-108573388D01*
X104153303Y-108251577D01*
X103733354Y-108077199D01*
X103278641Y-108076802D01*
X102858388Y-108250446D01*
X102536577Y-108571697D01*
X102362199Y-108991646D01*
X102361802Y-109446359D01*
X102535446Y-109866612D01*
X102856697Y-110188423D01*
X103276646Y-110362801D01*
X103731359Y-110363198D01*
X104151612Y-110189554D01*
X104473423Y-109868303D01*
X104531681Y-109728000D01*
X106469579Y-109728000D01*
X106828789Y-110087210D01*
X106828790Y-110087210D01*
X106938910Y-110160790D01*
X106993596Y-110197330D01*
X106993597Y-110197331D01*
X107188000Y-110236000D01*
X107315000Y-110236000D01*
X107315000Y-110375286D01*
X107373004Y-110515320D01*
X107480181Y-110622496D01*
X107620215Y-110680500D01*
X107771786Y-110680500D01*
X108279786Y-110680500D01*
X108419820Y-110622496D01*
X108526996Y-110515319D01*
X108585000Y-110375285D01*
X108585000Y-110375286D01*
X108643004Y-110515320D01*
X108712000Y-110584315D01*
X108712000Y-111862697D01*
X108520583Y-112053781D01*
X108394643Y-112357077D01*
X108394357Y-112685482D01*
X108519767Y-112988998D01*
X108751781Y-113221417D01*
X109055077Y-113347357D01*
X109383482Y-113347643D01*
X109686998Y-113222233D01*
X109919417Y-112990219D01*
X110045357Y-112686923D01*
X110045643Y-112358518D01*
X109920233Y-112055002D01*
X109728000Y-111862433D01*
X109728000Y-110584315D01*
X109796996Y-110515319D01*
X109855000Y-110375285D01*
X109855000Y-110375286D01*
X109913004Y-110515320D01*
X110020181Y-110622496D01*
X110160215Y-110680500D01*
X110311786Y-110680500D01*
X110819786Y-110680500D01*
X110959820Y-110622496D01*
X111066996Y-110515319D01*
X111125000Y-110375285D01*
X111125000Y-110375286D01*
X111183004Y-110515320D01*
X111290181Y-110622496D01*
X111430215Y-110680500D01*
X111581786Y-110680500D01*
X112089786Y-110680500D01*
X112229820Y-110622496D01*
X112336996Y-110515319D01*
X112395000Y-110375285D01*
X112395000Y-110375286D01*
X112453004Y-110515320D01*
X112560181Y-110622496D01*
X112700215Y-110680500D01*
X112851786Y-110680500D01*
X113359786Y-110680500D01*
X113499820Y-110622496D01*
X113606996Y-110515319D01*
X113665000Y-110375285D01*
X113665000Y-110375286D01*
X113723004Y-110515320D01*
X113766632Y-110558947D01*
X110596987Y-113728592D01*
X110326518Y-113728357D01*
X110023002Y-113853767D01*
X109790583Y-114085781D01*
X109664643Y-114389077D01*
X109664357Y-114717482D01*
X109789767Y-115020998D01*
X109986055Y-115217628D01*
X109913004Y-115290681D01*
X109855000Y-115430714D01*
X109796996Y-115290680D01*
X109689819Y-115183504D01*
X109549785Y-115125500D01*
X109398214Y-115125500D01*
X108890214Y-115125500D01*
X108750180Y-115183504D01*
X108643004Y-115290681D01*
X108585000Y-115430714D01*
X108526996Y-115290680D01*
X108458000Y-115221684D01*
X108458000Y-114554000D01*
X108419331Y-114359597D01*
X108309210Y-114194790D01*
X105515210Y-111400790D01*
X105350403Y-111290669D01*
X105156000Y-111252000D01*
X104531826Y-111252000D01*
X104474554Y-111113388D01*
X104153303Y-110791577D01*
X103733354Y-110617199D01*
X103278641Y-110616802D01*
X102858388Y-110790446D01*
X102536577Y-111111697D01*
X102362199Y-111531646D01*
X102361802Y-111986359D01*
X102535446Y-112406612D01*
X102856697Y-112728423D01*
X103276646Y-112902801D01*
X103731359Y-112903198D01*
X104151612Y-112729554D01*
X104473423Y-112408303D01*
X104531681Y-112268000D01*
X104945580Y-112268000D01*
X107442000Y-114764420D01*
X107442000Y-115221684D01*
X107373004Y-115290681D01*
X107315000Y-115430715D01*
X107315000Y-115582286D01*
X107315000Y-116522501D01*
X106445921Y-116522501D01*
X104626209Y-114702789D01*
X104590285Y-114666865D01*
X104647801Y-114528354D01*
X104648198Y-114073641D01*
X104474554Y-113653388D01*
X104153303Y-113331577D01*
X103733354Y-113157199D01*
X103278641Y-113156802D01*
X102858388Y-113330446D01*
X102536577Y-113651697D01*
X102362199Y-114071646D01*
X102361802Y-114526359D01*
X102535446Y-114946612D01*
X102856697Y-115268423D01*
X103276646Y-115442801D01*
X103731359Y-115443198D01*
X103871764Y-115385184D01*
X103907789Y-115421209D01*
X105876291Y-117389711D01*
X106041097Y-117499832D01*
X106041098Y-117499832D01*
X106073350Y-117506247D01*
X106235501Y-117538501D01*
X109092999Y-117538501D01*
X109287402Y-117499832D01*
X109452209Y-117389711D01*
X109579210Y-117262710D01*
X109579211Y-117262710D01*
X109689331Y-117097903D01*
X109720348Y-116941967D01*
X109796996Y-116865319D01*
X109855000Y-116725285D01*
X109855000Y-116725286D01*
X109913004Y-116865320D01*
X110020181Y-116972496D01*
X110160215Y-117030500D01*
X110311786Y-117030500D01*
X110819786Y-117030500D01*
X110959820Y-116972496D01*
X111066996Y-116865319D01*
X111125000Y-116725285D01*
X111125000Y-116725286D01*
X111183004Y-116865320D01*
X111290181Y-116972496D01*
X111430215Y-117030500D01*
X111581786Y-117030500D01*
X111676579Y-117030500D01*
X111426189Y-117280891D01*
X111316068Y-117445698D01*
X111277399Y-117640101D01*
X111277399Y-118869960D01*
X111190233Y-118659002D01*
X110958219Y-118426583D01*
X110654923Y-118300643D01*
X110326518Y-118300357D01*
X110023002Y-118425767D01*
X109830433Y-118618000D01*
X109433089Y-118618000D01*
X109429966Y-118610460D01*
X109322789Y-118503284D01*
X109182755Y-118445280D01*
X109031184Y-118445280D01*
X108632404Y-118445280D01*
X108492370Y-118503284D01*
X108457999Y-118537654D01*
X108423629Y-118503284D01*
X108283595Y-118445280D01*
X108132024Y-118445280D01*
X107733244Y-118445280D01*
X107593210Y-118503284D01*
X107486034Y-118610461D01*
X107428030Y-118750495D01*
X107428030Y-118902066D01*
X107428030Y-119501506D01*
X107486034Y-119641540D01*
X107500420Y-119655925D01*
X107500420Y-119705120D01*
X107539089Y-119899523D01*
X107649210Y-120064330D01*
X107835700Y-120250820D01*
X107835700Y-120777000D01*
X107855700Y-120777000D01*
X107855700Y-121031000D01*
X107835700Y-121031000D01*
X107835700Y-121051000D01*
X107581700Y-121051000D01*
X107581700Y-121031000D01*
X107581700Y-120777000D01*
X107581700Y-120219470D01*
X107486450Y-120124220D01*
X107234134Y-120124220D01*
X107094100Y-120182224D01*
X106986924Y-120289401D01*
X106928920Y-120429435D01*
X106928920Y-120581006D01*
X106928920Y-120681750D01*
X107024170Y-120777000D01*
X107581700Y-120777000D01*
X107581700Y-121031000D01*
X107024170Y-121031000D01*
X106928920Y-121126250D01*
X106928920Y-121226994D01*
X106928920Y-121378565D01*
X106942769Y-121412000D01*
X104648198Y-121412000D01*
X104648198Y-119153641D01*
X104648198Y-116613641D01*
X104474554Y-116193388D01*
X104153303Y-115871577D01*
X103733354Y-115697199D01*
X103278641Y-115696802D01*
X102858388Y-115870446D01*
X102536577Y-116191697D01*
X102362199Y-116611646D01*
X102361802Y-117066359D01*
X102535446Y-117486612D01*
X102856697Y-117808423D01*
X103276646Y-117982801D01*
X103731359Y-117983198D01*
X104151612Y-117809554D01*
X104473423Y-117488303D01*
X104647801Y-117068354D01*
X104648198Y-116613641D01*
X104648198Y-119153641D01*
X104474554Y-118733388D01*
X104153303Y-118411577D01*
X103733354Y-118237199D01*
X103278641Y-118236802D01*
X102858388Y-118410446D01*
X102536577Y-118731697D01*
X102362199Y-119151646D01*
X102361802Y-119606359D01*
X102535446Y-120026612D01*
X102856697Y-120348423D01*
X103276646Y-120522801D01*
X103731359Y-120523198D01*
X104151612Y-120349554D01*
X104473423Y-120028303D01*
X104647801Y-119608354D01*
X104648198Y-119153641D01*
X104648198Y-121412000D01*
X104531826Y-121412000D01*
X104474554Y-121273388D01*
X104153303Y-120951577D01*
X103733354Y-120777199D01*
X103278641Y-120776802D01*
X102858388Y-120950446D01*
X102536577Y-121271697D01*
X102362199Y-121691646D01*
X102361802Y-122146359D01*
X102535446Y-122566612D01*
X102856697Y-122888423D01*
X103276646Y-123062801D01*
X103731359Y-123063198D01*
X104151612Y-122889554D01*
X104473423Y-122568303D01*
X104531681Y-122428000D01*
X111885037Y-122428000D01*
X112149935Y-122824448D01*
X112553712Y-123094243D01*
X113030000Y-123188983D01*
X113506288Y-123094243D01*
X113910065Y-122824448D01*
X114179860Y-122420671D01*
X114274600Y-121944383D01*
X114274600Y-121895617D01*
X114179860Y-121419329D01*
X113988274Y-121132601D01*
X114064181Y-121132601D01*
X114408653Y-121477073D01*
X114325400Y-121895617D01*
X114325400Y-121944383D01*
X114420140Y-122420671D01*
X114689935Y-122824448D01*
X115093712Y-123094243D01*
X115570000Y-123188983D01*
X116046288Y-123094243D01*
X116450065Y-122824448D01*
X116719860Y-122420671D01*
X116814600Y-121944383D01*
X116814600Y-121895617D01*
X116773005Y-121686505D01*
X116773005Y-119699120D01*
X116773005Y-119060880D01*
X116559310Y-118624801D01*
X116205000Y-118312508D01*
X116205000Y-116725285D01*
X116205000Y-116573714D01*
X116205000Y-116300250D01*
X116205000Y-115855750D01*
X116205000Y-115582286D01*
X116205000Y-115430715D01*
X116146996Y-115290681D01*
X116039820Y-115183504D01*
X115899786Y-115125500D01*
X115792250Y-115125500D01*
X115697000Y-115220750D01*
X115697000Y-115951000D01*
X116109750Y-115951000D01*
X116205000Y-115855750D01*
X116205000Y-116300250D01*
X116109750Y-116205000D01*
X115697000Y-116205000D01*
X115697000Y-116935250D01*
X115792250Y-117030500D01*
X115899786Y-117030500D01*
X116039820Y-116972496D01*
X116146996Y-116865319D01*
X116205000Y-116725285D01*
X116205000Y-118312508D01*
X116195001Y-118303695D01*
X115889118Y-118177007D01*
X115697000Y-118237688D01*
X115697000Y-119253000D01*
X116712865Y-119253000D01*
X116773005Y-119060880D01*
X116773005Y-119699120D01*
X116712865Y-119507000D01*
X115697000Y-119507000D01*
X115697000Y-120522312D01*
X115889118Y-120582993D01*
X116195001Y-120456305D01*
X116559310Y-120135199D01*
X116773005Y-119699120D01*
X116773005Y-121686505D01*
X116719860Y-121419329D01*
X116450065Y-121015552D01*
X116046288Y-120745757D01*
X115570000Y-120651017D01*
X115443000Y-120676278D01*
X115443000Y-120522312D01*
X115443000Y-119507000D01*
X115443000Y-119253000D01*
X115443000Y-118237688D01*
X115250882Y-118177007D01*
X114944999Y-118303695D01*
X114580690Y-118624801D01*
X114366995Y-119060880D01*
X114427135Y-119253000D01*
X115443000Y-119253000D01*
X115443000Y-119507000D01*
X114427135Y-119507000D01*
X114366995Y-119699120D01*
X114580690Y-120135199D01*
X114944999Y-120456305D01*
X115250882Y-120582993D01*
X115443000Y-120522312D01*
X115443000Y-120676278D01*
X115110781Y-120742361D01*
X114633811Y-120265391D01*
X114469004Y-120155270D01*
X114274601Y-120116601D01*
X114022216Y-120116601D01*
X114179860Y-119880671D01*
X114274600Y-119404383D01*
X114274600Y-119355617D01*
X114191346Y-118937073D01*
X114659210Y-118469210D01*
X114769331Y-118304404D01*
X114769331Y-118304403D01*
X114775746Y-118272150D01*
X114807999Y-118110000D01*
X114808000Y-118110000D01*
X114808000Y-116934315D01*
X114876996Y-116865319D01*
X114935000Y-116725285D01*
X114993004Y-116865319D01*
X115100180Y-116972496D01*
X115240214Y-117030500D01*
X115347750Y-117030500D01*
X115443000Y-116935250D01*
X115443000Y-116205000D01*
X115030250Y-116205000D01*
X114935000Y-116300250D01*
X114935000Y-115855750D01*
X115030250Y-115951000D01*
X115443000Y-115951000D01*
X115443000Y-115220750D01*
X115347750Y-115125500D01*
X115240214Y-115125500D01*
X115100180Y-115183504D01*
X114993004Y-115290681D01*
X114935000Y-115430714D01*
X114876996Y-115290680D01*
X114769819Y-115183504D01*
X114629785Y-115125500D01*
X114478214Y-115125500D01*
X114463828Y-115125500D01*
X114766998Y-115000233D01*
X114999417Y-114768219D01*
X115125357Y-114464923D01*
X115125643Y-114136518D01*
X115000233Y-113833002D01*
X114768219Y-113600583D01*
X114464923Y-113474643D01*
X114136518Y-113474357D01*
X113833002Y-113599767D01*
X113640433Y-113792000D01*
X113176920Y-113792000D01*
X113938920Y-113030000D01*
X115545697Y-113030000D01*
X115736781Y-113221417D01*
X116040077Y-113347357D01*
X116368482Y-113347643D01*
X116671998Y-113222233D01*
X116904417Y-112990219D01*
X117030357Y-112686923D01*
X117030643Y-112358518D01*
X116905233Y-112055002D01*
X116673219Y-111822583D01*
X116369923Y-111696643D01*
X116041518Y-111696357D01*
X115738002Y-111821767D01*
X115545433Y-112014000D01*
X113748420Y-112014000D01*
X114659210Y-111103210D01*
X114769331Y-110938404D01*
X114769331Y-110938403D01*
X114808000Y-110744000D01*
X114808000Y-110584315D01*
X114876996Y-110515319D01*
X114935000Y-110375285D01*
X114935000Y-110375286D01*
X114993004Y-110515320D01*
X115100181Y-110622496D01*
X115240215Y-110680500D01*
X115391786Y-110680500D01*
X115899786Y-110680500D01*
X116039820Y-110622496D01*
X116146996Y-110515319D01*
X116205000Y-110375285D01*
X116205000Y-110223714D01*
X116205000Y-109900720D01*
X116266816Y-109900720D01*
X116665596Y-109900720D01*
X116805630Y-109842716D01*
X116840000Y-109808345D01*
X116874370Y-109842716D01*
X117014404Y-109900720D01*
X117094635Y-109900720D01*
X117189885Y-109805470D01*
X117189885Y-125653923D01*
X117019269Y-125909269D01*
X116814600Y-126046024D01*
X116814600Y-125399386D01*
X116814600Y-124682250D01*
X116814600Y-124237750D01*
X116814600Y-123520614D01*
X116756596Y-123380580D01*
X116649419Y-123273404D01*
X116509385Y-123215400D01*
X116357814Y-123215400D01*
X115792250Y-123215400D01*
X115697000Y-123310650D01*
X115697000Y-124333000D01*
X116719350Y-124333000D01*
X116814600Y-124237750D01*
X116814600Y-124682250D01*
X116719350Y-124587000D01*
X115697000Y-124587000D01*
X115697000Y-125609350D01*
X115792250Y-125704600D01*
X116357814Y-125704600D01*
X116509385Y-125704600D01*
X116649419Y-125646596D01*
X116756596Y-125539420D01*
X116814600Y-125399386D01*
X116814600Y-126046024D01*
X116354339Y-126353561D01*
X115522624Y-126519000D01*
X115443000Y-126519000D01*
X115443000Y-125609350D01*
X115443000Y-124587000D01*
X115443000Y-124333000D01*
X115443000Y-123310650D01*
X115347750Y-123215400D01*
X114782186Y-123215400D01*
X114630615Y-123215400D01*
X114490581Y-123273404D01*
X114383404Y-123380580D01*
X114325400Y-123520614D01*
X114325400Y-124237750D01*
X114420650Y-124333000D01*
X115443000Y-124333000D01*
X115443000Y-124587000D01*
X114420650Y-124587000D01*
X114325400Y-124682250D01*
X114325400Y-125399386D01*
X114383404Y-125539420D01*
X114490581Y-125646596D01*
X114630615Y-125704600D01*
X114782186Y-125704600D01*
X115347750Y-125704600D01*
X115443000Y-125609350D01*
X115443000Y-126519000D01*
X114274600Y-126519000D01*
X114274600Y-124484383D01*
X114274600Y-124435617D01*
X114179860Y-123959329D01*
X113910065Y-123555552D01*
X113506288Y-123285757D01*
X113030000Y-123191017D01*
X112553712Y-123285757D01*
X112149935Y-123555552D01*
X111880140Y-123959329D01*
X111785400Y-124435617D01*
X111785400Y-124484383D01*
X111880140Y-124960671D01*
X112149935Y-125364448D01*
X112553712Y-125634243D01*
X113030000Y-125728983D01*
X113506288Y-125634243D01*
X113910065Y-125364448D01*
X114179860Y-124960671D01*
X114274600Y-124484383D01*
X114274600Y-126519000D01*
X104661091Y-126519000D01*
X104661091Y-124606945D01*
X104629322Y-124153343D01*
X104516856Y-123881824D01*
X104346160Y-123798445D01*
X104166555Y-123978050D01*
X104166555Y-123618840D01*
X104083176Y-123448144D01*
X103651945Y-123303909D01*
X103198343Y-123335678D01*
X102926824Y-123448144D01*
X102843445Y-123618840D01*
X103505000Y-124280395D01*
X104166555Y-123618840D01*
X104166555Y-123978050D01*
X103684605Y-124460000D01*
X104346160Y-125121555D01*
X104516856Y-125038176D01*
X104661091Y-124606945D01*
X104661091Y-126519000D01*
X104166555Y-126519000D01*
X104166555Y-125301160D01*
X103505000Y-124639605D01*
X103325395Y-124819210D01*
X103325395Y-124460000D01*
X102663840Y-123798445D01*
X102493144Y-123881824D01*
X102348909Y-124313055D01*
X102380678Y-124766657D01*
X102493144Y-125038176D01*
X102663840Y-125121555D01*
X103325395Y-124460000D01*
X103325395Y-124819210D01*
X102843445Y-125301160D01*
X102926824Y-125471856D01*
X103358055Y-125616091D01*
X103811657Y-125584322D01*
X104083176Y-125471856D01*
X104166555Y-125301160D01*
X104166555Y-126519000D01*
X102081000Y-126519000D01*
X102081000Y-99541000D01*
X115522624Y-99541000D01*
X116354339Y-99706438D01*
X117019269Y-100150730D01*
X117463561Y-100815661D01*
X117629000Y-101647376D01*
X117629000Y-102870000D01*
X117638242Y-102916462D01*
X117638242Y-102963838D01*
X117729000Y-103420109D01*
X117729000Y-104203497D01*
X117665643Y-104356077D01*
X117665357Y-104684482D01*
X117729000Y-104838510D01*
X117729000Y-105092497D01*
X117665643Y-105245077D01*
X117665357Y-105573482D01*
X117729000Y-105727510D01*
X117729000Y-105981497D01*
X117665643Y-106134077D01*
X117665357Y-106462482D01*
X117729000Y-106616510D01*
X117729000Y-107399890D01*
X117638242Y-107856162D01*
X117638242Y-107903537D01*
X117629000Y-107950000D01*
X117629000Y-108565890D01*
X117564756Y-108539280D01*
X117484525Y-108539280D01*
X117389275Y-108634530D01*
X117389275Y-109093000D01*
X117436580Y-109093000D01*
X117436580Y-109347000D01*
X117389275Y-109347000D01*
X117389275Y-109805470D01*
X117484525Y-109900720D01*
X117564756Y-109900720D01*
X117629000Y-109874109D01*
X117629000Y-118110000D01*
X117638242Y-118156462D01*
X117638242Y-118203838D01*
X117729000Y-118660109D01*
X117729000Y-119443497D01*
X117665643Y-119596077D01*
X117665357Y-119924482D01*
X117729000Y-120078510D01*
X117729000Y-120332497D01*
X117665643Y-120485077D01*
X117665357Y-120813482D01*
X117729000Y-120967510D01*
X117729000Y-121221497D01*
X117665643Y-121374077D01*
X117665357Y-121702482D01*
X117729000Y-121856510D01*
X117729000Y-122639890D01*
G36*
X217902225Y-105409999D02*
X217043000Y-107128449D01*
X217043000Y-106837815D01*
X217043000Y-103982185D01*
X216565815Y-103505000D01*
X215773000Y-103505000D01*
X215773000Y-104775000D01*
X215519000Y-104775000D01*
X215519000Y-102712185D01*
X215041815Y-102235000D01*
X214249000Y-102235000D01*
X214249000Y-104775000D01*
X213995000Y-104775000D01*
X213995000Y-101696185D01*
X213517815Y-101219000D01*
X212725000Y-101219000D01*
X212725000Y-104775000D01*
X212471000Y-104775000D01*
X212471000Y-100856529D01*
X211798942Y-100520500D01*
X211201000Y-100520500D01*
X211201000Y-104775000D01*
X210947000Y-104775000D01*
X210947000Y-100457000D01*
X209677000Y-100457000D01*
X209677000Y-104775000D01*
X209423000Y-104775000D01*
X209423000Y-100457000D01*
X208153000Y-100457000D01*
X208153000Y-104775000D01*
X207899000Y-104775000D01*
X207899000Y-100457000D01*
X206629000Y-100457000D01*
X206629000Y-104775000D01*
X206375000Y-104775000D01*
X206375000Y-100457000D01*
X205105000Y-100457000D01*
X205105000Y-104775000D01*
X204851000Y-104775000D01*
X204851000Y-100457000D01*
X203581000Y-100457000D01*
X203581000Y-104775000D01*
X203327000Y-104775000D01*
X203327000Y-100457000D01*
X202057000Y-100457000D01*
X202057000Y-104775000D01*
X201803000Y-104775000D01*
X201803000Y-100457000D01*
X200533000Y-100457000D01*
X200533000Y-104775000D01*
X200279000Y-104775000D01*
X200279000Y-100457000D01*
X199009000Y-100457000D01*
X199009000Y-104775000D01*
X198755000Y-104775000D01*
X198755000Y-100457000D01*
X197485000Y-100457000D01*
X197485000Y-104775000D01*
X197231000Y-104775000D01*
X197231000Y-100457000D01*
X195961000Y-100457000D01*
X195961000Y-104775000D01*
X195707000Y-104775000D01*
X195707000Y-100457000D01*
X194437000Y-100457000D01*
X194437000Y-104775000D01*
X194183000Y-104775000D01*
X194183000Y-100457000D01*
X192913000Y-100457000D01*
X192913000Y-104775000D01*
X192659000Y-104775000D01*
X192659000Y-100457000D01*
X191389000Y-100457000D01*
X191389000Y-104775000D01*
X191135000Y-104775000D01*
X191135000Y-100457000D01*
X189865000Y-100457000D01*
X189865000Y-104775000D01*
X189611000Y-104775000D01*
X189611000Y-100457000D01*
X188341000Y-100457000D01*
X188341000Y-104775000D01*
X188087000Y-104775000D01*
X188087000Y-100457000D01*
X186817000Y-100457000D01*
X186817000Y-104775000D01*
X186563000Y-104775000D01*
X186563000Y-100457000D01*
X185293000Y-100457000D01*
X185293000Y-104775000D01*
X185039000Y-104775000D01*
X185039000Y-100457000D01*
X183769000Y-100457000D01*
X183769000Y-104775000D01*
X183515000Y-104775000D01*
X183515000Y-100457000D01*
X182245000Y-100457000D01*
X182245000Y-104775000D01*
X181991000Y-104775000D01*
X181991000Y-100457000D01*
X180721000Y-100457000D01*
X180721000Y-104775000D01*
X180467000Y-104775000D01*
X180467000Y-100457000D01*
X179197000Y-100457000D01*
X179197000Y-104775000D01*
X178943000Y-104775000D01*
X178943000Y-100457000D01*
X177673000Y-100457000D01*
X177673000Y-104775000D01*
X177419000Y-104775000D01*
X177419000Y-100457000D01*
X176149000Y-100457000D01*
X176149000Y-104775000D01*
X175895000Y-104775000D01*
X175895000Y-100457000D01*
X174625000Y-100457000D01*
X174625000Y-104775000D01*
X174371000Y-104775000D01*
X174371000Y-100457000D01*
X173101000Y-100457000D01*
X173101000Y-104775000D01*
X172847000Y-104775000D01*
X172847000Y-100457000D01*
X171577000Y-100457000D01*
X171577000Y-104775000D01*
X171323000Y-104775000D01*
X171323000Y-100457000D01*
X170053000Y-100457000D01*
X170053000Y-104775000D01*
X169799000Y-104775000D01*
X169799000Y-100457000D01*
X168529000Y-100457000D01*
X168529000Y-104775000D01*
X168275000Y-104775000D01*
X168275000Y-100457000D01*
X167005000Y-100457000D01*
X167005000Y-104775000D01*
X166751000Y-104775000D01*
X166751000Y-100457000D01*
X165481000Y-100457000D01*
X165481000Y-104775000D01*
X165227000Y-104775000D01*
X165227000Y-100457000D01*
X163957000Y-100457000D01*
X163957000Y-104775000D01*
X163703000Y-104775000D01*
X163703000Y-100457000D01*
X162433000Y-100457000D01*
X162433000Y-104775000D01*
X162179000Y-104775000D01*
X162179000Y-100457000D01*
X160909000Y-100457000D01*
X160909000Y-104775000D01*
X160655000Y-104775000D01*
X160655000Y-100457000D01*
X159385000Y-100457000D01*
X159385000Y-104775000D01*
X159131000Y-104775000D01*
X159131000Y-100457000D01*
X157861000Y-100457000D01*
X157861000Y-104775000D01*
X157607000Y-104775000D01*
X157607000Y-100457000D01*
X156337000Y-100457000D01*
X156337000Y-104775000D01*
X156083000Y-104775000D01*
X156083000Y-100457000D01*
X154813000Y-100457000D01*
X154813000Y-104775000D01*
X154559000Y-104775000D01*
X154559000Y-100457000D01*
X153289000Y-100457000D01*
X153289000Y-104775000D01*
X153035000Y-104775000D01*
X153035000Y-100457000D01*
X151765000Y-100457000D01*
X151765000Y-104775000D01*
X151511000Y-104775000D01*
X151511000Y-100457000D01*
X150241000Y-100457000D01*
X150241000Y-104775000D01*
X149987000Y-104775000D01*
X149987000Y-100457000D01*
X148717000Y-100457000D01*
X148717000Y-104775000D01*
X148463000Y-104775000D01*
X148463000Y-100457000D01*
X147193000Y-100457000D01*
X147193000Y-104775000D01*
X146939000Y-104775000D01*
X146939000Y-100457000D01*
X145669000Y-100457000D01*
X145669000Y-104775000D01*
X145415000Y-104775000D01*
X145415000Y-100457000D01*
X144145000Y-100457000D01*
X144145000Y-104775000D01*
X143891000Y-104775000D01*
X143891000Y-100457000D01*
X142621000Y-100457000D01*
X142621000Y-104775000D01*
X142367000Y-104775000D01*
X142367000Y-100457000D01*
X141097000Y-100457000D01*
X141097000Y-104775000D01*
X140843000Y-104775000D01*
X140843000Y-100457000D01*
X139573000Y-100457000D01*
X139573000Y-104775000D01*
X139319000Y-104775000D01*
X139319000Y-100457000D01*
X138049000Y-100457000D01*
X138049000Y-104775000D01*
X137795000Y-104775000D01*
X137795000Y-100457000D01*
X136525000Y-100457000D01*
X136525000Y-104775000D01*
X136168523Y-104775000D01*
X136104219Y-104710583D01*
X135800923Y-104584643D01*
X135472518Y-104584357D01*
X135169002Y-104709767D01*
X135103655Y-104775000D01*
X135001000Y-104775000D01*
X135001000Y-104877476D01*
X134976433Y-104902000D01*
X134957820Y-104902000D01*
X134957820Y-104603550D01*
X135025986Y-104603550D01*
X135166020Y-104545546D01*
X135273196Y-104438369D01*
X135331200Y-104298335D01*
X135331200Y-104146764D01*
X135331200Y-103346664D01*
X135331200Y-102393335D01*
X135331200Y-102241764D01*
X135331200Y-101441664D01*
X135273196Y-101301630D01*
X135166019Y-101194454D01*
X135025985Y-101136450D01*
X134874414Y-101136450D01*
X133873654Y-101136450D01*
X133733620Y-101194454D01*
X133626444Y-101301631D01*
X133568440Y-101441665D01*
X133568440Y-101593236D01*
X133568440Y-102393336D01*
X133626444Y-102533370D01*
X133733621Y-102640546D01*
X133873655Y-102698550D01*
X134025226Y-102698550D01*
X135025986Y-102698550D01*
X135166020Y-102640546D01*
X135273196Y-102533369D01*
X135331200Y-102393335D01*
X135331200Y-103346664D01*
X135273196Y-103206630D01*
X135166019Y-103099454D01*
X135025985Y-103041450D01*
X134874414Y-103041450D01*
X133873654Y-103041450D01*
X133733620Y-103099454D01*
X133626444Y-103206631D01*
X133568440Y-103346665D01*
X133568440Y-103498236D01*
X133568440Y-104298336D01*
X133626444Y-104438370D01*
X133733621Y-104545546D01*
X133873655Y-104603550D01*
X133941820Y-104603550D01*
X133941820Y-105372929D01*
X133941820Y-106512760D01*
X133490970Y-106963610D01*
X133490970Y-106903934D01*
X133490970Y-106304494D01*
X133432966Y-106164460D01*
X133325789Y-106057284D01*
X133185755Y-105999280D01*
X133034184Y-105999280D01*
X132635404Y-105999280D01*
X132495370Y-106057284D01*
X132460999Y-106091654D01*
X132426629Y-106057284D01*
X132286595Y-105999280D01*
X132135024Y-105999280D01*
X131736700Y-105999280D01*
X131722463Y-105985042D01*
X131781966Y-105925539D01*
X131839970Y-105785505D01*
X131839970Y-105633934D01*
X131839970Y-105034494D01*
X131781966Y-104894460D01*
X131674789Y-104787284D01*
X131645133Y-104775000D01*
X131674790Y-104762716D01*
X131781966Y-104655539D01*
X131839970Y-104515505D01*
X131839970Y-104363934D01*
X131839970Y-103764494D01*
X131792979Y-103651050D01*
X131825586Y-103651050D01*
X132826346Y-103651050D01*
X132966380Y-103593046D01*
X133073556Y-103485869D01*
X133131560Y-103345835D01*
X133131560Y-103194264D01*
X133131560Y-102394164D01*
X133073556Y-102254130D01*
X132966379Y-102146954D01*
X132826345Y-102088950D01*
X132674774Y-102088950D01*
X131706910Y-102088950D01*
X131618790Y-101957070D01*
X130927909Y-101266189D01*
X130763102Y-101156068D01*
X130568699Y-101117399D01*
X125704601Y-101117399D01*
X125510197Y-101156068D01*
X125345391Y-101266189D01*
X124964391Y-101647188D01*
X124964388Y-101647191D01*
X124919217Y-101692361D01*
X124460000Y-101601017D01*
X123983712Y-101695757D01*
X123579935Y-101965552D01*
X123310140Y-102369329D01*
X123215400Y-102845617D01*
X123215400Y-102894383D01*
X123310140Y-103370671D01*
X123579935Y-103774448D01*
X123983712Y-104044243D01*
X124460000Y-104138983D01*
X124936288Y-104044243D01*
X125340065Y-103774448D01*
X125609860Y-103370671D01*
X125704600Y-102894383D01*
X125704600Y-102845617D01*
X125621346Y-102427074D01*
X125682809Y-102365612D01*
X125682809Y-102365611D01*
X125682811Y-102365608D01*
X125915021Y-102133399D01*
X126001576Y-102133399D01*
X125796995Y-102550880D01*
X125857135Y-102743000D01*
X126873000Y-102743000D01*
X126873000Y-102723000D01*
X127127000Y-102723000D01*
X127127000Y-102743000D01*
X128142865Y-102743000D01*
X128203005Y-102550880D01*
X127998423Y-102133399D01*
X130358278Y-102133399D01*
X130484762Y-102259882D01*
X130460115Y-102284530D01*
X130460115Y-102743000D01*
X130507420Y-102743000D01*
X130507420Y-102997000D01*
X130460115Y-102997000D01*
X130460115Y-103455470D01*
X130509645Y-103505000D01*
X130460115Y-103554530D01*
X130460115Y-104013000D01*
X130507420Y-104013000D01*
X130507420Y-104267000D01*
X130460115Y-104267000D01*
X130460115Y-104725470D01*
X130509645Y-104775000D01*
X130460115Y-104824530D01*
X130460115Y-105283000D01*
X130507420Y-105283000D01*
X130507420Y-105537000D01*
X130460115Y-105537000D01*
X130460115Y-105557000D01*
X130260725Y-105557000D01*
X130260725Y-105537000D01*
X130260725Y-105283000D01*
X130260725Y-104824530D01*
X130211195Y-104775000D01*
X130260725Y-104725470D01*
X130260725Y-104267000D01*
X130260725Y-104013000D01*
X130260725Y-103554530D01*
X130211195Y-103505000D01*
X130260725Y-103455470D01*
X130260725Y-102997000D01*
X130260725Y-102743000D01*
X130260725Y-102284530D01*
X130165475Y-102189280D01*
X130085244Y-102189280D01*
X129945210Y-102247284D01*
X129838034Y-102354461D01*
X129780030Y-102494495D01*
X129780030Y-102646066D01*
X129780030Y-102647750D01*
X129875280Y-102743000D01*
X130260725Y-102743000D01*
X130260725Y-102997000D01*
X129875280Y-102997000D01*
X129780030Y-103092250D01*
X129780030Y-103093934D01*
X129780030Y-103245505D01*
X129838034Y-103385539D01*
X129945210Y-103492716D01*
X129974866Y-103505000D01*
X129945210Y-103517284D01*
X129838034Y-103624461D01*
X129780030Y-103764495D01*
X129780030Y-103916066D01*
X129780030Y-103917750D01*
X129875280Y-104013000D01*
X130260725Y-104013000D01*
X130260725Y-104267000D01*
X129875280Y-104267000D01*
X129780030Y-104362250D01*
X129780030Y-104363934D01*
X129780030Y-104515505D01*
X129838034Y-104655539D01*
X129945210Y-104762716D01*
X129974866Y-104775000D01*
X129945210Y-104787284D01*
X129838034Y-104894461D01*
X129780030Y-105034495D01*
X129780030Y-105186066D01*
X129780030Y-105187750D01*
X129875280Y-105283000D01*
X130260725Y-105283000D01*
X130260725Y-105537000D01*
X129875280Y-105537000D01*
X129781354Y-105630925D01*
X127956619Y-103806189D01*
X127858415Y-103740571D01*
X127989310Y-103625199D01*
X128203005Y-103189120D01*
X128142865Y-102997000D01*
X127127000Y-102997000D01*
X127127000Y-103017000D01*
X126873000Y-103017000D01*
X126873000Y-102997000D01*
X125857135Y-102997000D01*
X125796995Y-103189120D01*
X126010690Y-103625199D01*
X126047222Y-103657399D01*
X125704601Y-103657399D01*
X125510197Y-103696068D01*
X125345391Y-103806189D01*
X124964391Y-104187188D01*
X124964388Y-104187191D01*
X124919217Y-104232361D01*
X124460000Y-104141017D01*
X123983712Y-104235757D01*
X123579935Y-104505552D01*
X123310140Y-104909329D01*
X123215400Y-105385617D01*
X123215400Y-105434383D01*
X123310140Y-105910671D01*
X123579935Y-106314448D01*
X123983712Y-106584243D01*
X124460000Y-106678983D01*
X124936288Y-106584243D01*
X125340065Y-106314448D01*
X125609860Y-105910671D01*
X125704600Y-105434383D01*
X125704600Y-105385617D01*
X125621346Y-104967074D01*
X125682809Y-104905612D01*
X125682809Y-104905611D01*
X125682811Y-104905608D01*
X125915021Y-104673399D01*
X126007783Y-104673399D01*
X125850140Y-104909329D01*
X125755400Y-105385617D01*
X125755400Y-105434383D01*
X125850140Y-105910671D01*
X126041725Y-106197399D01*
X125704601Y-106197399D01*
X125510197Y-106236068D01*
X125345391Y-106346189D01*
X124964391Y-106727188D01*
X124964388Y-106727191D01*
X124919217Y-106772361D01*
X124460000Y-106681017D01*
X123983712Y-106775757D01*
X123579935Y-107045552D01*
X123310140Y-107449329D01*
X123215400Y-107925617D01*
X123215400Y-107974383D01*
X123310140Y-108450671D01*
X123579935Y-108854448D01*
X123983712Y-109124243D01*
X124460000Y-109218983D01*
X124936288Y-109124243D01*
X125340065Y-108854448D01*
X125609860Y-108450671D01*
X125704600Y-107974383D01*
X125704600Y-107925617D01*
X125621346Y-107507074D01*
X125682809Y-107445612D01*
X125682809Y-107445611D01*
X125682811Y-107445608D01*
X125755400Y-107373020D01*
X125755400Y-107727750D01*
X125850650Y-107823000D01*
X126873000Y-107823000D01*
X126873000Y-107803000D01*
X127127000Y-107803000D01*
X127127000Y-107823000D01*
X128149350Y-107823000D01*
X128244600Y-107727750D01*
X128244600Y-107213399D01*
X128453279Y-107213399D01*
X128596590Y-107356710D01*
X128761396Y-107466831D01*
X128761397Y-107466831D01*
X128831915Y-107480857D01*
X128831915Y-107480858D01*
X128886804Y-107613370D01*
X128993981Y-107720546D01*
X129134015Y-107778550D01*
X129285586Y-107778550D01*
X130286346Y-107778550D01*
X130426380Y-107720546D01*
X130533556Y-107613369D01*
X130591560Y-107473335D01*
X130591560Y-107321764D01*
X130591560Y-106680000D01*
X130980579Y-106680000D01*
X131212789Y-106912210D01*
X131212790Y-106912210D01*
X131377596Y-107022331D01*
X131377597Y-107022331D01*
X131409849Y-107028746D01*
X131431030Y-107032959D01*
X131431030Y-107055506D01*
X131478020Y-107168950D01*
X131333654Y-107168950D01*
X131193620Y-107226954D01*
X131086444Y-107334131D01*
X131028440Y-107474165D01*
X131028440Y-107625736D01*
X131028440Y-108425836D01*
X131086444Y-108565870D01*
X131193621Y-108673046D01*
X131333655Y-108731050D01*
X131485226Y-108731050D01*
X132367020Y-108731050D01*
X132320030Y-108844495D01*
X132320030Y-108996066D01*
X132320030Y-108997750D01*
X132415280Y-109093000D01*
X132800725Y-109093000D01*
X132800725Y-109073000D01*
X133000115Y-109073000D01*
X133000115Y-109093000D01*
X133047420Y-109093000D01*
X133047420Y-109347000D01*
X133000115Y-109347000D01*
X133000115Y-109805470D01*
X133095365Y-109900720D01*
X133175596Y-109900720D01*
X133315630Y-109842716D01*
X133350000Y-109808345D01*
X133384371Y-109842716D01*
X133524405Y-109900720D01*
X133675976Y-109900720D01*
X134074756Y-109900720D01*
X134214790Y-109842716D01*
X134321966Y-109735539D01*
X134379970Y-109595505D01*
X134379970Y-109443934D01*
X134379970Y-108844494D01*
X134321966Y-108704460D01*
X134307580Y-108690074D01*
X134307580Y-108479925D01*
X134321966Y-108465539D01*
X134379970Y-108325505D01*
X134379970Y-108173934D01*
X134379970Y-107574494D01*
X134361504Y-107529915D01*
X134809030Y-107082390D01*
X134919151Y-106917584D01*
X134919151Y-106917583D01*
X134925566Y-106885330D01*
X134957819Y-106723180D01*
X134957820Y-106723180D01*
X134957820Y-105918000D01*
X134976697Y-105918000D01*
X135001000Y-105942344D01*
X135001000Y-106045000D01*
X135103476Y-106045000D01*
X135167781Y-106109417D01*
X135471077Y-106235357D01*
X135799482Y-106235643D01*
X136102998Y-106110233D01*
X136168344Y-106045000D01*
X136525000Y-106045000D01*
X136525000Y-110363000D01*
X137795000Y-110363000D01*
X137795000Y-106045000D01*
X138049000Y-106045000D01*
X138049000Y-110363000D01*
X139319000Y-110363000D01*
X139319000Y-106045000D01*
X139573000Y-106045000D01*
X139573000Y-110363000D01*
X140843000Y-110363000D01*
X140843000Y-106045000D01*
X141097000Y-106045000D01*
X141097000Y-110363000D01*
X142367000Y-110363000D01*
X142367000Y-106045000D01*
X142621000Y-106045000D01*
X142621000Y-110363000D01*
X143891000Y-110363000D01*
X143891000Y-106045000D01*
X144145000Y-106045000D01*
X144145000Y-110363000D01*
X145415000Y-110363000D01*
X145415000Y-106045000D01*
X145669000Y-106045000D01*
X145669000Y-110363000D01*
X146939000Y-110363000D01*
X146939000Y-106045000D01*
X147193000Y-106045000D01*
X147193000Y-110363000D01*
X148463000Y-110363000D01*
X148463000Y-106045000D01*
X148717000Y-106045000D01*
X148717000Y-110363000D01*
X149987000Y-110363000D01*
X149987000Y-106045000D01*
X150241000Y-106045000D01*
X150241000Y-110363000D01*
X151511000Y-110363000D01*
X151511000Y-106045000D01*
X151765000Y-106045000D01*
X151765000Y-110363000D01*
X153035000Y-110363000D01*
X153035000Y-106045000D01*
X153289000Y-106045000D01*
X153289000Y-110363000D01*
X154559000Y-110363000D01*
X154559000Y-106045000D01*
X154813000Y-106045000D01*
X154813000Y-110363000D01*
X156083000Y-110363000D01*
X156083000Y-106045000D01*
X156337000Y-106045000D01*
X156337000Y-110363000D01*
X157607000Y-110363000D01*
X157607000Y-106045000D01*
X157861000Y-106045000D01*
X157861000Y-110363000D01*
X159131000Y-110363000D01*
X159131000Y-106045000D01*
X159385000Y-106045000D01*
X159385000Y-110363000D01*
X160655000Y-110363000D01*
X160655000Y-106045000D01*
X160909000Y-106045000D01*
X160909000Y-110363000D01*
X162179000Y-110363000D01*
X162179000Y-106045000D01*
X162433000Y-106045000D01*
X162433000Y-110363000D01*
X163703000Y-110363000D01*
X163703000Y-106045000D01*
X163957000Y-106045000D01*
X163957000Y-110363000D01*
X165227000Y-110363000D01*
X165227000Y-106045000D01*
X165481000Y-106045000D01*
X165481000Y-110363000D01*
X166751000Y-110363000D01*
X166751000Y-106045000D01*
X167005000Y-106045000D01*
X167005000Y-110363000D01*
X168275000Y-110363000D01*
X168275000Y-106045000D01*
X168529000Y-106045000D01*
X168529000Y-110363000D01*
X169799000Y-110363000D01*
X169799000Y-106045000D01*
X170053000Y-106045000D01*
X170053000Y-110363000D01*
X171323000Y-110363000D01*
X171323000Y-106045000D01*
X171577000Y-106045000D01*
X171577000Y-110363000D01*
X172847000Y-110363000D01*
X172847000Y-106045000D01*
X173101000Y-106045000D01*
X173101000Y-110363000D01*
X174371000Y-110363000D01*
X174371000Y-106045000D01*
X174625000Y-106045000D01*
X174625000Y-110363000D01*
X175895000Y-110363000D01*
X175895000Y-106045000D01*
X176149000Y-106045000D01*
X176149000Y-110363000D01*
X177419000Y-110363000D01*
X177419000Y-106045000D01*
X177673000Y-106045000D01*
X177673000Y-110363000D01*
X178943000Y-110363000D01*
X178943000Y-106045000D01*
X179197000Y-106045000D01*
X179197000Y-110363000D01*
X180467000Y-110363000D01*
X180467000Y-106045000D01*
X180721000Y-106045000D01*
X180721000Y-110363000D01*
X181991000Y-110363000D01*
X181991000Y-106045000D01*
X182245000Y-106045000D01*
X182245000Y-110363000D01*
X183515000Y-110363000D01*
X183515000Y-106045000D01*
X183769000Y-106045000D01*
X183769000Y-110363000D01*
X185039000Y-110363000D01*
X185039000Y-106045000D01*
X185293000Y-106045000D01*
X185293000Y-110363000D01*
X186563000Y-110363000D01*
X186563000Y-106045000D01*
X186817000Y-106045000D01*
X186817000Y-110363000D01*
X188087000Y-110363000D01*
X188087000Y-106045000D01*
X188341000Y-106045000D01*
X188341000Y-110363000D01*
X189611000Y-110363000D01*
X189611000Y-106045000D01*
X189865000Y-106045000D01*
X189865000Y-110363000D01*
X191135000Y-110363000D01*
X191135000Y-106045000D01*
X191389000Y-106045000D01*
X191389000Y-110363000D01*
X192659000Y-110363000D01*
X192659000Y-106045000D01*
X192913000Y-106045000D01*
X192913000Y-110363000D01*
X194183000Y-110363000D01*
X194183000Y-106045000D01*
X194437000Y-106045000D01*
X194437000Y-110363000D01*
X195707000Y-110363000D01*
X195707000Y-106045000D01*
X195961000Y-106045000D01*
X195961000Y-110363000D01*
X197231000Y-110363000D01*
X197231000Y-106045000D01*
X197485000Y-106045000D01*
X197485000Y-110363000D01*
X198755000Y-110363000D01*
X198755000Y-106045000D01*
X199009000Y-106045000D01*
X199009000Y-110363000D01*
X200279000Y-110363000D01*
X200279000Y-106045000D01*
X200533000Y-106045000D01*
X200533000Y-110363000D01*
X201803000Y-110363000D01*
X201803000Y-106045000D01*
X202057000Y-106045000D01*
X202057000Y-110363000D01*
X203327000Y-110363000D01*
X203327000Y-106045000D01*
X203581000Y-106045000D01*
X203581000Y-110363000D01*
X204851000Y-110363000D01*
X204851000Y-106045000D01*
X205105000Y-106045000D01*
X205105000Y-110363000D01*
X206375000Y-110363000D01*
X206375000Y-106045000D01*
X206629000Y-106045000D01*
X206629000Y-110363000D01*
X207899000Y-110363000D01*
X207899000Y-106045000D01*
X208153000Y-106045000D01*
X208153000Y-110363000D01*
X209423000Y-110363000D01*
X209423000Y-106045000D01*
X209677000Y-106045000D01*
X209677000Y-110363000D01*
X210947000Y-110363000D01*
X210947000Y-106045000D01*
X211201000Y-106045000D01*
X211201000Y-110299500D01*
X211798942Y-110299500D01*
X212471000Y-109963471D01*
X212471000Y-106045000D01*
X212725000Y-106045000D01*
X212725000Y-109601000D01*
X213517815Y-109601000D01*
X213995000Y-109123815D01*
X213995000Y-106045000D01*
X214249000Y-106045000D01*
X214249000Y-108585000D01*
X215041815Y-108585000D01*
X215519000Y-108107815D01*
X215519000Y-106045000D01*
X215773000Y-106045000D01*
X215773000Y-107315000D01*
X216565815Y-107315000D01*
X217043000Y-106837815D01*
X217043000Y-107128449D01*
X216774688Y-107665074D01*
X214370173Y-110069590D01*
X210741943Y-111279000D01*
X132800725Y-111279000D01*
X132800725Y-109805470D01*
X132800725Y-109347000D01*
X132415280Y-109347000D01*
X132320030Y-109442250D01*
X132320030Y-109443934D01*
X132320030Y-109595505D01*
X132378034Y-109735539D01*
X132485210Y-109842716D01*
X132625244Y-109900720D01*
X132705475Y-109900720D01*
X132800725Y-109805470D01*
X132800725Y-111279000D01*
X130591560Y-111279000D01*
X130591560Y-109378336D01*
X130591560Y-109124750D01*
X130591560Y-108680250D01*
X130591560Y-108426664D01*
X130533556Y-108286630D01*
X130426379Y-108179454D01*
X130286345Y-108121450D01*
X130134774Y-108121450D01*
X129932430Y-108121450D01*
X129837180Y-108216700D01*
X129837180Y-108775500D01*
X130496310Y-108775500D01*
X130591560Y-108680250D01*
X130591560Y-109124750D01*
X130496310Y-109029500D01*
X129837180Y-109029500D01*
X129837180Y-109588300D01*
X129932430Y-109683550D01*
X130134774Y-109683550D01*
X130286345Y-109683550D01*
X130426379Y-109625546D01*
X130533556Y-109518370D01*
X130591560Y-109378336D01*
X130591560Y-111279000D01*
X129583180Y-111279000D01*
X129583180Y-109588300D01*
X129583180Y-109029500D01*
X129583180Y-108775500D01*
X129583180Y-108216700D01*
X129487930Y-108121450D01*
X129285586Y-108121450D01*
X129134015Y-108121450D01*
X128993981Y-108179454D01*
X128886804Y-108286630D01*
X128828800Y-108426664D01*
X128828800Y-108680250D01*
X128924050Y-108775500D01*
X129583180Y-108775500D01*
X129583180Y-109029500D01*
X128924050Y-109029500D01*
X128828800Y-109124750D01*
X128828800Y-109378336D01*
X128886804Y-109518370D01*
X128993981Y-109625546D01*
X129134015Y-109683550D01*
X129285586Y-109683550D01*
X129487930Y-109683550D01*
X129583180Y-109588300D01*
X129583180Y-111279000D01*
X128244600Y-111279000D01*
X128244600Y-108889386D01*
X128244600Y-108172250D01*
X128149350Y-108077000D01*
X127127000Y-108077000D01*
X127127000Y-109099350D01*
X127222250Y-109194600D01*
X127787814Y-109194600D01*
X127939385Y-109194600D01*
X128079419Y-109136596D01*
X128186596Y-109029420D01*
X128244600Y-108889386D01*
X128244600Y-111279000D01*
X126873000Y-111279000D01*
X126873000Y-109099350D01*
X126873000Y-108077000D01*
X125850650Y-108077000D01*
X125755400Y-108172250D01*
X125755400Y-108889386D01*
X125813404Y-109029420D01*
X125920581Y-109136596D01*
X126060615Y-109194600D01*
X126212186Y-109194600D01*
X126777750Y-109194600D01*
X126873000Y-109099350D01*
X126873000Y-111279000D01*
X123237376Y-111279000D01*
X122405661Y-111113561D01*
X121740730Y-110669269D01*
X121296438Y-110004339D01*
X121131000Y-109172624D01*
X121131000Y-107950000D01*
X121121758Y-107903537D01*
X121121758Y-107856161D01*
X121031000Y-107399890D01*
X121031000Y-106616502D01*
X121094357Y-106463923D01*
X121094643Y-106135518D01*
X121031000Y-105981489D01*
X121031000Y-105727502D01*
X121094357Y-105574923D01*
X121094643Y-105246518D01*
X121031000Y-105092489D01*
X121031000Y-104838502D01*
X121094357Y-104685923D01*
X121094643Y-104357518D01*
X121031000Y-104203489D01*
X121031000Y-103420109D01*
X121121758Y-102963839D01*
X121121758Y-102916462D01*
X121131000Y-102870000D01*
X121131000Y-101647375D01*
X121296438Y-100815660D01*
X121740730Y-100150730D01*
X122405661Y-99706438D01*
X123237376Y-99541000D01*
X210741943Y-99541000D01*
X214370173Y-100750409D01*
X216774688Y-103154925D01*
X217902225Y-105409999D01*
X217902225Y-105409999D01*
G37*
X217902225Y-105409999D02*
X217043000Y-107128449D01*
X217043000Y-106837815D01*
X217043000Y-103982185D01*
X216565815Y-103505000D01*
X215773000Y-103505000D01*
X215773000Y-104775000D01*
X215519000Y-104775000D01*
X215519000Y-102712185D01*
X215041815Y-102235000D01*
X214249000Y-102235000D01*
X214249000Y-104775000D01*
X213995000Y-104775000D01*
X213995000Y-101696185D01*
X213517815Y-101219000D01*
X212725000Y-101219000D01*
X212725000Y-104775000D01*
X212471000Y-104775000D01*
X212471000Y-100856529D01*
X211798942Y-100520500D01*
X211201000Y-100520500D01*
X211201000Y-104775000D01*
X210947000Y-104775000D01*
X210947000Y-100457000D01*
X209677000Y-100457000D01*
X209677000Y-104775000D01*
X209423000Y-104775000D01*
X209423000Y-100457000D01*
X208153000Y-100457000D01*
X208153000Y-104775000D01*
X207899000Y-104775000D01*
X207899000Y-100457000D01*
X206629000Y-100457000D01*
X206629000Y-104775000D01*
X206375000Y-104775000D01*
X206375000Y-100457000D01*
X205105000Y-100457000D01*
X205105000Y-104775000D01*
X204851000Y-104775000D01*
X204851000Y-100457000D01*
X203581000Y-100457000D01*
X203581000Y-104775000D01*
X203327000Y-104775000D01*
X203327000Y-100457000D01*
X202057000Y-100457000D01*
X202057000Y-104775000D01*
X201803000Y-104775000D01*
X201803000Y-100457000D01*
X200533000Y-100457000D01*
X200533000Y-104775000D01*
X200279000Y-104775000D01*
X200279000Y-100457000D01*
X199009000Y-100457000D01*
X199009000Y-104775000D01*
X198755000Y-104775000D01*
X198755000Y-100457000D01*
X197485000Y-100457000D01*
X197485000Y-104775000D01*
X197231000Y-104775000D01*
X197231000Y-100457000D01*
X195961000Y-100457000D01*
X195961000Y-104775000D01*
X195707000Y-104775000D01*
X195707000Y-100457000D01*
X194437000Y-100457000D01*
X194437000Y-104775000D01*
X194183000Y-104775000D01*
X194183000Y-100457000D01*
X192913000Y-100457000D01*
X192913000Y-104775000D01*
X192659000Y-104775000D01*
X192659000Y-100457000D01*
X191389000Y-100457000D01*
X191389000Y-104775000D01*
X191135000Y-104775000D01*
X191135000Y-100457000D01*
X189865000Y-100457000D01*
X189865000Y-104775000D01*
X189611000Y-104775000D01*
X189611000Y-100457000D01*
X188341000Y-100457000D01*
X188341000Y-104775000D01*
X188087000Y-104775000D01*
X188087000Y-100457000D01*
X186817000Y-100457000D01*
X186817000Y-104775000D01*
X186563000Y-104775000D01*
X186563000Y-100457000D01*
X185293000Y-100457000D01*
X185293000Y-104775000D01*
X185039000Y-104775000D01*
X185039000Y-100457000D01*
X183769000Y-100457000D01*
X183769000Y-104775000D01*
X183515000Y-104775000D01*
X183515000Y-100457000D01*
X182245000Y-100457000D01*
X182245000Y-104775000D01*
X181991000Y-104775000D01*
X181991000Y-100457000D01*
X180721000Y-100457000D01*
X180721000Y-104775000D01*
X180467000Y-104775000D01*
X180467000Y-100457000D01*
X179197000Y-100457000D01*
X179197000Y-104775000D01*
X178943000Y-104775000D01*
X178943000Y-100457000D01*
X177673000Y-100457000D01*
X177673000Y-104775000D01*
X177419000Y-104775000D01*
X177419000Y-100457000D01*
X176149000Y-100457000D01*
X176149000Y-104775000D01*
X175895000Y-104775000D01*
X175895000Y-100457000D01*
X174625000Y-100457000D01*
X174625000Y-104775000D01*
X174371000Y-104775000D01*
X174371000Y-100457000D01*
X173101000Y-100457000D01*
X173101000Y-104775000D01*
X172847000Y-104775000D01*
X172847000Y-100457000D01*
X171577000Y-100457000D01*
X171577000Y-104775000D01*
X171323000Y-104775000D01*
X171323000Y-100457000D01*
X170053000Y-100457000D01*
X170053000Y-104775000D01*
X169799000Y-104775000D01*
X169799000Y-100457000D01*
X168529000Y-100457000D01*
X168529000Y-104775000D01*
X168275000Y-104775000D01*
X168275000Y-100457000D01*
X167005000Y-100457000D01*
X167005000Y-104775000D01*
X166751000Y-104775000D01*
X166751000Y-100457000D01*
X165481000Y-100457000D01*
X165481000Y-104775000D01*
X165227000Y-104775000D01*
X165227000Y-100457000D01*
X163957000Y-100457000D01*
X163957000Y-104775000D01*
X163703000Y-104775000D01*
X163703000Y-100457000D01*
X162433000Y-100457000D01*
X162433000Y-104775000D01*
X162179000Y-104775000D01*
X162179000Y-100457000D01*
X160909000Y-100457000D01*
X160909000Y-104775000D01*
X160655000Y-104775000D01*
X160655000Y-100457000D01*
X159385000Y-100457000D01*
X159385000Y-104775000D01*
X159131000Y-104775000D01*
X159131000Y-100457000D01*
X157861000Y-100457000D01*
X157861000Y-104775000D01*
X157607000Y-104775000D01*
X157607000Y-100457000D01*
X156337000Y-100457000D01*
X156337000Y-104775000D01*
X156083000Y-104775000D01*
X156083000Y-100457000D01*
X154813000Y-100457000D01*
X154813000Y-104775000D01*
X154559000Y-104775000D01*
X154559000Y-100457000D01*
X153289000Y-100457000D01*
X153289000Y-104775000D01*
X153035000Y-104775000D01*
X153035000Y-100457000D01*
X151765000Y-100457000D01*
X151765000Y-104775000D01*
X151511000Y-104775000D01*
X151511000Y-100457000D01*
X150241000Y-100457000D01*
X150241000Y-104775000D01*
X149987000Y-104775000D01*
X149987000Y-100457000D01*
X148717000Y-100457000D01*
X148717000Y-104775000D01*
X148463000Y-104775000D01*
X148463000Y-100457000D01*
X147193000Y-100457000D01*
X147193000Y-104775000D01*
X146939000Y-104775000D01*
X146939000Y-100457000D01*
X145669000Y-100457000D01*
X145669000Y-104775000D01*
X145415000Y-104775000D01*
X145415000Y-100457000D01*
X144145000Y-100457000D01*
X144145000Y-104775000D01*
X143891000Y-104775000D01*
X143891000Y-100457000D01*
X142621000Y-100457000D01*
X142621000Y-104775000D01*
X142367000Y-104775000D01*
X142367000Y-100457000D01*
X141097000Y-100457000D01*
X141097000Y-104775000D01*
X140843000Y-104775000D01*
X140843000Y-100457000D01*
X139573000Y-100457000D01*
X139573000Y-104775000D01*
X139319000Y-104775000D01*
X139319000Y-100457000D01*
X138049000Y-100457000D01*
X138049000Y-104775000D01*
X137795000Y-104775000D01*
X137795000Y-100457000D01*
X136525000Y-100457000D01*
X136525000Y-104775000D01*
X136168523Y-104775000D01*
X136104219Y-104710583D01*
X135800923Y-104584643D01*
X135472518Y-104584357D01*
X135169002Y-104709767D01*
X135103655Y-104775000D01*
X135001000Y-104775000D01*
X135001000Y-104877476D01*
X134976433Y-104902000D01*
X134957820Y-104902000D01*
X134957820Y-104603550D01*
X135025986Y-104603550D01*
X135166020Y-104545546D01*
X135273196Y-104438369D01*
X135331200Y-104298335D01*
X135331200Y-104146764D01*
X135331200Y-103346664D01*
X135331200Y-102393335D01*
X135331200Y-102241764D01*
X135331200Y-101441664D01*
X135273196Y-101301630D01*
X135166019Y-101194454D01*
X135025985Y-101136450D01*
X134874414Y-101136450D01*
X133873654Y-101136450D01*
X133733620Y-101194454D01*
X133626444Y-101301631D01*
X133568440Y-101441665D01*
X133568440Y-101593236D01*
X133568440Y-102393336D01*
X133626444Y-102533370D01*
X133733621Y-102640546D01*
X133873655Y-102698550D01*
X134025226Y-102698550D01*
X135025986Y-102698550D01*
X135166020Y-102640546D01*
X135273196Y-102533369D01*
X135331200Y-102393335D01*
X135331200Y-103346664D01*
X135273196Y-103206630D01*
X135166019Y-103099454D01*
X135025985Y-103041450D01*
X134874414Y-103041450D01*
X133873654Y-103041450D01*
X133733620Y-103099454D01*
X133626444Y-103206631D01*
X133568440Y-103346665D01*
X133568440Y-103498236D01*
X133568440Y-104298336D01*
X133626444Y-104438370D01*
X133733621Y-104545546D01*
X133873655Y-104603550D01*
X133941820Y-104603550D01*
X133941820Y-105372929D01*
X133941820Y-106512760D01*
X133490970Y-106963610D01*
X133490970Y-106903934D01*
X133490970Y-106304494D01*
X133432966Y-106164460D01*
X133325789Y-106057284D01*
X133185755Y-105999280D01*
X133034184Y-105999280D01*
X132635404Y-105999280D01*
X132495370Y-106057284D01*
X132460999Y-106091654D01*
X132426629Y-106057284D01*
X132286595Y-105999280D01*
X132135024Y-105999280D01*
X131736700Y-105999280D01*
X131722463Y-105985042D01*
X131781966Y-105925539D01*
X131839970Y-105785505D01*
X131839970Y-105633934D01*
X131839970Y-105034494D01*
X131781966Y-104894460D01*
X131674789Y-104787284D01*
X131645133Y-104775000D01*
X131674790Y-104762716D01*
X131781966Y-104655539D01*
X131839970Y-104515505D01*
X131839970Y-104363934D01*
X131839970Y-103764494D01*
X131792979Y-103651050D01*
X131825586Y-103651050D01*
X132826346Y-103651050D01*
X132966380Y-103593046D01*
X133073556Y-103485869D01*
X133131560Y-103345835D01*
X133131560Y-103194264D01*
X133131560Y-102394164D01*
X133073556Y-102254130D01*
X132966379Y-102146954D01*
X132826345Y-102088950D01*
X132674774Y-102088950D01*
X131706910Y-102088950D01*
X131618790Y-101957070D01*
X130927909Y-101266189D01*
X130763102Y-101156068D01*
X130568699Y-101117399D01*
X125704601Y-101117399D01*
X125510197Y-101156068D01*
X125345391Y-101266189D01*
X124964391Y-101647188D01*
X124964388Y-101647191D01*
X124919217Y-101692361D01*
X124460000Y-101601017D01*
X123983712Y-101695757D01*
X123579935Y-101965552D01*
X123310140Y-102369329D01*
X123215400Y-102845617D01*
X123215400Y-102894383D01*
X123310140Y-103370671D01*
X123579935Y-103774448D01*
X123983712Y-104044243D01*
X124460000Y-104138983D01*
X124936288Y-104044243D01*
X125340065Y-103774448D01*
X125609860Y-103370671D01*
X125704600Y-102894383D01*
X125704600Y-102845617D01*
X125621346Y-102427074D01*
X125682809Y-102365612D01*
X125682809Y-102365611D01*
X125682811Y-102365608D01*
X125915021Y-102133399D01*
X126001576Y-102133399D01*
X125796995Y-102550880D01*
X125857135Y-102743000D01*
X126873000Y-102743000D01*
X126873000Y-102723000D01*
X127127000Y-102723000D01*
X127127000Y-102743000D01*
X128142865Y-102743000D01*
X128203005Y-102550880D01*
X127998423Y-102133399D01*
X130358278Y-102133399D01*
X130484762Y-102259882D01*
X130460115Y-102284530D01*
X130460115Y-102743000D01*
X130507420Y-102743000D01*
X130507420Y-102997000D01*
X130460115Y-102997000D01*
X130460115Y-103455470D01*
X130509645Y-103505000D01*
X130460115Y-103554530D01*
X130460115Y-104013000D01*
X130507420Y-104013000D01*
X130507420Y-104267000D01*
X130460115Y-104267000D01*
X130460115Y-104725470D01*
X130509645Y-104775000D01*
X130460115Y-104824530D01*
X130460115Y-105283000D01*
X130507420Y-105283000D01*
X130507420Y-105537000D01*
X130460115Y-105537000D01*
X130460115Y-105557000D01*
X130260725Y-105557000D01*
X130260725Y-105537000D01*
X130260725Y-105283000D01*
X130260725Y-104824530D01*
X130211195Y-104775000D01*
X130260725Y-104725470D01*
X130260725Y-104267000D01*
X130260725Y-104013000D01*
X130260725Y-103554530D01*
X130211195Y-103505000D01*
X130260725Y-103455470D01*
X130260725Y-102997000D01*
X130260725Y-102743000D01*
X130260725Y-102284530D01*
X130165475Y-102189280D01*
X130085244Y-102189280D01*
X129945210Y-102247284D01*
X129838034Y-102354461D01*
X129780030Y-102494495D01*
X129780030Y-102646066D01*
X129780030Y-102647750D01*
X129875280Y-102743000D01*
X130260725Y-102743000D01*
X130260725Y-102997000D01*
X129875280Y-102997000D01*
X129780030Y-103092250D01*
X129780030Y-103093934D01*
X129780030Y-103245505D01*
X129838034Y-103385539D01*
X129945210Y-103492716D01*
X129974866Y-103505000D01*
X129945210Y-103517284D01*
X129838034Y-103624461D01*
X129780030Y-103764495D01*
X129780030Y-103916066D01*
X129780030Y-103917750D01*
X129875280Y-104013000D01*
X130260725Y-104013000D01*
X130260725Y-104267000D01*
X129875280Y-104267000D01*
X129780030Y-104362250D01*
X129780030Y-104363934D01*
X129780030Y-104515505D01*
X129838034Y-104655539D01*
X129945210Y-104762716D01*
X129974866Y-104775000D01*
X129945210Y-104787284D01*
X129838034Y-104894461D01*
X129780030Y-105034495D01*
X129780030Y-105186066D01*
X129780030Y-105187750D01*
X129875280Y-105283000D01*
X130260725Y-105283000D01*
X130260725Y-105537000D01*
X129875280Y-105537000D01*
X129781354Y-105630925D01*
X127956619Y-103806189D01*
X127858415Y-103740571D01*
X127989310Y-103625199D01*
X128203005Y-103189120D01*
X128142865Y-102997000D01*
X127127000Y-102997000D01*
X127127000Y-103017000D01*
X126873000Y-103017000D01*
X126873000Y-102997000D01*
X125857135Y-102997000D01*
X125796995Y-103189120D01*
X126010690Y-103625199D01*
X126047222Y-103657399D01*
X125704601Y-103657399D01*
X125510197Y-103696068D01*
X125345391Y-103806189D01*
X124964391Y-104187188D01*
X124964388Y-104187191D01*
X124919217Y-104232361D01*
X124460000Y-104141017D01*
X123983712Y-104235757D01*
X123579935Y-104505552D01*
X123310140Y-104909329D01*
X123215400Y-105385617D01*
X123215400Y-105434383D01*
X123310140Y-105910671D01*
X123579935Y-106314448D01*
X123983712Y-106584243D01*
X124460000Y-106678983D01*
X124936288Y-106584243D01*
X125340065Y-106314448D01*
X125609860Y-105910671D01*
X125704600Y-105434383D01*
X125704600Y-105385617D01*
X125621346Y-104967074D01*
X125682809Y-104905612D01*
X125682809Y-104905611D01*
X125682811Y-104905608D01*
X125915021Y-104673399D01*
X126007783Y-104673399D01*
X125850140Y-104909329D01*
X125755400Y-105385617D01*
X125755400Y-105434383D01*
X125850140Y-105910671D01*
X126041725Y-106197399D01*
X125704601Y-106197399D01*
X125510197Y-106236068D01*
X125345391Y-106346189D01*
X124964391Y-106727188D01*
X124964388Y-106727191D01*
X124919217Y-106772361D01*
X124460000Y-106681017D01*
X123983712Y-106775757D01*
X123579935Y-107045552D01*
X123310140Y-107449329D01*
X123215400Y-107925617D01*
X123215400Y-107974383D01*
X123310140Y-108450671D01*
X123579935Y-108854448D01*
X123983712Y-109124243D01*
X124460000Y-109218983D01*
X124936288Y-109124243D01*
X125340065Y-108854448D01*
X125609860Y-108450671D01*
X125704600Y-107974383D01*
X125704600Y-107925617D01*
X125621346Y-107507074D01*
X125682809Y-107445612D01*
X125682809Y-107445611D01*
X125682811Y-107445608D01*
X125755400Y-107373020D01*
X125755400Y-107727750D01*
X125850650Y-107823000D01*
X126873000Y-107823000D01*
X126873000Y-107803000D01*
X127127000Y-107803000D01*
X127127000Y-107823000D01*
X128149350Y-107823000D01*
X128244600Y-107727750D01*
X128244600Y-107213399D01*
X128453279Y-107213399D01*
X128596590Y-107356710D01*
X128761396Y-107466831D01*
X128761397Y-107466831D01*
X128831915Y-107480857D01*
X128831915Y-107480858D01*
X128886804Y-107613370D01*
X128993981Y-107720546D01*
X129134015Y-107778550D01*
X129285586Y-107778550D01*
X130286346Y-107778550D01*
X130426380Y-107720546D01*
X130533556Y-107613369D01*
X130591560Y-107473335D01*
X130591560Y-107321764D01*
X130591560Y-106680000D01*
X130980579Y-106680000D01*
X131212789Y-106912210D01*
X131212790Y-106912210D01*
X131377596Y-107022331D01*
X131377597Y-107022331D01*
X131409849Y-107028746D01*
X131431030Y-107032959D01*
X131431030Y-107055506D01*
X131478020Y-107168950D01*
X131333654Y-107168950D01*
X131193620Y-107226954D01*
X131086444Y-107334131D01*
X131028440Y-107474165D01*
X131028440Y-107625736D01*
X131028440Y-108425836D01*
X131086444Y-108565870D01*
X131193621Y-108673046D01*
X131333655Y-108731050D01*
X131485226Y-108731050D01*
X132367020Y-108731050D01*
X132320030Y-108844495D01*
X132320030Y-108996066D01*
X132320030Y-108997750D01*
X132415280Y-109093000D01*
X132800725Y-109093000D01*
X132800725Y-109073000D01*
X133000115Y-109073000D01*
X133000115Y-109093000D01*
X133047420Y-109093000D01*
X133047420Y-109347000D01*
X133000115Y-109347000D01*
X133000115Y-109805470D01*
X133095365Y-109900720D01*
X133175596Y-109900720D01*
X133315630Y-109842716D01*
X133350000Y-109808345D01*
X133384371Y-109842716D01*
X133524405Y-109900720D01*
X133675976Y-109900720D01*
X134074756Y-109900720D01*
X134214790Y-109842716D01*
X134321966Y-109735539D01*
X134379970Y-109595505D01*
X134379970Y-109443934D01*
X134379970Y-108844494D01*
X134321966Y-108704460D01*
X134307580Y-108690074D01*
X134307580Y-108479925D01*
X134321966Y-108465539D01*
X134379970Y-108325505D01*
X134379970Y-108173934D01*
X134379970Y-107574494D01*
X134361504Y-107529915D01*
X134809030Y-107082390D01*
X134919151Y-106917584D01*
X134919151Y-106917583D01*
X134925566Y-106885330D01*
X134957819Y-106723180D01*
X134957820Y-106723180D01*
X134957820Y-105918000D01*
X134976697Y-105918000D01*
X135001000Y-105942344D01*
X135001000Y-106045000D01*
X135103476Y-106045000D01*
X135167781Y-106109417D01*
X135471077Y-106235357D01*
X135799482Y-106235643D01*
X136102998Y-106110233D01*
X136168344Y-106045000D01*
X136525000Y-106045000D01*
X136525000Y-110363000D01*
X137795000Y-110363000D01*
X137795000Y-106045000D01*
X138049000Y-106045000D01*
X138049000Y-110363000D01*
X139319000Y-110363000D01*
X139319000Y-106045000D01*
X139573000Y-106045000D01*
X139573000Y-110363000D01*
X140843000Y-110363000D01*
X140843000Y-106045000D01*
X141097000Y-106045000D01*
X141097000Y-110363000D01*
X142367000Y-110363000D01*
X142367000Y-106045000D01*
X142621000Y-106045000D01*
X142621000Y-110363000D01*
X143891000Y-110363000D01*
X143891000Y-106045000D01*
X144145000Y-106045000D01*
X144145000Y-110363000D01*
X145415000Y-110363000D01*
X145415000Y-106045000D01*
X145669000Y-106045000D01*
X145669000Y-110363000D01*
X146939000Y-110363000D01*
X146939000Y-106045000D01*
X147193000Y-106045000D01*
X147193000Y-110363000D01*
X148463000Y-110363000D01*
X148463000Y-106045000D01*
X148717000Y-106045000D01*
X148717000Y-110363000D01*
X149987000Y-110363000D01*
X149987000Y-106045000D01*
X150241000Y-106045000D01*
X150241000Y-110363000D01*
X151511000Y-110363000D01*
X151511000Y-106045000D01*
X151765000Y-106045000D01*
X151765000Y-110363000D01*
X153035000Y-110363000D01*
X153035000Y-106045000D01*
X153289000Y-106045000D01*
X153289000Y-110363000D01*
X154559000Y-110363000D01*
X154559000Y-106045000D01*
X154813000Y-106045000D01*
X154813000Y-110363000D01*
X156083000Y-110363000D01*
X156083000Y-106045000D01*
X156337000Y-106045000D01*
X156337000Y-110363000D01*
X157607000Y-110363000D01*
X157607000Y-106045000D01*
X157861000Y-106045000D01*
X157861000Y-110363000D01*
X159131000Y-110363000D01*
X159131000Y-106045000D01*
X159385000Y-106045000D01*
X159385000Y-110363000D01*
X160655000Y-110363000D01*
X160655000Y-106045000D01*
X160909000Y-106045000D01*
X160909000Y-110363000D01*
X162179000Y-110363000D01*
X162179000Y-106045000D01*
X162433000Y-106045000D01*
X162433000Y-110363000D01*
X163703000Y-110363000D01*
X163703000Y-106045000D01*
X163957000Y-106045000D01*
X163957000Y-110363000D01*
X165227000Y-110363000D01*
X165227000Y-106045000D01*
X165481000Y-106045000D01*
X165481000Y-110363000D01*
X166751000Y-110363000D01*
X166751000Y-106045000D01*
X167005000Y-106045000D01*
X167005000Y-110363000D01*
X168275000Y-110363000D01*
X168275000Y-106045000D01*
X168529000Y-106045000D01*
X168529000Y-110363000D01*
X169799000Y-110363000D01*
X169799000Y-106045000D01*
X170053000Y-106045000D01*
X170053000Y-110363000D01*
X171323000Y-110363000D01*
X171323000Y-106045000D01*
X171577000Y-106045000D01*
X171577000Y-110363000D01*
X172847000Y-110363000D01*
X172847000Y-106045000D01*
X173101000Y-106045000D01*
X173101000Y-110363000D01*
X174371000Y-110363000D01*
X174371000Y-106045000D01*
X174625000Y-106045000D01*
X174625000Y-110363000D01*
X175895000Y-110363000D01*
X175895000Y-106045000D01*
X176149000Y-106045000D01*
X176149000Y-110363000D01*
X177419000Y-110363000D01*
X177419000Y-106045000D01*
X177673000Y-106045000D01*
X177673000Y-110363000D01*
X178943000Y-110363000D01*
X178943000Y-106045000D01*
X179197000Y-106045000D01*
X179197000Y-110363000D01*
X180467000Y-110363000D01*
X180467000Y-106045000D01*
X180721000Y-106045000D01*
X180721000Y-110363000D01*
X181991000Y-110363000D01*
X181991000Y-106045000D01*
X182245000Y-106045000D01*
X182245000Y-110363000D01*
X183515000Y-110363000D01*
X183515000Y-106045000D01*
X183769000Y-106045000D01*
X183769000Y-110363000D01*
X185039000Y-110363000D01*
X185039000Y-106045000D01*
X185293000Y-106045000D01*
X185293000Y-110363000D01*
X186563000Y-110363000D01*
X186563000Y-106045000D01*
X186817000Y-106045000D01*
X186817000Y-110363000D01*
X188087000Y-110363000D01*
X188087000Y-106045000D01*
X188341000Y-106045000D01*
X188341000Y-110363000D01*
X189611000Y-110363000D01*
X189611000Y-106045000D01*
X189865000Y-106045000D01*
X189865000Y-110363000D01*
X191135000Y-110363000D01*
X191135000Y-106045000D01*
X191389000Y-106045000D01*
X191389000Y-110363000D01*
X192659000Y-110363000D01*
X192659000Y-106045000D01*
X192913000Y-106045000D01*
X192913000Y-110363000D01*
X194183000Y-110363000D01*
X194183000Y-106045000D01*
X194437000Y-106045000D01*
X194437000Y-110363000D01*
X195707000Y-110363000D01*
X195707000Y-106045000D01*
X195961000Y-106045000D01*
X195961000Y-110363000D01*
X197231000Y-110363000D01*
X197231000Y-106045000D01*
X197485000Y-106045000D01*
X197485000Y-110363000D01*
X198755000Y-110363000D01*
X198755000Y-106045000D01*
X199009000Y-106045000D01*
X199009000Y-110363000D01*
X200279000Y-110363000D01*
X200279000Y-106045000D01*
X200533000Y-106045000D01*
X200533000Y-110363000D01*
X201803000Y-110363000D01*
X201803000Y-106045000D01*
X202057000Y-106045000D01*
X202057000Y-110363000D01*
X203327000Y-110363000D01*
X203327000Y-106045000D01*
X203581000Y-106045000D01*
X203581000Y-110363000D01*
X204851000Y-110363000D01*
X204851000Y-106045000D01*
X205105000Y-106045000D01*
X205105000Y-110363000D01*
X206375000Y-110363000D01*
X206375000Y-106045000D01*
X206629000Y-106045000D01*
X206629000Y-110363000D01*
X207899000Y-110363000D01*
X207899000Y-106045000D01*
X208153000Y-106045000D01*
X208153000Y-110363000D01*
X209423000Y-110363000D01*
X209423000Y-106045000D01*
X209677000Y-106045000D01*
X209677000Y-110363000D01*
X210947000Y-110363000D01*
X210947000Y-106045000D01*
X211201000Y-106045000D01*
X211201000Y-110299500D01*
X211798942Y-110299500D01*
X212471000Y-109963471D01*
X212471000Y-106045000D01*
X212725000Y-106045000D01*
X212725000Y-109601000D01*
X213517815Y-109601000D01*
X213995000Y-109123815D01*
X213995000Y-106045000D01*
X214249000Y-106045000D01*
X214249000Y-108585000D01*
X215041815Y-108585000D01*
X215519000Y-108107815D01*
X215519000Y-106045000D01*
X215773000Y-106045000D01*
X215773000Y-107315000D01*
X216565815Y-107315000D01*
X217043000Y-106837815D01*
X217043000Y-107128449D01*
X216774688Y-107665074D01*
X214370173Y-110069590D01*
X210741943Y-111279000D01*
X132800725Y-111279000D01*
X132800725Y-109805470D01*
X132800725Y-109347000D01*
X132415280Y-109347000D01*
X132320030Y-109442250D01*
X132320030Y-109443934D01*
X132320030Y-109595505D01*
X132378034Y-109735539D01*
X132485210Y-109842716D01*
X132625244Y-109900720D01*
X132705475Y-109900720D01*
X132800725Y-109805470D01*
X132800725Y-111279000D01*
X130591560Y-111279000D01*
X130591560Y-109378336D01*
X130591560Y-109124750D01*
X130591560Y-108680250D01*
X130591560Y-108426664D01*
X130533556Y-108286630D01*
X130426379Y-108179454D01*
X130286345Y-108121450D01*
X130134774Y-108121450D01*
X129932430Y-108121450D01*
X129837180Y-108216700D01*
X129837180Y-108775500D01*
X130496310Y-108775500D01*
X130591560Y-108680250D01*
X130591560Y-109124750D01*
X130496310Y-109029500D01*
X129837180Y-109029500D01*
X129837180Y-109588300D01*
X129932430Y-109683550D01*
X130134774Y-109683550D01*
X130286345Y-109683550D01*
X130426379Y-109625546D01*
X130533556Y-109518370D01*
X130591560Y-109378336D01*
X130591560Y-111279000D01*
X129583180Y-111279000D01*
X129583180Y-109588300D01*
X129583180Y-109029500D01*
X129583180Y-108775500D01*
X129583180Y-108216700D01*
X129487930Y-108121450D01*
X129285586Y-108121450D01*
X129134015Y-108121450D01*
X128993981Y-108179454D01*
X128886804Y-108286630D01*
X128828800Y-108426664D01*
X128828800Y-108680250D01*
X128924050Y-108775500D01*
X129583180Y-108775500D01*
X129583180Y-109029500D01*
X128924050Y-109029500D01*
X128828800Y-109124750D01*
X128828800Y-109378336D01*
X128886804Y-109518370D01*
X128993981Y-109625546D01*
X129134015Y-109683550D01*
X129285586Y-109683550D01*
X129487930Y-109683550D01*
X129583180Y-109588300D01*
X129583180Y-111279000D01*
X128244600Y-111279000D01*
X128244600Y-108889386D01*
X128244600Y-108172250D01*
X128149350Y-108077000D01*
X127127000Y-108077000D01*
X127127000Y-109099350D01*
X127222250Y-109194600D01*
X127787814Y-109194600D01*
X127939385Y-109194600D01*
X128079419Y-109136596D01*
X128186596Y-109029420D01*
X128244600Y-108889386D01*
X128244600Y-111279000D01*
X126873000Y-111279000D01*
X126873000Y-109099350D01*
X126873000Y-108077000D01*
X125850650Y-108077000D01*
X125755400Y-108172250D01*
X125755400Y-108889386D01*
X125813404Y-109029420D01*
X125920581Y-109136596D01*
X126060615Y-109194600D01*
X126212186Y-109194600D01*
X126777750Y-109194600D01*
X126873000Y-109099350D01*
X126873000Y-111279000D01*
X123237376Y-111279000D01*
X122405661Y-111113561D01*
X121740730Y-110669269D01*
X121296438Y-110004339D01*
X121131000Y-109172624D01*
X121131000Y-107950000D01*
X121121758Y-107903537D01*
X121121758Y-107856161D01*
X121031000Y-107399890D01*
X121031000Y-106616502D01*
X121094357Y-106463923D01*
X121094643Y-106135518D01*
X121031000Y-105981489D01*
X121031000Y-105727502D01*
X121094357Y-105574923D01*
X121094643Y-105246518D01*
X121031000Y-105092489D01*
X121031000Y-104838502D01*
X121094357Y-104685923D01*
X121094643Y-104357518D01*
X121031000Y-104203489D01*
X121031000Y-103420109D01*
X121121758Y-102963839D01*
X121121758Y-102916462D01*
X121131000Y-102870000D01*
X121131000Y-101647375D01*
X121296438Y-100815660D01*
X121740730Y-100150730D01*
X122405661Y-99706438D01*
X123237376Y-99541000D01*
X210741943Y-99541000D01*
X214370173Y-100750409D01*
X216774688Y-103154925D01*
X217902225Y-105409999D01*
G36*
X216535000Y-106627395D02*
X216355395Y-106807000D01*
X216281000Y-106807000D01*
X216281000Y-105537000D01*
X215011000Y-105537000D01*
X215011000Y-107897395D01*
X214831395Y-108077000D01*
X214757000Y-108077000D01*
X214757000Y-105537000D01*
X213487000Y-105537000D01*
X213487000Y-108913395D01*
X213307395Y-109093000D01*
X213233000Y-109093000D01*
X213233000Y-105537000D01*
X211963000Y-105537000D01*
X211963000Y-109649510D01*
X211709000Y-109776509D01*
X211709000Y-105537000D01*
X210439000Y-105537000D01*
X210439000Y-109855000D01*
X210185000Y-109855000D01*
X210185000Y-105537000D01*
X208915000Y-105537000D01*
X208915000Y-109855000D01*
X208661000Y-109855000D01*
X208661000Y-105537000D01*
X207391000Y-105537000D01*
X207391000Y-109855000D01*
X207137000Y-109855000D01*
X207137000Y-105537000D01*
X205867000Y-105537000D01*
X205867000Y-109855000D01*
X205613000Y-109855000D01*
X205613000Y-105537000D01*
X204343000Y-105537000D01*
X204343000Y-109855000D01*
X204089000Y-109855000D01*
X204089000Y-105537000D01*
X202819000Y-105537000D01*
X202819000Y-109855000D01*
X202565000Y-109855000D01*
X202565000Y-105537000D01*
X201295000Y-105537000D01*
X201295000Y-109855000D01*
X201041000Y-109855000D01*
X201041000Y-105537000D01*
X199771000Y-105537000D01*
X199771000Y-109855000D01*
X199517000Y-109855000D01*
X199517000Y-105537000D01*
X198247000Y-105537000D01*
X198247000Y-109855000D01*
X197993000Y-109855000D01*
X197993000Y-105537000D01*
X196723000Y-105537000D01*
X196723000Y-109855000D01*
X196469000Y-109855000D01*
X196469000Y-105537000D01*
X195199000Y-105537000D01*
X195199000Y-109855000D01*
X194945000Y-109855000D01*
X194945000Y-105537000D01*
X193675000Y-105537000D01*
X193675000Y-109855000D01*
X193421000Y-109855000D01*
X193421000Y-105537000D01*
X192151000Y-105537000D01*
X192151000Y-109855000D01*
X191897000Y-109855000D01*
X191897000Y-105537000D01*
X190627000Y-105537000D01*
X190627000Y-109855000D01*
X190373000Y-109855000D01*
X190373000Y-105537000D01*
X189103000Y-105537000D01*
X189103000Y-109855000D01*
X188849000Y-109855000D01*
X188849000Y-105537000D01*
X187579000Y-105537000D01*
X187579000Y-109855000D01*
X187325000Y-109855000D01*
X187325000Y-105537000D01*
X186055000Y-105537000D01*
X186055000Y-109855000D01*
X185801000Y-109855000D01*
X185801000Y-105537000D01*
X184531000Y-105537000D01*
X184531000Y-109855000D01*
X184277000Y-109855000D01*
X184277000Y-105537000D01*
X183007000Y-105537000D01*
X183007000Y-109855000D01*
X182753000Y-109855000D01*
X182753000Y-105537000D01*
X181483000Y-105537000D01*
X181483000Y-109855000D01*
X181229000Y-109855000D01*
X181229000Y-105537000D01*
X179959000Y-105537000D01*
X179959000Y-109855000D01*
X179705000Y-109855000D01*
X179705000Y-105537000D01*
X178435000Y-105537000D01*
X178435000Y-109855000D01*
X178181000Y-109855000D01*
X178181000Y-105537000D01*
X176911000Y-105537000D01*
X176911000Y-109855000D01*
X176657000Y-109855000D01*
X176657000Y-105537000D01*
X175387000Y-105537000D01*
X175387000Y-109855000D01*
X175133000Y-109855000D01*
X175133000Y-105537000D01*
X173863000Y-105537000D01*
X173863000Y-109855000D01*
X173609000Y-109855000D01*
X173609000Y-105537000D01*
X172339000Y-105537000D01*
X172339000Y-109855000D01*
X172085000Y-109855000D01*
X172085000Y-105537000D01*
X170815000Y-105537000D01*
X170815000Y-109855000D01*
X170561000Y-109855000D01*
X170561000Y-105537000D01*
X169291000Y-105537000D01*
X169291000Y-109855000D01*
X169037000Y-109855000D01*
X169037000Y-105537000D01*
X167767000Y-105537000D01*
X167767000Y-109855000D01*
X167513000Y-109855000D01*
X167513000Y-105537000D01*
X166243000Y-105537000D01*
X166243000Y-109855000D01*
X165989000Y-109855000D01*
X165989000Y-105537000D01*
X164719000Y-105537000D01*
X164719000Y-109855000D01*
X164465000Y-109855000D01*
X164465000Y-105537000D01*
X163195000Y-105537000D01*
X163195000Y-109855000D01*
X162941000Y-109855000D01*
X162941000Y-105537000D01*
X161671000Y-105537000D01*
X161671000Y-109855000D01*
X161417000Y-109855000D01*
X161417000Y-105537000D01*
X160147000Y-105537000D01*
X160147000Y-109855000D01*
X159893000Y-109855000D01*
X159893000Y-105537000D01*
X158623000Y-105537000D01*
X158623000Y-109855000D01*
X158369000Y-109855000D01*
X158369000Y-105537000D01*
X157099000Y-105537000D01*
X157099000Y-109855000D01*
X156845000Y-109855000D01*
X156845000Y-105537000D01*
X155575000Y-105537000D01*
X155575000Y-109855000D01*
X155321000Y-109855000D01*
X155321000Y-105537000D01*
X154051000Y-105537000D01*
X154051000Y-109855000D01*
X153797000Y-109855000D01*
X153797000Y-105537000D01*
X152527000Y-105537000D01*
X152527000Y-109855000D01*
X152273000Y-109855000D01*
X152273000Y-105537000D01*
X151003000Y-105537000D01*
X151003000Y-109855000D01*
X150749000Y-109855000D01*
X150749000Y-105537000D01*
X149479000Y-105537000D01*
X149479000Y-109855000D01*
X149225000Y-109855000D01*
X149225000Y-105537000D01*
X147955000Y-105537000D01*
X147955000Y-109855000D01*
X147701000Y-109855000D01*
X147701000Y-105537000D01*
X146431000Y-105537000D01*
X146431000Y-109855000D01*
X146177000Y-109855000D01*
X146177000Y-105537000D01*
X144907000Y-105537000D01*
X144907000Y-109855000D01*
X144653000Y-109855000D01*
X144653000Y-105537000D01*
X143383000Y-105537000D01*
X143383000Y-109855000D01*
X143129000Y-109855000D01*
X143129000Y-105537000D01*
X141859000Y-105537000D01*
X141859000Y-109855000D01*
X141605000Y-109855000D01*
X141605000Y-105537000D01*
X140335000Y-105537000D01*
X140335000Y-109855000D01*
X140081000Y-109855000D01*
X140081000Y-105537000D01*
X138811000Y-105537000D01*
X138811000Y-109855000D01*
X138557000Y-109855000D01*
X138557000Y-105537000D01*
X137287000Y-105537000D01*
X137287000Y-109855000D01*
X137033000Y-109855000D01*
X137033000Y-105537000D01*
X135509000Y-105537000D01*
X135509000Y-105283000D01*
X137033000Y-105283000D01*
X137033000Y-100965000D01*
X137287000Y-100965000D01*
X137287000Y-105283000D01*
X138557000Y-105283000D01*
X138557000Y-100965000D01*
X138811000Y-100965000D01*
X138811000Y-105283000D01*
X140081000Y-105283000D01*
X140081000Y-100965000D01*
X140335000Y-100965000D01*
X140335000Y-105283000D01*
X141605000Y-105283000D01*
X141605000Y-100965000D01*
X141859000Y-100965000D01*
X141859000Y-105283000D01*
X143129000Y-105283000D01*
X143129000Y-100965000D01*
X143383000Y-100965000D01*
X143383000Y-105283000D01*
X144653000Y-105283000D01*
X144653000Y-100965000D01*
X144907000Y-100965000D01*
X144907000Y-105283000D01*
X146177000Y-105283000D01*
X146177000Y-100965000D01*
X146431000Y-100965000D01*
X146431000Y-105283000D01*
X147701000Y-105283000D01*
X147701000Y-100965000D01*
X147955000Y-100965000D01*
X147955000Y-105283000D01*
X149225000Y-105283000D01*
X149225000Y-100965000D01*
X149479000Y-100965000D01*
X149479000Y-105283000D01*
X150749000Y-105283000D01*
X150749000Y-100965000D01*
X151003000Y-100965000D01*
X151003000Y-105283000D01*
X152273000Y-105283000D01*
X152273000Y-100965000D01*
X152527000Y-100965000D01*
X152527000Y-105283000D01*
X153797000Y-105283000D01*
X153797000Y-100965000D01*
X154051000Y-100965000D01*
X154051000Y-105283000D01*
X155321000Y-105283000D01*
X155321000Y-100965000D01*
X155575000Y-100965000D01*
X155575000Y-105283000D01*
X156845000Y-105283000D01*
X156845000Y-100965000D01*
X157099000Y-100965000D01*
X157099000Y-105283000D01*
X158369000Y-105283000D01*
X158369000Y-100965000D01*
X158623000Y-100965000D01*
X158623000Y-105283000D01*
X159893000Y-105283000D01*
X159893000Y-100965000D01*
X160147000Y-100965000D01*
X160147000Y-105283000D01*
X161417000Y-105283000D01*
X161417000Y-100965000D01*
X161671000Y-100965000D01*
X161671000Y-105283000D01*
X162941000Y-105283000D01*
X162941000Y-100965000D01*
X163195000Y-100965000D01*
X163195000Y-105283000D01*
X164465000Y-105283000D01*
X164465000Y-100965000D01*
X164719000Y-100965000D01*
X164719000Y-105283000D01*
X165989000Y-105283000D01*
X165989000Y-100965000D01*
X166243000Y-100965000D01*
X166243000Y-105283000D01*
X167513000Y-105283000D01*
X167513000Y-100965000D01*
X167767000Y-100965000D01*
X167767000Y-105283000D01*
X169037000Y-105283000D01*
X169037000Y-100965000D01*
X169291000Y-100965000D01*
X169291000Y-105283000D01*
X170561000Y-105283000D01*
X170561000Y-100965000D01*
X170815000Y-100965000D01*
X170815000Y-105283000D01*
X172085000Y-105283000D01*
X172085000Y-100965000D01*
X172339000Y-100965000D01*
X172339000Y-105283000D01*
X173609000Y-105283000D01*
X173609000Y-100965000D01*
X173863000Y-100965000D01*
X173863000Y-105283000D01*
X175133000Y-105283000D01*
X175133000Y-100965000D01*
X175387000Y-100965000D01*
X175387000Y-105283000D01*
X176657000Y-105283000D01*
X176657000Y-100965000D01*
X176911000Y-100965000D01*
X176911000Y-105283000D01*
X178181000Y-105283000D01*
X178181000Y-100965000D01*
X178435000Y-100965000D01*
X178435000Y-105283000D01*
X179705000Y-105283000D01*
X179705000Y-100965000D01*
X179959000Y-100965000D01*
X179959000Y-105283000D01*
X181229000Y-105283000D01*
X181229000Y-100965000D01*
X181483000Y-100965000D01*
X181483000Y-105283000D01*
X182753000Y-105283000D01*
X182753000Y-100965000D01*
X183007000Y-100965000D01*
X183007000Y-105283000D01*
X184277000Y-105283000D01*
X184277000Y-100965000D01*
X184531000Y-100965000D01*
X184531000Y-105283000D01*
X185801000Y-105283000D01*
X185801000Y-100965000D01*
X186055000Y-100965000D01*
X186055000Y-105283000D01*
X187325000Y-105283000D01*
X187325000Y-100965000D01*
X187579000Y-100965000D01*
X187579000Y-105283000D01*
X188849000Y-105283000D01*
X188849000Y-100965000D01*
X189103000Y-100965000D01*
X189103000Y-105283000D01*
X190373000Y-105283000D01*
X190373000Y-100965000D01*
X190627000Y-100965000D01*
X190627000Y-105283000D01*
X191897000Y-105283000D01*
X191897000Y-100965000D01*
X192151000Y-100965000D01*
X192151000Y-105283000D01*
X193421000Y-105283000D01*
X193421000Y-100965000D01*
X193675000Y-100965000D01*
X193675000Y-105283000D01*
X194945000Y-105283000D01*
X194945000Y-100965000D01*
X195199000Y-100965000D01*
X195199000Y-105283000D01*
X196469000Y-105283000D01*
X196469000Y-100965000D01*
X196723000Y-100965000D01*
X196723000Y-105283000D01*
X197993000Y-105283000D01*
X197993000Y-100965000D01*
X198247000Y-100965000D01*
X198247000Y-105283000D01*
X199517000Y-105283000D01*
X199517000Y-100965000D01*
X199771000Y-100965000D01*
X199771000Y-105283000D01*
X201041000Y-105283000D01*
X201041000Y-100965000D01*
X201295000Y-100965000D01*
X201295000Y-105283000D01*
X202565000Y-105283000D01*
X202565000Y-100965000D01*
X202819000Y-100965000D01*
X202819000Y-105283000D01*
X204089000Y-105283000D01*
X204089000Y-100965000D01*
X204343000Y-100965000D01*
X204343000Y-105283000D01*
X205613000Y-105283000D01*
X205613000Y-100965000D01*
X205867000Y-100965000D01*
X205867000Y-105283000D01*
X207137000Y-105283000D01*
X207137000Y-100965000D01*
X207391000Y-100965000D01*
X207391000Y-105283000D01*
X208661000Y-105283000D01*
X208661000Y-100965000D01*
X208915000Y-100965000D01*
X208915000Y-105283000D01*
X210185000Y-105283000D01*
X210185000Y-100965000D01*
X210439000Y-100965000D01*
X210439000Y-105283000D01*
X211709000Y-105283000D01*
X211709000Y-101043490D01*
X211963000Y-101170490D01*
X211963000Y-105283000D01*
X213233000Y-105283000D01*
X213233000Y-101727000D01*
X213307395Y-101727000D01*
X213487000Y-101906605D01*
X213487000Y-105283000D01*
X214757000Y-105283000D01*
X214757000Y-102743000D01*
X214831395Y-102743000D01*
X215011000Y-102922605D01*
X215011000Y-105283000D01*
X216281000Y-105283000D01*
X216281000Y-104013000D01*
X216355395Y-104013000D01*
X216535000Y-104192605D01*
X216535000Y-106627395D01*
X216535000Y-106627395D01*
G37*
X216535000Y-106627395D02*
X216355395Y-106807000D01*
X216281000Y-106807000D01*
X216281000Y-105537000D01*
X215011000Y-105537000D01*
X215011000Y-107897395D01*
X214831395Y-108077000D01*
X214757000Y-108077000D01*
X214757000Y-105537000D01*
X213487000Y-105537000D01*
X213487000Y-108913395D01*
X213307395Y-109093000D01*
X213233000Y-109093000D01*
X213233000Y-105537000D01*
X211963000Y-105537000D01*
X211963000Y-109649510D01*
X211709000Y-109776509D01*
X211709000Y-105537000D01*
X210439000Y-105537000D01*
X210439000Y-109855000D01*
X210185000Y-109855000D01*
X210185000Y-105537000D01*
X208915000Y-105537000D01*
X208915000Y-109855000D01*
X208661000Y-109855000D01*
X208661000Y-105537000D01*
X207391000Y-105537000D01*
X207391000Y-109855000D01*
X207137000Y-109855000D01*
X207137000Y-105537000D01*
X205867000Y-105537000D01*
X205867000Y-109855000D01*
X205613000Y-109855000D01*
X205613000Y-105537000D01*
X204343000Y-105537000D01*
X204343000Y-109855000D01*
X204089000Y-109855000D01*
X204089000Y-105537000D01*
X202819000Y-105537000D01*
X202819000Y-109855000D01*
X202565000Y-109855000D01*
X202565000Y-105537000D01*
X201295000Y-105537000D01*
X201295000Y-109855000D01*
X201041000Y-109855000D01*
X201041000Y-105537000D01*
X199771000Y-105537000D01*
X199771000Y-109855000D01*
X199517000Y-109855000D01*
X199517000Y-105537000D01*
X198247000Y-105537000D01*
X198247000Y-109855000D01*
X197993000Y-109855000D01*
X197993000Y-105537000D01*
X196723000Y-105537000D01*
X196723000Y-109855000D01*
X196469000Y-109855000D01*
X196469000Y-105537000D01*
X195199000Y-105537000D01*
X195199000Y-109855000D01*
X194945000Y-109855000D01*
X194945000Y-105537000D01*
X193675000Y-105537000D01*
X193675000Y-109855000D01*
X193421000Y-109855000D01*
X193421000Y-105537000D01*
X192151000Y-105537000D01*
X192151000Y-109855000D01*
X191897000Y-109855000D01*
X191897000Y-105537000D01*
X190627000Y-105537000D01*
X190627000Y-109855000D01*
X190373000Y-109855000D01*
X190373000Y-105537000D01*
X189103000Y-105537000D01*
X189103000Y-109855000D01*
X188849000Y-109855000D01*
X188849000Y-105537000D01*
X187579000Y-105537000D01*
X187579000Y-109855000D01*
X187325000Y-109855000D01*
X187325000Y-105537000D01*
X186055000Y-105537000D01*
X186055000Y-109855000D01*
X185801000Y-109855000D01*
X185801000Y-105537000D01*
X184531000Y-105537000D01*
X184531000Y-109855000D01*
X184277000Y-109855000D01*
X184277000Y-105537000D01*
X183007000Y-105537000D01*
X183007000Y-109855000D01*
X182753000Y-109855000D01*
X182753000Y-105537000D01*
X181483000Y-105537000D01*
X181483000Y-109855000D01*
X181229000Y-109855000D01*
X181229000Y-105537000D01*
X179959000Y-105537000D01*
X179959000Y-109855000D01*
X179705000Y-109855000D01*
X179705000Y-105537000D01*
X178435000Y-105537000D01*
X178435000Y-109855000D01*
X178181000Y-109855000D01*
X178181000Y-105537000D01*
X176911000Y-105537000D01*
X176911000Y-109855000D01*
X176657000Y-109855000D01*
X176657000Y-105537000D01*
X175387000Y-105537000D01*
X175387000Y-109855000D01*
X175133000Y-109855000D01*
X175133000Y-105537000D01*
X173863000Y-105537000D01*
X173863000Y-109855000D01*
X173609000Y-109855000D01*
X173609000Y-105537000D01*
X172339000Y-105537000D01*
X172339000Y-109855000D01*
X172085000Y-109855000D01*
X172085000Y-105537000D01*
X170815000Y-105537000D01*
X170815000Y-109855000D01*
X170561000Y-109855000D01*
X170561000Y-105537000D01*
X169291000Y-105537000D01*
X169291000Y-109855000D01*
X169037000Y-109855000D01*
X169037000Y-105537000D01*
X167767000Y-105537000D01*
X167767000Y-109855000D01*
X167513000Y-109855000D01*
X167513000Y-105537000D01*
X166243000Y-105537000D01*
X166243000Y-109855000D01*
X165989000Y-109855000D01*
X165989000Y-105537000D01*
X164719000Y-105537000D01*
X164719000Y-109855000D01*
X164465000Y-109855000D01*
X164465000Y-105537000D01*
X163195000Y-105537000D01*
X163195000Y-109855000D01*
X162941000Y-109855000D01*
X162941000Y-105537000D01*
X161671000Y-105537000D01*
X161671000Y-109855000D01*
X161417000Y-109855000D01*
X161417000Y-105537000D01*
X160147000Y-105537000D01*
X160147000Y-109855000D01*
X159893000Y-109855000D01*
X159893000Y-105537000D01*
X158623000Y-105537000D01*
X158623000Y-109855000D01*
X158369000Y-109855000D01*
X158369000Y-105537000D01*
X157099000Y-105537000D01*
X157099000Y-109855000D01*
X156845000Y-109855000D01*
X156845000Y-105537000D01*
X155575000Y-105537000D01*
X155575000Y-109855000D01*
X155321000Y-109855000D01*
X155321000Y-105537000D01*
X154051000Y-105537000D01*
X154051000Y-109855000D01*
X153797000Y-109855000D01*
X153797000Y-105537000D01*
X152527000Y-105537000D01*
X152527000Y-109855000D01*
X152273000Y-109855000D01*
X152273000Y-105537000D01*
X151003000Y-105537000D01*
X151003000Y-109855000D01*
X150749000Y-109855000D01*
X150749000Y-105537000D01*
X149479000Y-105537000D01*
X149479000Y-109855000D01*
X149225000Y-109855000D01*
X149225000Y-105537000D01*
X147955000Y-105537000D01*
X147955000Y-109855000D01*
X147701000Y-109855000D01*
X147701000Y-105537000D01*
X146431000Y-105537000D01*
X146431000Y-109855000D01*
X146177000Y-109855000D01*
X146177000Y-105537000D01*
X144907000Y-105537000D01*
X144907000Y-109855000D01*
X144653000Y-109855000D01*
X144653000Y-105537000D01*
X143383000Y-105537000D01*
X143383000Y-109855000D01*
X143129000Y-109855000D01*
X143129000Y-105537000D01*
X141859000Y-105537000D01*
X141859000Y-109855000D01*
X141605000Y-109855000D01*
X141605000Y-105537000D01*
X140335000Y-105537000D01*
X140335000Y-109855000D01*
X140081000Y-109855000D01*
X140081000Y-105537000D01*
X138811000Y-105537000D01*
X138811000Y-109855000D01*
X138557000Y-109855000D01*
X138557000Y-105537000D01*
X137287000Y-105537000D01*
X137287000Y-109855000D01*
X137033000Y-109855000D01*
X137033000Y-105537000D01*
X135509000Y-105537000D01*
X135509000Y-105283000D01*
X137033000Y-105283000D01*
X137033000Y-100965000D01*
X137287000Y-100965000D01*
X137287000Y-105283000D01*
X138557000Y-105283000D01*
X138557000Y-100965000D01*
X138811000Y-100965000D01*
X138811000Y-105283000D01*
X140081000Y-105283000D01*
X140081000Y-100965000D01*
X140335000Y-100965000D01*
X140335000Y-105283000D01*
X141605000Y-105283000D01*
X141605000Y-100965000D01*
X141859000Y-100965000D01*
X141859000Y-105283000D01*
X143129000Y-105283000D01*
X143129000Y-100965000D01*
X143383000Y-100965000D01*
X143383000Y-105283000D01*
X144653000Y-105283000D01*
X144653000Y-100965000D01*
X144907000Y-100965000D01*
X144907000Y-105283000D01*
X146177000Y-105283000D01*
X146177000Y-100965000D01*
X146431000Y-100965000D01*
X146431000Y-105283000D01*
X147701000Y-105283000D01*
X147701000Y-100965000D01*
X147955000Y-100965000D01*
X147955000Y-105283000D01*
X149225000Y-105283000D01*
X149225000Y-100965000D01*
X149479000Y-100965000D01*
X149479000Y-105283000D01*
X150749000Y-105283000D01*
X150749000Y-100965000D01*
X151003000Y-100965000D01*
X151003000Y-105283000D01*
X152273000Y-105283000D01*
X152273000Y-100965000D01*
X152527000Y-100965000D01*
X152527000Y-105283000D01*
X153797000Y-105283000D01*
X153797000Y-100965000D01*
X154051000Y-100965000D01*
X154051000Y-105283000D01*
X155321000Y-105283000D01*
X155321000Y-100965000D01*
X155575000Y-100965000D01*
X155575000Y-105283000D01*
X156845000Y-105283000D01*
X156845000Y-100965000D01*
X157099000Y-100965000D01*
X157099000Y-105283000D01*
X158369000Y-105283000D01*
X158369000Y-100965000D01*
X158623000Y-100965000D01*
X158623000Y-105283000D01*
X159893000Y-105283000D01*
X159893000Y-100965000D01*
X160147000Y-100965000D01*
X160147000Y-105283000D01*
X161417000Y-105283000D01*
X161417000Y-100965000D01*
X161671000Y-100965000D01*
X161671000Y-105283000D01*
X162941000Y-105283000D01*
X162941000Y-100965000D01*
X163195000Y-100965000D01*
X163195000Y-105283000D01*
X164465000Y-105283000D01*
X164465000Y-100965000D01*
X164719000Y-100965000D01*
X164719000Y-105283000D01*
X165989000Y-105283000D01*
X165989000Y-100965000D01*
X166243000Y-100965000D01*
X166243000Y-105283000D01*
X167513000Y-105283000D01*
X167513000Y-100965000D01*
X167767000Y-100965000D01*
X167767000Y-105283000D01*
X169037000Y-105283000D01*
X169037000Y-100965000D01*
X169291000Y-100965000D01*
X169291000Y-105283000D01*
X170561000Y-105283000D01*
X170561000Y-100965000D01*
X170815000Y-100965000D01*
X170815000Y-105283000D01*
X172085000Y-105283000D01*
X172085000Y-100965000D01*
X172339000Y-100965000D01*
X172339000Y-105283000D01*
X173609000Y-105283000D01*
X173609000Y-100965000D01*
X173863000Y-100965000D01*
X173863000Y-105283000D01*
X175133000Y-105283000D01*
X175133000Y-100965000D01*
X175387000Y-100965000D01*
X175387000Y-105283000D01*
X176657000Y-105283000D01*
X176657000Y-100965000D01*
X176911000Y-100965000D01*
X176911000Y-105283000D01*
X178181000Y-105283000D01*
X178181000Y-100965000D01*
X178435000Y-100965000D01*
X178435000Y-105283000D01*
X179705000Y-105283000D01*
X179705000Y-100965000D01*
X179959000Y-100965000D01*
X179959000Y-105283000D01*
X181229000Y-105283000D01*
X181229000Y-100965000D01*
X181483000Y-100965000D01*
X181483000Y-105283000D01*
X182753000Y-105283000D01*
X182753000Y-100965000D01*
X183007000Y-100965000D01*
X183007000Y-105283000D01*
X184277000Y-105283000D01*
X184277000Y-100965000D01*
X184531000Y-100965000D01*
X184531000Y-105283000D01*
X185801000Y-105283000D01*
X185801000Y-100965000D01*
X186055000Y-100965000D01*
X186055000Y-105283000D01*
X187325000Y-105283000D01*
X187325000Y-100965000D01*
X187579000Y-100965000D01*
X187579000Y-105283000D01*
X188849000Y-105283000D01*
X188849000Y-100965000D01*
X189103000Y-100965000D01*
X189103000Y-105283000D01*
X190373000Y-105283000D01*
X190373000Y-100965000D01*
X190627000Y-100965000D01*
X190627000Y-105283000D01*
X191897000Y-105283000D01*
X191897000Y-100965000D01*
X192151000Y-100965000D01*
X192151000Y-105283000D01*
X193421000Y-105283000D01*
X193421000Y-100965000D01*
X193675000Y-100965000D01*
X193675000Y-105283000D01*
X194945000Y-105283000D01*
X194945000Y-100965000D01*
X195199000Y-100965000D01*
X195199000Y-105283000D01*
X196469000Y-105283000D01*
X196469000Y-100965000D01*
X196723000Y-100965000D01*
X196723000Y-105283000D01*
X197993000Y-105283000D01*
X197993000Y-100965000D01*
X198247000Y-100965000D01*
X198247000Y-105283000D01*
X199517000Y-105283000D01*
X199517000Y-100965000D01*
X199771000Y-100965000D01*
X199771000Y-105283000D01*
X201041000Y-105283000D01*
X201041000Y-100965000D01*
X201295000Y-100965000D01*
X201295000Y-105283000D01*
X202565000Y-105283000D01*
X202565000Y-100965000D01*
X202819000Y-100965000D01*
X202819000Y-105283000D01*
X204089000Y-105283000D01*
X204089000Y-100965000D01*
X204343000Y-100965000D01*
X204343000Y-105283000D01*
X205613000Y-105283000D01*
X205613000Y-100965000D01*
X205867000Y-100965000D01*
X205867000Y-105283000D01*
X207137000Y-105283000D01*
X207137000Y-100965000D01*
X207391000Y-100965000D01*
X207391000Y-105283000D01*
X208661000Y-105283000D01*
X208661000Y-100965000D01*
X208915000Y-100965000D01*
X208915000Y-105283000D01*
X210185000Y-105283000D01*
X210185000Y-100965000D01*
X210439000Y-100965000D01*
X210439000Y-105283000D01*
X211709000Y-105283000D01*
X211709000Y-101043490D01*
X211963000Y-101170490D01*
X211963000Y-105283000D01*
X213233000Y-105283000D01*
X213233000Y-101727000D01*
X213307395Y-101727000D01*
X213487000Y-101906605D01*
X213487000Y-105283000D01*
X214757000Y-105283000D01*
X214757000Y-102743000D01*
X214831395Y-102743000D01*
X215011000Y-102922605D01*
X215011000Y-105283000D01*
X216281000Y-105283000D01*
X216281000Y-104013000D01*
X216355395Y-104013000D01*
X216535000Y-104192605D01*
X216535000Y-106627395D01*
M02*
