%FSLAX46Y46*%
G04 Gerber Fmt 4.6, Leading zero omitted, Abs format (unit mm)*
G04 Created by KiCad (PCBNEW (2014-08-29 BZR 5106)-product) date Thu 20 Nov 2014 11:46:28 AM PST*
%MOMM*%
G01*
G04 APERTURE LIST*
%ADD10C,0.100000*%
%ADD11C,0.127000*%
%ADD12R,1.153160X0.952500*%
%ADD13R,0.551180X0.751840*%
%ADD14R,0.949960X0.949960*%
%ADD15C,1.676400*%
%ADD16R,1.879600X1.879600*%
%ADD17O,1.879600X1.879600*%
%ADD18R,0.660400X1.295400*%
%ADD19C,0.076200*%
G04 APERTURE END LIST*
D10*
D11*
X137096500Y-121475500D02*
X135636000Y-121475500D01*
X137604500Y-121983500D02*
X137096500Y-121475500D01*
X137604500Y-124015500D02*
X137604500Y-121983500D01*
X137604500Y-124015500D02*
X195516500Y-124015500D01*
D12*
X132250180Y-118110000D03*
X134449820Y-117157500D03*
X134449820Y-119062500D03*
D13*
X117289580Y-109220000D03*
X116390420Y-109220000D03*
X132900420Y-124460000D03*
X133799580Y-124460000D03*
X132900420Y-109220000D03*
X133799580Y-109220000D03*
X130360420Y-119380000D03*
X131259580Y-119380000D03*
X130360420Y-104140000D03*
X131259580Y-104140000D03*
X130360420Y-105410000D03*
X131259580Y-105410000D03*
X130360420Y-120650000D03*
X131259580Y-120650000D03*
D14*
X109207300Y-120904000D03*
X107708700Y-120904000D03*
D15*
X103505000Y-124460000D03*
X103505000Y-121920000D03*
X103505000Y-119380000D03*
X103505000Y-116840000D03*
X103505000Y-114300000D03*
X103505000Y-111760000D03*
X103505000Y-109220000D03*
X103505000Y-106680000D03*
X103505000Y-104140000D03*
X103505000Y-101600000D03*
D16*
X115570000Y-124460000D03*
D17*
X113030000Y-124460000D03*
X115570000Y-121920000D03*
X113030000Y-121920000D03*
X115570000Y-119380000D03*
X113030000Y-119380000D03*
D16*
X115570000Y-106680000D03*
D17*
X113030000Y-106680000D03*
X115570000Y-104140000D03*
X113030000Y-104140000D03*
X115570000Y-101600000D03*
X113030000Y-101600000D03*
D16*
X127000000Y-123190000D03*
D17*
X124460000Y-123190000D03*
X127000000Y-120650000D03*
X124460000Y-120650000D03*
X127000000Y-118110000D03*
X124460000Y-118110000D03*
D16*
X127000000Y-107950000D03*
D17*
X124460000Y-107950000D03*
X127000000Y-105410000D03*
X124460000Y-105410000D03*
X127000000Y-102870000D03*
X124460000Y-102870000D03*
D12*
X131909820Y-107950000D03*
X129710180Y-108902500D03*
X129710180Y-106997500D03*
X131909820Y-123190000D03*
X129710180Y-124142500D03*
X129710180Y-122237500D03*
D13*
X132900420Y-123190000D03*
X133799580Y-123190000D03*
X132011420Y-106680000D03*
X132910580Y-106680000D03*
X131259580Y-118110000D03*
X130360420Y-118110000D03*
X108907580Y-119126000D03*
X108008420Y-119126000D03*
X132900420Y-107950000D03*
X133799580Y-107950000D03*
X131259580Y-102870000D03*
X130360420Y-102870000D03*
X132011420Y-121920000D03*
X132910580Y-121920000D03*
D18*
X115570000Y-109728000D03*
X114300000Y-109728000D03*
X113030000Y-109728000D03*
X111760000Y-109728000D03*
X110490000Y-109728000D03*
X109220000Y-109728000D03*
X107950000Y-109728000D03*
X107950000Y-116078000D03*
X109220000Y-116078000D03*
X111760000Y-116078000D03*
X113030000Y-116078000D03*
X114300000Y-116078000D03*
X115570000Y-116078000D03*
X110490000Y-116078000D03*
D13*
X108399580Y-104140000D03*
X107500420Y-104140000D03*
X109405420Y-107950000D03*
X110304580Y-107950000D03*
D12*
X132250180Y-102870000D03*
X134449820Y-101917500D03*
X134449820Y-103822500D03*
D19*
G36*
X136804400Y-105054400D02*
X136182100Y-105054400D01*
X136182100Y-105003600D01*
X136604282Y-105003600D01*
X136753600Y-104854282D01*
X136753600Y-104432100D01*
X136804400Y-104432100D01*
X136804400Y-105054400D01*
X136804400Y-105054400D01*
G37*
X136804400Y-105054400D02*
X136182100Y-105054400D01*
X136182100Y-105003600D01*
X136604282Y-105003600D01*
X136753600Y-104854282D01*
X136753600Y-104432100D01*
X136804400Y-104432100D01*
X136804400Y-105054400D01*
G36*
X138328400Y-105054400D02*
X138176000Y-105054400D01*
X137668000Y-105054400D01*
X137515600Y-105054400D01*
X137515600Y-104432100D01*
X137566400Y-104432100D01*
X137566400Y-104854282D01*
X137715718Y-105003600D01*
X138128282Y-105003600D01*
X138277600Y-104854282D01*
X138277600Y-104432100D01*
X138328400Y-104432100D01*
X138328400Y-105054400D01*
X138328400Y-105054400D01*
G37*
X138328400Y-105054400D02*
X138176000Y-105054400D01*
X137668000Y-105054400D01*
X137515600Y-105054400D01*
X137515600Y-104432100D01*
X137566400Y-104432100D01*
X137566400Y-104854282D01*
X137715718Y-105003600D01*
X138128282Y-105003600D01*
X138277600Y-104854282D01*
X138277600Y-104432100D01*
X138328400Y-104432100D01*
X138328400Y-105054400D01*
G36*
X139852400Y-105054400D02*
X139700000Y-105054400D01*
X139192000Y-105054400D01*
X139039600Y-105054400D01*
X139039600Y-104432100D01*
X139090400Y-104432100D01*
X139090400Y-104854282D01*
X139239718Y-105003600D01*
X139652282Y-105003600D01*
X139801600Y-104854282D01*
X139801600Y-104432100D01*
X139852400Y-104432100D01*
X139852400Y-105054400D01*
X139852400Y-105054400D01*
G37*
X139852400Y-105054400D02*
X139700000Y-105054400D01*
X139192000Y-105054400D01*
X139039600Y-105054400D01*
X139039600Y-104432100D01*
X139090400Y-104432100D01*
X139090400Y-104854282D01*
X139239718Y-105003600D01*
X139652282Y-105003600D01*
X139801600Y-104854282D01*
X139801600Y-104432100D01*
X139852400Y-104432100D01*
X139852400Y-105054400D01*
G36*
X141376400Y-105054400D02*
X141224000Y-105054400D01*
X140716000Y-105054400D01*
X140563600Y-105054400D01*
X140563600Y-104432100D01*
X140614400Y-104432100D01*
X140614400Y-104854282D01*
X140763718Y-105003600D01*
X141176282Y-105003600D01*
X141325600Y-104854282D01*
X141325600Y-104432100D01*
X141376400Y-104432100D01*
X141376400Y-105054400D01*
X141376400Y-105054400D01*
G37*
X141376400Y-105054400D02*
X141224000Y-105054400D01*
X140716000Y-105054400D01*
X140563600Y-105054400D01*
X140563600Y-104432100D01*
X140614400Y-104432100D01*
X140614400Y-104854282D01*
X140763718Y-105003600D01*
X141176282Y-105003600D01*
X141325600Y-104854282D01*
X141325600Y-104432100D01*
X141376400Y-104432100D01*
X141376400Y-105054400D01*
G36*
X142900400Y-105054400D02*
X142748000Y-105054400D01*
X142240000Y-105054400D01*
X142087600Y-105054400D01*
X142087600Y-104432100D01*
X142138400Y-104432100D01*
X142138400Y-104854282D01*
X142287718Y-105003600D01*
X142700282Y-105003600D01*
X142849600Y-104854282D01*
X142849600Y-104432100D01*
X142900400Y-104432100D01*
X142900400Y-105054400D01*
X142900400Y-105054400D01*
G37*
X142900400Y-105054400D02*
X142748000Y-105054400D01*
X142240000Y-105054400D01*
X142087600Y-105054400D01*
X142087600Y-104432100D01*
X142138400Y-104432100D01*
X142138400Y-104854282D01*
X142287718Y-105003600D01*
X142700282Y-105003600D01*
X142849600Y-104854282D01*
X142849600Y-104432100D01*
X142900400Y-104432100D01*
X142900400Y-105054400D01*
G36*
X144424400Y-105054400D02*
X144272000Y-105054400D01*
X143764000Y-105054400D01*
X143611600Y-105054400D01*
X143611600Y-104432100D01*
X143662400Y-104432100D01*
X143662400Y-104854282D01*
X143811718Y-105003600D01*
X144224282Y-105003600D01*
X144373600Y-104854282D01*
X144373600Y-104432100D01*
X144424400Y-104432100D01*
X144424400Y-105054400D01*
X144424400Y-105054400D01*
G37*
X144424400Y-105054400D02*
X144272000Y-105054400D01*
X143764000Y-105054400D01*
X143611600Y-105054400D01*
X143611600Y-104432100D01*
X143662400Y-104432100D01*
X143662400Y-104854282D01*
X143811718Y-105003600D01*
X144224282Y-105003600D01*
X144373600Y-104854282D01*
X144373600Y-104432100D01*
X144424400Y-104432100D01*
X144424400Y-105054400D01*
G36*
X145948400Y-105054400D02*
X145796000Y-105054400D01*
X145288000Y-105054400D01*
X145135600Y-105054400D01*
X145135600Y-104432100D01*
X145186400Y-104432100D01*
X145186400Y-104854282D01*
X145335718Y-105003600D01*
X145748282Y-105003600D01*
X145897600Y-104854282D01*
X145897600Y-104432100D01*
X145948400Y-104432100D01*
X145948400Y-105054400D01*
X145948400Y-105054400D01*
G37*
X145948400Y-105054400D02*
X145796000Y-105054400D01*
X145288000Y-105054400D01*
X145135600Y-105054400D01*
X145135600Y-104432100D01*
X145186400Y-104432100D01*
X145186400Y-104854282D01*
X145335718Y-105003600D01*
X145748282Y-105003600D01*
X145897600Y-104854282D01*
X145897600Y-104432100D01*
X145948400Y-104432100D01*
X145948400Y-105054400D01*
G36*
X147472400Y-105054400D02*
X147320000Y-105054400D01*
X146812000Y-105054400D01*
X146659600Y-105054400D01*
X146659600Y-104432100D01*
X146710400Y-104432100D01*
X146710400Y-104854282D01*
X146859718Y-105003600D01*
X147272282Y-105003600D01*
X147421600Y-104854282D01*
X147421600Y-104432100D01*
X147472400Y-104432100D01*
X147472400Y-105054400D01*
X147472400Y-105054400D01*
G37*
X147472400Y-105054400D02*
X147320000Y-105054400D01*
X146812000Y-105054400D01*
X146659600Y-105054400D01*
X146659600Y-104432100D01*
X146710400Y-104432100D01*
X146710400Y-104854282D01*
X146859718Y-105003600D01*
X147272282Y-105003600D01*
X147421600Y-104854282D01*
X147421600Y-104432100D01*
X147472400Y-104432100D01*
X147472400Y-105054400D01*
G36*
X148996400Y-105054400D02*
X148844000Y-105054400D01*
X148336000Y-105054400D01*
X148183600Y-105054400D01*
X148183600Y-104432100D01*
X148234400Y-104432100D01*
X148234400Y-104854282D01*
X148383718Y-105003600D01*
X148796282Y-105003600D01*
X148945600Y-104854282D01*
X148945600Y-104432100D01*
X148996400Y-104432100D01*
X148996400Y-105054400D01*
X148996400Y-105054400D01*
G37*
X148996400Y-105054400D02*
X148844000Y-105054400D01*
X148336000Y-105054400D01*
X148183600Y-105054400D01*
X148183600Y-104432100D01*
X148234400Y-104432100D01*
X148234400Y-104854282D01*
X148383718Y-105003600D01*
X148796282Y-105003600D01*
X148945600Y-104854282D01*
X148945600Y-104432100D01*
X148996400Y-104432100D01*
X148996400Y-105054400D01*
G36*
X150520400Y-105054400D02*
X150368000Y-105054400D01*
X149860000Y-105054400D01*
X149707600Y-105054400D01*
X149707600Y-104432100D01*
X149758400Y-104432100D01*
X149758400Y-104854282D01*
X149907718Y-105003600D01*
X150320282Y-105003600D01*
X150469600Y-104854282D01*
X150469600Y-104432100D01*
X150520400Y-104432100D01*
X150520400Y-105054400D01*
X150520400Y-105054400D01*
G37*
X150520400Y-105054400D02*
X150368000Y-105054400D01*
X149860000Y-105054400D01*
X149707600Y-105054400D01*
X149707600Y-104432100D01*
X149758400Y-104432100D01*
X149758400Y-104854282D01*
X149907718Y-105003600D01*
X150320282Y-105003600D01*
X150469600Y-104854282D01*
X150469600Y-104432100D01*
X150520400Y-104432100D01*
X150520400Y-105054400D01*
G36*
X152044400Y-105054400D02*
X151892000Y-105054400D01*
X151384000Y-105054400D01*
X151231600Y-105054400D01*
X151231600Y-104432100D01*
X151282400Y-104432100D01*
X151282400Y-104854282D01*
X151431718Y-105003600D01*
X151844282Y-105003600D01*
X151993600Y-104854282D01*
X151993600Y-104432100D01*
X152044400Y-104432100D01*
X152044400Y-105054400D01*
X152044400Y-105054400D01*
G37*
X152044400Y-105054400D02*
X151892000Y-105054400D01*
X151384000Y-105054400D01*
X151231600Y-105054400D01*
X151231600Y-104432100D01*
X151282400Y-104432100D01*
X151282400Y-104854282D01*
X151431718Y-105003600D01*
X151844282Y-105003600D01*
X151993600Y-104854282D01*
X151993600Y-104432100D01*
X152044400Y-104432100D01*
X152044400Y-105054400D01*
G36*
X153568400Y-105054400D02*
X153416000Y-105054400D01*
X152908000Y-105054400D01*
X152755600Y-105054400D01*
X152755600Y-104432100D01*
X152806400Y-104432100D01*
X152806400Y-104854282D01*
X152955718Y-105003600D01*
X153368282Y-105003600D01*
X153517600Y-104854282D01*
X153517600Y-104432100D01*
X153568400Y-104432100D01*
X153568400Y-105054400D01*
X153568400Y-105054400D01*
G37*
X153568400Y-105054400D02*
X153416000Y-105054400D01*
X152908000Y-105054400D01*
X152755600Y-105054400D01*
X152755600Y-104432100D01*
X152806400Y-104432100D01*
X152806400Y-104854282D01*
X152955718Y-105003600D01*
X153368282Y-105003600D01*
X153517600Y-104854282D01*
X153517600Y-104432100D01*
X153568400Y-104432100D01*
X153568400Y-105054400D01*
G36*
X155092400Y-105054400D02*
X154940000Y-105054400D01*
X154432000Y-105054400D01*
X154279600Y-105054400D01*
X154279600Y-104432100D01*
X154330400Y-104432100D01*
X154330400Y-104854282D01*
X154479718Y-105003600D01*
X154892282Y-105003600D01*
X155041600Y-104854282D01*
X155041600Y-104432100D01*
X155092400Y-104432100D01*
X155092400Y-105054400D01*
X155092400Y-105054400D01*
G37*
X155092400Y-105054400D02*
X154940000Y-105054400D01*
X154432000Y-105054400D01*
X154279600Y-105054400D01*
X154279600Y-104432100D01*
X154330400Y-104432100D01*
X154330400Y-104854282D01*
X154479718Y-105003600D01*
X154892282Y-105003600D01*
X155041600Y-104854282D01*
X155041600Y-104432100D01*
X155092400Y-104432100D01*
X155092400Y-105054400D01*
G36*
X156616400Y-105054400D02*
X156464000Y-105054400D01*
X155956000Y-105054400D01*
X155803600Y-105054400D01*
X155803600Y-104432100D01*
X155854400Y-104432100D01*
X155854400Y-104854282D01*
X156003718Y-105003600D01*
X156416282Y-105003600D01*
X156565600Y-104854282D01*
X156565600Y-104432100D01*
X156616400Y-104432100D01*
X156616400Y-105054400D01*
X156616400Y-105054400D01*
G37*
X156616400Y-105054400D02*
X156464000Y-105054400D01*
X155956000Y-105054400D01*
X155803600Y-105054400D01*
X155803600Y-104432100D01*
X155854400Y-104432100D01*
X155854400Y-104854282D01*
X156003718Y-105003600D01*
X156416282Y-105003600D01*
X156565600Y-104854282D01*
X156565600Y-104432100D01*
X156616400Y-104432100D01*
X156616400Y-105054400D01*
G36*
X158140400Y-105054400D02*
X157988000Y-105054400D01*
X157480000Y-105054400D01*
X157327600Y-105054400D01*
X157327600Y-104432100D01*
X157378400Y-104432100D01*
X157378400Y-104854282D01*
X157527718Y-105003600D01*
X157940282Y-105003600D01*
X158089600Y-104854282D01*
X158089600Y-104432100D01*
X158140400Y-104432100D01*
X158140400Y-105054400D01*
X158140400Y-105054400D01*
G37*
X158140400Y-105054400D02*
X157988000Y-105054400D01*
X157480000Y-105054400D01*
X157327600Y-105054400D01*
X157327600Y-104432100D01*
X157378400Y-104432100D01*
X157378400Y-104854282D01*
X157527718Y-105003600D01*
X157940282Y-105003600D01*
X158089600Y-104854282D01*
X158089600Y-104432100D01*
X158140400Y-104432100D01*
X158140400Y-105054400D01*
G36*
X159664400Y-105054400D02*
X159512000Y-105054400D01*
X159004000Y-105054400D01*
X158851600Y-105054400D01*
X158851600Y-104432100D01*
X158902400Y-104432100D01*
X158902400Y-104854282D01*
X159051718Y-105003600D01*
X159464282Y-105003600D01*
X159613600Y-104854282D01*
X159613600Y-104432100D01*
X159664400Y-104432100D01*
X159664400Y-105054400D01*
X159664400Y-105054400D01*
G37*
X159664400Y-105054400D02*
X159512000Y-105054400D01*
X159004000Y-105054400D01*
X158851600Y-105054400D01*
X158851600Y-104432100D01*
X158902400Y-104432100D01*
X158902400Y-104854282D01*
X159051718Y-105003600D01*
X159464282Y-105003600D01*
X159613600Y-104854282D01*
X159613600Y-104432100D01*
X159664400Y-104432100D01*
X159664400Y-105054400D01*
G36*
X161188400Y-105054400D02*
X161036000Y-105054400D01*
X160528000Y-105054400D01*
X160375600Y-105054400D01*
X160375600Y-104432100D01*
X160426400Y-104432100D01*
X160426400Y-104854282D01*
X160575718Y-105003600D01*
X160988282Y-105003600D01*
X161137600Y-104854282D01*
X161137600Y-104432100D01*
X161188400Y-104432100D01*
X161188400Y-105054400D01*
X161188400Y-105054400D01*
G37*
X161188400Y-105054400D02*
X161036000Y-105054400D01*
X160528000Y-105054400D01*
X160375600Y-105054400D01*
X160375600Y-104432100D01*
X160426400Y-104432100D01*
X160426400Y-104854282D01*
X160575718Y-105003600D01*
X160988282Y-105003600D01*
X161137600Y-104854282D01*
X161137600Y-104432100D01*
X161188400Y-104432100D01*
X161188400Y-105054400D01*
G36*
X162712400Y-105054400D02*
X162560000Y-105054400D01*
X162052000Y-105054400D01*
X161899600Y-105054400D01*
X161899600Y-104432100D01*
X161950400Y-104432100D01*
X161950400Y-104854282D01*
X162099718Y-105003600D01*
X162512282Y-105003600D01*
X162661600Y-104854282D01*
X162661600Y-104432100D01*
X162712400Y-104432100D01*
X162712400Y-105054400D01*
X162712400Y-105054400D01*
G37*
X162712400Y-105054400D02*
X162560000Y-105054400D01*
X162052000Y-105054400D01*
X161899600Y-105054400D01*
X161899600Y-104432100D01*
X161950400Y-104432100D01*
X161950400Y-104854282D01*
X162099718Y-105003600D01*
X162512282Y-105003600D01*
X162661600Y-104854282D01*
X162661600Y-104432100D01*
X162712400Y-104432100D01*
X162712400Y-105054400D01*
G36*
X164236400Y-105054400D02*
X164084000Y-105054400D01*
X163576000Y-105054400D01*
X163423600Y-105054400D01*
X163423600Y-104432100D01*
X163474400Y-104432100D01*
X163474400Y-104854282D01*
X163623718Y-105003600D01*
X164036282Y-105003600D01*
X164185600Y-104854282D01*
X164185600Y-104432100D01*
X164236400Y-104432100D01*
X164236400Y-105054400D01*
X164236400Y-105054400D01*
G37*
X164236400Y-105054400D02*
X164084000Y-105054400D01*
X163576000Y-105054400D01*
X163423600Y-105054400D01*
X163423600Y-104432100D01*
X163474400Y-104432100D01*
X163474400Y-104854282D01*
X163623718Y-105003600D01*
X164036282Y-105003600D01*
X164185600Y-104854282D01*
X164185600Y-104432100D01*
X164236400Y-104432100D01*
X164236400Y-105054400D01*
G36*
X165760400Y-105054400D02*
X165608000Y-105054400D01*
X165100000Y-105054400D01*
X164947600Y-105054400D01*
X164947600Y-104432100D01*
X164998400Y-104432100D01*
X164998400Y-104854282D01*
X165147718Y-105003600D01*
X165560282Y-105003600D01*
X165709600Y-104854282D01*
X165709600Y-104432100D01*
X165760400Y-104432100D01*
X165760400Y-105054400D01*
X165760400Y-105054400D01*
G37*
X165760400Y-105054400D02*
X165608000Y-105054400D01*
X165100000Y-105054400D01*
X164947600Y-105054400D01*
X164947600Y-104432100D01*
X164998400Y-104432100D01*
X164998400Y-104854282D01*
X165147718Y-105003600D01*
X165560282Y-105003600D01*
X165709600Y-104854282D01*
X165709600Y-104432100D01*
X165760400Y-104432100D01*
X165760400Y-105054400D01*
G36*
X167284400Y-105054400D02*
X167132000Y-105054400D01*
X166624000Y-105054400D01*
X166471600Y-105054400D01*
X166471600Y-104432100D01*
X166522400Y-104432100D01*
X166522400Y-104854282D01*
X166671718Y-105003600D01*
X167084282Y-105003600D01*
X167233600Y-104854282D01*
X167233600Y-104432100D01*
X167284400Y-104432100D01*
X167284400Y-105054400D01*
X167284400Y-105054400D01*
G37*
X167284400Y-105054400D02*
X167132000Y-105054400D01*
X166624000Y-105054400D01*
X166471600Y-105054400D01*
X166471600Y-104432100D01*
X166522400Y-104432100D01*
X166522400Y-104854282D01*
X166671718Y-105003600D01*
X167084282Y-105003600D01*
X167233600Y-104854282D01*
X167233600Y-104432100D01*
X167284400Y-104432100D01*
X167284400Y-105054400D01*
G36*
X168808400Y-105054400D02*
X168656000Y-105054400D01*
X168148000Y-105054400D01*
X167995600Y-105054400D01*
X167995600Y-104432100D01*
X168046400Y-104432100D01*
X168046400Y-104854282D01*
X168195718Y-105003600D01*
X168608282Y-105003600D01*
X168757600Y-104854282D01*
X168757600Y-104432100D01*
X168808400Y-104432100D01*
X168808400Y-105054400D01*
X168808400Y-105054400D01*
G37*
X168808400Y-105054400D02*
X168656000Y-105054400D01*
X168148000Y-105054400D01*
X167995600Y-105054400D01*
X167995600Y-104432100D01*
X168046400Y-104432100D01*
X168046400Y-104854282D01*
X168195718Y-105003600D01*
X168608282Y-105003600D01*
X168757600Y-104854282D01*
X168757600Y-104432100D01*
X168808400Y-104432100D01*
X168808400Y-105054400D01*
G36*
X170332400Y-105054400D02*
X170180000Y-105054400D01*
X169672000Y-105054400D01*
X169519600Y-105054400D01*
X169519600Y-104432100D01*
X169570400Y-104432100D01*
X169570400Y-104854282D01*
X169719718Y-105003600D01*
X170132282Y-105003600D01*
X170281600Y-104854282D01*
X170281600Y-104432100D01*
X170332400Y-104432100D01*
X170332400Y-105054400D01*
X170332400Y-105054400D01*
G37*
X170332400Y-105054400D02*
X170180000Y-105054400D01*
X169672000Y-105054400D01*
X169519600Y-105054400D01*
X169519600Y-104432100D01*
X169570400Y-104432100D01*
X169570400Y-104854282D01*
X169719718Y-105003600D01*
X170132282Y-105003600D01*
X170281600Y-104854282D01*
X170281600Y-104432100D01*
X170332400Y-104432100D01*
X170332400Y-105054400D01*
G36*
X171856400Y-105054400D02*
X171704000Y-105054400D01*
X171196000Y-105054400D01*
X171043600Y-105054400D01*
X171043600Y-104432100D01*
X171094400Y-104432100D01*
X171094400Y-104854282D01*
X171243718Y-105003600D01*
X171656282Y-105003600D01*
X171805600Y-104854282D01*
X171805600Y-104432100D01*
X171856400Y-104432100D01*
X171856400Y-105054400D01*
X171856400Y-105054400D01*
G37*
X171856400Y-105054400D02*
X171704000Y-105054400D01*
X171196000Y-105054400D01*
X171043600Y-105054400D01*
X171043600Y-104432100D01*
X171094400Y-104432100D01*
X171094400Y-104854282D01*
X171243718Y-105003600D01*
X171656282Y-105003600D01*
X171805600Y-104854282D01*
X171805600Y-104432100D01*
X171856400Y-104432100D01*
X171856400Y-105054400D01*
G36*
X173380400Y-105054400D02*
X173228000Y-105054400D01*
X172720000Y-105054400D01*
X172567600Y-105054400D01*
X172567600Y-104432100D01*
X172618400Y-104432100D01*
X172618400Y-104854282D01*
X172767718Y-105003600D01*
X173180282Y-105003600D01*
X173329600Y-104854282D01*
X173329600Y-104432100D01*
X173380400Y-104432100D01*
X173380400Y-105054400D01*
X173380400Y-105054400D01*
G37*
X173380400Y-105054400D02*
X173228000Y-105054400D01*
X172720000Y-105054400D01*
X172567600Y-105054400D01*
X172567600Y-104432100D01*
X172618400Y-104432100D01*
X172618400Y-104854282D01*
X172767718Y-105003600D01*
X173180282Y-105003600D01*
X173329600Y-104854282D01*
X173329600Y-104432100D01*
X173380400Y-104432100D01*
X173380400Y-105054400D01*
G36*
X174904400Y-104886218D02*
X174788559Y-105002059D01*
X174736218Y-105054400D01*
X174244000Y-105054400D01*
X174091600Y-105054400D01*
X174091600Y-104432100D01*
X174142400Y-104432100D01*
X174142400Y-104854282D01*
X174291718Y-105003600D01*
X174704282Y-105003600D01*
X174853600Y-104854282D01*
X174853600Y-104432100D01*
X174904400Y-104432100D01*
X174904400Y-104886218D01*
X174904400Y-104886218D01*
G37*
X174904400Y-104886218D02*
X174788559Y-105002059D01*
X174736218Y-105054400D01*
X174244000Y-105054400D01*
X174091600Y-105054400D01*
X174091600Y-104432100D01*
X174142400Y-104432100D01*
X174142400Y-104854282D01*
X174291718Y-105003600D01*
X174704282Y-105003600D01*
X174853600Y-104854282D01*
X174853600Y-104432100D01*
X174904400Y-104432100D01*
X174904400Y-104886218D01*
G36*
X176428400Y-105054400D02*
X176276000Y-105054400D01*
X175783782Y-105054400D01*
X175615600Y-104886218D01*
X175615600Y-104432100D01*
X175666400Y-104432100D01*
X175666400Y-104854282D01*
X175815718Y-105003600D01*
X176228282Y-105003600D01*
X176377600Y-104854282D01*
X176377600Y-104432100D01*
X176428400Y-104432100D01*
X176428400Y-105054400D01*
X176428400Y-105054400D01*
G37*
X176428400Y-105054400D02*
X176276000Y-105054400D01*
X175783782Y-105054400D01*
X175615600Y-104886218D01*
X175615600Y-104432100D01*
X175666400Y-104432100D01*
X175666400Y-104854282D01*
X175815718Y-105003600D01*
X176228282Y-105003600D01*
X176377600Y-104854282D01*
X176377600Y-104432100D01*
X176428400Y-104432100D01*
X176428400Y-105054400D01*
G36*
X177952400Y-105054400D02*
X177800000Y-105054400D01*
X177292000Y-105054400D01*
X177139600Y-105054400D01*
X177139600Y-104432100D01*
X177190400Y-104432100D01*
X177190400Y-104854282D01*
X177339718Y-105003600D01*
X177752282Y-105003600D01*
X177901600Y-104854282D01*
X177901600Y-104432100D01*
X177952400Y-104432100D01*
X177952400Y-105054400D01*
X177952400Y-105054400D01*
G37*
X177952400Y-105054400D02*
X177800000Y-105054400D01*
X177292000Y-105054400D01*
X177139600Y-105054400D01*
X177139600Y-104432100D01*
X177190400Y-104432100D01*
X177190400Y-104854282D01*
X177339718Y-105003600D01*
X177752282Y-105003600D01*
X177901600Y-104854282D01*
X177901600Y-104432100D01*
X177952400Y-104432100D01*
X177952400Y-105054400D01*
G36*
X179476400Y-105054400D02*
X179324000Y-105054400D01*
X178816000Y-105054400D01*
X178663600Y-105054400D01*
X178663600Y-104432100D01*
X178714400Y-104432100D01*
X178714400Y-104854282D01*
X178863718Y-105003600D01*
X179276282Y-105003600D01*
X179425600Y-104854282D01*
X179425600Y-104432100D01*
X179476400Y-104432100D01*
X179476400Y-105054400D01*
X179476400Y-105054400D01*
G37*
X179476400Y-105054400D02*
X179324000Y-105054400D01*
X178816000Y-105054400D01*
X178663600Y-105054400D01*
X178663600Y-104432100D01*
X178714400Y-104432100D01*
X178714400Y-104854282D01*
X178863718Y-105003600D01*
X179276282Y-105003600D01*
X179425600Y-104854282D01*
X179425600Y-104432100D01*
X179476400Y-104432100D01*
X179476400Y-105054400D01*
G36*
X181000400Y-105054400D02*
X180848000Y-105054400D01*
X180340000Y-105054400D01*
X180187600Y-105054400D01*
X180187600Y-104432100D01*
X180238400Y-104432100D01*
X180238400Y-104854282D01*
X180387718Y-105003600D01*
X180800282Y-105003600D01*
X180949600Y-104854282D01*
X180949600Y-104432100D01*
X181000400Y-104432100D01*
X181000400Y-105054400D01*
X181000400Y-105054400D01*
G37*
X181000400Y-105054400D02*
X180848000Y-105054400D01*
X180340000Y-105054400D01*
X180187600Y-105054400D01*
X180187600Y-104432100D01*
X180238400Y-104432100D01*
X180238400Y-104854282D01*
X180387718Y-105003600D01*
X180800282Y-105003600D01*
X180949600Y-104854282D01*
X180949600Y-104432100D01*
X181000400Y-104432100D01*
X181000400Y-105054400D01*
G36*
X182524400Y-105054400D02*
X182372000Y-105054400D01*
X181864000Y-105054400D01*
X181711600Y-105054400D01*
X181711600Y-104432100D01*
X181762400Y-104432100D01*
X181762400Y-104854282D01*
X181911718Y-105003600D01*
X182324282Y-105003600D01*
X182473600Y-104854282D01*
X182473600Y-104432100D01*
X182524400Y-104432100D01*
X182524400Y-105054400D01*
X182524400Y-105054400D01*
G37*
X182524400Y-105054400D02*
X182372000Y-105054400D01*
X181864000Y-105054400D01*
X181711600Y-105054400D01*
X181711600Y-104432100D01*
X181762400Y-104432100D01*
X181762400Y-104854282D01*
X181911718Y-105003600D01*
X182324282Y-105003600D01*
X182473600Y-104854282D01*
X182473600Y-104432100D01*
X182524400Y-104432100D01*
X182524400Y-105054400D01*
G36*
X184048400Y-105054400D02*
X183896000Y-105054400D01*
X183388000Y-105054400D01*
X183235600Y-105054400D01*
X183235600Y-104432100D01*
X183286400Y-104432100D01*
X183286400Y-104854282D01*
X183435718Y-105003600D01*
X183848282Y-105003600D01*
X183997600Y-104854282D01*
X183997600Y-104432100D01*
X184048400Y-104432100D01*
X184048400Y-105054400D01*
X184048400Y-105054400D01*
G37*
X184048400Y-105054400D02*
X183896000Y-105054400D01*
X183388000Y-105054400D01*
X183235600Y-105054400D01*
X183235600Y-104432100D01*
X183286400Y-104432100D01*
X183286400Y-104854282D01*
X183435718Y-105003600D01*
X183848282Y-105003600D01*
X183997600Y-104854282D01*
X183997600Y-104432100D01*
X184048400Y-104432100D01*
X184048400Y-105054400D01*
G36*
X185572400Y-105054400D02*
X185420000Y-105054400D01*
X184912000Y-105054400D01*
X184759600Y-105054400D01*
X184759600Y-104432100D01*
X184810400Y-104432100D01*
X184810400Y-104854282D01*
X184959718Y-105003600D01*
X185372282Y-105003600D01*
X185521600Y-104854282D01*
X185521600Y-104432100D01*
X185572400Y-104432100D01*
X185572400Y-105054400D01*
X185572400Y-105054400D01*
G37*
X185572400Y-105054400D02*
X185420000Y-105054400D01*
X184912000Y-105054400D01*
X184759600Y-105054400D01*
X184759600Y-104432100D01*
X184810400Y-104432100D01*
X184810400Y-104854282D01*
X184959718Y-105003600D01*
X185372282Y-105003600D01*
X185521600Y-104854282D01*
X185521600Y-104432100D01*
X185572400Y-104432100D01*
X185572400Y-105054400D01*
G36*
X187096400Y-105054400D02*
X186944000Y-105054400D01*
X186436000Y-105054400D01*
X186283600Y-105054400D01*
X186283600Y-104432100D01*
X186334400Y-104432100D01*
X186334400Y-104854282D01*
X186483718Y-105003600D01*
X186896282Y-105003600D01*
X187045600Y-104854282D01*
X187045600Y-104432100D01*
X187096400Y-104432100D01*
X187096400Y-105054400D01*
X187096400Y-105054400D01*
G37*
X187096400Y-105054400D02*
X186944000Y-105054400D01*
X186436000Y-105054400D01*
X186283600Y-105054400D01*
X186283600Y-104432100D01*
X186334400Y-104432100D01*
X186334400Y-104854282D01*
X186483718Y-105003600D01*
X186896282Y-105003600D01*
X187045600Y-104854282D01*
X187045600Y-104432100D01*
X187096400Y-104432100D01*
X187096400Y-105054400D01*
G36*
X188620400Y-105054400D02*
X188468000Y-105054400D01*
X187960000Y-105054400D01*
X187807600Y-105054400D01*
X187807600Y-104432100D01*
X187858400Y-104432100D01*
X187858400Y-104854282D01*
X188007718Y-105003600D01*
X188420282Y-105003600D01*
X188569600Y-104854282D01*
X188569600Y-104432100D01*
X188620400Y-104432100D01*
X188620400Y-105054400D01*
X188620400Y-105054400D01*
G37*
X188620400Y-105054400D02*
X188468000Y-105054400D01*
X187960000Y-105054400D01*
X187807600Y-105054400D01*
X187807600Y-104432100D01*
X187858400Y-104432100D01*
X187858400Y-104854282D01*
X188007718Y-105003600D01*
X188420282Y-105003600D01*
X188569600Y-104854282D01*
X188569600Y-104432100D01*
X188620400Y-104432100D01*
X188620400Y-105054400D01*
G36*
X190144400Y-105054400D02*
X189992000Y-105054400D01*
X189484000Y-105054400D01*
X189331600Y-105054400D01*
X189331600Y-104432100D01*
X189382400Y-104432100D01*
X189382400Y-104854282D01*
X189531718Y-105003600D01*
X189944282Y-105003600D01*
X190093600Y-104854282D01*
X190093600Y-104432100D01*
X190144400Y-104432100D01*
X190144400Y-105054400D01*
X190144400Y-105054400D01*
G37*
X190144400Y-105054400D02*
X189992000Y-105054400D01*
X189484000Y-105054400D01*
X189331600Y-105054400D01*
X189331600Y-104432100D01*
X189382400Y-104432100D01*
X189382400Y-104854282D01*
X189531718Y-105003600D01*
X189944282Y-105003600D01*
X190093600Y-104854282D01*
X190093600Y-104432100D01*
X190144400Y-104432100D01*
X190144400Y-105054400D01*
G36*
X191668400Y-105054400D02*
X191516000Y-105054400D01*
X191008000Y-105054400D01*
X190855600Y-105054400D01*
X190855600Y-104432100D01*
X190906400Y-104432100D01*
X190906400Y-104854282D01*
X191055718Y-105003600D01*
X191468282Y-105003600D01*
X191617600Y-104854282D01*
X191617600Y-104432100D01*
X191668400Y-104432100D01*
X191668400Y-105054400D01*
X191668400Y-105054400D01*
G37*
X191668400Y-105054400D02*
X191516000Y-105054400D01*
X191008000Y-105054400D01*
X190855600Y-105054400D01*
X190855600Y-104432100D01*
X190906400Y-104432100D01*
X190906400Y-104854282D01*
X191055718Y-105003600D01*
X191468282Y-105003600D01*
X191617600Y-104854282D01*
X191617600Y-104432100D01*
X191668400Y-104432100D01*
X191668400Y-105054400D01*
G36*
X193192400Y-105054400D02*
X193040000Y-105054400D01*
X192532000Y-105054400D01*
X192379600Y-105054400D01*
X192379600Y-104432100D01*
X192430400Y-104432100D01*
X192430400Y-104854282D01*
X192579718Y-105003600D01*
X192992282Y-105003600D01*
X193141600Y-104854282D01*
X193141600Y-104432100D01*
X193192400Y-104432100D01*
X193192400Y-105054400D01*
X193192400Y-105054400D01*
G37*
X193192400Y-105054400D02*
X193040000Y-105054400D01*
X192532000Y-105054400D01*
X192379600Y-105054400D01*
X192379600Y-104432100D01*
X192430400Y-104432100D01*
X192430400Y-104854282D01*
X192579718Y-105003600D01*
X192992282Y-105003600D01*
X193141600Y-104854282D01*
X193141600Y-104432100D01*
X193192400Y-104432100D01*
X193192400Y-105054400D01*
G36*
X194716400Y-104886218D02*
X194548218Y-105054400D01*
X194056000Y-105054400D01*
X193903600Y-105054400D01*
X193903600Y-104432100D01*
X193954400Y-104432100D01*
X193954400Y-104854282D01*
X194103718Y-105003600D01*
X194516282Y-105003600D01*
X194665600Y-104854282D01*
X194665600Y-104432100D01*
X194716400Y-104432100D01*
X194716400Y-104886218D01*
X194716400Y-104886218D01*
G37*
X194716400Y-104886218D02*
X194548218Y-105054400D01*
X194056000Y-105054400D01*
X193903600Y-105054400D01*
X193903600Y-104432100D01*
X193954400Y-104432100D01*
X193954400Y-104854282D01*
X194103718Y-105003600D01*
X194516282Y-105003600D01*
X194665600Y-104854282D01*
X194665600Y-104432100D01*
X194716400Y-104432100D01*
X194716400Y-104886218D01*
G36*
X196240400Y-105054400D02*
X196088000Y-105054400D01*
X195595782Y-105054400D01*
X195427600Y-104886218D01*
X195427600Y-104432100D01*
X195478400Y-104432100D01*
X195478400Y-104854282D01*
X195627718Y-105003600D01*
X196040282Y-105003600D01*
X196189600Y-104854282D01*
X196189600Y-104432100D01*
X196240400Y-104432100D01*
X196240400Y-105054400D01*
X196240400Y-105054400D01*
G37*
X196240400Y-105054400D02*
X196088000Y-105054400D01*
X195595782Y-105054400D01*
X195427600Y-104886218D01*
X195427600Y-104432100D01*
X195478400Y-104432100D01*
X195478400Y-104854282D01*
X195627718Y-105003600D01*
X196040282Y-105003600D01*
X196189600Y-104854282D01*
X196189600Y-104432100D01*
X196240400Y-104432100D01*
X196240400Y-105054400D01*
G36*
X197764400Y-105054400D02*
X197612000Y-105054400D01*
X197104000Y-105054400D01*
X196951600Y-105054400D01*
X196951600Y-104432100D01*
X197002400Y-104432100D01*
X197002400Y-104854282D01*
X197151718Y-105003600D01*
X197564282Y-105003600D01*
X197713600Y-104854282D01*
X197713600Y-104432100D01*
X197764400Y-104432100D01*
X197764400Y-105054400D01*
X197764400Y-105054400D01*
G37*
X197764400Y-105054400D02*
X197612000Y-105054400D01*
X197104000Y-105054400D01*
X196951600Y-105054400D01*
X196951600Y-104432100D01*
X197002400Y-104432100D01*
X197002400Y-104854282D01*
X197151718Y-105003600D01*
X197564282Y-105003600D01*
X197713600Y-104854282D01*
X197713600Y-104432100D01*
X197764400Y-104432100D01*
X197764400Y-105054400D01*
G36*
X199288400Y-105054400D02*
X199136000Y-105054400D01*
X198628000Y-105054400D01*
X198475600Y-105054400D01*
X198475600Y-104432100D01*
X198526400Y-104432100D01*
X198526400Y-104854282D01*
X198675718Y-105003600D01*
X199088282Y-105003600D01*
X199237600Y-104854282D01*
X199237600Y-104432100D01*
X199288400Y-104432100D01*
X199288400Y-105054400D01*
X199288400Y-105054400D01*
G37*
X199288400Y-105054400D02*
X199136000Y-105054400D01*
X198628000Y-105054400D01*
X198475600Y-105054400D01*
X198475600Y-104432100D01*
X198526400Y-104432100D01*
X198526400Y-104854282D01*
X198675718Y-105003600D01*
X199088282Y-105003600D01*
X199237600Y-104854282D01*
X199237600Y-104432100D01*
X199288400Y-104432100D01*
X199288400Y-105054400D01*
G36*
X200812400Y-105054400D02*
X200660000Y-105054400D01*
X200152000Y-105054400D01*
X199999600Y-105054400D01*
X199999600Y-104432100D01*
X200050400Y-104432100D01*
X200050400Y-104854282D01*
X200199718Y-105003600D01*
X200612282Y-105003600D01*
X200761600Y-104854282D01*
X200761600Y-104432100D01*
X200812400Y-104432100D01*
X200812400Y-105054400D01*
X200812400Y-105054400D01*
G37*
X200812400Y-105054400D02*
X200660000Y-105054400D01*
X200152000Y-105054400D01*
X199999600Y-105054400D01*
X199999600Y-104432100D01*
X200050400Y-104432100D01*
X200050400Y-104854282D01*
X200199718Y-105003600D01*
X200612282Y-105003600D01*
X200761600Y-104854282D01*
X200761600Y-104432100D01*
X200812400Y-104432100D01*
X200812400Y-105054400D01*
G36*
X202336400Y-105054400D02*
X202184000Y-105054400D01*
X201676000Y-105054400D01*
X201523600Y-105054400D01*
X201523600Y-104432100D01*
X201574400Y-104432100D01*
X201574400Y-104854282D01*
X201723718Y-105003600D01*
X202136282Y-105003600D01*
X202285600Y-104854282D01*
X202285600Y-104432100D01*
X202336400Y-104432100D01*
X202336400Y-105054400D01*
X202336400Y-105054400D01*
G37*
X202336400Y-105054400D02*
X202184000Y-105054400D01*
X201676000Y-105054400D01*
X201523600Y-105054400D01*
X201523600Y-104432100D01*
X201574400Y-104432100D01*
X201574400Y-104854282D01*
X201723718Y-105003600D01*
X202136282Y-105003600D01*
X202285600Y-104854282D01*
X202285600Y-104432100D01*
X202336400Y-104432100D01*
X202336400Y-105054400D01*
G36*
X203860400Y-105054400D02*
X203708000Y-105054400D01*
X203200000Y-105054400D01*
X203047600Y-105054400D01*
X203047600Y-104432100D01*
X203098400Y-104432100D01*
X203098400Y-104854282D01*
X203247718Y-105003600D01*
X203660282Y-105003600D01*
X203809600Y-104854282D01*
X203809600Y-104432100D01*
X203860400Y-104432100D01*
X203860400Y-105054400D01*
X203860400Y-105054400D01*
G37*
X203860400Y-105054400D02*
X203708000Y-105054400D01*
X203200000Y-105054400D01*
X203047600Y-105054400D01*
X203047600Y-104432100D01*
X203098400Y-104432100D01*
X203098400Y-104854282D01*
X203247718Y-105003600D01*
X203660282Y-105003600D01*
X203809600Y-104854282D01*
X203809600Y-104432100D01*
X203860400Y-104432100D01*
X203860400Y-105054400D01*
G36*
X205384400Y-105054400D02*
X205232000Y-105054400D01*
X204724000Y-105054400D01*
X204571600Y-105054400D01*
X204571600Y-104432100D01*
X204622400Y-104432100D01*
X204622400Y-104854282D01*
X204771718Y-105003600D01*
X205184282Y-105003600D01*
X205333600Y-104854282D01*
X205333600Y-104432100D01*
X205384400Y-104432100D01*
X205384400Y-105054400D01*
X205384400Y-105054400D01*
G37*
X205384400Y-105054400D02*
X205232000Y-105054400D01*
X204724000Y-105054400D01*
X204571600Y-105054400D01*
X204571600Y-104432100D01*
X204622400Y-104432100D01*
X204622400Y-104854282D01*
X204771718Y-105003600D01*
X205184282Y-105003600D01*
X205333600Y-104854282D01*
X205333600Y-104432100D01*
X205384400Y-104432100D01*
X205384400Y-105054400D01*
G36*
X206908400Y-105054400D02*
X206756000Y-105054400D01*
X206248000Y-105054400D01*
X206095600Y-105054400D01*
X206095600Y-104432100D01*
X206146400Y-104432100D01*
X206146400Y-104854282D01*
X206295718Y-105003600D01*
X206708282Y-105003600D01*
X206857600Y-104854282D01*
X206857600Y-104432100D01*
X206908400Y-104432100D01*
X206908400Y-105054400D01*
X206908400Y-105054400D01*
G37*
X206908400Y-105054400D02*
X206756000Y-105054400D01*
X206248000Y-105054400D01*
X206095600Y-105054400D01*
X206095600Y-104432100D01*
X206146400Y-104432100D01*
X206146400Y-104854282D01*
X206295718Y-105003600D01*
X206708282Y-105003600D01*
X206857600Y-104854282D01*
X206857600Y-104432100D01*
X206908400Y-104432100D01*
X206908400Y-105054400D01*
G36*
X208432400Y-105054400D02*
X208280000Y-105054400D01*
X207772000Y-105054400D01*
X207619600Y-105054400D01*
X207619600Y-104432100D01*
X207670400Y-104432100D01*
X207670400Y-104854282D01*
X207819718Y-105003600D01*
X208232282Y-105003600D01*
X208381600Y-104854282D01*
X208381600Y-104432100D01*
X208432400Y-104432100D01*
X208432400Y-105054400D01*
X208432400Y-105054400D01*
G37*
X208432400Y-105054400D02*
X208280000Y-105054400D01*
X207772000Y-105054400D01*
X207619600Y-105054400D01*
X207619600Y-104432100D01*
X207670400Y-104432100D01*
X207670400Y-104854282D01*
X207819718Y-105003600D01*
X208232282Y-105003600D01*
X208381600Y-104854282D01*
X208381600Y-104432100D01*
X208432400Y-104432100D01*
X208432400Y-105054400D01*
G36*
X209956400Y-105054400D02*
X209804000Y-105054400D01*
X209296000Y-105054400D01*
X209143600Y-105054400D01*
X209143600Y-104432100D01*
X209194400Y-104432100D01*
X209194400Y-104854282D01*
X209343718Y-105003600D01*
X209756282Y-105003600D01*
X209905600Y-104854282D01*
X209905600Y-104432100D01*
X209956400Y-104432100D01*
X209956400Y-105054400D01*
X209956400Y-105054400D01*
G37*
X209956400Y-105054400D02*
X209804000Y-105054400D01*
X209296000Y-105054400D01*
X209143600Y-105054400D01*
X209143600Y-104432100D01*
X209194400Y-104432100D01*
X209194400Y-104854282D01*
X209343718Y-105003600D01*
X209756282Y-105003600D01*
X209905600Y-104854282D01*
X209905600Y-104432100D01*
X209956400Y-104432100D01*
X209956400Y-105054400D01*
G36*
X211480400Y-105054400D02*
X211328000Y-105054400D01*
X210820000Y-105054400D01*
X210667600Y-105054400D01*
X210667600Y-104432100D01*
X210718400Y-104432100D01*
X210718400Y-104854282D01*
X210867718Y-105003600D01*
X211280282Y-105003600D01*
X211429600Y-104854282D01*
X211429600Y-104432100D01*
X211480400Y-104432100D01*
X211480400Y-105054400D01*
X211480400Y-105054400D01*
G37*
X211480400Y-105054400D02*
X211328000Y-105054400D01*
X210820000Y-105054400D01*
X210667600Y-105054400D01*
X210667600Y-104432100D01*
X210718400Y-104432100D01*
X210718400Y-104854282D01*
X210867718Y-105003600D01*
X211280282Y-105003600D01*
X211429600Y-104854282D01*
X211429600Y-104432100D01*
X211480400Y-104432100D01*
X211480400Y-105054400D01*
G36*
X213004400Y-105054400D02*
X212852000Y-105054400D01*
X212344000Y-105054400D01*
X212191600Y-105054400D01*
X212191600Y-104432100D01*
X212242400Y-104432100D01*
X212242400Y-104854282D01*
X212391718Y-105003600D01*
X212804282Y-105003600D01*
X212953600Y-104854282D01*
X212953600Y-104432100D01*
X213004400Y-104432100D01*
X213004400Y-105054400D01*
X213004400Y-105054400D01*
G37*
X213004400Y-105054400D02*
X212852000Y-105054400D01*
X212344000Y-105054400D01*
X212191600Y-105054400D01*
X212191600Y-104432100D01*
X212242400Y-104432100D01*
X212242400Y-104854282D01*
X212391718Y-105003600D01*
X212804282Y-105003600D01*
X212953600Y-104854282D01*
X212953600Y-104432100D01*
X213004400Y-104432100D01*
X213004400Y-105054400D01*
G36*
X214528400Y-104886218D02*
X214360218Y-105054400D01*
X213868000Y-105054400D01*
X213715600Y-105054400D01*
X213715600Y-104432100D01*
X213766400Y-104432100D01*
X213766400Y-104854282D01*
X213915718Y-105003600D01*
X214328282Y-105003600D01*
X214477600Y-104854282D01*
X214477600Y-104432100D01*
X214528400Y-104432100D01*
X214528400Y-104886218D01*
X214528400Y-104886218D01*
G37*
X214528400Y-104886218D02*
X214360218Y-105054400D01*
X213868000Y-105054400D01*
X213715600Y-105054400D01*
X213715600Y-104432100D01*
X213766400Y-104432100D01*
X213766400Y-104854282D01*
X213915718Y-105003600D01*
X214328282Y-105003600D01*
X214477600Y-104854282D01*
X214477600Y-104432100D01*
X214528400Y-104432100D01*
X214528400Y-104886218D01*
G36*
X216052400Y-105054400D02*
X215900000Y-105054400D01*
X215407782Y-105054400D01*
X215239600Y-104886218D01*
X215239600Y-104432100D01*
X215290400Y-104432100D01*
X215290400Y-104854282D01*
X215439718Y-105003600D01*
X215852282Y-105003600D01*
X216001600Y-104854282D01*
X216001600Y-104559100D01*
X216052400Y-104559100D01*
X216052400Y-105054400D01*
X216052400Y-105054400D01*
G37*
X216052400Y-105054400D02*
X215900000Y-105054400D01*
X215407782Y-105054400D01*
X215239600Y-104886218D01*
X215239600Y-104432100D01*
X215290400Y-104432100D01*
X215290400Y-104854282D01*
X215439718Y-105003600D01*
X215852282Y-105003600D01*
X216001600Y-104854282D01*
X216001600Y-104559100D01*
X216052400Y-104559100D01*
X216052400Y-105054400D01*
G36*
X210718400Y-101307900D02*
X210667600Y-101307900D01*
X210667600Y-100885718D01*
X210518282Y-100736400D01*
X210105718Y-100736400D01*
X209956400Y-100885718D01*
X209956400Y-101307900D01*
X209905600Y-101307900D01*
X209905600Y-100685600D01*
X210058000Y-100685600D01*
X210566000Y-100685600D01*
X210718400Y-100685600D01*
X210718400Y-101307900D01*
X210718400Y-101307900D01*
G37*
X210718400Y-101307900D02*
X210667600Y-101307900D01*
X210667600Y-100885718D01*
X210518282Y-100736400D01*
X210105718Y-100736400D01*
X209956400Y-100885718D01*
X209956400Y-101307900D01*
X209905600Y-101307900D01*
X209905600Y-100685600D01*
X210058000Y-100685600D01*
X210566000Y-100685600D01*
X210718400Y-100685600D01*
X210718400Y-101307900D01*
G36*
X209194400Y-101307900D02*
X209143600Y-101307900D01*
X209143600Y-100885718D01*
X208994282Y-100736400D01*
X208581718Y-100736400D01*
X208432400Y-100885718D01*
X208432400Y-101307900D01*
X208381600Y-101307900D01*
X208381600Y-100685600D01*
X208534000Y-100685600D01*
X209042000Y-100685600D01*
X209194400Y-100685600D01*
X209194400Y-101307900D01*
X209194400Y-101307900D01*
G37*
X209194400Y-101307900D02*
X209143600Y-101307900D01*
X209143600Y-100885718D01*
X208994282Y-100736400D01*
X208581718Y-100736400D01*
X208432400Y-100885718D01*
X208432400Y-101307900D01*
X208381600Y-101307900D01*
X208381600Y-100685600D01*
X208534000Y-100685600D01*
X209042000Y-100685600D01*
X209194400Y-100685600D01*
X209194400Y-101307900D01*
G36*
X207670400Y-101307900D02*
X207619600Y-101307900D01*
X207619600Y-100885718D01*
X207470282Y-100736400D01*
X207057718Y-100736400D01*
X206908400Y-100885718D01*
X206908400Y-101307900D01*
X206857600Y-101307900D01*
X206857600Y-100685600D01*
X207010000Y-100685600D01*
X207518000Y-100685600D01*
X207670400Y-100685600D01*
X207670400Y-101307900D01*
X207670400Y-101307900D01*
G37*
X207670400Y-101307900D02*
X207619600Y-101307900D01*
X207619600Y-100885718D01*
X207470282Y-100736400D01*
X207057718Y-100736400D01*
X206908400Y-100885718D01*
X206908400Y-101307900D01*
X206857600Y-101307900D01*
X206857600Y-100685600D01*
X207010000Y-100685600D01*
X207518000Y-100685600D01*
X207670400Y-100685600D01*
X207670400Y-101307900D01*
G36*
X206146400Y-101307900D02*
X206095600Y-101307900D01*
X206095600Y-100885718D01*
X205946282Y-100736400D01*
X205533718Y-100736400D01*
X205384400Y-100885718D01*
X205384400Y-101307900D01*
X205333600Y-101307900D01*
X205333600Y-100685600D01*
X205486000Y-100685600D01*
X205994000Y-100685600D01*
X206146400Y-100685600D01*
X206146400Y-101307900D01*
X206146400Y-101307900D01*
G37*
X206146400Y-101307900D02*
X206095600Y-101307900D01*
X206095600Y-100885718D01*
X205946282Y-100736400D01*
X205533718Y-100736400D01*
X205384400Y-100885718D01*
X205384400Y-101307900D01*
X205333600Y-101307900D01*
X205333600Y-100685600D01*
X205486000Y-100685600D01*
X205994000Y-100685600D01*
X206146400Y-100685600D01*
X206146400Y-101307900D01*
G36*
X204622400Y-101307900D02*
X204571600Y-101307900D01*
X204571600Y-100885718D01*
X204422282Y-100736400D01*
X204009718Y-100736400D01*
X203860400Y-100885718D01*
X203860400Y-101307900D01*
X203809600Y-101307900D01*
X203809600Y-100685600D01*
X203962000Y-100685600D01*
X204470000Y-100685600D01*
X204622400Y-100685600D01*
X204622400Y-101307900D01*
X204622400Y-101307900D01*
G37*
X204622400Y-101307900D02*
X204571600Y-101307900D01*
X204571600Y-100885718D01*
X204422282Y-100736400D01*
X204009718Y-100736400D01*
X203860400Y-100885718D01*
X203860400Y-101307900D01*
X203809600Y-101307900D01*
X203809600Y-100685600D01*
X203962000Y-100685600D01*
X204470000Y-100685600D01*
X204622400Y-100685600D01*
X204622400Y-101307900D01*
G36*
X203098400Y-101307900D02*
X203047600Y-101307900D01*
X203047600Y-100885718D01*
X202898282Y-100736400D01*
X202485718Y-100736400D01*
X202336400Y-100885718D01*
X202336400Y-101307900D01*
X202285600Y-101307900D01*
X202285600Y-100685600D01*
X202438000Y-100685600D01*
X202946000Y-100685600D01*
X203098400Y-100685600D01*
X203098400Y-101307900D01*
X203098400Y-101307900D01*
G37*
X203098400Y-101307900D02*
X203047600Y-101307900D01*
X203047600Y-100885718D01*
X202898282Y-100736400D01*
X202485718Y-100736400D01*
X202336400Y-100885718D01*
X202336400Y-101307900D01*
X202285600Y-101307900D01*
X202285600Y-100685600D01*
X202438000Y-100685600D01*
X202946000Y-100685600D01*
X203098400Y-100685600D01*
X203098400Y-101307900D01*
G36*
X201574400Y-101307900D02*
X201523600Y-101307900D01*
X201523600Y-100885718D01*
X201374282Y-100736400D01*
X200961718Y-100736400D01*
X200812400Y-100885718D01*
X200812400Y-101307900D01*
X200761600Y-101307900D01*
X200761600Y-100685600D01*
X200914000Y-100685600D01*
X201422000Y-100685600D01*
X201574400Y-100685600D01*
X201574400Y-101307900D01*
X201574400Y-101307900D01*
G37*
X201574400Y-101307900D02*
X201523600Y-101307900D01*
X201523600Y-100885718D01*
X201374282Y-100736400D01*
X200961718Y-100736400D01*
X200812400Y-100885718D01*
X200812400Y-101307900D01*
X200761600Y-101307900D01*
X200761600Y-100685600D01*
X200914000Y-100685600D01*
X201422000Y-100685600D01*
X201574400Y-100685600D01*
X201574400Y-101307900D01*
G36*
X200050400Y-101307900D02*
X199999600Y-101307900D01*
X199999600Y-100885718D01*
X199850282Y-100736400D01*
X199437718Y-100736400D01*
X199288400Y-100885718D01*
X199288400Y-101307900D01*
X199237600Y-101307900D01*
X199237600Y-100685600D01*
X199390000Y-100685600D01*
X199898000Y-100685600D01*
X200050400Y-100685600D01*
X200050400Y-101307900D01*
X200050400Y-101307900D01*
G37*
X200050400Y-101307900D02*
X199999600Y-101307900D01*
X199999600Y-100885718D01*
X199850282Y-100736400D01*
X199437718Y-100736400D01*
X199288400Y-100885718D01*
X199288400Y-101307900D01*
X199237600Y-101307900D01*
X199237600Y-100685600D01*
X199390000Y-100685600D01*
X199898000Y-100685600D01*
X200050400Y-100685600D01*
X200050400Y-101307900D01*
G36*
X198526400Y-101307900D02*
X198475600Y-101307900D01*
X198475600Y-100885718D01*
X198326282Y-100736400D01*
X197913718Y-100736400D01*
X197764400Y-100885718D01*
X197764400Y-101307900D01*
X197713600Y-101307900D01*
X197713600Y-100685600D01*
X197866000Y-100685600D01*
X198374000Y-100685600D01*
X198526400Y-100685600D01*
X198526400Y-101307900D01*
X198526400Y-101307900D01*
G37*
X198526400Y-101307900D02*
X198475600Y-101307900D01*
X198475600Y-100885718D01*
X198326282Y-100736400D01*
X197913718Y-100736400D01*
X197764400Y-100885718D01*
X197764400Y-101307900D01*
X197713600Y-101307900D01*
X197713600Y-100685600D01*
X197866000Y-100685600D01*
X198374000Y-100685600D01*
X198526400Y-100685600D01*
X198526400Y-101307900D01*
G36*
X197002400Y-101307900D02*
X196951600Y-101307900D01*
X196951600Y-100885718D01*
X196802282Y-100736400D01*
X196389718Y-100736400D01*
X196240400Y-100885718D01*
X196240400Y-101307900D01*
X196189600Y-101307900D01*
X196189600Y-100685600D01*
X196342000Y-100685600D01*
X196850000Y-100685600D01*
X197002400Y-100685600D01*
X197002400Y-101307900D01*
X197002400Y-101307900D01*
G37*
X197002400Y-101307900D02*
X196951600Y-101307900D01*
X196951600Y-100885718D01*
X196802282Y-100736400D01*
X196389718Y-100736400D01*
X196240400Y-100885718D01*
X196240400Y-101307900D01*
X196189600Y-101307900D01*
X196189600Y-100685600D01*
X196342000Y-100685600D01*
X196850000Y-100685600D01*
X197002400Y-100685600D01*
X197002400Y-101307900D01*
G36*
X195478400Y-101307900D02*
X195427600Y-101307900D01*
X195427600Y-100885718D01*
X195278282Y-100736400D01*
X194865718Y-100736400D01*
X194716400Y-100885718D01*
X194716400Y-101307900D01*
X194665600Y-101307900D01*
X194665600Y-100685600D01*
X194818000Y-100685600D01*
X195326000Y-100685600D01*
X195478400Y-100685600D01*
X195478400Y-101307900D01*
X195478400Y-101307900D01*
G37*
X195478400Y-101307900D02*
X195427600Y-101307900D01*
X195427600Y-100885718D01*
X195278282Y-100736400D01*
X194865718Y-100736400D01*
X194716400Y-100885718D01*
X194716400Y-101307900D01*
X194665600Y-101307900D01*
X194665600Y-100685600D01*
X194818000Y-100685600D01*
X195326000Y-100685600D01*
X195478400Y-100685600D01*
X195478400Y-101307900D01*
G36*
X193954400Y-101307900D02*
X193903600Y-101307900D01*
X193903600Y-100885718D01*
X193754282Y-100736400D01*
X193341718Y-100736400D01*
X193192400Y-100885718D01*
X193192400Y-101307900D01*
X193141600Y-101307900D01*
X193141600Y-100685600D01*
X193294000Y-100685600D01*
X193802000Y-100685600D01*
X193954400Y-100685600D01*
X193954400Y-101307900D01*
X193954400Y-101307900D01*
G37*
X193954400Y-101307900D02*
X193903600Y-101307900D01*
X193903600Y-100885718D01*
X193754282Y-100736400D01*
X193341718Y-100736400D01*
X193192400Y-100885718D01*
X193192400Y-101307900D01*
X193141600Y-101307900D01*
X193141600Y-100685600D01*
X193294000Y-100685600D01*
X193802000Y-100685600D01*
X193954400Y-100685600D01*
X193954400Y-101307900D01*
G36*
X192430400Y-101307900D02*
X192379600Y-101307900D01*
X192379600Y-100885718D01*
X192230282Y-100736400D01*
X191817718Y-100736400D01*
X191668400Y-100885718D01*
X191668400Y-101307900D01*
X191617600Y-101307900D01*
X191617600Y-100685600D01*
X191770000Y-100685600D01*
X192278000Y-100685600D01*
X192430400Y-100685600D01*
X192430400Y-101307900D01*
X192430400Y-101307900D01*
G37*
X192430400Y-101307900D02*
X192379600Y-101307900D01*
X192379600Y-100885718D01*
X192230282Y-100736400D01*
X191817718Y-100736400D01*
X191668400Y-100885718D01*
X191668400Y-101307900D01*
X191617600Y-101307900D01*
X191617600Y-100685600D01*
X191770000Y-100685600D01*
X192278000Y-100685600D01*
X192430400Y-100685600D01*
X192430400Y-101307900D01*
G36*
X190906400Y-101307900D02*
X190855600Y-101307900D01*
X190855600Y-100885718D01*
X190706282Y-100736400D01*
X190293718Y-100736400D01*
X190144400Y-100885718D01*
X190144400Y-101307900D01*
X190093600Y-101307900D01*
X190093600Y-100685600D01*
X190246000Y-100685600D01*
X190754000Y-100685600D01*
X190906400Y-100685600D01*
X190906400Y-101307900D01*
X190906400Y-101307900D01*
G37*
X190906400Y-101307900D02*
X190855600Y-101307900D01*
X190855600Y-100885718D01*
X190706282Y-100736400D01*
X190293718Y-100736400D01*
X190144400Y-100885718D01*
X190144400Y-101307900D01*
X190093600Y-101307900D01*
X190093600Y-100685600D01*
X190246000Y-100685600D01*
X190754000Y-100685600D01*
X190906400Y-100685600D01*
X190906400Y-101307900D01*
G36*
X189382400Y-101307900D02*
X189331600Y-101307900D01*
X189331600Y-100885718D01*
X189182282Y-100736400D01*
X188769718Y-100736400D01*
X188620400Y-100885718D01*
X188620400Y-101307900D01*
X188569600Y-101307900D01*
X188569600Y-100685600D01*
X188722000Y-100685600D01*
X189230000Y-100685600D01*
X189382400Y-100685600D01*
X189382400Y-101307900D01*
X189382400Y-101307900D01*
G37*
X189382400Y-101307900D02*
X189331600Y-101307900D01*
X189331600Y-100885718D01*
X189182282Y-100736400D01*
X188769718Y-100736400D01*
X188620400Y-100885718D01*
X188620400Y-101307900D01*
X188569600Y-101307900D01*
X188569600Y-100685600D01*
X188722000Y-100685600D01*
X189230000Y-100685600D01*
X189382400Y-100685600D01*
X189382400Y-101307900D01*
G36*
X187858400Y-101307900D02*
X187807600Y-101307900D01*
X187807600Y-100885718D01*
X187658282Y-100736400D01*
X187245718Y-100736400D01*
X187096400Y-100885718D01*
X187096400Y-101307900D01*
X187045600Y-101307900D01*
X187045600Y-100685600D01*
X187198000Y-100685600D01*
X187706000Y-100685600D01*
X187858400Y-100685600D01*
X187858400Y-101307900D01*
X187858400Y-101307900D01*
G37*
X187858400Y-101307900D02*
X187807600Y-101307900D01*
X187807600Y-100885718D01*
X187658282Y-100736400D01*
X187245718Y-100736400D01*
X187096400Y-100885718D01*
X187096400Y-101307900D01*
X187045600Y-101307900D01*
X187045600Y-100685600D01*
X187198000Y-100685600D01*
X187706000Y-100685600D01*
X187858400Y-100685600D01*
X187858400Y-101307900D01*
G36*
X186334400Y-101307900D02*
X186283600Y-101307900D01*
X186283600Y-100885718D01*
X186134282Y-100736400D01*
X185721718Y-100736400D01*
X185572400Y-100885718D01*
X185572400Y-101307900D01*
X185521600Y-101307900D01*
X185521600Y-100685600D01*
X185674000Y-100685600D01*
X186182000Y-100685600D01*
X186334400Y-100685600D01*
X186334400Y-101307900D01*
X186334400Y-101307900D01*
G37*
X186334400Y-101307900D02*
X186283600Y-101307900D01*
X186283600Y-100885718D01*
X186134282Y-100736400D01*
X185721718Y-100736400D01*
X185572400Y-100885718D01*
X185572400Y-101307900D01*
X185521600Y-101307900D01*
X185521600Y-100685600D01*
X185674000Y-100685600D01*
X186182000Y-100685600D01*
X186334400Y-100685600D01*
X186334400Y-101307900D01*
G36*
X184810400Y-101307900D02*
X184759600Y-101307900D01*
X184759600Y-100885718D01*
X184610282Y-100736400D01*
X184197718Y-100736400D01*
X184048400Y-100885718D01*
X184048400Y-101307900D01*
X183997600Y-101307900D01*
X183997600Y-100685600D01*
X184150000Y-100685600D01*
X184658000Y-100685600D01*
X184810400Y-100685600D01*
X184810400Y-101307900D01*
X184810400Y-101307900D01*
G37*
X184810400Y-101307900D02*
X184759600Y-101307900D01*
X184759600Y-100885718D01*
X184610282Y-100736400D01*
X184197718Y-100736400D01*
X184048400Y-100885718D01*
X184048400Y-101307900D01*
X183997600Y-101307900D01*
X183997600Y-100685600D01*
X184150000Y-100685600D01*
X184658000Y-100685600D01*
X184810400Y-100685600D01*
X184810400Y-101307900D01*
G36*
X183286400Y-101307900D02*
X183235600Y-101307900D01*
X183235600Y-100885718D01*
X183086282Y-100736400D01*
X182673718Y-100736400D01*
X182524400Y-100885718D01*
X182524400Y-101307900D01*
X182473600Y-101307900D01*
X182473600Y-100685600D01*
X182626000Y-100685600D01*
X183134000Y-100685600D01*
X183286400Y-100685600D01*
X183286400Y-101307900D01*
X183286400Y-101307900D01*
G37*
X183286400Y-101307900D02*
X183235600Y-101307900D01*
X183235600Y-100885718D01*
X183086282Y-100736400D01*
X182673718Y-100736400D01*
X182524400Y-100885718D01*
X182524400Y-101307900D01*
X182473600Y-101307900D01*
X182473600Y-100685600D01*
X182626000Y-100685600D01*
X183134000Y-100685600D01*
X183286400Y-100685600D01*
X183286400Y-101307900D01*
G36*
X181762400Y-101307900D02*
X181711600Y-101307900D01*
X181711600Y-100885718D01*
X181562282Y-100736400D01*
X181149718Y-100736400D01*
X181000400Y-100885718D01*
X181000400Y-101307900D01*
X180949600Y-101307900D01*
X180949600Y-100685600D01*
X181102000Y-100685600D01*
X181610000Y-100685600D01*
X181762400Y-100685600D01*
X181762400Y-101307900D01*
X181762400Y-101307900D01*
G37*
X181762400Y-101307900D02*
X181711600Y-101307900D01*
X181711600Y-100885718D01*
X181562282Y-100736400D01*
X181149718Y-100736400D01*
X181000400Y-100885718D01*
X181000400Y-101307900D01*
X180949600Y-101307900D01*
X180949600Y-100685600D01*
X181102000Y-100685600D01*
X181610000Y-100685600D01*
X181762400Y-100685600D01*
X181762400Y-101307900D01*
G36*
X180238400Y-101307900D02*
X180187600Y-101307900D01*
X180187600Y-100885718D01*
X180038282Y-100736400D01*
X179625718Y-100736400D01*
X179476400Y-100885718D01*
X179476400Y-101307900D01*
X179425600Y-101307900D01*
X179425600Y-100685600D01*
X179578000Y-100685600D01*
X180086000Y-100685600D01*
X180238400Y-100685600D01*
X180238400Y-101307900D01*
X180238400Y-101307900D01*
G37*
X180238400Y-101307900D02*
X180187600Y-101307900D01*
X180187600Y-100885718D01*
X180038282Y-100736400D01*
X179625718Y-100736400D01*
X179476400Y-100885718D01*
X179476400Y-101307900D01*
X179425600Y-101307900D01*
X179425600Y-100685600D01*
X179578000Y-100685600D01*
X180086000Y-100685600D01*
X180238400Y-100685600D01*
X180238400Y-101307900D01*
G36*
X178714400Y-101307900D02*
X178663600Y-101307900D01*
X178663600Y-100885718D01*
X178514282Y-100736400D01*
X178101718Y-100736400D01*
X177952400Y-100885718D01*
X177952400Y-101307900D01*
X177901600Y-101307900D01*
X177901600Y-100685600D01*
X178054000Y-100685600D01*
X178562000Y-100685600D01*
X178714400Y-100685600D01*
X178714400Y-101307900D01*
X178714400Y-101307900D01*
G37*
X178714400Y-101307900D02*
X178663600Y-101307900D01*
X178663600Y-100885718D01*
X178514282Y-100736400D01*
X178101718Y-100736400D01*
X177952400Y-100885718D01*
X177952400Y-101307900D01*
X177901600Y-101307900D01*
X177901600Y-100685600D01*
X178054000Y-100685600D01*
X178562000Y-100685600D01*
X178714400Y-100685600D01*
X178714400Y-101307900D01*
G36*
X177190400Y-101307900D02*
X177139600Y-101307900D01*
X177139600Y-100885718D01*
X176990282Y-100736400D01*
X176577718Y-100736400D01*
X176428400Y-100885718D01*
X176428400Y-101307900D01*
X176377600Y-101307900D01*
X176377600Y-100685600D01*
X176530000Y-100685600D01*
X177038000Y-100685600D01*
X177190400Y-100685600D01*
X177190400Y-101307900D01*
X177190400Y-101307900D01*
G37*
X177190400Y-101307900D02*
X177139600Y-101307900D01*
X177139600Y-100885718D01*
X176990282Y-100736400D01*
X176577718Y-100736400D01*
X176428400Y-100885718D01*
X176428400Y-101307900D01*
X176377600Y-101307900D01*
X176377600Y-100685600D01*
X176530000Y-100685600D01*
X177038000Y-100685600D01*
X177190400Y-100685600D01*
X177190400Y-101307900D01*
G36*
X175666400Y-101307900D02*
X175615600Y-101307900D01*
X175615600Y-100885718D01*
X175466282Y-100736400D01*
X175053718Y-100736400D01*
X174904400Y-100885718D01*
X174904400Y-101307900D01*
X174853600Y-101307900D01*
X174853600Y-100685600D01*
X175006000Y-100685600D01*
X175514000Y-100685600D01*
X175666400Y-100685600D01*
X175666400Y-101307900D01*
X175666400Y-101307900D01*
G37*
X175666400Y-101307900D02*
X175615600Y-101307900D01*
X175615600Y-100885718D01*
X175466282Y-100736400D01*
X175053718Y-100736400D01*
X174904400Y-100885718D01*
X174904400Y-101307900D01*
X174853600Y-101307900D01*
X174853600Y-100685600D01*
X175006000Y-100685600D01*
X175514000Y-100685600D01*
X175666400Y-100685600D01*
X175666400Y-101307900D01*
G36*
X174142400Y-101307900D02*
X174091600Y-101307900D01*
X174091600Y-100885718D01*
X173942282Y-100736400D01*
X173529718Y-100736400D01*
X173380400Y-100885718D01*
X173380400Y-101307900D01*
X173329600Y-101307900D01*
X173329600Y-100685600D01*
X173482000Y-100685600D01*
X173990000Y-100685600D01*
X174142400Y-100685600D01*
X174142400Y-101307900D01*
X174142400Y-101307900D01*
G37*
X174142400Y-101307900D02*
X174091600Y-101307900D01*
X174091600Y-100885718D01*
X173942282Y-100736400D01*
X173529718Y-100736400D01*
X173380400Y-100885718D01*
X173380400Y-101307900D01*
X173329600Y-101307900D01*
X173329600Y-100685600D01*
X173482000Y-100685600D01*
X173990000Y-100685600D01*
X174142400Y-100685600D01*
X174142400Y-101307900D01*
G36*
X172618400Y-101307900D02*
X172567600Y-101307900D01*
X172567600Y-100885718D01*
X172418282Y-100736400D01*
X172005718Y-100736400D01*
X171856400Y-100885718D01*
X171856400Y-101307900D01*
X171805600Y-101307900D01*
X171805600Y-100685600D01*
X171958000Y-100685600D01*
X172466000Y-100685600D01*
X172618400Y-100685600D01*
X172618400Y-101307900D01*
X172618400Y-101307900D01*
G37*
X172618400Y-101307900D02*
X172567600Y-101307900D01*
X172567600Y-100885718D01*
X172418282Y-100736400D01*
X172005718Y-100736400D01*
X171856400Y-100885718D01*
X171856400Y-101307900D01*
X171805600Y-101307900D01*
X171805600Y-100685600D01*
X171958000Y-100685600D01*
X172466000Y-100685600D01*
X172618400Y-100685600D01*
X172618400Y-101307900D01*
G36*
X171094400Y-101307900D02*
X171043600Y-101307900D01*
X171043600Y-100885718D01*
X170894282Y-100736400D01*
X170481718Y-100736400D01*
X170332400Y-100885718D01*
X170332400Y-101307900D01*
X170281600Y-101307900D01*
X170281600Y-100685600D01*
X170434000Y-100685600D01*
X170942000Y-100685600D01*
X171094400Y-100685600D01*
X171094400Y-101307900D01*
X171094400Y-101307900D01*
G37*
X171094400Y-101307900D02*
X171043600Y-101307900D01*
X171043600Y-100885718D01*
X170894282Y-100736400D01*
X170481718Y-100736400D01*
X170332400Y-100885718D01*
X170332400Y-101307900D01*
X170281600Y-101307900D01*
X170281600Y-100685600D01*
X170434000Y-100685600D01*
X170942000Y-100685600D01*
X171094400Y-100685600D01*
X171094400Y-101307900D01*
G36*
X169570400Y-101307900D02*
X169519600Y-101307900D01*
X169519600Y-100885718D01*
X169370282Y-100736400D01*
X168957718Y-100736400D01*
X168808400Y-100885718D01*
X168808400Y-101307900D01*
X168757600Y-101307900D01*
X168757600Y-100685600D01*
X168910000Y-100685600D01*
X169418000Y-100685600D01*
X169570400Y-100685600D01*
X169570400Y-101307900D01*
X169570400Y-101307900D01*
G37*
X169570400Y-101307900D02*
X169519600Y-101307900D01*
X169519600Y-100885718D01*
X169370282Y-100736400D01*
X168957718Y-100736400D01*
X168808400Y-100885718D01*
X168808400Y-101307900D01*
X168757600Y-101307900D01*
X168757600Y-100685600D01*
X168910000Y-100685600D01*
X169418000Y-100685600D01*
X169570400Y-100685600D01*
X169570400Y-101307900D01*
G36*
X168046400Y-101307900D02*
X167995600Y-101307900D01*
X167995600Y-100885718D01*
X167846282Y-100736400D01*
X167433718Y-100736400D01*
X167284400Y-100885718D01*
X167284400Y-101307900D01*
X167233600Y-101307900D01*
X167233600Y-100685600D01*
X167386000Y-100685600D01*
X167894000Y-100685600D01*
X168046400Y-100685600D01*
X168046400Y-101307900D01*
X168046400Y-101307900D01*
G37*
X168046400Y-101307900D02*
X167995600Y-101307900D01*
X167995600Y-100885718D01*
X167846282Y-100736400D01*
X167433718Y-100736400D01*
X167284400Y-100885718D01*
X167284400Y-101307900D01*
X167233600Y-101307900D01*
X167233600Y-100685600D01*
X167386000Y-100685600D01*
X167894000Y-100685600D01*
X168046400Y-100685600D01*
X168046400Y-101307900D01*
G36*
X166522400Y-101307900D02*
X166471600Y-101307900D01*
X166471600Y-100885718D01*
X166322282Y-100736400D01*
X165909718Y-100736400D01*
X165760400Y-100885718D01*
X165760400Y-101307900D01*
X165709600Y-101307900D01*
X165709600Y-100685600D01*
X165862000Y-100685600D01*
X166370000Y-100685600D01*
X166522400Y-100685600D01*
X166522400Y-101307900D01*
X166522400Y-101307900D01*
G37*
X166522400Y-101307900D02*
X166471600Y-101307900D01*
X166471600Y-100885718D01*
X166322282Y-100736400D01*
X165909718Y-100736400D01*
X165760400Y-100885718D01*
X165760400Y-101307900D01*
X165709600Y-101307900D01*
X165709600Y-100685600D01*
X165862000Y-100685600D01*
X166370000Y-100685600D01*
X166522400Y-100685600D01*
X166522400Y-101307900D01*
G36*
X164998400Y-101307900D02*
X164947600Y-101307900D01*
X164947600Y-100885718D01*
X164798282Y-100736400D01*
X164385718Y-100736400D01*
X164236400Y-100885718D01*
X164236400Y-101307900D01*
X164185600Y-101307900D01*
X164185600Y-100685600D01*
X164338000Y-100685600D01*
X164846000Y-100685600D01*
X164998400Y-100685600D01*
X164998400Y-101307900D01*
X164998400Y-101307900D01*
G37*
X164998400Y-101307900D02*
X164947600Y-101307900D01*
X164947600Y-100885718D01*
X164798282Y-100736400D01*
X164385718Y-100736400D01*
X164236400Y-100885718D01*
X164236400Y-101307900D01*
X164185600Y-101307900D01*
X164185600Y-100685600D01*
X164338000Y-100685600D01*
X164846000Y-100685600D01*
X164998400Y-100685600D01*
X164998400Y-101307900D01*
G36*
X163474400Y-101307900D02*
X163423600Y-101307900D01*
X163423600Y-100885718D01*
X163274282Y-100736400D01*
X162861718Y-100736400D01*
X162712400Y-100885718D01*
X162712400Y-101307900D01*
X162661600Y-101307900D01*
X162661600Y-100685600D01*
X162814000Y-100685600D01*
X163322000Y-100685600D01*
X163474400Y-100685600D01*
X163474400Y-101307900D01*
X163474400Y-101307900D01*
G37*
X163474400Y-101307900D02*
X163423600Y-101307900D01*
X163423600Y-100885718D01*
X163274282Y-100736400D01*
X162861718Y-100736400D01*
X162712400Y-100885718D01*
X162712400Y-101307900D01*
X162661600Y-101307900D01*
X162661600Y-100685600D01*
X162814000Y-100685600D01*
X163322000Y-100685600D01*
X163474400Y-100685600D01*
X163474400Y-101307900D01*
G36*
X161950400Y-101307900D02*
X161899600Y-101307900D01*
X161899600Y-100885718D01*
X161750282Y-100736400D01*
X161337718Y-100736400D01*
X161188400Y-100885718D01*
X161188400Y-101307900D01*
X161137600Y-101307900D01*
X161137600Y-100685600D01*
X161290000Y-100685600D01*
X161798000Y-100685600D01*
X161950400Y-100685600D01*
X161950400Y-101307900D01*
X161950400Y-101307900D01*
G37*
X161950400Y-101307900D02*
X161899600Y-101307900D01*
X161899600Y-100885718D01*
X161750282Y-100736400D01*
X161337718Y-100736400D01*
X161188400Y-100885718D01*
X161188400Y-101307900D01*
X161137600Y-101307900D01*
X161137600Y-100685600D01*
X161290000Y-100685600D01*
X161798000Y-100685600D01*
X161950400Y-100685600D01*
X161950400Y-101307900D01*
G36*
X160426400Y-101307900D02*
X160375600Y-101307900D01*
X160375600Y-100885718D01*
X160226282Y-100736400D01*
X159813718Y-100736400D01*
X159664400Y-100885718D01*
X159664400Y-101307900D01*
X159613600Y-101307900D01*
X159613600Y-100685600D01*
X159766000Y-100685600D01*
X160274000Y-100685600D01*
X160426400Y-100685600D01*
X160426400Y-101307900D01*
X160426400Y-101307900D01*
G37*
X160426400Y-101307900D02*
X160375600Y-101307900D01*
X160375600Y-100885718D01*
X160226282Y-100736400D01*
X159813718Y-100736400D01*
X159664400Y-100885718D01*
X159664400Y-101307900D01*
X159613600Y-101307900D01*
X159613600Y-100685600D01*
X159766000Y-100685600D01*
X160274000Y-100685600D01*
X160426400Y-100685600D01*
X160426400Y-101307900D01*
G36*
X158902400Y-101307900D02*
X158851600Y-101307900D01*
X158851600Y-100885718D01*
X158702282Y-100736400D01*
X158289718Y-100736400D01*
X158140400Y-100885718D01*
X158140400Y-101307900D01*
X158089600Y-101307900D01*
X158089600Y-100685600D01*
X158242000Y-100685600D01*
X158750000Y-100685600D01*
X158902400Y-100685600D01*
X158902400Y-101307900D01*
X158902400Y-101307900D01*
G37*
X158902400Y-101307900D02*
X158851600Y-101307900D01*
X158851600Y-100885718D01*
X158702282Y-100736400D01*
X158289718Y-100736400D01*
X158140400Y-100885718D01*
X158140400Y-101307900D01*
X158089600Y-101307900D01*
X158089600Y-100685600D01*
X158242000Y-100685600D01*
X158750000Y-100685600D01*
X158902400Y-100685600D01*
X158902400Y-101307900D01*
G36*
X157378400Y-101307900D02*
X157327600Y-101307900D01*
X157327600Y-100885718D01*
X157178282Y-100736400D01*
X156765718Y-100736400D01*
X156616400Y-100885718D01*
X156616400Y-101307900D01*
X156565600Y-101307900D01*
X156565600Y-100685600D01*
X156718000Y-100685600D01*
X157226000Y-100685600D01*
X157378400Y-100685600D01*
X157378400Y-101307900D01*
X157378400Y-101307900D01*
G37*
X157378400Y-101307900D02*
X157327600Y-101307900D01*
X157327600Y-100885718D01*
X157178282Y-100736400D01*
X156765718Y-100736400D01*
X156616400Y-100885718D01*
X156616400Y-101307900D01*
X156565600Y-101307900D01*
X156565600Y-100685600D01*
X156718000Y-100685600D01*
X157226000Y-100685600D01*
X157378400Y-100685600D01*
X157378400Y-101307900D01*
G36*
X155854400Y-101307900D02*
X155803600Y-101307900D01*
X155803600Y-100885718D01*
X155654282Y-100736400D01*
X155241718Y-100736400D01*
X155092400Y-100885718D01*
X155092400Y-101307900D01*
X155041600Y-101307900D01*
X155041600Y-100685600D01*
X155194000Y-100685600D01*
X155702000Y-100685600D01*
X155854400Y-100685600D01*
X155854400Y-101307900D01*
X155854400Y-101307900D01*
G37*
X155854400Y-101307900D02*
X155803600Y-101307900D01*
X155803600Y-100885718D01*
X155654282Y-100736400D01*
X155241718Y-100736400D01*
X155092400Y-100885718D01*
X155092400Y-101307900D01*
X155041600Y-101307900D01*
X155041600Y-100685600D01*
X155194000Y-100685600D01*
X155702000Y-100685600D01*
X155854400Y-100685600D01*
X155854400Y-101307900D01*
G36*
X154330400Y-101307900D02*
X154279600Y-101307900D01*
X154279600Y-100885718D01*
X154130282Y-100736400D01*
X153717718Y-100736400D01*
X153568400Y-100885718D01*
X153568400Y-101307900D01*
X153517600Y-101307900D01*
X153517600Y-100685600D01*
X153670000Y-100685600D01*
X154178000Y-100685600D01*
X154330400Y-100685600D01*
X154330400Y-101307900D01*
X154330400Y-101307900D01*
G37*
X154330400Y-101307900D02*
X154279600Y-101307900D01*
X154279600Y-100885718D01*
X154130282Y-100736400D01*
X153717718Y-100736400D01*
X153568400Y-100885718D01*
X153568400Y-101307900D01*
X153517600Y-101307900D01*
X153517600Y-100685600D01*
X153670000Y-100685600D01*
X154178000Y-100685600D01*
X154330400Y-100685600D01*
X154330400Y-101307900D01*
G36*
X152806400Y-101307900D02*
X152755600Y-101307900D01*
X152755600Y-100885718D01*
X152606282Y-100736400D01*
X152193718Y-100736400D01*
X152044400Y-100885718D01*
X152044400Y-101307900D01*
X151993600Y-101307900D01*
X151993600Y-100685600D01*
X152146000Y-100685600D01*
X152654000Y-100685600D01*
X152806400Y-100685600D01*
X152806400Y-101307900D01*
X152806400Y-101307900D01*
G37*
X152806400Y-101307900D02*
X152755600Y-101307900D01*
X152755600Y-100885718D01*
X152606282Y-100736400D01*
X152193718Y-100736400D01*
X152044400Y-100885718D01*
X152044400Y-101307900D01*
X151993600Y-101307900D01*
X151993600Y-100685600D01*
X152146000Y-100685600D01*
X152654000Y-100685600D01*
X152806400Y-100685600D01*
X152806400Y-101307900D01*
G36*
X151282400Y-101307900D02*
X151231600Y-101307900D01*
X151231600Y-100885718D01*
X151082282Y-100736400D01*
X150669718Y-100736400D01*
X150520400Y-100885718D01*
X150520400Y-101307900D01*
X150469600Y-101307900D01*
X150469600Y-100685600D01*
X150622000Y-100685600D01*
X151130000Y-100685600D01*
X151282400Y-100685600D01*
X151282400Y-101307900D01*
X151282400Y-101307900D01*
G37*
X151282400Y-101307900D02*
X151231600Y-101307900D01*
X151231600Y-100885718D01*
X151082282Y-100736400D01*
X150669718Y-100736400D01*
X150520400Y-100885718D01*
X150520400Y-101307900D01*
X150469600Y-101307900D01*
X150469600Y-100685600D01*
X150622000Y-100685600D01*
X151130000Y-100685600D01*
X151282400Y-100685600D01*
X151282400Y-101307900D01*
G36*
X149758400Y-101307900D02*
X149707600Y-101307900D01*
X149707600Y-100885718D01*
X149558282Y-100736400D01*
X149145718Y-100736400D01*
X148996400Y-100885718D01*
X148996400Y-101307900D01*
X148945600Y-101307900D01*
X148945600Y-100685600D01*
X149098000Y-100685600D01*
X149606000Y-100685600D01*
X149758400Y-100685600D01*
X149758400Y-101307900D01*
X149758400Y-101307900D01*
G37*
X149758400Y-101307900D02*
X149707600Y-101307900D01*
X149707600Y-100885718D01*
X149558282Y-100736400D01*
X149145718Y-100736400D01*
X148996400Y-100885718D01*
X148996400Y-101307900D01*
X148945600Y-101307900D01*
X148945600Y-100685600D01*
X149098000Y-100685600D01*
X149606000Y-100685600D01*
X149758400Y-100685600D01*
X149758400Y-101307900D01*
G36*
X148234400Y-101307900D02*
X148183600Y-101307900D01*
X148183600Y-100885718D01*
X148034282Y-100736400D01*
X147621718Y-100736400D01*
X147472400Y-100885718D01*
X147472400Y-101307900D01*
X147421600Y-101307900D01*
X147421600Y-100685600D01*
X147574000Y-100685600D01*
X148082000Y-100685600D01*
X148234400Y-100685600D01*
X148234400Y-101307900D01*
X148234400Y-101307900D01*
G37*
X148234400Y-101307900D02*
X148183600Y-101307900D01*
X148183600Y-100885718D01*
X148034282Y-100736400D01*
X147621718Y-100736400D01*
X147472400Y-100885718D01*
X147472400Y-101307900D01*
X147421600Y-101307900D01*
X147421600Y-100685600D01*
X147574000Y-100685600D01*
X148082000Y-100685600D01*
X148234400Y-100685600D01*
X148234400Y-101307900D01*
G36*
X146710400Y-101307900D02*
X146659600Y-101307900D01*
X146659600Y-100885718D01*
X146510282Y-100736400D01*
X146097718Y-100736400D01*
X145948400Y-100885718D01*
X145948400Y-101307900D01*
X145897600Y-101307900D01*
X145897600Y-100685600D01*
X146050000Y-100685600D01*
X146558000Y-100685600D01*
X146710400Y-100685600D01*
X146710400Y-101307900D01*
X146710400Y-101307900D01*
G37*
X146710400Y-101307900D02*
X146659600Y-101307900D01*
X146659600Y-100885718D01*
X146510282Y-100736400D01*
X146097718Y-100736400D01*
X145948400Y-100885718D01*
X145948400Y-101307900D01*
X145897600Y-101307900D01*
X145897600Y-100685600D01*
X146050000Y-100685600D01*
X146558000Y-100685600D01*
X146710400Y-100685600D01*
X146710400Y-101307900D01*
G36*
X145186400Y-101307900D02*
X145135600Y-101307900D01*
X145135600Y-100885718D01*
X144986282Y-100736400D01*
X144573718Y-100736400D01*
X144424400Y-100885718D01*
X144424400Y-101307900D01*
X144373600Y-101307900D01*
X144373600Y-100685600D01*
X144526000Y-100685600D01*
X145034000Y-100685600D01*
X145186400Y-100685600D01*
X145186400Y-101307900D01*
X145186400Y-101307900D01*
G37*
X145186400Y-101307900D02*
X145135600Y-101307900D01*
X145135600Y-100885718D01*
X144986282Y-100736400D01*
X144573718Y-100736400D01*
X144424400Y-100885718D01*
X144424400Y-101307900D01*
X144373600Y-101307900D01*
X144373600Y-100685600D01*
X144526000Y-100685600D01*
X145034000Y-100685600D01*
X145186400Y-100685600D01*
X145186400Y-101307900D01*
G36*
X143662400Y-101307900D02*
X143611600Y-101307900D01*
X143611600Y-100885718D01*
X143462282Y-100736400D01*
X143049718Y-100736400D01*
X142900400Y-100885718D01*
X142900400Y-101307900D01*
X142849600Y-101307900D01*
X142849600Y-100685600D01*
X143002000Y-100685600D01*
X143510000Y-100685600D01*
X143662400Y-100685600D01*
X143662400Y-101307900D01*
X143662400Y-101307900D01*
G37*
X143662400Y-101307900D02*
X143611600Y-101307900D01*
X143611600Y-100885718D01*
X143462282Y-100736400D01*
X143049718Y-100736400D01*
X142900400Y-100885718D01*
X142900400Y-101307900D01*
X142849600Y-101307900D01*
X142849600Y-100685600D01*
X143002000Y-100685600D01*
X143510000Y-100685600D01*
X143662400Y-100685600D01*
X143662400Y-101307900D01*
G36*
X142138400Y-101307900D02*
X142087600Y-101307900D01*
X142087600Y-100885718D01*
X141938282Y-100736400D01*
X141525718Y-100736400D01*
X141376400Y-100885718D01*
X141376400Y-101307900D01*
X141325600Y-101307900D01*
X141325600Y-100685600D01*
X141478000Y-100685600D01*
X141986000Y-100685600D01*
X142138400Y-100685600D01*
X142138400Y-101307900D01*
X142138400Y-101307900D01*
G37*
X142138400Y-101307900D02*
X142087600Y-101307900D01*
X142087600Y-100885718D01*
X141938282Y-100736400D01*
X141525718Y-100736400D01*
X141376400Y-100885718D01*
X141376400Y-101307900D01*
X141325600Y-101307900D01*
X141325600Y-100685600D01*
X141478000Y-100685600D01*
X141986000Y-100685600D01*
X142138400Y-100685600D01*
X142138400Y-101307900D01*
G36*
X140614400Y-101307900D02*
X140563600Y-101307900D01*
X140563600Y-100885718D01*
X140414282Y-100736400D01*
X140001718Y-100736400D01*
X139852400Y-100885718D01*
X139852400Y-101307900D01*
X139801600Y-101307900D01*
X139801600Y-100685600D01*
X139954000Y-100685600D01*
X140462000Y-100685600D01*
X140614400Y-100685600D01*
X140614400Y-101307900D01*
X140614400Y-101307900D01*
G37*
X140614400Y-101307900D02*
X140563600Y-101307900D01*
X140563600Y-100885718D01*
X140414282Y-100736400D01*
X140001718Y-100736400D01*
X139852400Y-100885718D01*
X139852400Y-101307900D01*
X139801600Y-101307900D01*
X139801600Y-100685600D01*
X139954000Y-100685600D01*
X140462000Y-100685600D01*
X140614400Y-100685600D01*
X140614400Y-101307900D01*
G36*
X139090400Y-101307900D02*
X139039600Y-101307900D01*
X139039600Y-100885718D01*
X138890282Y-100736400D01*
X138477718Y-100736400D01*
X138328400Y-100885718D01*
X138328400Y-101307900D01*
X138277600Y-101307900D01*
X138277600Y-100685600D01*
X138430000Y-100685600D01*
X138938000Y-100685600D01*
X139090400Y-100685600D01*
X139090400Y-101307900D01*
X139090400Y-101307900D01*
G37*
X139090400Y-101307900D02*
X139039600Y-101307900D01*
X139039600Y-100885718D01*
X138890282Y-100736400D01*
X138477718Y-100736400D01*
X138328400Y-100885718D01*
X138328400Y-101307900D01*
X138277600Y-101307900D01*
X138277600Y-100685600D01*
X138430000Y-100685600D01*
X138938000Y-100685600D01*
X139090400Y-100685600D01*
X139090400Y-101307900D01*
G36*
X137566400Y-101307900D02*
X137515600Y-101307900D01*
X137515600Y-100885718D01*
X137366282Y-100736400D01*
X136953718Y-100736400D01*
X136804400Y-100885718D01*
X136804400Y-101307900D01*
X136753600Y-101307900D01*
X136753600Y-100685600D01*
X136906000Y-100685600D01*
X137414000Y-100685600D01*
X137566400Y-100685600D01*
X137566400Y-101307900D01*
X137566400Y-101307900D01*
G37*
X137566400Y-101307900D02*
X137515600Y-101307900D01*
X137515600Y-100885718D01*
X137366282Y-100736400D01*
X136953718Y-100736400D01*
X136804400Y-100885718D01*
X136804400Y-101307900D01*
X136753600Y-101307900D01*
X136753600Y-100685600D01*
X136906000Y-100685600D01*
X137414000Y-100685600D01*
X137566400Y-100685600D01*
X137566400Y-101307900D01*
G36*
X136804400Y-104072747D02*
X136801777Y-104085934D01*
X136796432Y-104093932D01*
X136788434Y-104099277D01*
X136779000Y-104101153D01*
X136769566Y-104099277D01*
X136761568Y-104093932D01*
X136756223Y-104085934D01*
X136753600Y-104072747D01*
X136753600Y-101667253D01*
X136756223Y-101654066D01*
X136761568Y-101646068D01*
X136769566Y-101640723D01*
X136779000Y-101638847D01*
X136788434Y-101640723D01*
X136796432Y-101646068D01*
X136801777Y-101654066D01*
X136804400Y-101667253D01*
X136804400Y-104072747D01*
X136804400Y-104072747D01*
G37*
X136804400Y-104072747D02*
X136801777Y-104085934D01*
X136796432Y-104093932D01*
X136788434Y-104099277D01*
X136779000Y-104101153D01*
X136769566Y-104099277D01*
X136761568Y-104093932D01*
X136756223Y-104085934D01*
X136753600Y-104072747D01*
X136753600Y-101667253D01*
X136756223Y-101654066D01*
X136761568Y-101646068D01*
X136769566Y-101640723D01*
X136779000Y-101638847D01*
X136788434Y-101640723D01*
X136796432Y-101646068D01*
X136801777Y-101654066D01*
X136804400Y-101667253D01*
X136804400Y-104072747D01*
G36*
X137566400Y-104072747D02*
X137563777Y-104085934D01*
X137558432Y-104093932D01*
X137550434Y-104099277D01*
X137541000Y-104101153D01*
X137531566Y-104099277D01*
X137523568Y-104093932D01*
X137518223Y-104085934D01*
X137515600Y-104072747D01*
X137515600Y-101667253D01*
X137518223Y-101654066D01*
X137523568Y-101646068D01*
X137531566Y-101640723D01*
X137541000Y-101638847D01*
X137550434Y-101640723D01*
X137558432Y-101646068D01*
X137563777Y-101654066D01*
X137566400Y-101667253D01*
X137566400Y-104072747D01*
X137566400Y-104072747D01*
G37*
X137566400Y-104072747D02*
X137563777Y-104085934D01*
X137558432Y-104093932D01*
X137550434Y-104099277D01*
X137541000Y-104101153D01*
X137531566Y-104099277D01*
X137523568Y-104093932D01*
X137518223Y-104085934D01*
X137515600Y-104072747D01*
X137515600Y-101667253D01*
X137518223Y-101654066D01*
X137523568Y-101646068D01*
X137531566Y-101640723D01*
X137541000Y-101638847D01*
X137550434Y-101640723D01*
X137558432Y-101646068D01*
X137563777Y-101654066D01*
X137566400Y-101667253D01*
X137566400Y-104072747D01*
G36*
X138328400Y-104072747D02*
X138325777Y-104085934D01*
X138320432Y-104093932D01*
X138312434Y-104099277D01*
X138303000Y-104101153D01*
X138293566Y-104099277D01*
X138285568Y-104093932D01*
X138280223Y-104085934D01*
X138277600Y-104072747D01*
X138277600Y-101667253D01*
X138280223Y-101654066D01*
X138285568Y-101646068D01*
X138293566Y-101640723D01*
X138303000Y-101638847D01*
X138312434Y-101640723D01*
X138320432Y-101646068D01*
X138325777Y-101654066D01*
X138328400Y-101667253D01*
X138328400Y-104072747D01*
X138328400Y-104072747D01*
G37*
X138328400Y-104072747D02*
X138325777Y-104085934D01*
X138320432Y-104093932D01*
X138312434Y-104099277D01*
X138303000Y-104101153D01*
X138293566Y-104099277D01*
X138285568Y-104093932D01*
X138280223Y-104085934D01*
X138277600Y-104072747D01*
X138277600Y-101667253D01*
X138280223Y-101654066D01*
X138285568Y-101646068D01*
X138293566Y-101640723D01*
X138303000Y-101638847D01*
X138312434Y-101640723D01*
X138320432Y-101646068D01*
X138325777Y-101654066D01*
X138328400Y-101667253D01*
X138328400Y-104072747D01*
G36*
X139090400Y-104072747D02*
X139087777Y-104085934D01*
X139082432Y-104093932D01*
X139074434Y-104099277D01*
X139065000Y-104101153D01*
X139055566Y-104099277D01*
X139047568Y-104093932D01*
X139042223Y-104085934D01*
X139039600Y-104072747D01*
X139039600Y-101667253D01*
X139042223Y-101654066D01*
X139047568Y-101646068D01*
X139055566Y-101640723D01*
X139065000Y-101638847D01*
X139074434Y-101640723D01*
X139082432Y-101646068D01*
X139087777Y-101654066D01*
X139090400Y-101667253D01*
X139090400Y-104072747D01*
X139090400Y-104072747D01*
G37*
X139090400Y-104072747D02*
X139087777Y-104085934D01*
X139082432Y-104093932D01*
X139074434Y-104099277D01*
X139065000Y-104101153D01*
X139055566Y-104099277D01*
X139047568Y-104093932D01*
X139042223Y-104085934D01*
X139039600Y-104072747D01*
X139039600Y-101667253D01*
X139042223Y-101654066D01*
X139047568Y-101646068D01*
X139055566Y-101640723D01*
X139065000Y-101638847D01*
X139074434Y-101640723D01*
X139082432Y-101646068D01*
X139087777Y-101654066D01*
X139090400Y-101667253D01*
X139090400Y-104072747D01*
G36*
X139852400Y-104072747D02*
X139849777Y-104085934D01*
X139844432Y-104093932D01*
X139836434Y-104099277D01*
X139827000Y-104101153D01*
X139817566Y-104099277D01*
X139809568Y-104093932D01*
X139804223Y-104085934D01*
X139801600Y-104072747D01*
X139801600Y-101667253D01*
X139804223Y-101654066D01*
X139809568Y-101646068D01*
X139817566Y-101640723D01*
X139827000Y-101638847D01*
X139836434Y-101640723D01*
X139844432Y-101646068D01*
X139849777Y-101654066D01*
X139852400Y-101667253D01*
X139852400Y-104072747D01*
X139852400Y-104072747D01*
G37*
X139852400Y-104072747D02*
X139849777Y-104085934D01*
X139844432Y-104093932D01*
X139836434Y-104099277D01*
X139827000Y-104101153D01*
X139817566Y-104099277D01*
X139809568Y-104093932D01*
X139804223Y-104085934D01*
X139801600Y-104072747D01*
X139801600Y-101667253D01*
X139804223Y-101654066D01*
X139809568Y-101646068D01*
X139817566Y-101640723D01*
X139827000Y-101638847D01*
X139836434Y-101640723D01*
X139844432Y-101646068D01*
X139849777Y-101654066D01*
X139852400Y-101667253D01*
X139852400Y-104072747D01*
G36*
X140614400Y-104072747D02*
X140611777Y-104085934D01*
X140606432Y-104093932D01*
X140598434Y-104099277D01*
X140589000Y-104101153D01*
X140579566Y-104099277D01*
X140571568Y-104093932D01*
X140566223Y-104085934D01*
X140563600Y-104072747D01*
X140563600Y-101667253D01*
X140566223Y-101654066D01*
X140571568Y-101646068D01*
X140579566Y-101640723D01*
X140589000Y-101638847D01*
X140598434Y-101640723D01*
X140606432Y-101646068D01*
X140611777Y-101654066D01*
X140614400Y-101667253D01*
X140614400Y-104072747D01*
X140614400Y-104072747D01*
G37*
X140614400Y-104072747D02*
X140611777Y-104085934D01*
X140606432Y-104093932D01*
X140598434Y-104099277D01*
X140589000Y-104101153D01*
X140579566Y-104099277D01*
X140571568Y-104093932D01*
X140566223Y-104085934D01*
X140563600Y-104072747D01*
X140563600Y-101667253D01*
X140566223Y-101654066D01*
X140571568Y-101646068D01*
X140579566Y-101640723D01*
X140589000Y-101638847D01*
X140598434Y-101640723D01*
X140606432Y-101646068D01*
X140611777Y-101654066D01*
X140614400Y-101667253D01*
X140614400Y-104072747D01*
G36*
X141376400Y-104072747D02*
X141373777Y-104085934D01*
X141368432Y-104093932D01*
X141360434Y-104099277D01*
X141351000Y-104101153D01*
X141341566Y-104099277D01*
X141333568Y-104093932D01*
X141328223Y-104085934D01*
X141325600Y-104072747D01*
X141325600Y-101667253D01*
X141328223Y-101654066D01*
X141333568Y-101646068D01*
X141341566Y-101640723D01*
X141351000Y-101638847D01*
X141360434Y-101640723D01*
X141368432Y-101646068D01*
X141373777Y-101654066D01*
X141376400Y-101667253D01*
X141376400Y-104072747D01*
X141376400Y-104072747D01*
G37*
X141376400Y-104072747D02*
X141373777Y-104085934D01*
X141368432Y-104093932D01*
X141360434Y-104099277D01*
X141351000Y-104101153D01*
X141341566Y-104099277D01*
X141333568Y-104093932D01*
X141328223Y-104085934D01*
X141325600Y-104072747D01*
X141325600Y-101667253D01*
X141328223Y-101654066D01*
X141333568Y-101646068D01*
X141341566Y-101640723D01*
X141351000Y-101638847D01*
X141360434Y-101640723D01*
X141368432Y-101646068D01*
X141373777Y-101654066D01*
X141376400Y-101667253D01*
X141376400Y-104072747D01*
G36*
X142138400Y-104072747D02*
X142135777Y-104085934D01*
X142130432Y-104093932D01*
X142122434Y-104099277D01*
X142113000Y-104101153D01*
X142103566Y-104099277D01*
X142095568Y-104093932D01*
X142090223Y-104085934D01*
X142087600Y-104072747D01*
X142087600Y-101667253D01*
X142090223Y-101654066D01*
X142095568Y-101646068D01*
X142103566Y-101640723D01*
X142113000Y-101638847D01*
X142122434Y-101640723D01*
X142130432Y-101646068D01*
X142135777Y-101654066D01*
X142138400Y-101667253D01*
X142138400Y-104072747D01*
X142138400Y-104072747D01*
G37*
X142138400Y-104072747D02*
X142135777Y-104085934D01*
X142130432Y-104093932D01*
X142122434Y-104099277D01*
X142113000Y-104101153D01*
X142103566Y-104099277D01*
X142095568Y-104093932D01*
X142090223Y-104085934D01*
X142087600Y-104072747D01*
X142087600Y-101667253D01*
X142090223Y-101654066D01*
X142095568Y-101646068D01*
X142103566Y-101640723D01*
X142113000Y-101638847D01*
X142122434Y-101640723D01*
X142130432Y-101646068D01*
X142135777Y-101654066D01*
X142138400Y-101667253D01*
X142138400Y-104072747D01*
G36*
X142900400Y-104072747D02*
X142897777Y-104085934D01*
X142892432Y-104093932D01*
X142884434Y-104099277D01*
X142875000Y-104101153D01*
X142865566Y-104099277D01*
X142857568Y-104093932D01*
X142852223Y-104085934D01*
X142849600Y-104072747D01*
X142849600Y-101667253D01*
X142852223Y-101654066D01*
X142857568Y-101646068D01*
X142865566Y-101640723D01*
X142875000Y-101638847D01*
X142884434Y-101640723D01*
X142892432Y-101646068D01*
X142897777Y-101654066D01*
X142900400Y-101667253D01*
X142900400Y-104072747D01*
X142900400Y-104072747D01*
G37*
X142900400Y-104072747D02*
X142897777Y-104085934D01*
X142892432Y-104093932D01*
X142884434Y-104099277D01*
X142875000Y-104101153D01*
X142865566Y-104099277D01*
X142857568Y-104093932D01*
X142852223Y-104085934D01*
X142849600Y-104072747D01*
X142849600Y-101667253D01*
X142852223Y-101654066D01*
X142857568Y-101646068D01*
X142865566Y-101640723D01*
X142875000Y-101638847D01*
X142884434Y-101640723D01*
X142892432Y-101646068D01*
X142897777Y-101654066D01*
X142900400Y-101667253D01*
X142900400Y-104072747D01*
G36*
X143662400Y-104072747D02*
X143659777Y-104085934D01*
X143654432Y-104093932D01*
X143646434Y-104099277D01*
X143637000Y-104101153D01*
X143627566Y-104099277D01*
X143619568Y-104093932D01*
X143614223Y-104085934D01*
X143611600Y-104072747D01*
X143611600Y-101667253D01*
X143614223Y-101654066D01*
X143619568Y-101646068D01*
X143627566Y-101640723D01*
X143637000Y-101638847D01*
X143646434Y-101640723D01*
X143654432Y-101646068D01*
X143659777Y-101654066D01*
X143662400Y-101667253D01*
X143662400Y-104072747D01*
X143662400Y-104072747D01*
G37*
X143662400Y-104072747D02*
X143659777Y-104085934D01*
X143654432Y-104093932D01*
X143646434Y-104099277D01*
X143637000Y-104101153D01*
X143627566Y-104099277D01*
X143619568Y-104093932D01*
X143614223Y-104085934D01*
X143611600Y-104072747D01*
X143611600Y-101667253D01*
X143614223Y-101654066D01*
X143619568Y-101646068D01*
X143627566Y-101640723D01*
X143637000Y-101638847D01*
X143646434Y-101640723D01*
X143654432Y-101646068D01*
X143659777Y-101654066D01*
X143662400Y-101667253D01*
X143662400Y-104072747D01*
G36*
X144424400Y-104072747D02*
X144421777Y-104085934D01*
X144416432Y-104093932D01*
X144408434Y-104099277D01*
X144399000Y-104101153D01*
X144389566Y-104099277D01*
X144381568Y-104093932D01*
X144376223Y-104085934D01*
X144373600Y-104072747D01*
X144373600Y-101667253D01*
X144376223Y-101654066D01*
X144381568Y-101646068D01*
X144389566Y-101640723D01*
X144399000Y-101638847D01*
X144408434Y-101640723D01*
X144416432Y-101646068D01*
X144421777Y-101654066D01*
X144424400Y-101667253D01*
X144424400Y-104072747D01*
X144424400Y-104072747D01*
G37*
X144424400Y-104072747D02*
X144421777Y-104085934D01*
X144416432Y-104093932D01*
X144408434Y-104099277D01*
X144399000Y-104101153D01*
X144389566Y-104099277D01*
X144381568Y-104093932D01*
X144376223Y-104085934D01*
X144373600Y-104072747D01*
X144373600Y-101667253D01*
X144376223Y-101654066D01*
X144381568Y-101646068D01*
X144389566Y-101640723D01*
X144399000Y-101638847D01*
X144408434Y-101640723D01*
X144416432Y-101646068D01*
X144421777Y-101654066D01*
X144424400Y-101667253D01*
X144424400Y-104072747D01*
G36*
X145186400Y-104072747D02*
X145183777Y-104085934D01*
X145178432Y-104093932D01*
X145170434Y-104099277D01*
X145161000Y-104101153D01*
X145151566Y-104099277D01*
X145143568Y-104093932D01*
X145138223Y-104085934D01*
X145135600Y-104072747D01*
X145135600Y-101667253D01*
X145138223Y-101654066D01*
X145143568Y-101646068D01*
X145151566Y-101640723D01*
X145161000Y-101638847D01*
X145170434Y-101640723D01*
X145178432Y-101646068D01*
X145183777Y-101654066D01*
X145186400Y-101667253D01*
X145186400Y-104072747D01*
X145186400Y-104072747D01*
G37*
X145186400Y-104072747D02*
X145183777Y-104085934D01*
X145178432Y-104093932D01*
X145170434Y-104099277D01*
X145161000Y-104101153D01*
X145151566Y-104099277D01*
X145143568Y-104093932D01*
X145138223Y-104085934D01*
X145135600Y-104072747D01*
X145135600Y-101667253D01*
X145138223Y-101654066D01*
X145143568Y-101646068D01*
X145151566Y-101640723D01*
X145161000Y-101638847D01*
X145170434Y-101640723D01*
X145178432Y-101646068D01*
X145183777Y-101654066D01*
X145186400Y-101667253D01*
X145186400Y-104072747D01*
G36*
X145948400Y-104072747D02*
X145945777Y-104085934D01*
X145940432Y-104093932D01*
X145932434Y-104099277D01*
X145923000Y-104101153D01*
X145913566Y-104099277D01*
X145905568Y-104093932D01*
X145900223Y-104085934D01*
X145897600Y-104072747D01*
X145897600Y-101667253D01*
X145900223Y-101654066D01*
X145905568Y-101646068D01*
X145913566Y-101640723D01*
X145923000Y-101638847D01*
X145932434Y-101640723D01*
X145940432Y-101646068D01*
X145945777Y-101654066D01*
X145948400Y-101667253D01*
X145948400Y-104072747D01*
X145948400Y-104072747D01*
G37*
X145948400Y-104072747D02*
X145945777Y-104085934D01*
X145940432Y-104093932D01*
X145932434Y-104099277D01*
X145923000Y-104101153D01*
X145913566Y-104099277D01*
X145905568Y-104093932D01*
X145900223Y-104085934D01*
X145897600Y-104072747D01*
X145897600Y-101667253D01*
X145900223Y-101654066D01*
X145905568Y-101646068D01*
X145913566Y-101640723D01*
X145923000Y-101638847D01*
X145932434Y-101640723D01*
X145940432Y-101646068D01*
X145945777Y-101654066D01*
X145948400Y-101667253D01*
X145948400Y-104072747D01*
G36*
X146710400Y-104072747D02*
X146707777Y-104085934D01*
X146702432Y-104093932D01*
X146694434Y-104099277D01*
X146685000Y-104101153D01*
X146675566Y-104099277D01*
X146667568Y-104093932D01*
X146662223Y-104085934D01*
X146659600Y-104072747D01*
X146659600Y-101667253D01*
X146662223Y-101654066D01*
X146667568Y-101646068D01*
X146675566Y-101640723D01*
X146685000Y-101638847D01*
X146694434Y-101640723D01*
X146702432Y-101646068D01*
X146707777Y-101654066D01*
X146710400Y-101667253D01*
X146710400Y-104072747D01*
X146710400Y-104072747D01*
G37*
X146710400Y-104072747D02*
X146707777Y-104085934D01*
X146702432Y-104093932D01*
X146694434Y-104099277D01*
X146685000Y-104101153D01*
X146675566Y-104099277D01*
X146667568Y-104093932D01*
X146662223Y-104085934D01*
X146659600Y-104072747D01*
X146659600Y-101667253D01*
X146662223Y-101654066D01*
X146667568Y-101646068D01*
X146675566Y-101640723D01*
X146685000Y-101638847D01*
X146694434Y-101640723D01*
X146702432Y-101646068D01*
X146707777Y-101654066D01*
X146710400Y-101667253D01*
X146710400Y-104072747D01*
G36*
X147472400Y-104072747D02*
X147469777Y-104085934D01*
X147464432Y-104093932D01*
X147456434Y-104099277D01*
X147447000Y-104101153D01*
X147437566Y-104099277D01*
X147429568Y-104093932D01*
X147424223Y-104085934D01*
X147421600Y-104072747D01*
X147421600Y-101667253D01*
X147424223Y-101654066D01*
X147429568Y-101646068D01*
X147437566Y-101640723D01*
X147447000Y-101638847D01*
X147456434Y-101640723D01*
X147464432Y-101646068D01*
X147469777Y-101654066D01*
X147472400Y-101667253D01*
X147472400Y-104072747D01*
X147472400Y-104072747D01*
G37*
X147472400Y-104072747D02*
X147469777Y-104085934D01*
X147464432Y-104093932D01*
X147456434Y-104099277D01*
X147447000Y-104101153D01*
X147437566Y-104099277D01*
X147429568Y-104093932D01*
X147424223Y-104085934D01*
X147421600Y-104072747D01*
X147421600Y-101667253D01*
X147424223Y-101654066D01*
X147429568Y-101646068D01*
X147437566Y-101640723D01*
X147447000Y-101638847D01*
X147456434Y-101640723D01*
X147464432Y-101646068D01*
X147469777Y-101654066D01*
X147472400Y-101667253D01*
X147472400Y-104072747D01*
G36*
X148234400Y-104072747D02*
X148231777Y-104085934D01*
X148226432Y-104093932D01*
X148218434Y-104099277D01*
X148209000Y-104101153D01*
X148199566Y-104099277D01*
X148191568Y-104093932D01*
X148186223Y-104085934D01*
X148183600Y-104072747D01*
X148183600Y-101667253D01*
X148186223Y-101654066D01*
X148191568Y-101646068D01*
X148199566Y-101640723D01*
X148209000Y-101638847D01*
X148218434Y-101640723D01*
X148226432Y-101646068D01*
X148231777Y-101654066D01*
X148234400Y-101667253D01*
X148234400Y-104072747D01*
X148234400Y-104072747D01*
G37*
X148234400Y-104072747D02*
X148231777Y-104085934D01*
X148226432Y-104093932D01*
X148218434Y-104099277D01*
X148209000Y-104101153D01*
X148199566Y-104099277D01*
X148191568Y-104093932D01*
X148186223Y-104085934D01*
X148183600Y-104072747D01*
X148183600Y-101667253D01*
X148186223Y-101654066D01*
X148191568Y-101646068D01*
X148199566Y-101640723D01*
X148209000Y-101638847D01*
X148218434Y-101640723D01*
X148226432Y-101646068D01*
X148231777Y-101654066D01*
X148234400Y-101667253D01*
X148234400Y-104072747D01*
G36*
X148996400Y-104072747D02*
X148993777Y-104085934D01*
X148988432Y-104093932D01*
X148980434Y-104099277D01*
X148971000Y-104101153D01*
X148961566Y-104099277D01*
X148953568Y-104093932D01*
X148948223Y-104085934D01*
X148945600Y-104072747D01*
X148945600Y-101667253D01*
X148948223Y-101654066D01*
X148953568Y-101646068D01*
X148961566Y-101640723D01*
X148971000Y-101638847D01*
X148980434Y-101640723D01*
X148988432Y-101646068D01*
X148993777Y-101654066D01*
X148996400Y-101667253D01*
X148996400Y-104072747D01*
X148996400Y-104072747D01*
G37*
X148996400Y-104072747D02*
X148993777Y-104085934D01*
X148988432Y-104093932D01*
X148980434Y-104099277D01*
X148971000Y-104101153D01*
X148961566Y-104099277D01*
X148953568Y-104093932D01*
X148948223Y-104085934D01*
X148945600Y-104072747D01*
X148945600Y-101667253D01*
X148948223Y-101654066D01*
X148953568Y-101646068D01*
X148961566Y-101640723D01*
X148971000Y-101638847D01*
X148980434Y-101640723D01*
X148988432Y-101646068D01*
X148993777Y-101654066D01*
X148996400Y-101667253D01*
X148996400Y-104072747D01*
G36*
X149758400Y-104072747D02*
X149755777Y-104085934D01*
X149750432Y-104093932D01*
X149742434Y-104099277D01*
X149733000Y-104101153D01*
X149723566Y-104099277D01*
X149715568Y-104093932D01*
X149710223Y-104085934D01*
X149707600Y-104072747D01*
X149707600Y-101667253D01*
X149710223Y-101654066D01*
X149715568Y-101646068D01*
X149723566Y-101640723D01*
X149733000Y-101638847D01*
X149742434Y-101640723D01*
X149750432Y-101646068D01*
X149755777Y-101654066D01*
X149758400Y-101667253D01*
X149758400Y-104072747D01*
X149758400Y-104072747D01*
G37*
X149758400Y-104072747D02*
X149755777Y-104085934D01*
X149750432Y-104093932D01*
X149742434Y-104099277D01*
X149733000Y-104101153D01*
X149723566Y-104099277D01*
X149715568Y-104093932D01*
X149710223Y-104085934D01*
X149707600Y-104072747D01*
X149707600Y-101667253D01*
X149710223Y-101654066D01*
X149715568Y-101646068D01*
X149723566Y-101640723D01*
X149733000Y-101638847D01*
X149742434Y-101640723D01*
X149750432Y-101646068D01*
X149755777Y-101654066D01*
X149758400Y-101667253D01*
X149758400Y-104072747D01*
G36*
X150520400Y-104072747D02*
X150517777Y-104085934D01*
X150512432Y-104093932D01*
X150504434Y-104099277D01*
X150495000Y-104101153D01*
X150485566Y-104099277D01*
X150477568Y-104093932D01*
X150472223Y-104085934D01*
X150469600Y-104072747D01*
X150469600Y-101667253D01*
X150472223Y-101654066D01*
X150477568Y-101646068D01*
X150485566Y-101640723D01*
X150495000Y-101638847D01*
X150504434Y-101640723D01*
X150512432Y-101646068D01*
X150517777Y-101654066D01*
X150520400Y-101667253D01*
X150520400Y-104072747D01*
X150520400Y-104072747D01*
G37*
X150520400Y-104072747D02*
X150517777Y-104085934D01*
X150512432Y-104093932D01*
X150504434Y-104099277D01*
X150495000Y-104101153D01*
X150485566Y-104099277D01*
X150477568Y-104093932D01*
X150472223Y-104085934D01*
X150469600Y-104072747D01*
X150469600Y-101667253D01*
X150472223Y-101654066D01*
X150477568Y-101646068D01*
X150485566Y-101640723D01*
X150495000Y-101638847D01*
X150504434Y-101640723D01*
X150512432Y-101646068D01*
X150517777Y-101654066D01*
X150520400Y-101667253D01*
X150520400Y-104072747D01*
G36*
X151282400Y-104072747D02*
X151279777Y-104085934D01*
X151274432Y-104093932D01*
X151266434Y-104099277D01*
X151257000Y-104101153D01*
X151247566Y-104099277D01*
X151239568Y-104093932D01*
X151234223Y-104085934D01*
X151231600Y-104072747D01*
X151231600Y-101667253D01*
X151234223Y-101654066D01*
X151239568Y-101646068D01*
X151247566Y-101640723D01*
X151257000Y-101638847D01*
X151266434Y-101640723D01*
X151274432Y-101646068D01*
X151279777Y-101654066D01*
X151282400Y-101667253D01*
X151282400Y-104072747D01*
X151282400Y-104072747D01*
G37*
X151282400Y-104072747D02*
X151279777Y-104085934D01*
X151274432Y-104093932D01*
X151266434Y-104099277D01*
X151257000Y-104101153D01*
X151247566Y-104099277D01*
X151239568Y-104093932D01*
X151234223Y-104085934D01*
X151231600Y-104072747D01*
X151231600Y-101667253D01*
X151234223Y-101654066D01*
X151239568Y-101646068D01*
X151247566Y-101640723D01*
X151257000Y-101638847D01*
X151266434Y-101640723D01*
X151274432Y-101646068D01*
X151279777Y-101654066D01*
X151282400Y-101667253D01*
X151282400Y-104072747D01*
G36*
X152044400Y-104072747D02*
X152041777Y-104085934D01*
X152036432Y-104093932D01*
X152028434Y-104099277D01*
X152019000Y-104101153D01*
X152009566Y-104099277D01*
X152001568Y-104093932D01*
X151996223Y-104085934D01*
X151993600Y-104072747D01*
X151993600Y-101667253D01*
X151996223Y-101654066D01*
X152001568Y-101646068D01*
X152009566Y-101640723D01*
X152019000Y-101638847D01*
X152028434Y-101640723D01*
X152036432Y-101646068D01*
X152041777Y-101654066D01*
X152044400Y-101667253D01*
X152044400Y-104072747D01*
X152044400Y-104072747D01*
G37*
X152044400Y-104072747D02*
X152041777Y-104085934D01*
X152036432Y-104093932D01*
X152028434Y-104099277D01*
X152019000Y-104101153D01*
X152009566Y-104099277D01*
X152001568Y-104093932D01*
X151996223Y-104085934D01*
X151993600Y-104072747D01*
X151993600Y-101667253D01*
X151996223Y-101654066D01*
X152001568Y-101646068D01*
X152009566Y-101640723D01*
X152019000Y-101638847D01*
X152028434Y-101640723D01*
X152036432Y-101646068D01*
X152041777Y-101654066D01*
X152044400Y-101667253D01*
X152044400Y-104072747D01*
G36*
X152806400Y-104072747D02*
X152803777Y-104085934D01*
X152798432Y-104093932D01*
X152790434Y-104099277D01*
X152781000Y-104101153D01*
X152771566Y-104099277D01*
X152763568Y-104093932D01*
X152758223Y-104085934D01*
X152755600Y-104072747D01*
X152755600Y-101667253D01*
X152758223Y-101654066D01*
X152763568Y-101646068D01*
X152771566Y-101640723D01*
X152781000Y-101638847D01*
X152790434Y-101640723D01*
X152798432Y-101646068D01*
X152803777Y-101654066D01*
X152806400Y-101667253D01*
X152806400Y-104072747D01*
X152806400Y-104072747D01*
G37*
X152806400Y-104072747D02*
X152803777Y-104085934D01*
X152798432Y-104093932D01*
X152790434Y-104099277D01*
X152781000Y-104101153D01*
X152771566Y-104099277D01*
X152763568Y-104093932D01*
X152758223Y-104085934D01*
X152755600Y-104072747D01*
X152755600Y-101667253D01*
X152758223Y-101654066D01*
X152763568Y-101646068D01*
X152771566Y-101640723D01*
X152781000Y-101638847D01*
X152790434Y-101640723D01*
X152798432Y-101646068D01*
X152803777Y-101654066D01*
X152806400Y-101667253D01*
X152806400Y-104072747D01*
G36*
X153568400Y-104072747D02*
X153565777Y-104085934D01*
X153560432Y-104093932D01*
X153552434Y-104099277D01*
X153543000Y-104101153D01*
X153533566Y-104099277D01*
X153525568Y-104093932D01*
X153520223Y-104085934D01*
X153517600Y-104072747D01*
X153517600Y-101667253D01*
X153520223Y-101654066D01*
X153525568Y-101646068D01*
X153533566Y-101640723D01*
X153543000Y-101638847D01*
X153552434Y-101640723D01*
X153560432Y-101646068D01*
X153565777Y-101654066D01*
X153568400Y-101667253D01*
X153568400Y-104072747D01*
X153568400Y-104072747D01*
G37*
X153568400Y-104072747D02*
X153565777Y-104085934D01*
X153560432Y-104093932D01*
X153552434Y-104099277D01*
X153543000Y-104101153D01*
X153533566Y-104099277D01*
X153525568Y-104093932D01*
X153520223Y-104085934D01*
X153517600Y-104072747D01*
X153517600Y-101667253D01*
X153520223Y-101654066D01*
X153525568Y-101646068D01*
X153533566Y-101640723D01*
X153543000Y-101638847D01*
X153552434Y-101640723D01*
X153560432Y-101646068D01*
X153565777Y-101654066D01*
X153568400Y-101667253D01*
X153568400Y-104072747D01*
G36*
X154330400Y-104072747D02*
X154327777Y-104085934D01*
X154322432Y-104093932D01*
X154314434Y-104099277D01*
X154305000Y-104101153D01*
X154295566Y-104099277D01*
X154287568Y-104093932D01*
X154282223Y-104085934D01*
X154279600Y-104072747D01*
X154279600Y-101667253D01*
X154282223Y-101654066D01*
X154287568Y-101646068D01*
X154295566Y-101640723D01*
X154305000Y-101638847D01*
X154314434Y-101640723D01*
X154322432Y-101646068D01*
X154327777Y-101654066D01*
X154330400Y-101667253D01*
X154330400Y-104072747D01*
X154330400Y-104072747D01*
G37*
X154330400Y-104072747D02*
X154327777Y-104085934D01*
X154322432Y-104093932D01*
X154314434Y-104099277D01*
X154305000Y-104101153D01*
X154295566Y-104099277D01*
X154287568Y-104093932D01*
X154282223Y-104085934D01*
X154279600Y-104072747D01*
X154279600Y-101667253D01*
X154282223Y-101654066D01*
X154287568Y-101646068D01*
X154295566Y-101640723D01*
X154305000Y-101638847D01*
X154314434Y-101640723D01*
X154322432Y-101646068D01*
X154327777Y-101654066D01*
X154330400Y-101667253D01*
X154330400Y-104072747D01*
G36*
X155092400Y-104072747D02*
X155089777Y-104085934D01*
X155084432Y-104093932D01*
X155076434Y-104099277D01*
X155067000Y-104101153D01*
X155057566Y-104099277D01*
X155049568Y-104093932D01*
X155044223Y-104085934D01*
X155041600Y-104072747D01*
X155041600Y-101667253D01*
X155044223Y-101654066D01*
X155049568Y-101646068D01*
X155057566Y-101640723D01*
X155067000Y-101638847D01*
X155076434Y-101640723D01*
X155084432Y-101646068D01*
X155089777Y-101654066D01*
X155092400Y-101667253D01*
X155092400Y-104072747D01*
X155092400Y-104072747D01*
G37*
X155092400Y-104072747D02*
X155089777Y-104085934D01*
X155084432Y-104093932D01*
X155076434Y-104099277D01*
X155067000Y-104101153D01*
X155057566Y-104099277D01*
X155049568Y-104093932D01*
X155044223Y-104085934D01*
X155041600Y-104072747D01*
X155041600Y-101667253D01*
X155044223Y-101654066D01*
X155049568Y-101646068D01*
X155057566Y-101640723D01*
X155067000Y-101638847D01*
X155076434Y-101640723D01*
X155084432Y-101646068D01*
X155089777Y-101654066D01*
X155092400Y-101667253D01*
X155092400Y-104072747D01*
G36*
X155854400Y-104072747D02*
X155851777Y-104085934D01*
X155846432Y-104093932D01*
X155838434Y-104099277D01*
X155829000Y-104101153D01*
X155819566Y-104099277D01*
X155811568Y-104093932D01*
X155806223Y-104085934D01*
X155803600Y-104072747D01*
X155803600Y-101667253D01*
X155806223Y-101654066D01*
X155811568Y-101646068D01*
X155819566Y-101640723D01*
X155829000Y-101638847D01*
X155838434Y-101640723D01*
X155846432Y-101646068D01*
X155851777Y-101654066D01*
X155854400Y-101667253D01*
X155854400Y-104072747D01*
X155854400Y-104072747D01*
G37*
X155854400Y-104072747D02*
X155851777Y-104085934D01*
X155846432Y-104093932D01*
X155838434Y-104099277D01*
X155829000Y-104101153D01*
X155819566Y-104099277D01*
X155811568Y-104093932D01*
X155806223Y-104085934D01*
X155803600Y-104072747D01*
X155803600Y-101667253D01*
X155806223Y-101654066D01*
X155811568Y-101646068D01*
X155819566Y-101640723D01*
X155829000Y-101638847D01*
X155838434Y-101640723D01*
X155846432Y-101646068D01*
X155851777Y-101654066D01*
X155854400Y-101667253D01*
X155854400Y-104072747D01*
G36*
X156616400Y-104072747D02*
X156613777Y-104085934D01*
X156608432Y-104093932D01*
X156600434Y-104099277D01*
X156591000Y-104101153D01*
X156581566Y-104099277D01*
X156573568Y-104093932D01*
X156568223Y-104085934D01*
X156565600Y-104072747D01*
X156565600Y-101667253D01*
X156568223Y-101654066D01*
X156573568Y-101646068D01*
X156581566Y-101640723D01*
X156591000Y-101638847D01*
X156600434Y-101640723D01*
X156608432Y-101646068D01*
X156613777Y-101654066D01*
X156616400Y-101667253D01*
X156616400Y-104072747D01*
X156616400Y-104072747D01*
G37*
X156616400Y-104072747D02*
X156613777Y-104085934D01*
X156608432Y-104093932D01*
X156600434Y-104099277D01*
X156591000Y-104101153D01*
X156581566Y-104099277D01*
X156573568Y-104093932D01*
X156568223Y-104085934D01*
X156565600Y-104072747D01*
X156565600Y-101667253D01*
X156568223Y-101654066D01*
X156573568Y-101646068D01*
X156581566Y-101640723D01*
X156591000Y-101638847D01*
X156600434Y-101640723D01*
X156608432Y-101646068D01*
X156613777Y-101654066D01*
X156616400Y-101667253D01*
X156616400Y-104072747D01*
G36*
X157378400Y-104072747D02*
X157375777Y-104085934D01*
X157370432Y-104093932D01*
X157362434Y-104099277D01*
X157353000Y-104101153D01*
X157343566Y-104099277D01*
X157335568Y-104093932D01*
X157330223Y-104085934D01*
X157327600Y-104072747D01*
X157327600Y-101667253D01*
X157330223Y-101654066D01*
X157335568Y-101646068D01*
X157343566Y-101640723D01*
X157353000Y-101638847D01*
X157362434Y-101640723D01*
X157370432Y-101646068D01*
X157375777Y-101654066D01*
X157378400Y-101667253D01*
X157378400Y-104072747D01*
X157378400Y-104072747D01*
G37*
X157378400Y-104072747D02*
X157375777Y-104085934D01*
X157370432Y-104093932D01*
X157362434Y-104099277D01*
X157353000Y-104101153D01*
X157343566Y-104099277D01*
X157335568Y-104093932D01*
X157330223Y-104085934D01*
X157327600Y-104072747D01*
X157327600Y-101667253D01*
X157330223Y-101654066D01*
X157335568Y-101646068D01*
X157343566Y-101640723D01*
X157353000Y-101638847D01*
X157362434Y-101640723D01*
X157370432Y-101646068D01*
X157375777Y-101654066D01*
X157378400Y-101667253D01*
X157378400Y-104072747D01*
G36*
X158140400Y-104072747D02*
X158137777Y-104085934D01*
X158132432Y-104093932D01*
X158124434Y-104099277D01*
X158115000Y-104101153D01*
X158105566Y-104099277D01*
X158097568Y-104093932D01*
X158092223Y-104085934D01*
X158089600Y-104072747D01*
X158089600Y-101667253D01*
X158092223Y-101654066D01*
X158097568Y-101646068D01*
X158105566Y-101640723D01*
X158115000Y-101638847D01*
X158124434Y-101640723D01*
X158132432Y-101646068D01*
X158137777Y-101654066D01*
X158140400Y-101667253D01*
X158140400Y-104072747D01*
X158140400Y-104072747D01*
G37*
X158140400Y-104072747D02*
X158137777Y-104085934D01*
X158132432Y-104093932D01*
X158124434Y-104099277D01*
X158115000Y-104101153D01*
X158105566Y-104099277D01*
X158097568Y-104093932D01*
X158092223Y-104085934D01*
X158089600Y-104072747D01*
X158089600Y-101667253D01*
X158092223Y-101654066D01*
X158097568Y-101646068D01*
X158105566Y-101640723D01*
X158115000Y-101638847D01*
X158124434Y-101640723D01*
X158132432Y-101646068D01*
X158137777Y-101654066D01*
X158140400Y-101667253D01*
X158140400Y-104072747D01*
G36*
X158902400Y-104072747D02*
X158899777Y-104085934D01*
X158894432Y-104093932D01*
X158886434Y-104099277D01*
X158877000Y-104101153D01*
X158867566Y-104099277D01*
X158859568Y-104093932D01*
X158854223Y-104085934D01*
X158851600Y-104072747D01*
X158851600Y-101667253D01*
X158854223Y-101654066D01*
X158859568Y-101646068D01*
X158867566Y-101640723D01*
X158877000Y-101638847D01*
X158886434Y-101640723D01*
X158894432Y-101646068D01*
X158899777Y-101654066D01*
X158902400Y-101667253D01*
X158902400Y-104072747D01*
X158902400Y-104072747D01*
G37*
X158902400Y-104072747D02*
X158899777Y-104085934D01*
X158894432Y-104093932D01*
X158886434Y-104099277D01*
X158877000Y-104101153D01*
X158867566Y-104099277D01*
X158859568Y-104093932D01*
X158854223Y-104085934D01*
X158851600Y-104072747D01*
X158851600Y-101667253D01*
X158854223Y-101654066D01*
X158859568Y-101646068D01*
X158867566Y-101640723D01*
X158877000Y-101638847D01*
X158886434Y-101640723D01*
X158894432Y-101646068D01*
X158899777Y-101654066D01*
X158902400Y-101667253D01*
X158902400Y-104072747D01*
G36*
X159664400Y-104072747D02*
X159661777Y-104085934D01*
X159656432Y-104093932D01*
X159648434Y-104099277D01*
X159639000Y-104101153D01*
X159629566Y-104099277D01*
X159621568Y-104093932D01*
X159616223Y-104085934D01*
X159613600Y-104072747D01*
X159613600Y-101667253D01*
X159616223Y-101654066D01*
X159621568Y-101646068D01*
X159629566Y-101640723D01*
X159639000Y-101638847D01*
X159648434Y-101640723D01*
X159656432Y-101646068D01*
X159661777Y-101654066D01*
X159664400Y-101667253D01*
X159664400Y-104072747D01*
X159664400Y-104072747D01*
G37*
X159664400Y-104072747D02*
X159661777Y-104085934D01*
X159656432Y-104093932D01*
X159648434Y-104099277D01*
X159639000Y-104101153D01*
X159629566Y-104099277D01*
X159621568Y-104093932D01*
X159616223Y-104085934D01*
X159613600Y-104072747D01*
X159613600Y-101667253D01*
X159616223Y-101654066D01*
X159621568Y-101646068D01*
X159629566Y-101640723D01*
X159639000Y-101638847D01*
X159648434Y-101640723D01*
X159656432Y-101646068D01*
X159661777Y-101654066D01*
X159664400Y-101667253D01*
X159664400Y-104072747D01*
G36*
X160426400Y-104072747D02*
X160423777Y-104085934D01*
X160418432Y-104093932D01*
X160410434Y-104099277D01*
X160401000Y-104101153D01*
X160391566Y-104099277D01*
X160383568Y-104093932D01*
X160378223Y-104085934D01*
X160375600Y-104072747D01*
X160375600Y-101667253D01*
X160378223Y-101654066D01*
X160383568Y-101646068D01*
X160391566Y-101640723D01*
X160401000Y-101638847D01*
X160410434Y-101640723D01*
X160418432Y-101646068D01*
X160423777Y-101654066D01*
X160426400Y-101667253D01*
X160426400Y-104072747D01*
X160426400Y-104072747D01*
G37*
X160426400Y-104072747D02*
X160423777Y-104085934D01*
X160418432Y-104093932D01*
X160410434Y-104099277D01*
X160401000Y-104101153D01*
X160391566Y-104099277D01*
X160383568Y-104093932D01*
X160378223Y-104085934D01*
X160375600Y-104072747D01*
X160375600Y-101667253D01*
X160378223Y-101654066D01*
X160383568Y-101646068D01*
X160391566Y-101640723D01*
X160401000Y-101638847D01*
X160410434Y-101640723D01*
X160418432Y-101646068D01*
X160423777Y-101654066D01*
X160426400Y-101667253D01*
X160426400Y-104072747D01*
G36*
X161188400Y-104072747D02*
X161185777Y-104085934D01*
X161180432Y-104093932D01*
X161172434Y-104099277D01*
X161163000Y-104101153D01*
X161153566Y-104099277D01*
X161145568Y-104093932D01*
X161140223Y-104085934D01*
X161137600Y-104072747D01*
X161137600Y-101667253D01*
X161140223Y-101654066D01*
X161145568Y-101646068D01*
X161153566Y-101640723D01*
X161163000Y-101638847D01*
X161172434Y-101640723D01*
X161180432Y-101646068D01*
X161185777Y-101654066D01*
X161188400Y-101667253D01*
X161188400Y-104072747D01*
X161188400Y-104072747D01*
G37*
X161188400Y-104072747D02*
X161185777Y-104085934D01*
X161180432Y-104093932D01*
X161172434Y-104099277D01*
X161163000Y-104101153D01*
X161153566Y-104099277D01*
X161145568Y-104093932D01*
X161140223Y-104085934D01*
X161137600Y-104072747D01*
X161137600Y-101667253D01*
X161140223Y-101654066D01*
X161145568Y-101646068D01*
X161153566Y-101640723D01*
X161163000Y-101638847D01*
X161172434Y-101640723D01*
X161180432Y-101646068D01*
X161185777Y-101654066D01*
X161188400Y-101667253D01*
X161188400Y-104072747D01*
G36*
X161950400Y-104072747D02*
X161947777Y-104085934D01*
X161942432Y-104093932D01*
X161934434Y-104099277D01*
X161925000Y-104101153D01*
X161915566Y-104099277D01*
X161907568Y-104093932D01*
X161902223Y-104085934D01*
X161899600Y-104072747D01*
X161899600Y-101667253D01*
X161902223Y-101654066D01*
X161907568Y-101646068D01*
X161915566Y-101640723D01*
X161925000Y-101638847D01*
X161934434Y-101640723D01*
X161942432Y-101646068D01*
X161947777Y-101654066D01*
X161950400Y-101667253D01*
X161950400Y-104072747D01*
X161950400Y-104072747D01*
G37*
X161950400Y-104072747D02*
X161947777Y-104085934D01*
X161942432Y-104093932D01*
X161934434Y-104099277D01*
X161925000Y-104101153D01*
X161915566Y-104099277D01*
X161907568Y-104093932D01*
X161902223Y-104085934D01*
X161899600Y-104072747D01*
X161899600Y-101667253D01*
X161902223Y-101654066D01*
X161907568Y-101646068D01*
X161915566Y-101640723D01*
X161925000Y-101638847D01*
X161934434Y-101640723D01*
X161942432Y-101646068D01*
X161947777Y-101654066D01*
X161950400Y-101667253D01*
X161950400Y-104072747D01*
G36*
X162712400Y-104072747D02*
X162709777Y-104085934D01*
X162704432Y-104093932D01*
X162696434Y-104099277D01*
X162687000Y-104101153D01*
X162677566Y-104099277D01*
X162669568Y-104093932D01*
X162664223Y-104085934D01*
X162661600Y-104072747D01*
X162661600Y-101667253D01*
X162664223Y-101654066D01*
X162669568Y-101646068D01*
X162677566Y-101640723D01*
X162687000Y-101638847D01*
X162696434Y-101640723D01*
X162704432Y-101646068D01*
X162709777Y-101654066D01*
X162712400Y-101667253D01*
X162712400Y-104072747D01*
X162712400Y-104072747D01*
G37*
X162712400Y-104072747D02*
X162709777Y-104085934D01*
X162704432Y-104093932D01*
X162696434Y-104099277D01*
X162687000Y-104101153D01*
X162677566Y-104099277D01*
X162669568Y-104093932D01*
X162664223Y-104085934D01*
X162661600Y-104072747D01*
X162661600Y-101667253D01*
X162664223Y-101654066D01*
X162669568Y-101646068D01*
X162677566Y-101640723D01*
X162687000Y-101638847D01*
X162696434Y-101640723D01*
X162704432Y-101646068D01*
X162709777Y-101654066D01*
X162712400Y-101667253D01*
X162712400Y-104072747D01*
G36*
X163474400Y-104072747D02*
X163471777Y-104085934D01*
X163466432Y-104093932D01*
X163458434Y-104099277D01*
X163449000Y-104101153D01*
X163439566Y-104099277D01*
X163431568Y-104093932D01*
X163426223Y-104085934D01*
X163423600Y-104072747D01*
X163423600Y-101667253D01*
X163426223Y-101654066D01*
X163431568Y-101646068D01*
X163439566Y-101640723D01*
X163449000Y-101638847D01*
X163458434Y-101640723D01*
X163466432Y-101646068D01*
X163471777Y-101654066D01*
X163474400Y-101667253D01*
X163474400Y-104072747D01*
X163474400Y-104072747D01*
G37*
X163474400Y-104072747D02*
X163471777Y-104085934D01*
X163466432Y-104093932D01*
X163458434Y-104099277D01*
X163449000Y-104101153D01*
X163439566Y-104099277D01*
X163431568Y-104093932D01*
X163426223Y-104085934D01*
X163423600Y-104072747D01*
X163423600Y-101667253D01*
X163426223Y-101654066D01*
X163431568Y-101646068D01*
X163439566Y-101640723D01*
X163449000Y-101638847D01*
X163458434Y-101640723D01*
X163466432Y-101646068D01*
X163471777Y-101654066D01*
X163474400Y-101667253D01*
X163474400Y-104072747D01*
G36*
X164236400Y-104072747D02*
X164233777Y-104085934D01*
X164228432Y-104093932D01*
X164220434Y-104099277D01*
X164211000Y-104101153D01*
X164201566Y-104099277D01*
X164193568Y-104093932D01*
X164188223Y-104085934D01*
X164185600Y-104072747D01*
X164185600Y-101667253D01*
X164188223Y-101654066D01*
X164193568Y-101646068D01*
X164201566Y-101640723D01*
X164211000Y-101638847D01*
X164220434Y-101640723D01*
X164228432Y-101646068D01*
X164233777Y-101654066D01*
X164236400Y-101667253D01*
X164236400Y-104072747D01*
X164236400Y-104072747D01*
G37*
X164236400Y-104072747D02*
X164233777Y-104085934D01*
X164228432Y-104093932D01*
X164220434Y-104099277D01*
X164211000Y-104101153D01*
X164201566Y-104099277D01*
X164193568Y-104093932D01*
X164188223Y-104085934D01*
X164185600Y-104072747D01*
X164185600Y-101667253D01*
X164188223Y-101654066D01*
X164193568Y-101646068D01*
X164201566Y-101640723D01*
X164211000Y-101638847D01*
X164220434Y-101640723D01*
X164228432Y-101646068D01*
X164233777Y-101654066D01*
X164236400Y-101667253D01*
X164236400Y-104072747D01*
G36*
X164998400Y-104072747D02*
X164995777Y-104085934D01*
X164990432Y-104093932D01*
X164982434Y-104099277D01*
X164973000Y-104101153D01*
X164963566Y-104099277D01*
X164955568Y-104093932D01*
X164950223Y-104085934D01*
X164947600Y-104072747D01*
X164947600Y-101667253D01*
X164950223Y-101654066D01*
X164955568Y-101646068D01*
X164963566Y-101640723D01*
X164973000Y-101638847D01*
X164982434Y-101640723D01*
X164990432Y-101646068D01*
X164995777Y-101654066D01*
X164998400Y-101667253D01*
X164998400Y-104072747D01*
X164998400Y-104072747D01*
G37*
X164998400Y-104072747D02*
X164995777Y-104085934D01*
X164990432Y-104093932D01*
X164982434Y-104099277D01*
X164973000Y-104101153D01*
X164963566Y-104099277D01*
X164955568Y-104093932D01*
X164950223Y-104085934D01*
X164947600Y-104072747D01*
X164947600Y-101667253D01*
X164950223Y-101654066D01*
X164955568Y-101646068D01*
X164963566Y-101640723D01*
X164973000Y-101638847D01*
X164982434Y-101640723D01*
X164990432Y-101646068D01*
X164995777Y-101654066D01*
X164998400Y-101667253D01*
X164998400Y-104072747D01*
G36*
X165760400Y-104072747D02*
X165757777Y-104085934D01*
X165752432Y-104093932D01*
X165744434Y-104099277D01*
X165735000Y-104101153D01*
X165725566Y-104099277D01*
X165717568Y-104093932D01*
X165712223Y-104085934D01*
X165709600Y-104072747D01*
X165709600Y-101667253D01*
X165712223Y-101654066D01*
X165717568Y-101646068D01*
X165725566Y-101640723D01*
X165735000Y-101638847D01*
X165744434Y-101640723D01*
X165752432Y-101646068D01*
X165757777Y-101654066D01*
X165760400Y-101667253D01*
X165760400Y-104072747D01*
X165760400Y-104072747D01*
G37*
X165760400Y-104072747D02*
X165757777Y-104085934D01*
X165752432Y-104093932D01*
X165744434Y-104099277D01*
X165735000Y-104101153D01*
X165725566Y-104099277D01*
X165717568Y-104093932D01*
X165712223Y-104085934D01*
X165709600Y-104072747D01*
X165709600Y-101667253D01*
X165712223Y-101654066D01*
X165717568Y-101646068D01*
X165725566Y-101640723D01*
X165735000Y-101638847D01*
X165744434Y-101640723D01*
X165752432Y-101646068D01*
X165757777Y-101654066D01*
X165760400Y-101667253D01*
X165760400Y-104072747D01*
G36*
X166522400Y-104072747D02*
X166519777Y-104085934D01*
X166514432Y-104093932D01*
X166506434Y-104099277D01*
X166497000Y-104101153D01*
X166487566Y-104099277D01*
X166479568Y-104093932D01*
X166474223Y-104085934D01*
X166471600Y-104072747D01*
X166471600Y-101667253D01*
X166474223Y-101654066D01*
X166479568Y-101646068D01*
X166487566Y-101640723D01*
X166497000Y-101638847D01*
X166506434Y-101640723D01*
X166514432Y-101646068D01*
X166519777Y-101654066D01*
X166522400Y-101667253D01*
X166522400Y-104072747D01*
X166522400Y-104072747D01*
G37*
X166522400Y-104072747D02*
X166519777Y-104085934D01*
X166514432Y-104093932D01*
X166506434Y-104099277D01*
X166497000Y-104101153D01*
X166487566Y-104099277D01*
X166479568Y-104093932D01*
X166474223Y-104085934D01*
X166471600Y-104072747D01*
X166471600Y-101667253D01*
X166474223Y-101654066D01*
X166479568Y-101646068D01*
X166487566Y-101640723D01*
X166497000Y-101638847D01*
X166506434Y-101640723D01*
X166514432Y-101646068D01*
X166519777Y-101654066D01*
X166522400Y-101667253D01*
X166522400Y-104072747D01*
G36*
X167284400Y-104072747D02*
X167281777Y-104085934D01*
X167276432Y-104093932D01*
X167268434Y-104099277D01*
X167259000Y-104101153D01*
X167249566Y-104099277D01*
X167241568Y-104093932D01*
X167236223Y-104085934D01*
X167233600Y-104072747D01*
X167233600Y-101667253D01*
X167236223Y-101654066D01*
X167241568Y-101646068D01*
X167249566Y-101640723D01*
X167259000Y-101638847D01*
X167268434Y-101640723D01*
X167276432Y-101646068D01*
X167281777Y-101654066D01*
X167284400Y-101667253D01*
X167284400Y-104072747D01*
X167284400Y-104072747D01*
G37*
X167284400Y-104072747D02*
X167281777Y-104085934D01*
X167276432Y-104093932D01*
X167268434Y-104099277D01*
X167259000Y-104101153D01*
X167249566Y-104099277D01*
X167241568Y-104093932D01*
X167236223Y-104085934D01*
X167233600Y-104072747D01*
X167233600Y-101667253D01*
X167236223Y-101654066D01*
X167241568Y-101646068D01*
X167249566Y-101640723D01*
X167259000Y-101638847D01*
X167268434Y-101640723D01*
X167276432Y-101646068D01*
X167281777Y-101654066D01*
X167284400Y-101667253D01*
X167284400Y-104072747D01*
G36*
X168046400Y-104072747D02*
X168043777Y-104085934D01*
X168038432Y-104093932D01*
X168030434Y-104099277D01*
X168021000Y-104101153D01*
X168011566Y-104099277D01*
X168003568Y-104093932D01*
X167998223Y-104085934D01*
X167995600Y-104072747D01*
X167995600Y-101667253D01*
X167998223Y-101654066D01*
X168003568Y-101646068D01*
X168011566Y-101640723D01*
X168021000Y-101638847D01*
X168030434Y-101640723D01*
X168038432Y-101646068D01*
X168043777Y-101654066D01*
X168046400Y-101667253D01*
X168046400Y-104072747D01*
X168046400Y-104072747D01*
G37*
X168046400Y-104072747D02*
X168043777Y-104085934D01*
X168038432Y-104093932D01*
X168030434Y-104099277D01*
X168021000Y-104101153D01*
X168011566Y-104099277D01*
X168003568Y-104093932D01*
X167998223Y-104085934D01*
X167995600Y-104072747D01*
X167995600Y-101667253D01*
X167998223Y-101654066D01*
X168003568Y-101646068D01*
X168011566Y-101640723D01*
X168021000Y-101638847D01*
X168030434Y-101640723D01*
X168038432Y-101646068D01*
X168043777Y-101654066D01*
X168046400Y-101667253D01*
X168046400Y-104072747D01*
G36*
X168808400Y-104072747D02*
X168805777Y-104085934D01*
X168800432Y-104093932D01*
X168792434Y-104099277D01*
X168783000Y-104101153D01*
X168773566Y-104099277D01*
X168765568Y-104093932D01*
X168760223Y-104085934D01*
X168757600Y-104072747D01*
X168757600Y-101667253D01*
X168760223Y-101654066D01*
X168765568Y-101646068D01*
X168773566Y-101640723D01*
X168783000Y-101638847D01*
X168792434Y-101640723D01*
X168800432Y-101646068D01*
X168805777Y-101654066D01*
X168808400Y-101667253D01*
X168808400Y-104072747D01*
X168808400Y-104072747D01*
G37*
X168808400Y-104072747D02*
X168805777Y-104085934D01*
X168800432Y-104093932D01*
X168792434Y-104099277D01*
X168783000Y-104101153D01*
X168773566Y-104099277D01*
X168765568Y-104093932D01*
X168760223Y-104085934D01*
X168757600Y-104072747D01*
X168757600Y-101667253D01*
X168760223Y-101654066D01*
X168765568Y-101646068D01*
X168773566Y-101640723D01*
X168783000Y-101638847D01*
X168792434Y-101640723D01*
X168800432Y-101646068D01*
X168805777Y-101654066D01*
X168808400Y-101667253D01*
X168808400Y-104072747D01*
G36*
X169570400Y-104072747D02*
X169567777Y-104085934D01*
X169562432Y-104093932D01*
X169554434Y-104099277D01*
X169545000Y-104101153D01*
X169535566Y-104099277D01*
X169527568Y-104093932D01*
X169522223Y-104085934D01*
X169519600Y-104072747D01*
X169519600Y-101667253D01*
X169522223Y-101654066D01*
X169527568Y-101646068D01*
X169535566Y-101640723D01*
X169545000Y-101638847D01*
X169554434Y-101640723D01*
X169562432Y-101646068D01*
X169567777Y-101654066D01*
X169570400Y-101667253D01*
X169570400Y-104072747D01*
X169570400Y-104072747D01*
G37*
X169570400Y-104072747D02*
X169567777Y-104085934D01*
X169562432Y-104093932D01*
X169554434Y-104099277D01*
X169545000Y-104101153D01*
X169535566Y-104099277D01*
X169527568Y-104093932D01*
X169522223Y-104085934D01*
X169519600Y-104072747D01*
X169519600Y-101667253D01*
X169522223Y-101654066D01*
X169527568Y-101646068D01*
X169535566Y-101640723D01*
X169545000Y-101638847D01*
X169554434Y-101640723D01*
X169562432Y-101646068D01*
X169567777Y-101654066D01*
X169570400Y-101667253D01*
X169570400Y-104072747D01*
G36*
X170332400Y-104072747D02*
X170329777Y-104085934D01*
X170324432Y-104093932D01*
X170316434Y-104099277D01*
X170307000Y-104101153D01*
X170297566Y-104099277D01*
X170289568Y-104093932D01*
X170284223Y-104085934D01*
X170281600Y-104072747D01*
X170281600Y-101667253D01*
X170284223Y-101654066D01*
X170289568Y-101646068D01*
X170297566Y-101640723D01*
X170307000Y-101638847D01*
X170316434Y-101640723D01*
X170324432Y-101646068D01*
X170329777Y-101654066D01*
X170332400Y-101667253D01*
X170332400Y-104072747D01*
X170332400Y-104072747D01*
G37*
X170332400Y-104072747D02*
X170329777Y-104085934D01*
X170324432Y-104093932D01*
X170316434Y-104099277D01*
X170307000Y-104101153D01*
X170297566Y-104099277D01*
X170289568Y-104093932D01*
X170284223Y-104085934D01*
X170281600Y-104072747D01*
X170281600Y-101667253D01*
X170284223Y-101654066D01*
X170289568Y-101646068D01*
X170297566Y-101640723D01*
X170307000Y-101638847D01*
X170316434Y-101640723D01*
X170324432Y-101646068D01*
X170329777Y-101654066D01*
X170332400Y-101667253D01*
X170332400Y-104072747D01*
G36*
X171094400Y-104072747D02*
X171091777Y-104085934D01*
X171086432Y-104093932D01*
X171078434Y-104099277D01*
X171069000Y-104101153D01*
X171059566Y-104099277D01*
X171051568Y-104093932D01*
X171046223Y-104085934D01*
X171043600Y-104072747D01*
X171043600Y-101667253D01*
X171046223Y-101654066D01*
X171051568Y-101646068D01*
X171059566Y-101640723D01*
X171069000Y-101638847D01*
X171078434Y-101640723D01*
X171086432Y-101646068D01*
X171091777Y-101654066D01*
X171094400Y-101667253D01*
X171094400Y-104072747D01*
X171094400Y-104072747D01*
G37*
X171094400Y-104072747D02*
X171091777Y-104085934D01*
X171086432Y-104093932D01*
X171078434Y-104099277D01*
X171069000Y-104101153D01*
X171059566Y-104099277D01*
X171051568Y-104093932D01*
X171046223Y-104085934D01*
X171043600Y-104072747D01*
X171043600Y-101667253D01*
X171046223Y-101654066D01*
X171051568Y-101646068D01*
X171059566Y-101640723D01*
X171069000Y-101638847D01*
X171078434Y-101640723D01*
X171086432Y-101646068D01*
X171091777Y-101654066D01*
X171094400Y-101667253D01*
X171094400Y-104072747D01*
G36*
X171856400Y-104072747D02*
X171853777Y-104085934D01*
X171848432Y-104093932D01*
X171840434Y-104099277D01*
X171831000Y-104101153D01*
X171821566Y-104099277D01*
X171813568Y-104093932D01*
X171808223Y-104085934D01*
X171805600Y-104072747D01*
X171805600Y-101667253D01*
X171808223Y-101654066D01*
X171813568Y-101646068D01*
X171821566Y-101640723D01*
X171831000Y-101638847D01*
X171840434Y-101640723D01*
X171848432Y-101646068D01*
X171853777Y-101654066D01*
X171856400Y-101667253D01*
X171856400Y-104072747D01*
X171856400Y-104072747D01*
G37*
X171856400Y-104072747D02*
X171853777Y-104085934D01*
X171848432Y-104093932D01*
X171840434Y-104099277D01*
X171831000Y-104101153D01*
X171821566Y-104099277D01*
X171813568Y-104093932D01*
X171808223Y-104085934D01*
X171805600Y-104072747D01*
X171805600Y-101667253D01*
X171808223Y-101654066D01*
X171813568Y-101646068D01*
X171821566Y-101640723D01*
X171831000Y-101638847D01*
X171840434Y-101640723D01*
X171848432Y-101646068D01*
X171853777Y-101654066D01*
X171856400Y-101667253D01*
X171856400Y-104072747D01*
G36*
X172618400Y-104072747D02*
X172615777Y-104085934D01*
X172610432Y-104093932D01*
X172602434Y-104099277D01*
X172593000Y-104101153D01*
X172583566Y-104099277D01*
X172575568Y-104093932D01*
X172570223Y-104085934D01*
X172567600Y-104072747D01*
X172567600Y-101667253D01*
X172570223Y-101654066D01*
X172575568Y-101646068D01*
X172583566Y-101640723D01*
X172593000Y-101638847D01*
X172602434Y-101640723D01*
X172610432Y-101646068D01*
X172615777Y-101654066D01*
X172618400Y-101667253D01*
X172618400Y-104072747D01*
X172618400Y-104072747D01*
G37*
X172618400Y-104072747D02*
X172615777Y-104085934D01*
X172610432Y-104093932D01*
X172602434Y-104099277D01*
X172593000Y-104101153D01*
X172583566Y-104099277D01*
X172575568Y-104093932D01*
X172570223Y-104085934D01*
X172567600Y-104072747D01*
X172567600Y-101667253D01*
X172570223Y-101654066D01*
X172575568Y-101646068D01*
X172583566Y-101640723D01*
X172593000Y-101638847D01*
X172602434Y-101640723D01*
X172610432Y-101646068D01*
X172615777Y-101654066D01*
X172618400Y-101667253D01*
X172618400Y-104072747D01*
G36*
X173380400Y-104072747D02*
X173377777Y-104085934D01*
X173372432Y-104093932D01*
X173364434Y-104099277D01*
X173355000Y-104101153D01*
X173345566Y-104099277D01*
X173337568Y-104093932D01*
X173332223Y-104085934D01*
X173329600Y-104072747D01*
X173329600Y-101667253D01*
X173332223Y-101654066D01*
X173337568Y-101646068D01*
X173345566Y-101640723D01*
X173355000Y-101638847D01*
X173364434Y-101640723D01*
X173372432Y-101646068D01*
X173377777Y-101654066D01*
X173380400Y-101667253D01*
X173380400Y-104072747D01*
X173380400Y-104072747D01*
G37*
X173380400Y-104072747D02*
X173377777Y-104085934D01*
X173372432Y-104093932D01*
X173364434Y-104099277D01*
X173355000Y-104101153D01*
X173345566Y-104099277D01*
X173337568Y-104093932D01*
X173332223Y-104085934D01*
X173329600Y-104072747D01*
X173329600Y-101667253D01*
X173332223Y-101654066D01*
X173337568Y-101646068D01*
X173345566Y-101640723D01*
X173355000Y-101638847D01*
X173364434Y-101640723D01*
X173372432Y-101646068D01*
X173377777Y-101654066D01*
X173380400Y-101667253D01*
X173380400Y-104072747D01*
G36*
X174142400Y-104072747D02*
X174139777Y-104085934D01*
X174134432Y-104093932D01*
X174126434Y-104099277D01*
X174117000Y-104101153D01*
X174107566Y-104099277D01*
X174099568Y-104093932D01*
X174094223Y-104085934D01*
X174091600Y-104072747D01*
X174091600Y-101667253D01*
X174094223Y-101654066D01*
X174099568Y-101646068D01*
X174107566Y-101640723D01*
X174117000Y-101638847D01*
X174126434Y-101640723D01*
X174134432Y-101646068D01*
X174139777Y-101654066D01*
X174142400Y-101667253D01*
X174142400Y-104072747D01*
X174142400Y-104072747D01*
G37*
X174142400Y-104072747D02*
X174139777Y-104085934D01*
X174134432Y-104093932D01*
X174126434Y-104099277D01*
X174117000Y-104101153D01*
X174107566Y-104099277D01*
X174099568Y-104093932D01*
X174094223Y-104085934D01*
X174091600Y-104072747D01*
X174091600Y-101667253D01*
X174094223Y-101654066D01*
X174099568Y-101646068D01*
X174107566Y-101640723D01*
X174117000Y-101638847D01*
X174126434Y-101640723D01*
X174134432Y-101646068D01*
X174139777Y-101654066D01*
X174142400Y-101667253D01*
X174142400Y-104072747D01*
G36*
X174904400Y-104072747D02*
X174901777Y-104085934D01*
X174896432Y-104093932D01*
X174888434Y-104099277D01*
X174879000Y-104101153D01*
X174869566Y-104099277D01*
X174861568Y-104093932D01*
X174856223Y-104085934D01*
X174853600Y-104072747D01*
X174853600Y-101667253D01*
X174856223Y-101654066D01*
X174861568Y-101646068D01*
X174869566Y-101640723D01*
X174879000Y-101638847D01*
X174888434Y-101640723D01*
X174896432Y-101646068D01*
X174901777Y-101654066D01*
X174904400Y-101667253D01*
X174904400Y-104072747D01*
X174904400Y-104072747D01*
G37*
X174904400Y-104072747D02*
X174901777Y-104085934D01*
X174896432Y-104093932D01*
X174888434Y-104099277D01*
X174879000Y-104101153D01*
X174869566Y-104099277D01*
X174861568Y-104093932D01*
X174856223Y-104085934D01*
X174853600Y-104072747D01*
X174853600Y-101667253D01*
X174856223Y-101654066D01*
X174861568Y-101646068D01*
X174869566Y-101640723D01*
X174879000Y-101638847D01*
X174888434Y-101640723D01*
X174896432Y-101646068D01*
X174901777Y-101654066D01*
X174904400Y-101667253D01*
X174904400Y-104072747D01*
G36*
X175666400Y-104072747D02*
X175663777Y-104085934D01*
X175658432Y-104093932D01*
X175650434Y-104099277D01*
X175641000Y-104101153D01*
X175631566Y-104099277D01*
X175623568Y-104093932D01*
X175618223Y-104085934D01*
X175615600Y-104072747D01*
X175615600Y-101667253D01*
X175618223Y-101654066D01*
X175623568Y-101646068D01*
X175631566Y-101640723D01*
X175641000Y-101638847D01*
X175650434Y-101640723D01*
X175658432Y-101646068D01*
X175663777Y-101654066D01*
X175666400Y-101667253D01*
X175666400Y-104072747D01*
X175666400Y-104072747D01*
G37*
X175666400Y-104072747D02*
X175663777Y-104085934D01*
X175658432Y-104093932D01*
X175650434Y-104099277D01*
X175641000Y-104101153D01*
X175631566Y-104099277D01*
X175623568Y-104093932D01*
X175618223Y-104085934D01*
X175615600Y-104072747D01*
X175615600Y-101667253D01*
X175618223Y-101654066D01*
X175623568Y-101646068D01*
X175631566Y-101640723D01*
X175641000Y-101638847D01*
X175650434Y-101640723D01*
X175658432Y-101646068D01*
X175663777Y-101654066D01*
X175666400Y-101667253D01*
X175666400Y-104072747D01*
G36*
X176428400Y-104072747D02*
X176425777Y-104085934D01*
X176420432Y-104093932D01*
X176412434Y-104099277D01*
X176403000Y-104101153D01*
X176393566Y-104099277D01*
X176385568Y-104093932D01*
X176380223Y-104085934D01*
X176377600Y-104072747D01*
X176377600Y-101667253D01*
X176380223Y-101654066D01*
X176385568Y-101646068D01*
X176393566Y-101640723D01*
X176403000Y-101638847D01*
X176412434Y-101640723D01*
X176420432Y-101646068D01*
X176425777Y-101654066D01*
X176428400Y-101667253D01*
X176428400Y-104072747D01*
X176428400Y-104072747D01*
G37*
X176428400Y-104072747D02*
X176425777Y-104085934D01*
X176420432Y-104093932D01*
X176412434Y-104099277D01*
X176403000Y-104101153D01*
X176393566Y-104099277D01*
X176385568Y-104093932D01*
X176380223Y-104085934D01*
X176377600Y-104072747D01*
X176377600Y-101667253D01*
X176380223Y-101654066D01*
X176385568Y-101646068D01*
X176393566Y-101640723D01*
X176403000Y-101638847D01*
X176412434Y-101640723D01*
X176420432Y-101646068D01*
X176425777Y-101654066D01*
X176428400Y-101667253D01*
X176428400Y-104072747D01*
G36*
X177190400Y-104072747D02*
X177187777Y-104085934D01*
X177182432Y-104093932D01*
X177174434Y-104099277D01*
X177165000Y-104101153D01*
X177155566Y-104099277D01*
X177147568Y-104093932D01*
X177142223Y-104085934D01*
X177139600Y-104072747D01*
X177139600Y-101667253D01*
X177142223Y-101654066D01*
X177147568Y-101646068D01*
X177155566Y-101640723D01*
X177165000Y-101638847D01*
X177174434Y-101640723D01*
X177182432Y-101646068D01*
X177187777Y-101654066D01*
X177190400Y-101667253D01*
X177190400Y-104072747D01*
X177190400Y-104072747D01*
G37*
X177190400Y-104072747D02*
X177187777Y-104085934D01*
X177182432Y-104093932D01*
X177174434Y-104099277D01*
X177165000Y-104101153D01*
X177155566Y-104099277D01*
X177147568Y-104093932D01*
X177142223Y-104085934D01*
X177139600Y-104072747D01*
X177139600Y-101667253D01*
X177142223Y-101654066D01*
X177147568Y-101646068D01*
X177155566Y-101640723D01*
X177165000Y-101638847D01*
X177174434Y-101640723D01*
X177182432Y-101646068D01*
X177187777Y-101654066D01*
X177190400Y-101667253D01*
X177190400Y-104072747D01*
G36*
X177952400Y-104072747D02*
X177949777Y-104085934D01*
X177944432Y-104093932D01*
X177936434Y-104099277D01*
X177927000Y-104101153D01*
X177917566Y-104099277D01*
X177909568Y-104093932D01*
X177904223Y-104085934D01*
X177901600Y-104072747D01*
X177901600Y-101667253D01*
X177904223Y-101654066D01*
X177909568Y-101646068D01*
X177917566Y-101640723D01*
X177927000Y-101638847D01*
X177936434Y-101640723D01*
X177944432Y-101646068D01*
X177949777Y-101654066D01*
X177952400Y-101667253D01*
X177952400Y-104072747D01*
X177952400Y-104072747D01*
G37*
X177952400Y-104072747D02*
X177949777Y-104085934D01*
X177944432Y-104093932D01*
X177936434Y-104099277D01*
X177927000Y-104101153D01*
X177917566Y-104099277D01*
X177909568Y-104093932D01*
X177904223Y-104085934D01*
X177901600Y-104072747D01*
X177901600Y-101667253D01*
X177904223Y-101654066D01*
X177909568Y-101646068D01*
X177917566Y-101640723D01*
X177927000Y-101638847D01*
X177936434Y-101640723D01*
X177944432Y-101646068D01*
X177949777Y-101654066D01*
X177952400Y-101667253D01*
X177952400Y-104072747D01*
G36*
X178714400Y-104072747D02*
X178711777Y-104085934D01*
X178706432Y-104093932D01*
X178698434Y-104099277D01*
X178689000Y-104101153D01*
X178679566Y-104099277D01*
X178671568Y-104093932D01*
X178666223Y-104085934D01*
X178663600Y-104072747D01*
X178663600Y-101667253D01*
X178666223Y-101654066D01*
X178671568Y-101646068D01*
X178679566Y-101640723D01*
X178689000Y-101638847D01*
X178698434Y-101640723D01*
X178706432Y-101646068D01*
X178711777Y-101654066D01*
X178714400Y-101667253D01*
X178714400Y-104072747D01*
X178714400Y-104072747D01*
G37*
X178714400Y-104072747D02*
X178711777Y-104085934D01*
X178706432Y-104093932D01*
X178698434Y-104099277D01*
X178689000Y-104101153D01*
X178679566Y-104099277D01*
X178671568Y-104093932D01*
X178666223Y-104085934D01*
X178663600Y-104072747D01*
X178663600Y-101667253D01*
X178666223Y-101654066D01*
X178671568Y-101646068D01*
X178679566Y-101640723D01*
X178689000Y-101638847D01*
X178698434Y-101640723D01*
X178706432Y-101646068D01*
X178711777Y-101654066D01*
X178714400Y-101667253D01*
X178714400Y-104072747D01*
G36*
X179476400Y-104072747D02*
X179473777Y-104085934D01*
X179468432Y-104093932D01*
X179460434Y-104099277D01*
X179451000Y-104101153D01*
X179441566Y-104099277D01*
X179433568Y-104093932D01*
X179428223Y-104085934D01*
X179425600Y-104072747D01*
X179425600Y-101667253D01*
X179428223Y-101654066D01*
X179433568Y-101646068D01*
X179441566Y-101640723D01*
X179451000Y-101638847D01*
X179460434Y-101640723D01*
X179468432Y-101646068D01*
X179473777Y-101654066D01*
X179476400Y-101667253D01*
X179476400Y-104072747D01*
X179476400Y-104072747D01*
G37*
X179476400Y-104072747D02*
X179473777Y-104085934D01*
X179468432Y-104093932D01*
X179460434Y-104099277D01*
X179451000Y-104101153D01*
X179441566Y-104099277D01*
X179433568Y-104093932D01*
X179428223Y-104085934D01*
X179425600Y-104072747D01*
X179425600Y-101667253D01*
X179428223Y-101654066D01*
X179433568Y-101646068D01*
X179441566Y-101640723D01*
X179451000Y-101638847D01*
X179460434Y-101640723D01*
X179468432Y-101646068D01*
X179473777Y-101654066D01*
X179476400Y-101667253D01*
X179476400Y-104072747D01*
G36*
X180238400Y-104072747D02*
X180235777Y-104085934D01*
X180230432Y-104093932D01*
X180222434Y-104099277D01*
X180213000Y-104101153D01*
X180203566Y-104099277D01*
X180195568Y-104093932D01*
X180190223Y-104085934D01*
X180187600Y-104072747D01*
X180187600Y-101667253D01*
X180190223Y-101654066D01*
X180195568Y-101646068D01*
X180203566Y-101640723D01*
X180213000Y-101638847D01*
X180222434Y-101640723D01*
X180230432Y-101646068D01*
X180235777Y-101654066D01*
X180238400Y-101667253D01*
X180238400Y-104072747D01*
X180238400Y-104072747D01*
G37*
X180238400Y-104072747D02*
X180235777Y-104085934D01*
X180230432Y-104093932D01*
X180222434Y-104099277D01*
X180213000Y-104101153D01*
X180203566Y-104099277D01*
X180195568Y-104093932D01*
X180190223Y-104085934D01*
X180187600Y-104072747D01*
X180187600Y-101667253D01*
X180190223Y-101654066D01*
X180195568Y-101646068D01*
X180203566Y-101640723D01*
X180213000Y-101638847D01*
X180222434Y-101640723D01*
X180230432Y-101646068D01*
X180235777Y-101654066D01*
X180238400Y-101667253D01*
X180238400Y-104072747D01*
G36*
X181000400Y-104072747D02*
X180997777Y-104085934D01*
X180992432Y-104093932D01*
X180984434Y-104099277D01*
X180975000Y-104101153D01*
X180965566Y-104099277D01*
X180957568Y-104093932D01*
X180952223Y-104085934D01*
X180949600Y-104072747D01*
X180949600Y-101667253D01*
X180952223Y-101654066D01*
X180957568Y-101646068D01*
X180965566Y-101640723D01*
X180975000Y-101638847D01*
X180984434Y-101640723D01*
X180992432Y-101646068D01*
X180997777Y-101654066D01*
X181000400Y-101667253D01*
X181000400Y-104072747D01*
X181000400Y-104072747D01*
G37*
X181000400Y-104072747D02*
X180997777Y-104085934D01*
X180992432Y-104093932D01*
X180984434Y-104099277D01*
X180975000Y-104101153D01*
X180965566Y-104099277D01*
X180957568Y-104093932D01*
X180952223Y-104085934D01*
X180949600Y-104072747D01*
X180949600Y-101667253D01*
X180952223Y-101654066D01*
X180957568Y-101646068D01*
X180965566Y-101640723D01*
X180975000Y-101638847D01*
X180984434Y-101640723D01*
X180992432Y-101646068D01*
X180997777Y-101654066D01*
X181000400Y-101667253D01*
X181000400Y-104072747D01*
G36*
X181762400Y-104072747D02*
X181759777Y-104085934D01*
X181754432Y-104093932D01*
X181746434Y-104099277D01*
X181737000Y-104101153D01*
X181727566Y-104099277D01*
X181719568Y-104093932D01*
X181714223Y-104085934D01*
X181711600Y-104072747D01*
X181711600Y-101667253D01*
X181714223Y-101654066D01*
X181719568Y-101646068D01*
X181727566Y-101640723D01*
X181737000Y-101638847D01*
X181746434Y-101640723D01*
X181754432Y-101646068D01*
X181759777Y-101654066D01*
X181762400Y-101667253D01*
X181762400Y-104072747D01*
X181762400Y-104072747D01*
G37*
X181762400Y-104072747D02*
X181759777Y-104085934D01*
X181754432Y-104093932D01*
X181746434Y-104099277D01*
X181737000Y-104101153D01*
X181727566Y-104099277D01*
X181719568Y-104093932D01*
X181714223Y-104085934D01*
X181711600Y-104072747D01*
X181711600Y-101667253D01*
X181714223Y-101654066D01*
X181719568Y-101646068D01*
X181727566Y-101640723D01*
X181737000Y-101638847D01*
X181746434Y-101640723D01*
X181754432Y-101646068D01*
X181759777Y-101654066D01*
X181762400Y-101667253D01*
X181762400Y-104072747D01*
G36*
X182524400Y-104072747D02*
X182521777Y-104085934D01*
X182516432Y-104093932D01*
X182508434Y-104099277D01*
X182499000Y-104101153D01*
X182489566Y-104099277D01*
X182481568Y-104093932D01*
X182476223Y-104085934D01*
X182473600Y-104072747D01*
X182473600Y-101667253D01*
X182476223Y-101654066D01*
X182481568Y-101646068D01*
X182489566Y-101640723D01*
X182499000Y-101638847D01*
X182508434Y-101640723D01*
X182516432Y-101646068D01*
X182521777Y-101654066D01*
X182524400Y-101667253D01*
X182524400Y-104072747D01*
X182524400Y-104072747D01*
G37*
X182524400Y-104072747D02*
X182521777Y-104085934D01*
X182516432Y-104093932D01*
X182508434Y-104099277D01*
X182499000Y-104101153D01*
X182489566Y-104099277D01*
X182481568Y-104093932D01*
X182476223Y-104085934D01*
X182473600Y-104072747D01*
X182473600Y-101667253D01*
X182476223Y-101654066D01*
X182481568Y-101646068D01*
X182489566Y-101640723D01*
X182499000Y-101638847D01*
X182508434Y-101640723D01*
X182516432Y-101646068D01*
X182521777Y-101654066D01*
X182524400Y-101667253D01*
X182524400Y-104072747D01*
G36*
X183286400Y-104072747D02*
X183283777Y-104085934D01*
X183278432Y-104093932D01*
X183270434Y-104099277D01*
X183261000Y-104101153D01*
X183251566Y-104099277D01*
X183243568Y-104093932D01*
X183238223Y-104085934D01*
X183235600Y-104072747D01*
X183235600Y-101667253D01*
X183238223Y-101654066D01*
X183243568Y-101646068D01*
X183251566Y-101640723D01*
X183261000Y-101638847D01*
X183270434Y-101640723D01*
X183278432Y-101646068D01*
X183283777Y-101654066D01*
X183286400Y-101667253D01*
X183286400Y-104072747D01*
X183286400Y-104072747D01*
G37*
X183286400Y-104072747D02*
X183283777Y-104085934D01*
X183278432Y-104093932D01*
X183270434Y-104099277D01*
X183261000Y-104101153D01*
X183251566Y-104099277D01*
X183243568Y-104093932D01*
X183238223Y-104085934D01*
X183235600Y-104072747D01*
X183235600Y-101667253D01*
X183238223Y-101654066D01*
X183243568Y-101646068D01*
X183251566Y-101640723D01*
X183261000Y-101638847D01*
X183270434Y-101640723D01*
X183278432Y-101646068D01*
X183283777Y-101654066D01*
X183286400Y-101667253D01*
X183286400Y-104072747D01*
G36*
X184048400Y-104072747D02*
X184045777Y-104085934D01*
X184040432Y-104093932D01*
X184032434Y-104099277D01*
X184023000Y-104101153D01*
X184013566Y-104099277D01*
X184005568Y-104093932D01*
X184000223Y-104085934D01*
X183997600Y-104072747D01*
X183997600Y-101667253D01*
X184000223Y-101654066D01*
X184005568Y-101646068D01*
X184013566Y-101640723D01*
X184023000Y-101638847D01*
X184032434Y-101640723D01*
X184040432Y-101646068D01*
X184045777Y-101654066D01*
X184048400Y-101667253D01*
X184048400Y-104072747D01*
X184048400Y-104072747D01*
G37*
X184048400Y-104072747D02*
X184045777Y-104085934D01*
X184040432Y-104093932D01*
X184032434Y-104099277D01*
X184023000Y-104101153D01*
X184013566Y-104099277D01*
X184005568Y-104093932D01*
X184000223Y-104085934D01*
X183997600Y-104072747D01*
X183997600Y-101667253D01*
X184000223Y-101654066D01*
X184005568Y-101646068D01*
X184013566Y-101640723D01*
X184023000Y-101638847D01*
X184032434Y-101640723D01*
X184040432Y-101646068D01*
X184045777Y-101654066D01*
X184048400Y-101667253D01*
X184048400Y-104072747D01*
G36*
X184810400Y-104072747D02*
X184807777Y-104085934D01*
X184802432Y-104093932D01*
X184794434Y-104099277D01*
X184785000Y-104101153D01*
X184775566Y-104099277D01*
X184767568Y-104093932D01*
X184762223Y-104085934D01*
X184759600Y-104072747D01*
X184759600Y-101667253D01*
X184762223Y-101654066D01*
X184767568Y-101646068D01*
X184775566Y-101640723D01*
X184785000Y-101638847D01*
X184794434Y-101640723D01*
X184802432Y-101646068D01*
X184807777Y-101654066D01*
X184810400Y-101667253D01*
X184810400Y-104072747D01*
X184810400Y-104072747D01*
G37*
X184810400Y-104072747D02*
X184807777Y-104085934D01*
X184802432Y-104093932D01*
X184794434Y-104099277D01*
X184785000Y-104101153D01*
X184775566Y-104099277D01*
X184767568Y-104093932D01*
X184762223Y-104085934D01*
X184759600Y-104072747D01*
X184759600Y-101667253D01*
X184762223Y-101654066D01*
X184767568Y-101646068D01*
X184775566Y-101640723D01*
X184785000Y-101638847D01*
X184794434Y-101640723D01*
X184802432Y-101646068D01*
X184807777Y-101654066D01*
X184810400Y-101667253D01*
X184810400Y-104072747D01*
G36*
X185572400Y-104072747D02*
X185569777Y-104085934D01*
X185564432Y-104093932D01*
X185556434Y-104099277D01*
X185547000Y-104101153D01*
X185537566Y-104099277D01*
X185529568Y-104093932D01*
X185524223Y-104085934D01*
X185521600Y-104072747D01*
X185521600Y-101667253D01*
X185524223Y-101654066D01*
X185529568Y-101646068D01*
X185537566Y-101640723D01*
X185547000Y-101638847D01*
X185556434Y-101640723D01*
X185564432Y-101646068D01*
X185569777Y-101654066D01*
X185572400Y-101667253D01*
X185572400Y-104072747D01*
X185572400Y-104072747D01*
G37*
X185572400Y-104072747D02*
X185569777Y-104085934D01*
X185564432Y-104093932D01*
X185556434Y-104099277D01*
X185547000Y-104101153D01*
X185537566Y-104099277D01*
X185529568Y-104093932D01*
X185524223Y-104085934D01*
X185521600Y-104072747D01*
X185521600Y-101667253D01*
X185524223Y-101654066D01*
X185529568Y-101646068D01*
X185537566Y-101640723D01*
X185547000Y-101638847D01*
X185556434Y-101640723D01*
X185564432Y-101646068D01*
X185569777Y-101654066D01*
X185572400Y-101667253D01*
X185572400Y-104072747D01*
G36*
X186334400Y-104072747D02*
X186331777Y-104085934D01*
X186326432Y-104093932D01*
X186318434Y-104099277D01*
X186309000Y-104101153D01*
X186299566Y-104099277D01*
X186291568Y-104093932D01*
X186286223Y-104085934D01*
X186283600Y-104072747D01*
X186283600Y-101667253D01*
X186286223Y-101654066D01*
X186291568Y-101646068D01*
X186299566Y-101640723D01*
X186309000Y-101638847D01*
X186318434Y-101640723D01*
X186326432Y-101646068D01*
X186331777Y-101654066D01*
X186334400Y-101667253D01*
X186334400Y-104072747D01*
X186334400Y-104072747D01*
G37*
X186334400Y-104072747D02*
X186331777Y-104085934D01*
X186326432Y-104093932D01*
X186318434Y-104099277D01*
X186309000Y-104101153D01*
X186299566Y-104099277D01*
X186291568Y-104093932D01*
X186286223Y-104085934D01*
X186283600Y-104072747D01*
X186283600Y-101667253D01*
X186286223Y-101654066D01*
X186291568Y-101646068D01*
X186299566Y-101640723D01*
X186309000Y-101638847D01*
X186318434Y-101640723D01*
X186326432Y-101646068D01*
X186331777Y-101654066D01*
X186334400Y-101667253D01*
X186334400Y-104072747D01*
G36*
X187096400Y-104072747D02*
X187093777Y-104085934D01*
X187088432Y-104093932D01*
X187080434Y-104099277D01*
X187071000Y-104101153D01*
X187061566Y-104099277D01*
X187053568Y-104093932D01*
X187048223Y-104085934D01*
X187045600Y-104072747D01*
X187045600Y-101667253D01*
X187048223Y-101654066D01*
X187053568Y-101646068D01*
X187061566Y-101640723D01*
X187071000Y-101638847D01*
X187080434Y-101640723D01*
X187088432Y-101646068D01*
X187093777Y-101654066D01*
X187096400Y-101667253D01*
X187096400Y-104072747D01*
X187096400Y-104072747D01*
G37*
X187096400Y-104072747D02*
X187093777Y-104085934D01*
X187088432Y-104093932D01*
X187080434Y-104099277D01*
X187071000Y-104101153D01*
X187061566Y-104099277D01*
X187053568Y-104093932D01*
X187048223Y-104085934D01*
X187045600Y-104072747D01*
X187045600Y-101667253D01*
X187048223Y-101654066D01*
X187053568Y-101646068D01*
X187061566Y-101640723D01*
X187071000Y-101638847D01*
X187080434Y-101640723D01*
X187088432Y-101646068D01*
X187093777Y-101654066D01*
X187096400Y-101667253D01*
X187096400Y-104072747D01*
G36*
X187858400Y-104072747D02*
X187855777Y-104085934D01*
X187850432Y-104093932D01*
X187842434Y-104099277D01*
X187833000Y-104101153D01*
X187823566Y-104099277D01*
X187815568Y-104093932D01*
X187810223Y-104085934D01*
X187807600Y-104072747D01*
X187807600Y-101667253D01*
X187810223Y-101654066D01*
X187815568Y-101646068D01*
X187823566Y-101640723D01*
X187833000Y-101638847D01*
X187842434Y-101640723D01*
X187850432Y-101646068D01*
X187855777Y-101654066D01*
X187858400Y-101667253D01*
X187858400Y-104072747D01*
X187858400Y-104072747D01*
G37*
X187858400Y-104072747D02*
X187855777Y-104085934D01*
X187850432Y-104093932D01*
X187842434Y-104099277D01*
X187833000Y-104101153D01*
X187823566Y-104099277D01*
X187815568Y-104093932D01*
X187810223Y-104085934D01*
X187807600Y-104072747D01*
X187807600Y-101667253D01*
X187810223Y-101654066D01*
X187815568Y-101646068D01*
X187823566Y-101640723D01*
X187833000Y-101638847D01*
X187842434Y-101640723D01*
X187850432Y-101646068D01*
X187855777Y-101654066D01*
X187858400Y-101667253D01*
X187858400Y-104072747D01*
G36*
X188620400Y-104072747D02*
X188617777Y-104085934D01*
X188612432Y-104093932D01*
X188604434Y-104099277D01*
X188595000Y-104101153D01*
X188585566Y-104099277D01*
X188577568Y-104093932D01*
X188572223Y-104085934D01*
X188569600Y-104072747D01*
X188569600Y-101667253D01*
X188572223Y-101654066D01*
X188577568Y-101646068D01*
X188585566Y-101640723D01*
X188595000Y-101638847D01*
X188604434Y-101640723D01*
X188612432Y-101646068D01*
X188617777Y-101654066D01*
X188620400Y-101667253D01*
X188620400Y-104072747D01*
X188620400Y-104072747D01*
G37*
X188620400Y-104072747D02*
X188617777Y-104085934D01*
X188612432Y-104093932D01*
X188604434Y-104099277D01*
X188595000Y-104101153D01*
X188585566Y-104099277D01*
X188577568Y-104093932D01*
X188572223Y-104085934D01*
X188569600Y-104072747D01*
X188569600Y-101667253D01*
X188572223Y-101654066D01*
X188577568Y-101646068D01*
X188585566Y-101640723D01*
X188595000Y-101638847D01*
X188604434Y-101640723D01*
X188612432Y-101646068D01*
X188617777Y-101654066D01*
X188620400Y-101667253D01*
X188620400Y-104072747D01*
G36*
X189382400Y-104072747D02*
X189379777Y-104085934D01*
X189374432Y-104093932D01*
X189366434Y-104099277D01*
X189357000Y-104101153D01*
X189347566Y-104099277D01*
X189339568Y-104093932D01*
X189334223Y-104085934D01*
X189331600Y-104072747D01*
X189331600Y-101667253D01*
X189334223Y-101654066D01*
X189339568Y-101646068D01*
X189347566Y-101640723D01*
X189357000Y-101638847D01*
X189366434Y-101640723D01*
X189374432Y-101646068D01*
X189379777Y-101654066D01*
X189382400Y-101667253D01*
X189382400Y-104072747D01*
X189382400Y-104072747D01*
G37*
X189382400Y-104072747D02*
X189379777Y-104085934D01*
X189374432Y-104093932D01*
X189366434Y-104099277D01*
X189357000Y-104101153D01*
X189347566Y-104099277D01*
X189339568Y-104093932D01*
X189334223Y-104085934D01*
X189331600Y-104072747D01*
X189331600Y-101667253D01*
X189334223Y-101654066D01*
X189339568Y-101646068D01*
X189347566Y-101640723D01*
X189357000Y-101638847D01*
X189366434Y-101640723D01*
X189374432Y-101646068D01*
X189379777Y-101654066D01*
X189382400Y-101667253D01*
X189382400Y-104072747D01*
G36*
X190144400Y-104072747D02*
X190141777Y-104085934D01*
X190136432Y-104093932D01*
X190128434Y-104099277D01*
X190119000Y-104101153D01*
X190109566Y-104099277D01*
X190101568Y-104093932D01*
X190096223Y-104085934D01*
X190093600Y-104072747D01*
X190093600Y-101667253D01*
X190096223Y-101654066D01*
X190101568Y-101646068D01*
X190109566Y-101640723D01*
X190119000Y-101638847D01*
X190128434Y-101640723D01*
X190136432Y-101646068D01*
X190141777Y-101654066D01*
X190144400Y-101667253D01*
X190144400Y-104072747D01*
X190144400Y-104072747D01*
G37*
X190144400Y-104072747D02*
X190141777Y-104085934D01*
X190136432Y-104093932D01*
X190128434Y-104099277D01*
X190119000Y-104101153D01*
X190109566Y-104099277D01*
X190101568Y-104093932D01*
X190096223Y-104085934D01*
X190093600Y-104072747D01*
X190093600Y-101667253D01*
X190096223Y-101654066D01*
X190101568Y-101646068D01*
X190109566Y-101640723D01*
X190119000Y-101638847D01*
X190128434Y-101640723D01*
X190136432Y-101646068D01*
X190141777Y-101654066D01*
X190144400Y-101667253D01*
X190144400Y-104072747D01*
G36*
X190906400Y-104072747D02*
X190903777Y-104085934D01*
X190898432Y-104093932D01*
X190890434Y-104099277D01*
X190881000Y-104101153D01*
X190871566Y-104099277D01*
X190863568Y-104093932D01*
X190858223Y-104085934D01*
X190855600Y-104072747D01*
X190855600Y-101667253D01*
X190858223Y-101654066D01*
X190863568Y-101646068D01*
X190871566Y-101640723D01*
X190881000Y-101638847D01*
X190890434Y-101640723D01*
X190898432Y-101646068D01*
X190903777Y-101654066D01*
X190906400Y-101667253D01*
X190906400Y-104072747D01*
X190906400Y-104072747D01*
G37*
X190906400Y-104072747D02*
X190903777Y-104085934D01*
X190898432Y-104093932D01*
X190890434Y-104099277D01*
X190881000Y-104101153D01*
X190871566Y-104099277D01*
X190863568Y-104093932D01*
X190858223Y-104085934D01*
X190855600Y-104072747D01*
X190855600Y-101667253D01*
X190858223Y-101654066D01*
X190863568Y-101646068D01*
X190871566Y-101640723D01*
X190881000Y-101638847D01*
X190890434Y-101640723D01*
X190898432Y-101646068D01*
X190903777Y-101654066D01*
X190906400Y-101667253D01*
X190906400Y-104072747D01*
G36*
X191668400Y-104072747D02*
X191665777Y-104085934D01*
X191660432Y-104093932D01*
X191652434Y-104099277D01*
X191643000Y-104101153D01*
X191633566Y-104099277D01*
X191625568Y-104093932D01*
X191620223Y-104085934D01*
X191617600Y-104072747D01*
X191617600Y-101667253D01*
X191620223Y-101654066D01*
X191625568Y-101646068D01*
X191633566Y-101640723D01*
X191643000Y-101638847D01*
X191652434Y-101640723D01*
X191660432Y-101646068D01*
X191665777Y-101654066D01*
X191668400Y-101667253D01*
X191668400Y-104072747D01*
X191668400Y-104072747D01*
G37*
X191668400Y-104072747D02*
X191665777Y-104085934D01*
X191660432Y-104093932D01*
X191652434Y-104099277D01*
X191643000Y-104101153D01*
X191633566Y-104099277D01*
X191625568Y-104093932D01*
X191620223Y-104085934D01*
X191617600Y-104072747D01*
X191617600Y-101667253D01*
X191620223Y-101654066D01*
X191625568Y-101646068D01*
X191633566Y-101640723D01*
X191643000Y-101638847D01*
X191652434Y-101640723D01*
X191660432Y-101646068D01*
X191665777Y-101654066D01*
X191668400Y-101667253D01*
X191668400Y-104072747D01*
G36*
X192430400Y-104072747D02*
X192427777Y-104085934D01*
X192422432Y-104093932D01*
X192414434Y-104099277D01*
X192405000Y-104101153D01*
X192395566Y-104099277D01*
X192387568Y-104093932D01*
X192382223Y-104085934D01*
X192379600Y-104072747D01*
X192379600Y-101667253D01*
X192382223Y-101654066D01*
X192387568Y-101646068D01*
X192395566Y-101640723D01*
X192405000Y-101638847D01*
X192414434Y-101640723D01*
X192422432Y-101646068D01*
X192427777Y-101654066D01*
X192430400Y-101667253D01*
X192430400Y-104072747D01*
X192430400Y-104072747D01*
G37*
X192430400Y-104072747D02*
X192427777Y-104085934D01*
X192422432Y-104093932D01*
X192414434Y-104099277D01*
X192405000Y-104101153D01*
X192395566Y-104099277D01*
X192387568Y-104093932D01*
X192382223Y-104085934D01*
X192379600Y-104072747D01*
X192379600Y-101667253D01*
X192382223Y-101654066D01*
X192387568Y-101646068D01*
X192395566Y-101640723D01*
X192405000Y-101638847D01*
X192414434Y-101640723D01*
X192422432Y-101646068D01*
X192427777Y-101654066D01*
X192430400Y-101667253D01*
X192430400Y-104072747D01*
G36*
X193192400Y-104072747D02*
X193189777Y-104085934D01*
X193184432Y-104093932D01*
X193176434Y-104099277D01*
X193167000Y-104101153D01*
X193157566Y-104099277D01*
X193149568Y-104093932D01*
X193144223Y-104085934D01*
X193141600Y-104072747D01*
X193141600Y-101667253D01*
X193144223Y-101654066D01*
X193149568Y-101646068D01*
X193157566Y-101640723D01*
X193167000Y-101638847D01*
X193176434Y-101640723D01*
X193184432Y-101646068D01*
X193189777Y-101654066D01*
X193192400Y-101667253D01*
X193192400Y-104072747D01*
X193192400Y-104072747D01*
G37*
X193192400Y-104072747D02*
X193189777Y-104085934D01*
X193184432Y-104093932D01*
X193176434Y-104099277D01*
X193167000Y-104101153D01*
X193157566Y-104099277D01*
X193149568Y-104093932D01*
X193144223Y-104085934D01*
X193141600Y-104072747D01*
X193141600Y-101667253D01*
X193144223Y-101654066D01*
X193149568Y-101646068D01*
X193157566Y-101640723D01*
X193167000Y-101638847D01*
X193176434Y-101640723D01*
X193184432Y-101646068D01*
X193189777Y-101654066D01*
X193192400Y-101667253D01*
X193192400Y-104072747D01*
G36*
X193954400Y-104072747D02*
X193951777Y-104085934D01*
X193946432Y-104093932D01*
X193938434Y-104099277D01*
X193929000Y-104101153D01*
X193919566Y-104099277D01*
X193911568Y-104093932D01*
X193906223Y-104085934D01*
X193903600Y-104072747D01*
X193903600Y-101667253D01*
X193906223Y-101654066D01*
X193911568Y-101646068D01*
X193919566Y-101640723D01*
X193929000Y-101638847D01*
X193938434Y-101640723D01*
X193946432Y-101646068D01*
X193951777Y-101654066D01*
X193954400Y-101667253D01*
X193954400Y-104072747D01*
X193954400Y-104072747D01*
G37*
X193954400Y-104072747D02*
X193951777Y-104085934D01*
X193946432Y-104093932D01*
X193938434Y-104099277D01*
X193929000Y-104101153D01*
X193919566Y-104099277D01*
X193911568Y-104093932D01*
X193906223Y-104085934D01*
X193903600Y-104072747D01*
X193903600Y-101667253D01*
X193906223Y-101654066D01*
X193911568Y-101646068D01*
X193919566Y-101640723D01*
X193929000Y-101638847D01*
X193938434Y-101640723D01*
X193946432Y-101646068D01*
X193951777Y-101654066D01*
X193954400Y-101667253D01*
X193954400Y-104072747D01*
G36*
X194716400Y-104072747D02*
X194713777Y-104085934D01*
X194708432Y-104093932D01*
X194700434Y-104099277D01*
X194691000Y-104101153D01*
X194681566Y-104099277D01*
X194673568Y-104093932D01*
X194668223Y-104085934D01*
X194665600Y-104072747D01*
X194665600Y-101667253D01*
X194668223Y-101654066D01*
X194673568Y-101646068D01*
X194681566Y-101640723D01*
X194691000Y-101638847D01*
X194700434Y-101640723D01*
X194708432Y-101646068D01*
X194713777Y-101654066D01*
X194716400Y-101667253D01*
X194716400Y-104072747D01*
X194716400Y-104072747D01*
G37*
X194716400Y-104072747D02*
X194713777Y-104085934D01*
X194708432Y-104093932D01*
X194700434Y-104099277D01*
X194691000Y-104101153D01*
X194681566Y-104099277D01*
X194673568Y-104093932D01*
X194668223Y-104085934D01*
X194665600Y-104072747D01*
X194665600Y-101667253D01*
X194668223Y-101654066D01*
X194673568Y-101646068D01*
X194681566Y-101640723D01*
X194691000Y-101638847D01*
X194700434Y-101640723D01*
X194708432Y-101646068D01*
X194713777Y-101654066D01*
X194716400Y-101667253D01*
X194716400Y-104072747D01*
G36*
X195478400Y-104072747D02*
X195475777Y-104085934D01*
X195470432Y-104093932D01*
X195462434Y-104099277D01*
X195453000Y-104101153D01*
X195443566Y-104099277D01*
X195435568Y-104093932D01*
X195430223Y-104085934D01*
X195427600Y-104072747D01*
X195427600Y-101667253D01*
X195430223Y-101654066D01*
X195435568Y-101646068D01*
X195443566Y-101640723D01*
X195453000Y-101638847D01*
X195462434Y-101640723D01*
X195470432Y-101646068D01*
X195475777Y-101654066D01*
X195478400Y-101667253D01*
X195478400Y-104072747D01*
X195478400Y-104072747D01*
G37*
X195478400Y-104072747D02*
X195475777Y-104085934D01*
X195470432Y-104093932D01*
X195462434Y-104099277D01*
X195453000Y-104101153D01*
X195443566Y-104099277D01*
X195435568Y-104093932D01*
X195430223Y-104085934D01*
X195427600Y-104072747D01*
X195427600Y-101667253D01*
X195430223Y-101654066D01*
X195435568Y-101646068D01*
X195443566Y-101640723D01*
X195453000Y-101638847D01*
X195462434Y-101640723D01*
X195470432Y-101646068D01*
X195475777Y-101654066D01*
X195478400Y-101667253D01*
X195478400Y-104072747D01*
G36*
X196240400Y-104072747D02*
X196237777Y-104085934D01*
X196232432Y-104093932D01*
X196224434Y-104099277D01*
X196215000Y-104101153D01*
X196205566Y-104099277D01*
X196197568Y-104093932D01*
X196192223Y-104085934D01*
X196189600Y-104072747D01*
X196189600Y-101667253D01*
X196192223Y-101654066D01*
X196197568Y-101646068D01*
X196205566Y-101640723D01*
X196215000Y-101638847D01*
X196224434Y-101640723D01*
X196232432Y-101646068D01*
X196237777Y-101654066D01*
X196240400Y-101667253D01*
X196240400Y-104072747D01*
X196240400Y-104072747D01*
G37*
X196240400Y-104072747D02*
X196237777Y-104085934D01*
X196232432Y-104093932D01*
X196224434Y-104099277D01*
X196215000Y-104101153D01*
X196205566Y-104099277D01*
X196197568Y-104093932D01*
X196192223Y-104085934D01*
X196189600Y-104072747D01*
X196189600Y-101667253D01*
X196192223Y-101654066D01*
X196197568Y-101646068D01*
X196205566Y-101640723D01*
X196215000Y-101638847D01*
X196224434Y-101640723D01*
X196232432Y-101646068D01*
X196237777Y-101654066D01*
X196240400Y-101667253D01*
X196240400Y-104072747D01*
G36*
X197002400Y-104072747D02*
X196999777Y-104085934D01*
X196994432Y-104093932D01*
X196986434Y-104099277D01*
X196977000Y-104101153D01*
X196967566Y-104099277D01*
X196959568Y-104093932D01*
X196954223Y-104085934D01*
X196951600Y-104072747D01*
X196951600Y-101667253D01*
X196954223Y-101654066D01*
X196959568Y-101646068D01*
X196967566Y-101640723D01*
X196977000Y-101638847D01*
X196986434Y-101640723D01*
X196994432Y-101646068D01*
X196999777Y-101654066D01*
X197002400Y-101667253D01*
X197002400Y-104072747D01*
X197002400Y-104072747D01*
G37*
X197002400Y-104072747D02*
X196999777Y-104085934D01*
X196994432Y-104093932D01*
X196986434Y-104099277D01*
X196977000Y-104101153D01*
X196967566Y-104099277D01*
X196959568Y-104093932D01*
X196954223Y-104085934D01*
X196951600Y-104072747D01*
X196951600Y-101667253D01*
X196954223Y-101654066D01*
X196959568Y-101646068D01*
X196967566Y-101640723D01*
X196977000Y-101638847D01*
X196986434Y-101640723D01*
X196994432Y-101646068D01*
X196999777Y-101654066D01*
X197002400Y-101667253D01*
X197002400Y-104072747D01*
G36*
X197764400Y-104072747D02*
X197761777Y-104085934D01*
X197756432Y-104093932D01*
X197748434Y-104099277D01*
X197739000Y-104101153D01*
X197729566Y-104099277D01*
X197721568Y-104093932D01*
X197716223Y-104085934D01*
X197713600Y-104072747D01*
X197713600Y-101667253D01*
X197716223Y-101654066D01*
X197721568Y-101646068D01*
X197729566Y-101640723D01*
X197739000Y-101638847D01*
X197748434Y-101640723D01*
X197756432Y-101646068D01*
X197761777Y-101654066D01*
X197764400Y-101667253D01*
X197764400Y-104072747D01*
X197764400Y-104072747D01*
G37*
X197764400Y-104072747D02*
X197761777Y-104085934D01*
X197756432Y-104093932D01*
X197748434Y-104099277D01*
X197739000Y-104101153D01*
X197729566Y-104099277D01*
X197721568Y-104093932D01*
X197716223Y-104085934D01*
X197713600Y-104072747D01*
X197713600Y-101667253D01*
X197716223Y-101654066D01*
X197721568Y-101646068D01*
X197729566Y-101640723D01*
X197739000Y-101638847D01*
X197748434Y-101640723D01*
X197756432Y-101646068D01*
X197761777Y-101654066D01*
X197764400Y-101667253D01*
X197764400Y-104072747D01*
G36*
X198526400Y-104072747D02*
X198523777Y-104085934D01*
X198518432Y-104093932D01*
X198510434Y-104099277D01*
X198501000Y-104101153D01*
X198491566Y-104099277D01*
X198483568Y-104093932D01*
X198478223Y-104085934D01*
X198475600Y-104072747D01*
X198475600Y-101667253D01*
X198478223Y-101654066D01*
X198483568Y-101646068D01*
X198491566Y-101640723D01*
X198501000Y-101638847D01*
X198510434Y-101640723D01*
X198518432Y-101646068D01*
X198523777Y-101654066D01*
X198526400Y-101667253D01*
X198526400Y-104072747D01*
X198526400Y-104072747D01*
G37*
X198526400Y-104072747D02*
X198523777Y-104085934D01*
X198518432Y-104093932D01*
X198510434Y-104099277D01*
X198501000Y-104101153D01*
X198491566Y-104099277D01*
X198483568Y-104093932D01*
X198478223Y-104085934D01*
X198475600Y-104072747D01*
X198475600Y-101667253D01*
X198478223Y-101654066D01*
X198483568Y-101646068D01*
X198491566Y-101640723D01*
X198501000Y-101638847D01*
X198510434Y-101640723D01*
X198518432Y-101646068D01*
X198523777Y-101654066D01*
X198526400Y-101667253D01*
X198526400Y-104072747D01*
G36*
X199288400Y-104072747D02*
X199285777Y-104085934D01*
X199280432Y-104093932D01*
X199272434Y-104099277D01*
X199263000Y-104101153D01*
X199253566Y-104099277D01*
X199245568Y-104093932D01*
X199240223Y-104085934D01*
X199237600Y-104072747D01*
X199237600Y-101667253D01*
X199240223Y-101654066D01*
X199245568Y-101646068D01*
X199253566Y-101640723D01*
X199263000Y-101638847D01*
X199272434Y-101640723D01*
X199280432Y-101646068D01*
X199285777Y-101654066D01*
X199288400Y-101667253D01*
X199288400Y-104072747D01*
X199288400Y-104072747D01*
G37*
X199288400Y-104072747D02*
X199285777Y-104085934D01*
X199280432Y-104093932D01*
X199272434Y-104099277D01*
X199263000Y-104101153D01*
X199253566Y-104099277D01*
X199245568Y-104093932D01*
X199240223Y-104085934D01*
X199237600Y-104072747D01*
X199237600Y-101667253D01*
X199240223Y-101654066D01*
X199245568Y-101646068D01*
X199253566Y-101640723D01*
X199263000Y-101638847D01*
X199272434Y-101640723D01*
X199280432Y-101646068D01*
X199285777Y-101654066D01*
X199288400Y-101667253D01*
X199288400Y-104072747D01*
G36*
X200050400Y-104072747D02*
X200047777Y-104085934D01*
X200042432Y-104093932D01*
X200034434Y-104099277D01*
X200025000Y-104101153D01*
X200015566Y-104099277D01*
X200007568Y-104093932D01*
X200002223Y-104085934D01*
X199999600Y-104072747D01*
X199999600Y-101667253D01*
X200002223Y-101654066D01*
X200007568Y-101646068D01*
X200015566Y-101640723D01*
X200025000Y-101638847D01*
X200034434Y-101640723D01*
X200042432Y-101646068D01*
X200047777Y-101654066D01*
X200050400Y-101667253D01*
X200050400Y-104072747D01*
X200050400Y-104072747D01*
G37*
X200050400Y-104072747D02*
X200047777Y-104085934D01*
X200042432Y-104093932D01*
X200034434Y-104099277D01*
X200025000Y-104101153D01*
X200015566Y-104099277D01*
X200007568Y-104093932D01*
X200002223Y-104085934D01*
X199999600Y-104072747D01*
X199999600Y-101667253D01*
X200002223Y-101654066D01*
X200007568Y-101646068D01*
X200015566Y-101640723D01*
X200025000Y-101638847D01*
X200034434Y-101640723D01*
X200042432Y-101646068D01*
X200047777Y-101654066D01*
X200050400Y-101667253D01*
X200050400Y-104072747D01*
G36*
X200812400Y-104072747D02*
X200809777Y-104085934D01*
X200804432Y-104093932D01*
X200796434Y-104099277D01*
X200787000Y-104101153D01*
X200777566Y-104099277D01*
X200769568Y-104093932D01*
X200764223Y-104085934D01*
X200761600Y-104072747D01*
X200761600Y-101667253D01*
X200764223Y-101654066D01*
X200769568Y-101646068D01*
X200777566Y-101640723D01*
X200787000Y-101638847D01*
X200796434Y-101640723D01*
X200804432Y-101646068D01*
X200809777Y-101654066D01*
X200812400Y-101667253D01*
X200812400Y-104072747D01*
X200812400Y-104072747D01*
G37*
X200812400Y-104072747D02*
X200809777Y-104085934D01*
X200804432Y-104093932D01*
X200796434Y-104099277D01*
X200787000Y-104101153D01*
X200777566Y-104099277D01*
X200769568Y-104093932D01*
X200764223Y-104085934D01*
X200761600Y-104072747D01*
X200761600Y-101667253D01*
X200764223Y-101654066D01*
X200769568Y-101646068D01*
X200777566Y-101640723D01*
X200787000Y-101638847D01*
X200796434Y-101640723D01*
X200804432Y-101646068D01*
X200809777Y-101654066D01*
X200812400Y-101667253D01*
X200812400Y-104072747D01*
G36*
X201574400Y-104072747D02*
X201571777Y-104085934D01*
X201566432Y-104093932D01*
X201558434Y-104099277D01*
X201549000Y-104101153D01*
X201539566Y-104099277D01*
X201531568Y-104093932D01*
X201526223Y-104085934D01*
X201523600Y-104072747D01*
X201523600Y-101667253D01*
X201526223Y-101654066D01*
X201531568Y-101646068D01*
X201539566Y-101640723D01*
X201549000Y-101638847D01*
X201558434Y-101640723D01*
X201566432Y-101646068D01*
X201571777Y-101654066D01*
X201574400Y-101667253D01*
X201574400Y-104072747D01*
X201574400Y-104072747D01*
G37*
X201574400Y-104072747D02*
X201571777Y-104085934D01*
X201566432Y-104093932D01*
X201558434Y-104099277D01*
X201549000Y-104101153D01*
X201539566Y-104099277D01*
X201531568Y-104093932D01*
X201526223Y-104085934D01*
X201523600Y-104072747D01*
X201523600Y-101667253D01*
X201526223Y-101654066D01*
X201531568Y-101646068D01*
X201539566Y-101640723D01*
X201549000Y-101638847D01*
X201558434Y-101640723D01*
X201566432Y-101646068D01*
X201571777Y-101654066D01*
X201574400Y-101667253D01*
X201574400Y-104072747D01*
G36*
X202336400Y-104072747D02*
X202333777Y-104085934D01*
X202328432Y-104093932D01*
X202320434Y-104099277D01*
X202311000Y-104101153D01*
X202301566Y-104099277D01*
X202293568Y-104093932D01*
X202288223Y-104085934D01*
X202285600Y-104072747D01*
X202285600Y-101667253D01*
X202288223Y-101654066D01*
X202293568Y-101646068D01*
X202301566Y-101640723D01*
X202311000Y-101638847D01*
X202320434Y-101640723D01*
X202328432Y-101646068D01*
X202333777Y-101654066D01*
X202336400Y-101667253D01*
X202336400Y-104072747D01*
X202336400Y-104072747D01*
G37*
X202336400Y-104072747D02*
X202333777Y-104085934D01*
X202328432Y-104093932D01*
X202320434Y-104099277D01*
X202311000Y-104101153D01*
X202301566Y-104099277D01*
X202293568Y-104093932D01*
X202288223Y-104085934D01*
X202285600Y-104072747D01*
X202285600Y-101667253D01*
X202288223Y-101654066D01*
X202293568Y-101646068D01*
X202301566Y-101640723D01*
X202311000Y-101638847D01*
X202320434Y-101640723D01*
X202328432Y-101646068D01*
X202333777Y-101654066D01*
X202336400Y-101667253D01*
X202336400Y-104072747D01*
G36*
X203098400Y-104072747D02*
X203095777Y-104085934D01*
X203090432Y-104093932D01*
X203082434Y-104099277D01*
X203073000Y-104101153D01*
X203063566Y-104099277D01*
X203055568Y-104093932D01*
X203050223Y-104085934D01*
X203047600Y-104072747D01*
X203047600Y-101667253D01*
X203050223Y-101654066D01*
X203055568Y-101646068D01*
X203063566Y-101640723D01*
X203073000Y-101638847D01*
X203082434Y-101640723D01*
X203090432Y-101646068D01*
X203095777Y-101654066D01*
X203098400Y-101667253D01*
X203098400Y-104072747D01*
X203098400Y-104072747D01*
G37*
X203098400Y-104072747D02*
X203095777Y-104085934D01*
X203090432Y-104093932D01*
X203082434Y-104099277D01*
X203073000Y-104101153D01*
X203063566Y-104099277D01*
X203055568Y-104093932D01*
X203050223Y-104085934D01*
X203047600Y-104072747D01*
X203047600Y-101667253D01*
X203050223Y-101654066D01*
X203055568Y-101646068D01*
X203063566Y-101640723D01*
X203073000Y-101638847D01*
X203082434Y-101640723D01*
X203090432Y-101646068D01*
X203095777Y-101654066D01*
X203098400Y-101667253D01*
X203098400Y-104072747D01*
G36*
X203860400Y-104072747D02*
X203857777Y-104085934D01*
X203852432Y-104093932D01*
X203844434Y-104099277D01*
X203835000Y-104101153D01*
X203825566Y-104099277D01*
X203817568Y-104093932D01*
X203812223Y-104085934D01*
X203809600Y-104072747D01*
X203809600Y-101667253D01*
X203812223Y-101654066D01*
X203817568Y-101646068D01*
X203825566Y-101640723D01*
X203835000Y-101638847D01*
X203844434Y-101640723D01*
X203852432Y-101646068D01*
X203857777Y-101654066D01*
X203860400Y-101667253D01*
X203860400Y-104072747D01*
X203860400Y-104072747D01*
G37*
X203860400Y-104072747D02*
X203857777Y-104085934D01*
X203852432Y-104093932D01*
X203844434Y-104099277D01*
X203835000Y-104101153D01*
X203825566Y-104099277D01*
X203817568Y-104093932D01*
X203812223Y-104085934D01*
X203809600Y-104072747D01*
X203809600Y-101667253D01*
X203812223Y-101654066D01*
X203817568Y-101646068D01*
X203825566Y-101640723D01*
X203835000Y-101638847D01*
X203844434Y-101640723D01*
X203852432Y-101646068D01*
X203857777Y-101654066D01*
X203860400Y-101667253D01*
X203860400Y-104072747D01*
G36*
X204622400Y-104072747D02*
X204619777Y-104085934D01*
X204614432Y-104093932D01*
X204606434Y-104099277D01*
X204597000Y-104101153D01*
X204587566Y-104099277D01*
X204579568Y-104093932D01*
X204574223Y-104085934D01*
X204571600Y-104072747D01*
X204571600Y-101667253D01*
X204574223Y-101654066D01*
X204579568Y-101646068D01*
X204587566Y-101640723D01*
X204597000Y-101638847D01*
X204606434Y-101640723D01*
X204614432Y-101646068D01*
X204619777Y-101654066D01*
X204622400Y-101667253D01*
X204622400Y-104072747D01*
X204622400Y-104072747D01*
G37*
X204622400Y-104072747D02*
X204619777Y-104085934D01*
X204614432Y-104093932D01*
X204606434Y-104099277D01*
X204597000Y-104101153D01*
X204587566Y-104099277D01*
X204579568Y-104093932D01*
X204574223Y-104085934D01*
X204571600Y-104072747D01*
X204571600Y-101667253D01*
X204574223Y-101654066D01*
X204579568Y-101646068D01*
X204587566Y-101640723D01*
X204597000Y-101638847D01*
X204606434Y-101640723D01*
X204614432Y-101646068D01*
X204619777Y-101654066D01*
X204622400Y-101667253D01*
X204622400Y-104072747D01*
G36*
X205384400Y-104072747D02*
X205381777Y-104085934D01*
X205376432Y-104093932D01*
X205368434Y-104099277D01*
X205359000Y-104101153D01*
X205349566Y-104099277D01*
X205341568Y-104093932D01*
X205336223Y-104085934D01*
X205333600Y-104072747D01*
X205333600Y-101667253D01*
X205336223Y-101654066D01*
X205341568Y-101646068D01*
X205349566Y-101640723D01*
X205359000Y-101638847D01*
X205368434Y-101640723D01*
X205376432Y-101646068D01*
X205381777Y-101654066D01*
X205384400Y-101667253D01*
X205384400Y-104072747D01*
X205384400Y-104072747D01*
G37*
X205384400Y-104072747D02*
X205381777Y-104085934D01*
X205376432Y-104093932D01*
X205368434Y-104099277D01*
X205359000Y-104101153D01*
X205349566Y-104099277D01*
X205341568Y-104093932D01*
X205336223Y-104085934D01*
X205333600Y-104072747D01*
X205333600Y-101667253D01*
X205336223Y-101654066D01*
X205341568Y-101646068D01*
X205349566Y-101640723D01*
X205359000Y-101638847D01*
X205368434Y-101640723D01*
X205376432Y-101646068D01*
X205381777Y-101654066D01*
X205384400Y-101667253D01*
X205384400Y-104072747D01*
G36*
X206146400Y-104072747D02*
X206143777Y-104085934D01*
X206138432Y-104093932D01*
X206130434Y-104099277D01*
X206121000Y-104101153D01*
X206111566Y-104099277D01*
X206103568Y-104093932D01*
X206098223Y-104085934D01*
X206095600Y-104072747D01*
X206095600Y-101667253D01*
X206098223Y-101654066D01*
X206103568Y-101646068D01*
X206111566Y-101640723D01*
X206121000Y-101638847D01*
X206130434Y-101640723D01*
X206138432Y-101646068D01*
X206143777Y-101654066D01*
X206146400Y-101667253D01*
X206146400Y-104072747D01*
X206146400Y-104072747D01*
G37*
X206146400Y-104072747D02*
X206143777Y-104085934D01*
X206138432Y-104093932D01*
X206130434Y-104099277D01*
X206121000Y-104101153D01*
X206111566Y-104099277D01*
X206103568Y-104093932D01*
X206098223Y-104085934D01*
X206095600Y-104072747D01*
X206095600Y-101667253D01*
X206098223Y-101654066D01*
X206103568Y-101646068D01*
X206111566Y-101640723D01*
X206121000Y-101638847D01*
X206130434Y-101640723D01*
X206138432Y-101646068D01*
X206143777Y-101654066D01*
X206146400Y-101667253D01*
X206146400Y-104072747D01*
G36*
X206908400Y-104072747D02*
X206905777Y-104085934D01*
X206900432Y-104093932D01*
X206892434Y-104099277D01*
X206883000Y-104101153D01*
X206873566Y-104099277D01*
X206865568Y-104093932D01*
X206860223Y-104085934D01*
X206857600Y-104072747D01*
X206857600Y-101667253D01*
X206860223Y-101654066D01*
X206865568Y-101646068D01*
X206873566Y-101640723D01*
X206883000Y-101638847D01*
X206892434Y-101640723D01*
X206900432Y-101646068D01*
X206905777Y-101654066D01*
X206908400Y-101667253D01*
X206908400Y-104072747D01*
X206908400Y-104072747D01*
G37*
X206908400Y-104072747D02*
X206905777Y-104085934D01*
X206900432Y-104093932D01*
X206892434Y-104099277D01*
X206883000Y-104101153D01*
X206873566Y-104099277D01*
X206865568Y-104093932D01*
X206860223Y-104085934D01*
X206857600Y-104072747D01*
X206857600Y-101667253D01*
X206860223Y-101654066D01*
X206865568Y-101646068D01*
X206873566Y-101640723D01*
X206883000Y-101638847D01*
X206892434Y-101640723D01*
X206900432Y-101646068D01*
X206905777Y-101654066D01*
X206908400Y-101667253D01*
X206908400Y-104072747D01*
G36*
X207670400Y-104072747D02*
X207667777Y-104085934D01*
X207662432Y-104093932D01*
X207654434Y-104099277D01*
X207645000Y-104101153D01*
X207635566Y-104099277D01*
X207627568Y-104093932D01*
X207622223Y-104085934D01*
X207619600Y-104072747D01*
X207619600Y-101667253D01*
X207622223Y-101654066D01*
X207627568Y-101646068D01*
X207635566Y-101640723D01*
X207645000Y-101638847D01*
X207654434Y-101640723D01*
X207662432Y-101646068D01*
X207667777Y-101654066D01*
X207670400Y-101667253D01*
X207670400Y-104072747D01*
X207670400Y-104072747D01*
G37*
X207670400Y-104072747D02*
X207667777Y-104085934D01*
X207662432Y-104093932D01*
X207654434Y-104099277D01*
X207645000Y-104101153D01*
X207635566Y-104099277D01*
X207627568Y-104093932D01*
X207622223Y-104085934D01*
X207619600Y-104072747D01*
X207619600Y-101667253D01*
X207622223Y-101654066D01*
X207627568Y-101646068D01*
X207635566Y-101640723D01*
X207645000Y-101638847D01*
X207654434Y-101640723D01*
X207662432Y-101646068D01*
X207667777Y-101654066D01*
X207670400Y-101667253D01*
X207670400Y-104072747D01*
G36*
X208432400Y-104072747D02*
X208429777Y-104085934D01*
X208424432Y-104093932D01*
X208416434Y-104099277D01*
X208407000Y-104101153D01*
X208397566Y-104099277D01*
X208389568Y-104093932D01*
X208384223Y-104085934D01*
X208381600Y-104072747D01*
X208381600Y-101667253D01*
X208384223Y-101654066D01*
X208389568Y-101646068D01*
X208397566Y-101640723D01*
X208407000Y-101638847D01*
X208416434Y-101640723D01*
X208424432Y-101646068D01*
X208429777Y-101654066D01*
X208432400Y-101667253D01*
X208432400Y-104072747D01*
X208432400Y-104072747D01*
G37*
X208432400Y-104072747D02*
X208429777Y-104085934D01*
X208424432Y-104093932D01*
X208416434Y-104099277D01*
X208407000Y-104101153D01*
X208397566Y-104099277D01*
X208389568Y-104093932D01*
X208384223Y-104085934D01*
X208381600Y-104072747D01*
X208381600Y-101667253D01*
X208384223Y-101654066D01*
X208389568Y-101646068D01*
X208397566Y-101640723D01*
X208407000Y-101638847D01*
X208416434Y-101640723D01*
X208424432Y-101646068D01*
X208429777Y-101654066D01*
X208432400Y-101667253D01*
X208432400Y-104072747D01*
G36*
X209194400Y-104072747D02*
X209191777Y-104085934D01*
X209186432Y-104093932D01*
X209178434Y-104099277D01*
X209169000Y-104101153D01*
X209159566Y-104099277D01*
X209151568Y-104093932D01*
X209146223Y-104085934D01*
X209143600Y-104072747D01*
X209143600Y-101667253D01*
X209146223Y-101654066D01*
X209151568Y-101646068D01*
X209159566Y-101640723D01*
X209169000Y-101638847D01*
X209178434Y-101640723D01*
X209186432Y-101646068D01*
X209191777Y-101654066D01*
X209194400Y-101667253D01*
X209194400Y-104072747D01*
X209194400Y-104072747D01*
G37*
X209194400Y-104072747D02*
X209191777Y-104085934D01*
X209186432Y-104093932D01*
X209178434Y-104099277D01*
X209169000Y-104101153D01*
X209159566Y-104099277D01*
X209151568Y-104093932D01*
X209146223Y-104085934D01*
X209143600Y-104072747D01*
X209143600Y-101667253D01*
X209146223Y-101654066D01*
X209151568Y-101646068D01*
X209159566Y-101640723D01*
X209169000Y-101638847D01*
X209178434Y-101640723D01*
X209186432Y-101646068D01*
X209191777Y-101654066D01*
X209194400Y-101667253D01*
X209194400Y-104072747D01*
G36*
X209956400Y-104072747D02*
X209953777Y-104085934D01*
X209948432Y-104093932D01*
X209940434Y-104099277D01*
X209931000Y-104101153D01*
X209921566Y-104099277D01*
X209913568Y-104093932D01*
X209908223Y-104085934D01*
X209905600Y-104072747D01*
X209905600Y-101667253D01*
X209908223Y-101654066D01*
X209913568Y-101646068D01*
X209921566Y-101640723D01*
X209931000Y-101638847D01*
X209940434Y-101640723D01*
X209948432Y-101646068D01*
X209953777Y-101654066D01*
X209956400Y-101667253D01*
X209956400Y-104072747D01*
X209956400Y-104072747D01*
G37*
X209956400Y-104072747D02*
X209953777Y-104085934D01*
X209948432Y-104093932D01*
X209940434Y-104099277D01*
X209931000Y-104101153D01*
X209921566Y-104099277D01*
X209913568Y-104093932D01*
X209908223Y-104085934D01*
X209905600Y-104072747D01*
X209905600Y-101667253D01*
X209908223Y-101654066D01*
X209913568Y-101646068D01*
X209921566Y-101640723D01*
X209931000Y-101638847D01*
X209940434Y-101640723D01*
X209948432Y-101646068D01*
X209953777Y-101654066D01*
X209956400Y-101667253D01*
X209956400Y-104072747D01*
G36*
X210718400Y-104072747D02*
X210715777Y-104085934D01*
X210710432Y-104093932D01*
X210702434Y-104099277D01*
X210693000Y-104101153D01*
X210683566Y-104099277D01*
X210675568Y-104093932D01*
X210670223Y-104085934D01*
X210667600Y-104072747D01*
X210667600Y-101667253D01*
X210670223Y-101654066D01*
X210675568Y-101646068D01*
X210683566Y-101640723D01*
X210693000Y-101638847D01*
X210702434Y-101640723D01*
X210710432Y-101646068D01*
X210715777Y-101654066D01*
X210718400Y-101667253D01*
X210718400Y-104072747D01*
X210718400Y-104072747D01*
G37*
X210718400Y-104072747D02*
X210715777Y-104085934D01*
X210710432Y-104093932D01*
X210702434Y-104099277D01*
X210693000Y-104101153D01*
X210683566Y-104099277D01*
X210675568Y-104093932D01*
X210670223Y-104085934D01*
X210667600Y-104072747D01*
X210667600Y-101667253D01*
X210670223Y-101654066D01*
X210675568Y-101646068D01*
X210683566Y-101640723D01*
X210693000Y-101638847D01*
X210702434Y-101640723D01*
X210710432Y-101646068D01*
X210715777Y-101654066D01*
X210718400Y-101667253D01*
X210718400Y-104072747D01*
G36*
X212242400Y-101307900D02*
X212191600Y-101307900D01*
X212191600Y-101004953D01*
X211781494Y-100799900D01*
X211566218Y-100799900D01*
X211480400Y-100885718D01*
X211480400Y-101307900D01*
X211429600Y-101307900D01*
X211429600Y-100749100D01*
X211763506Y-100749100D01*
X212242400Y-100988547D01*
X212242400Y-101307900D01*
X212242400Y-101307900D01*
G37*
X212242400Y-101307900D02*
X212191600Y-101307900D01*
X212191600Y-101004953D01*
X211781494Y-100799900D01*
X211566218Y-100799900D01*
X211480400Y-100885718D01*
X211480400Y-101307900D01*
X211429600Y-101307900D01*
X211429600Y-100749100D01*
X211763506Y-100749100D01*
X212242400Y-100988547D01*
X212242400Y-101307900D01*
G36*
X211480400Y-104072747D02*
X211477777Y-104085934D01*
X211472432Y-104093932D01*
X211464434Y-104099277D01*
X211455000Y-104101153D01*
X211445566Y-104099277D01*
X211437568Y-104093932D01*
X211432223Y-104085934D01*
X211429600Y-104072747D01*
X211429600Y-101667253D01*
X211432223Y-101654066D01*
X211437568Y-101646068D01*
X211445566Y-101640723D01*
X211455000Y-101638847D01*
X211464434Y-101640723D01*
X211472432Y-101646068D01*
X211477777Y-101654066D01*
X211480400Y-101667253D01*
X211480400Y-104072747D01*
X211480400Y-104072747D01*
G37*
X211480400Y-104072747D02*
X211477777Y-104085934D01*
X211472432Y-104093932D01*
X211464434Y-104099277D01*
X211455000Y-104101153D01*
X211445566Y-104099277D01*
X211437568Y-104093932D01*
X211432223Y-104085934D01*
X211429600Y-104072747D01*
X211429600Y-101667253D01*
X211432223Y-101654066D01*
X211437568Y-101646068D01*
X211445566Y-101640723D01*
X211455000Y-101638847D01*
X211464434Y-101640723D01*
X211472432Y-101646068D01*
X211477777Y-101654066D01*
X211480400Y-101667253D01*
X211480400Y-104072747D01*
G36*
X212242400Y-104072747D02*
X212239777Y-104085934D01*
X212234432Y-104093932D01*
X212226434Y-104099277D01*
X212217000Y-104101153D01*
X212207566Y-104099277D01*
X212199568Y-104093932D01*
X212194223Y-104085934D01*
X212191600Y-104072747D01*
X212191600Y-101667253D01*
X212194223Y-101654066D01*
X212199568Y-101646068D01*
X212207566Y-101640723D01*
X212217000Y-101638847D01*
X212226434Y-101640723D01*
X212234432Y-101646068D01*
X212239777Y-101654066D01*
X212242400Y-101667253D01*
X212242400Y-104072747D01*
X212242400Y-104072747D01*
G37*
X212242400Y-104072747D02*
X212239777Y-104085934D01*
X212234432Y-104093932D01*
X212226434Y-104099277D01*
X212217000Y-104101153D01*
X212207566Y-104099277D01*
X212199568Y-104093932D01*
X212194223Y-104085934D01*
X212191600Y-104072747D01*
X212191600Y-101667253D01*
X212194223Y-101654066D01*
X212199568Y-101646068D01*
X212207566Y-101640723D01*
X212217000Y-101638847D01*
X212226434Y-101640723D01*
X212234432Y-101646068D01*
X212239777Y-101654066D01*
X212242400Y-101667253D01*
X212242400Y-104072747D01*
G36*
X213766400Y-102006400D02*
X213715600Y-102006400D01*
X213715600Y-101774718D01*
X213439282Y-101498400D01*
X213090218Y-101498400D01*
X213004400Y-101584218D01*
X213004400Y-102006400D01*
X212953600Y-102006400D01*
X212953600Y-101447600D01*
X213407718Y-101447600D01*
X213766400Y-101806282D01*
X213766400Y-102006400D01*
X213766400Y-102006400D01*
G37*
X213766400Y-102006400D02*
X213715600Y-102006400D01*
X213715600Y-101774718D01*
X213439282Y-101498400D01*
X213090218Y-101498400D01*
X213004400Y-101584218D01*
X213004400Y-102006400D01*
X212953600Y-102006400D01*
X212953600Y-101447600D01*
X213407718Y-101447600D01*
X213766400Y-101806282D01*
X213766400Y-102006400D01*
G36*
X215290400Y-103022400D02*
X215239600Y-103022400D01*
X215239600Y-102790718D01*
X214963282Y-102514400D01*
X214614218Y-102514400D01*
X214528400Y-102600218D01*
X214528400Y-103022400D01*
X214477600Y-103022400D01*
X214477600Y-102463600D01*
X214931718Y-102463600D01*
X215290400Y-102822282D01*
X215290400Y-103022400D01*
X215290400Y-103022400D01*
G37*
X215290400Y-103022400D02*
X215239600Y-103022400D01*
X215239600Y-102790718D01*
X214963282Y-102514400D01*
X214614218Y-102514400D01*
X214528400Y-102600218D01*
X214528400Y-103022400D01*
X214477600Y-103022400D01*
X214477600Y-102463600D01*
X214931718Y-102463600D01*
X215290400Y-102822282D01*
X215290400Y-103022400D01*
G36*
X216814400Y-104292400D02*
X216763600Y-104292400D01*
X216763600Y-104060718D01*
X216487282Y-103784400D01*
X216138218Y-103784400D01*
X216052400Y-103870218D01*
X216052400Y-104228900D01*
X216001600Y-104228900D01*
X216001600Y-103733600D01*
X216455718Y-103733600D01*
X216814400Y-104092282D01*
X216814400Y-104292400D01*
X216814400Y-104292400D01*
G37*
X216814400Y-104292400D02*
X216763600Y-104292400D01*
X216763600Y-104060718D01*
X216487282Y-103784400D01*
X216138218Y-103784400D01*
X216052400Y-103870218D01*
X216052400Y-104228900D01*
X216001600Y-104228900D01*
X216001600Y-103733600D01*
X216455718Y-103733600D01*
X216814400Y-104092282D01*
X216814400Y-104292400D01*
G36*
X216814400Y-105371900D02*
X216763600Y-105371900D01*
X216763600Y-104622600D01*
X216814400Y-104622600D01*
X216814400Y-105371900D01*
X216814400Y-105371900D01*
G37*
X216814400Y-105371900D02*
X216763600Y-105371900D01*
X216763600Y-104622600D01*
X216814400Y-104622600D01*
X216814400Y-105371900D01*
G36*
X215290400Y-104101900D02*
X215239600Y-104101900D01*
X215239600Y-103352600D01*
X215290400Y-103352600D01*
X215290400Y-104101900D01*
X215290400Y-104101900D01*
G37*
X215290400Y-104101900D02*
X215239600Y-104101900D01*
X215239600Y-103352600D01*
X215290400Y-103352600D01*
X215290400Y-104101900D01*
G36*
X214528400Y-104101900D02*
X214477600Y-104101900D01*
X214477600Y-103352600D01*
X214528400Y-103352600D01*
X214528400Y-104101900D01*
X214528400Y-104101900D01*
G37*
X214528400Y-104101900D02*
X214477600Y-104101900D01*
X214477600Y-103352600D01*
X214528400Y-103352600D01*
X214528400Y-104101900D01*
G36*
X213766400Y-104101900D02*
X213715600Y-104101900D01*
X213715600Y-102336600D01*
X213766400Y-102336600D01*
X213766400Y-104101900D01*
X213766400Y-104101900D01*
G37*
X213766400Y-104101900D02*
X213715600Y-104101900D01*
X213715600Y-102336600D01*
X213766400Y-102336600D01*
X213766400Y-104101900D01*
G36*
X213004400Y-104101900D02*
X212953600Y-104101900D01*
X212953600Y-102336600D01*
X213004400Y-102336600D01*
X213004400Y-104101900D01*
X213004400Y-104101900D01*
G37*
X213004400Y-104101900D02*
X212953600Y-104101900D01*
X212953600Y-102336600D01*
X213004400Y-102336600D01*
X213004400Y-104101900D01*
G36*
X214210900Y-121339126D02*
X213519448Y-122659171D01*
X212831146Y-123347472D01*
X210876941Y-124040900D01*
X188760100Y-124040900D01*
X188760100Y-123101100D01*
X210827620Y-123101100D01*
X212365611Y-122460270D01*
X213013786Y-121812096D01*
X213263563Y-120688100D01*
X213741000Y-120688100D01*
X214210900Y-120688100D01*
X214210900Y-121339126D01*
X214210900Y-121339126D01*
G37*
X214210900Y-121339126D02*
X213519448Y-122659171D01*
X212831146Y-123347472D01*
X210876941Y-124040900D01*
X188760100Y-124040900D01*
X188760100Y-123101100D01*
X210827620Y-123101100D01*
X212365611Y-122460270D01*
X213013786Y-121812096D01*
X213263563Y-120688100D01*
X213741000Y-120688100D01*
X214210900Y-120688100D01*
X214210900Y-121339126D01*
M02*
