%FSLAX46Y46*%
G04 Gerber Fmt 4.6, Leading zero omitted, Abs format (unit mm)*
G04 Created by KiCad (PCBNEW (2014-08-29 BZR 5106)-product) date Thu 20 Nov 2014 11:46:28 AM PST*
%MOMM*%
G01*
G04 APERTURE LIST*
%ADD10C,0.100000*%
%ADD11C,0.200000*%
G04 APERTURE END LIST*
D10*
D11*
X210820000Y-99060000D02*
X214630000Y-100330000D01*
X217170000Y-107950000D02*
X218440000Y-105410000D01*
X214630000Y-110490000D02*
X217170000Y-107950000D01*
X210820000Y-111760000D02*
X214630000Y-110490000D01*
X217170000Y-102870000D02*
X218440000Y-105410000D01*
X214630000Y-100330000D02*
X217170000Y-102870000D01*
X123190000Y-99060000D02*
X210820000Y-99060000D01*
X210820000Y-111760000D02*
X123190000Y-111760000D01*
X210820000Y-114300000D02*
X153670000Y-114300000D01*
X214630000Y-115570000D02*
X210820000Y-114300000D01*
X217170000Y-118110000D02*
X214630000Y-115570000D01*
X218440000Y-120650000D02*
X217170000Y-118110000D01*
X217170000Y-123190000D02*
X218440000Y-120650000D01*
X214630000Y-125730000D02*
X217170000Y-123190000D01*
X210820000Y-127000000D02*
X214630000Y-125730000D01*
X153670000Y-127000000D02*
X210820000Y-127000000D01*
X120650000Y-102870000D02*
X120650000Y-101600000D01*
X118110000Y-101600000D02*
X118110000Y-102870000D01*
X120650000Y-107950000D02*
X120650000Y-109220000D01*
X118110000Y-118110000D02*
X118110000Y-107950000D01*
X118110000Y-124460000D02*
X118110000Y-123190000D01*
X120650000Y-123190000D02*
X120650000Y-124460000D01*
X120650000Y-116840000D02*
X120650000Y-118110000D01*
X120650000Y-107950000D02*
G75*
G03X118110000Y-107950000I-1270000J0D01*
G74*
G01*
X118110000Y-102870000D02*
G75*
G03X120650000Y-102870000I1270000J0D01*
G74*
G01*
X118110000Y-118110000D02*
G75*
G03X120650000Y-118110000I1270000J0D01*
G74*
G01*
X120650000Y-123190000D02*
G75*
G03X118110000Y-123190000I-1270000J0D01*
G74*
G01*
X120650000Y-124460000D02*
G75*
G03X123190000Y-127000000I2540000J0D01*
G74*
G01*
X123190000Y-114300000D02*
G75*
G03X120650000Y-116840000I0J-2540000D01*
G74*
G01*
X120650000Y-109220000D02*
G75*
G03X123190000Y-111760000I2540000J0D01*
G74*
G01*
X123190000Y-99060000D02*
G75*
G03X120650000Y-101600000I0J-2540000D01*
G74*
G01*
X123190000Y-127000000D02*
X153670000Y-127000000D01*
X123190000Y-114300000D02*
X153670000Y-114300000D01*
X118110000Y-101600000D02*
G75*
G03X115570000Y-99060000I-2540000J0D01*
G74*
G01*
X115570000Y-127000000D02*
G75*
G03X118110000Y-124460000I0J2540000D01*
G74*
G01*
X115570000Y-99060000D02*
X101600000Y-99060000D01*
X101600000Y-127000000D02*
X115570000Y-127000000D01*
X101600000Y-99060000D02*
X101600000Y-127000000D01*
M02*
