M48
;DRILL file {kicad (2014-08-29 BZR 5106)-product} date Thu 20 Nov 2014 11:46:31 AM PST
;FORMAT={-:-/ absolute / inch / decimal}
FMAT,2
INCH,TZ
T1C0.020
T2C0.035
T3C0.040
%
G90
G05
M72
T1
X4.195Y-4.76
X4.2Y-4.565
X4.235Y-4.045
X4.245Y-4.22
X4.29Y-4.895
X4.295Y-4.495
X4.3Y-4.1
X4.3Y-4.43
X4.31Y-4.64
X4.34Y-4.
X4.35Y-4.51
X4.35Y-4.69
X4.375Y-4.385
X4.385Y-4.16
X4.5Y-4.5
X4.56Y-4.265
X4.575Y-4.43
X4.665Y-4.115
X4.665Y-4.15
X4.665Y-4.185
X4.665Y-4.715
X4.665Y-4.75
X4.665Y-4.785
X4.735Y-4.115
X4.735Y-4.15
X4.735Y-4.185
X4.735Y-4.715
X4.735Y-4.75
X4.735Y-4.785
X4.81Y-4.15
X4.81Y-4.75
X5.1Y-3.95
X5.1Y-4.35
X5.1Y-4.55
X5.1Y-4.95
X5.225Y-4.1175
X5.23Y-4.7175
X5.2539Y-4.05
X5.255Y-4.65
X5.34Y-4.15
X5.34Y-4.75
X5.35Y-3.95
X5.35Y-4.1
X5.35Y-4.2
X5.35Y-4.35
X5.35Y-4.55
X5.35Y-4.675
X5.35Y-4.85
X5.35Y-4.95
X5.6Y-4.55
X5.6Y-4.95
X5.61Y-3.94
X5.61Y-4.36
X5.85Y-3.94
X5.85Y-4.36
X5.85Y-4.55
X5.85Y-4.95
X6.09Y-3.94
X6.09Y-4.36
X6.1Y-4.55
X6.1Y-4.95
X6.33Y-3.94
X6.33Y-4.36
X6.35Y-4.55
X6.35Y-4.95
X6.57Y-3.94
X6.57Y-4.36
X6.81Y-3.94
X6.81Y-4.36
X6.9Y-4.15
X7.05Y-3.94
X7.05Y-4.36
X7.29Y-3.94
X7.29Y-4.36
X7.53Y-3.94
X7.53Y-4.36
X7.68Y-4.15
X7.77Y-3.94
X7.77Y-4.36
X8.01Y-3.94
X8.01Y-4.36
X8.25Y-3.94
X8.25Y-4.36
X8.45Y-4.
X8.45Y-4.3
X8.46Y-4.15
X8.56Y-4.15
T2
X4.075Y-4.
X4.075Y-4.1
X4.075Y-4.2
X4.075Y-4.3
X4.075Y-4.4
X4.075Y-4.5
X4.075Y-4.6
X4.075Y-4.7
X4.075Y-4.8
X4.075Y-4.9
T3
X4.45Y-4.
X4.45Y-4.1
X4.45Y-4.2
X4.45Y-4.7
X4.45Y-4.8
X4.45Y-4.9
X4.55Y-4.
X4.55Y-4.1
X4.55Y-4.2
X4.55Y-4.7
X4.55Y-4.8
X4.55Y-4.9
X4.9Y-4.05
X4.9Y-4.15
X4.9Y-4.25
X4.9Y-4.65
X4.9Y-4.75
X4.9Y-4.85
X5.Y-4.05
X5.Y-4.15
X5.Y-4.25
X5.Y-4.65
X5.Y-4.75
X5.Y-4.85
T0
M30
